%TF.GenerationSoftware,KiCad,Pcbnew,5.1.8*%
%TF.CreationDate,2021-01-05T10:04:31+01:00*%
%TF.ProjectId,pislice,7069736c-6963-4652-9e6b-696361645f70,rev?*%
%TF.SameCoordinates,Original*%
%TF.FileFunction,Plated,1,4,PTH,Drill*%
%TF.FilePolarity,Positive*%
%FSLAX46Y46*%
G04 Gerber Fmt 4.6, Leading zero omitted, Abs format (unit mm)*
G04 Created by KiCad (PCBNEW 5.1.8) date 2021-01-05 10:04:31*
%MOMM*%
%LPD*%
G01*
G04 APERTURE LIST*
%TA.AperFunction,ViaDrill*%
%ADD10C,0.200000*%
%TD*%
%TA.AperFunction,ViaDrill*%
%ADD11C,0.300000*%
%TD*%
%TA.AperFunction,ComponentDrill*%
%ADD12C,2.600000*%
%TD*%
G04 APERTURE END LIST*
D10*
X92100000Y-88700000D03*
X94200000Y-90600000D03*
X94200000Y-91200000D03*
X94200000Y-91800000D03*
X94200000Y-92400000D03*
X94200000Y-93000000D03*
X94800000Y-90600000D03*
X94800000Y-91200000D03*
X94800000Y-91800000D03*
X94800000Y-92400000D03*
X94800000Y-93000000D03*
X95400000Y-90600000D03*
X95400000Y-91200000D03*
X95400000Y-91800000D03*
X95400000Y-92400000D03*
X95400000Y-93000000D03*
X96300000Y-87200000D03*
X97200000Y-92500000D03*
X97200000Y-93300000D03*
X97200000Y-94100000D03*
X97954821Y-79018439D03*
X98740000Y-86600000D03*
X99412044Y-78850808D03*
X99936463Y-79024426D03*
X100000000Y-90250000D03*
X100150000Y-74642770D03*
X100150000Y-76252410D03*
X100200000Y-92500000D03*
X100200000Y-93300000D03*
X100200000Y-94100000D03*
X100220000Y-85800000D03*
X100750000Y-90250000D03*
X101200000Y-78819276D03*
X101750000Y-85100000D03*
X103550000Y-76050000D03*
X103650000Y-79650000D03*
X103900000Y-72100000D03*
X104300000Y-81300000D03*
X104600000Y-76000000D03*
X104700000Y-90200000D03*
X104900000Y-85100000D03*
X104900000Y-86623800D03*
X104900000Y-87176200D03*
X106700000Y-76000000D03*
X106900000Y-77550000D03*
X107250000Y-93350000D03*
X108000000Y-88200000D03*
X110000000Y-75200000D03*
X110250000Y-92500000D03*
X110250000Y-93350000D03*
X110400000Y-90600000D03*
X110404697Y-85204697D03*
X110500000Y-82900000D03*
X110795303Y-85595303D03*
X110900000Y-87023800D03*
X110900000Y-87576200D03*
X111000000Y-79200000D03*
X112300000Y-75200000D03*
X112800000Y-87800000D03*
X113200000Y-82600000D03*
X113250000Y-92500000D03*
X113250000Y-93350000D03*
X113400000Y-90400000D03*
X113700000Y-76700000D03*
X115200000Y-85200000D03*
X117500000Y-72300000D03*
X120000000Y-72200000D03*
X120200000Y-82400000D03*
X124504697Y-88604697D03*
X124895303Y-88995303D03*
X126400000Y-81000000D03*
X127000000Y-83800000D03*
X128300000Y-92400000D03*
X128600000Y-99300000D03*
X128700000Y-83800000D03*
X133000000Y-71000000D03*
X134400000Y-105900000D03*
X134600000Y-71000000D03*
X135000000Y-98600000D03*
X136000000Y-71000000D03*
X137600000Y-71000000D03*
X139200000Y-71800000D03*
X139700000Y-75800000D03*
X140000000Y-72350000D03*
X141400000Y-73200000D03*
X141900000Y-76504821D03*
X143200000Y-70800000D03*
X143650000Y-73050000D03*
X144000000Y-70800000D03*
X146400000Y-70700000D03*
X148000000Y-72800000D03*
X148800000Y-70700000D03*
X149000000Y-72600000D03*
X149800000Y-72700000D03*
X150600000Y-75500000D03*
X151000000Y-73000000D03*
X151000000Y-104200000D03*
X151800000Y-76200000D03*
X151900000Y-107200000D03*
X152500000Y-70700000D03*
X153000000Y-73000000D03*
X154400000Y-70700000D03*
X155323800Y-106800000D03*
X155800000Y-72500000D03*
X155876200Y-106800000D03*
X156100000Y-75800000D03*
X156500000Y-70700000D03*
X157000000Y-80500000D03*
X157149902Y-72770258D03*
X157243401Y-72223952D03*
X157300000Y-104100000D03*
X157400000Y-73400000D03*
X157604697Y-107495303D03*
X157995303Y-107104697D03*
X158100000Y-79000000D03*
X158200000Y-73600000D03*
X158500000Y-101700000D03*
X159200000Y-75800000D03*
X160000000Y-77000000D03*
X160400000Y-71800000D03*
X161500000Y-107600000D03*
X162900000Y-103800000D03*
X163200000Y-72900000D03*
X163500000Y-103400000D03*
X164200000Y-99800000D03*
X164900000Y-104200000D03*
X165000000Y-81500000D03*
X165000000Y-84000000D03*
X165000000Y-87000000D03*
X167400000Y-84800000D03*
X167400000Y-85600000D03*
X167400000Y-86400000D03*
X167400000Y-87200000D03*
X167400000Y-88000000D03*
X167400000Y-89000000D03*
X167800000Y-78500000D03*
X167800000Y-79200000D03*
X167800000Y-80000000D03*
X167900000Y-74000000D03*
X167900000Y-74800000D03*
X169300000Y-72900000D03*
X169500000Y-102423800D03*
X169500000Y-102976200D03*
X172100000Y-93700000D03*
X174000000Y-76000000D03*
X175000000Y-80000000D03*
X175500000Y-85500000D03*
X175500000Y-89000000D03*
X176000000Y-94000000D03*
X179000000Y-74000000D03*
X179000000Y-76000000D03*
X179000000Y-78000000D03*
X179000000Y-80000000D03*
X179000000Y-82000000D03*
X179100000Y-71900000D03*
D11*
X101300000Y-73850000D03*
X101300000Y-77462054D03*
X102800000Y-90350000D03*
X142350000Y-73050000D03*
X144950000Y-73050000D03*
D12*
%TO.C,U1*%
X93750000Y-81400000D03*
X93750000Y-81400000D03*
M02*
