G04 #@! TF.GenerationSoftware,KiCad,Pcbnew,5.1.8*
G04 #@! TF.CreationDate,2021-01-05T10:04:31+01:00*
G04 #@! TF.ProjectId,pislice,7069736c-6963-4652-9e6b-696361645f70,rev?*
G04 #@! TF.SameCoordinates,Original*
G04 #@! TF.FileFunction,Soldermask,Bot*
G04 #@! TF.FilePolarity,Negative*
%FSLAX46Y46*%
G04 Gerber Fmt 4.6, Leading zero omitted, Abs format (unit mm)*
G04 Created by KiCad (PCBNEW 5.1.8) date 2021-01-05 10:04:31*
%MOMM*%
%LPD*%
G01*
G04 APERTURE LIST*
%ADD10C,5.000000*%
%ADD11R,2.750000X1.200000*%
%ADD12R,1.550000X0.300000*%
%ADD13C,3.000000*%
%ADD14R,0.700000X4.300000*%
%ADD15R,0.700000X3.200000*%
%ADD16R,1.000000X1.000000*%
%ADD17R,1.000000X1.500000*%
%ADD18C,6.100000*%
G04 APERTURE END LIST*
D10*
G04 #@! TO.C,U1*
X93750000Y-81400000D03*
D11*
X176500000Y-71050000D03*
X176500000Y-91750000D03*
D12*
X177275000Y-72150000D03*
X169725000Y-72400000D03*
X177275000Y-72650000D03*
X169725000Y-72900000D03*
X177275000Y-73150000D03*
X169725000Y-73400000D03*
X177275000Y-73650000D03*
X169725000Y-73900000D03*
X177275000Y-74150000D03*
X169725000Y-74400000D03*
X177275000Y-74650000D03*
X169725000Y-74900000D03*
X177275000Y-75150000D03*
X169725000Y-75400000D03*
X177275000Y-75650000D03*
X169725000Y-75900000D03*
X177275000Y-76150000D03*
X169725000Y-76400000D03*
X177275000Y-76650000D03*
X169725000Y-76900000D03*
X177275000Y-77150000D03*
X169725000Y-77400000D03*
X177275000Y-77650000D03*
X169725000Y-77900000D03*
X177275000Y-78150000D03*
X169725000Y-78400000D03*
X177275000Y-78650000D03*
X169725000Y-78900000D03*
X177275000Y-79150000D03*
X169725000Y-79400000D03*
X177275000Y-79650000D03*
X169725000Y-79900000D03*
X177275000Y-80150000D03*
X169725000Y-80400000D03*
X177275000Y-80650000D03*
X169725000Y-80900000D03*
X177275000Y-81150000D03*
X169725000Y-81400000D03*
X177275000Y-81650000D03*
X169725000Y-81900000D03*
X177275000Y-82150000D03*
X169725000Y-82400000D03*
X177275000Y-82650000D03*
X169725000Y-82900000D03*
X177275000Y-83150000D03*
X169725000Y-83400000D03*
X177275000Y-83650000D03*
X169725000Y-83900000D03*
X177275000Y-84150000D03*
X169725000Y-84400000D03*
X177275000Y-84650000D03*
X169725000Y-84900000D03*
X177275000Y-85150000D03*
X169725000Y-85400000D03*
X177275000Y-85650000D03*
X169725000Y-85900000D03*
X177275000Y-88150000D03*
X169725000Y-88400000D03*
X177275000Y-88650000D03*
X169725000Y-88900000D03*
X177275000Y-89150000D03*
X169725000Y-89400000D03*
X177275000Y-89650000D03*
X169725000Y-89900000D03*
X177275000Y-90150000D03*
X169725000Y-90400000D03*
X177275000Y-90650000D03*
X169725000Y-87900000D03*
X169725000Y-87400000D03*
X169725000Y-86900000D03*
X169725000Y-86400000D03*
X177275000Y-87650000D03*
X177275000Y-87150000D03*
X177275000Y-86650000D03*
X177275000Y-86150000D03*
D13*
X93750000Y-81400000D03*
G04 #@! TD*
D14*
G04 #@! TO.C,U14*
X108240000Y-97350000D03*
X107240000Y-97350000D03*
X113240000Y-97350000D03*
X112240000Y-97350000D03*
X111240000Y-97350000D03*
X110240000Y-97350000D03*
X109240000Y-97350000D03*
X104240000Y-97350000D03*
X103240000Y-97350000D03*
X102240000Y-97350000D03*
X101240000Y-97350000D03*
X100240000Y-97350000D03*
X99240000Y-97350000D03*
X98240000Y-97350000D03*
X97240000Y-97350000D03*
X96240000Y-97350000D03*
X95240000Y-97350000D03*
D15*
X94240000Y-96800000D03*
G04 #@! TD*
D16*
G04 #@! TO.C,TP1*
X146980000Y-73000000D03*
G04 #@! TD*
G04 #@! TO.C,R5*
G36*
G01*
X166707000Y-70591000D02*
X166707000Y-71141000D01*
G75*
G02*
X166507000Y-71341000I-200000J0D01*
G01*
X166107000Y-71341000D01*
G75*
G02*
X165907000Y-71141000I0J200000D01*
G01*
X165907000Y-70591000D01*
G75*
G02*
X166107000Y-70391000I200000J0D01*
G01*
X166507000Y-70391000D01*
G75*
G02*
X166707000Y-70591000I0J-200000D01*
G01*
G37*
G36*
G01*
X168357000Y-70591000D02*
X168357000Y-71141000D01*
G75*
G02*
X168157000Y-71341000I-200000J0D01*
G01*
X167757000Y-71341000D01*
G75*
G02*
X167557000Y-71141000I0J200000D01*
G01*
X167557000Y-70591000D01*
G75*
G02*
X167757000Y-70391000I200000J0D01*
G01*
X168157000Y-70391000D01*
G75*
G02*
X168357000Y-70591000I0J-200000D01*
G01*
G37*
G04 #@! TD*
D17*
G04 #@! TO.C,JP1*
X143650000Y-73050000D03*
X142350000Y-73050000D03*
X144950000Y-73050000D03*
G04 #@! TD*
D18*
G04 #@! TO.C,U2*
X176500000Y-106500000D03*
X128500000Y-106500000D03*
X128500000Y-73500000D03*
G04 #@! TD*
M02*
