G04 #@! TF.GenerationSoftware,KiCad,Pcbnew,5.1.8*
G04 #@! TF.CreationDate,2021-01-05T10:04:31+01:00*
G04 #@! TF.ProjectId,pislice,7069736c-6963-4652-9e6b-696361645f70,rev?*
G04 #@! TF.SameCoordinates,Original*
G04 #@! TF.FileFunction,Legend,Bot*
G04 #@! TF.FilePolarity,Positive*
%FSLAX46Y46*%
G04 Gerber Fmt 4.6, Leading zero omitted, Abs format (unit mm)*
G04 Created by KiCad (PCBNEW 5.1.8) date 2021-01-05 10:04:31*
%MOMM*%
%LPD*%
G01*
G04 APERTURE LIST*
%ADD10C,0.100000*%
%ADD11C,0.150000*%
%ADD12C,0.120000*%
%ADD13C,5.000000*%
%ADD14R,2.750000X1.200000*%
%ADD15R,1.550000X0.300000*%
%ADD16C,3.000000*%
%ADD17R,0.700000X4.300000*%
%ADD18R,0.700000X3.200000*%
%ADD19R,1.000000X1.000000*%
%ADD20R,1.000000X1.500000*%
%ADD21C,6.100000*%
G04 APERTURE END LIST*
D10*
X94526190Y-94187380D02*
X94526190Y-93949285D01*
X94764285Y-93925476D01*
X94740476Y-93949285D01*
X94716666Y-93996904D01*
X94716666Y-94115952D01*
X94740476Y-94163571D01*
X94764285Y-94187380D01*
X94811904Y-94211190D01*
X94930952Y-94211190D01*
X94978571Y-94187380D01*
X95002380Y-94163571D01*
X95026190Y-94115952D01*
X95026190Y-93996904D01*
X95002380Y-93949285D01*
X94978571Y-93925476D01*
X94526190Y-94354047D02*
X95026190Y-94520714D01*
X94526190Y-94687380D01*
X104330951Y-93401666D02*
X104354761Y-93354047D01*
X104354761Y-93258809D01*
X104330951Y-93211190D01*
X104283332Y-93187380D01*
X104092856Y-93187380D01*
X104045237Y-93211190D01*
X104021428Y-93258809D01*
X104021428Y-93354047D01*
X104045237Y-93401666D01*
X104092856Y-93425476D01*
X104140475Y-93425476D01*
X104188094Y-93187380D01*
X104021428Y-93568333D02*
X104021428Y-93758809D01*
X103854761Y-93639761D02*
X104283332Y-93639761D01*
X104330951Y-93663571D01*
X104354761Y-93711190D01*
X104354761Y-93758809D01*
X104354761Y-93925476D02*
X103854761Y-93925476D01*
X104354761Y-94139761D02*
X104092856Y-94139761D01*
X104045237Y-94115952D01*
X104021428Y-94068333D01*
X104021428Y-93996904D01*
X104045237Y-93949285D01*
X104069047Y-93925476D01*
X103902380Y-94354047D02*
X103878571Y-94377857D01*
X103854761Y-94425476D01*
X103854761Y-94544523D01*
X103878571Y-94592142D01*
X103902380Y-94615952D01*
X103949999Y-94639761D01*
X103997618Y-94639761D01*
X104069047Y-94615952D01*
X104354761Y-94330238D01*
X104354761Y-94639761D01*
X103330951Y-93401666D02*
X103354761Y-93354047D01*
X103354761Y-93258809D01*
X103330951Y-93211190D01*
X103283332Y-93187380D01*
X103092856Y-93187380D01*
X103045237Y-93211190D01*
X103021428Y-93258809D01*
X103021428Y-93354047D01*
X103045237Y-93401666D01*
X103092856Y-93425476D01*
X103140475Y-93425476D01*
X103188094Y-93187380D01*
X103021428Y-93568333D02*
X103021428Y-93758809D01*
X102854761Y-93639761D02*
X103283332Y-93639761D01*
X103330951Y-93663571D01*
X103354761Y-93711190D01*
X103354761Y-93758809D01*
X103354761Y-93925476D02*
X102854761Y-93925476D01*
X103354761Y-94139761D02*
X103092856Y-94139761D01*
X103045237Y-94115952D01*
X103021428Y-94068333D01*
X103021428Y-93996904D01*
X103045237Y-93949285D01*
X103069047Y-93925476D01*
X102854761Y-94330238D02*
X102854761Y-94639761D01*
X103045237Y-94473095D01*
X103045237Y-94544523D01*
X103069047Y-94592142D01*
X103092856Y-94615952D01*
X103140475Y-94639761D01*
X103259523Y-94639761D01*
X103307142Y-94615952D01*
X103330951Y-94592142D01*
X103354761Y-94544523D01*
X103354761Y-94401666D01*
X103330951Y-94354047D01*
X103307142Y-94330238D01*
X102354761Y-92996904D02*
X102021428Y-92996904D01*
X102116666Y-92996904D02*
X102069047Y-93020714D01*
X102045237Y-93044523D01*
X102021428Y-93092142D01*
X102021428Y-93139761D01*
X102330951Y-93496904D02*
X102354761Y-93449285D01*
X102354761Y-93354047D01*
X102330951Y-93306428D01*
X102283332Y-93282619D01*
X102092856Y-93282619D01*
X102045237Y-93306428D01*
X102021428Y-93354047D01*
X102021428Y-93449285D01*
X102045237Y-93496904D01*
X102092856Y-93520714D01*
X102140475Y-93520714D01*
X102188094Y-93282619D01*
X102330951Y-93711190D02*
X102354761Y-93758809D01*
X102354761Y-93854047D01*
X102330951Y-93901666D01*
X102283332Y-93925476D01*
X102259523Y-93925476D01*
X102211904Y-93901666D01*
X102188094Y-93854047D01*
X102188094Y-93782619D01*
X102164285Y-93735000D01*
X102116666Y-93711190D01*
X102092856Y-93711190D01*
X102045237Y-93735000D01*
X102021428Y-93782619D01*
X102021428Y-93854047D01*
X102045237Y-93901666D01*
X102330951Y-94330238D02*
X102354761Y-94282619D01*
X102354761Y-94187380D01*
X102330951Y-94139761D01*
X102283332Y-94115952D01*
X102092856Y-94115952D01*
X102045237Y-94139761D01*
X102021428Y-94187380D01*
X102021428Y-94282619D01*
X102045237Y-94330238D01*
X102092856Y-94354047D01*
X102140475Y-94354047D01*
X102188094Y-94115952D01*
X102021428Y-94496904D02*
X102021428Y-94687380D01*
X101854761Y-94568333D02*
X102283332Y-94568333D01*
X102330951Y-94592142D01*
X102354761Y-94639761D01*
X102354761Y-94687380D01*
X101554761Y-93901666D02*
X101292856Y-93901666D01*
X101245237Y-93877857D01*
X101221428Y-93830238D01*
X101221428Y-93735000D01*
X101245237Y-93687380D01*
X101530951Y-93901666D02*
X101554761Y-93854047D01*
X101554761Y-93735000D01*
X101530951Y-93687380D01*
X101483332Y-93663571D01*
X101435713Y-93663571D01*
X101388094Y-93687380D01*
X101364285Y-93735000D01*
X101364285Y-93854047D01*
X101340475Y-93901666D01*
X101530951Y-94354047D02*
X101554761Y-94306428D01*
X101554761Y-94211190D01*
X101530951Y-94163571D01*
X101507142Y-94139761D01*
X101459523Y-94115952D01*
X101316666Y-94115952D01*
X101269047Y-94139761D01*
X101245237Y-94163571D01*
X101221428Y-94211190D01*
X101221428Y-94306428D01*
X101245237Y-94354047D01*
X101221428Y-94496904D02*
X101221428Y-94687380D01*
X101054761Y-94568333D02*
X101483332Y-94568333D01*
X101530951Y-94592142D01*
X101554761Y-94639761D01*
X101554761Y-94687380D01*
X98221428Y-92496904D02*
X98554761Y-92496904D01*
X98221428Y-92282619D02*
X98483332Y-92282619D01*
X98530951Y-92306428D01*
X98554761Y-92354047D01*
X98554761Y-92425476D01*
X98530951Y-92473095D01*
X98507142Y-92496904D01*
X98554761Y-92949285D02*
X98292856Y-92949285D01*
X98245237Y-92925476D01*
X98221428Y-92877857D01*
X98221428Y-92782619D01*
X98245237Y-92735000D01*
X98530951Y-92949285D02*
X98554761Y-92901666D01*
X98554761Y-92782619D01*
X98530951Y-92735000D01*
X98483332Y-92711190D01*
X98435713Y-92711190D01*
X98388094Y-92735000D01*
X98364285Y-92782619D01*
X98364285Y-92901666D01*
X98340475Y-92949285D01*
X98554761Y-93187380D02*
X98221428Y-93187380D01*
X98316666Y-93187380D02*
X98269047Y-93211190D01*
X98245237Y-93235000D01*
X98221428Y-93282619D01*
X98221428Y-93330238D01*
X98221428Y-93425476D02*
X98221428Y-93615952D01*
X98054761Y-93496904D02*
X98483332Y-93496904D01*
X98530951Y-93520714D01*
X98554761Y-93568333D01*
X98554761Y-93615952D01*
X98602380Y-93663571D02*
X98602380Y-94044523D01*
X98221428Y-94092142D02*
X98221428Y-94282619D01*
X98054761Y-94163571D02*
X98483332Y-94163571D01*
X98530951Y-94187380D01*
X98554761Y-94235000D01*
X98554761Y-94282619D01*
X98554761Y-94401666D02*
X98221428Y-94663571D01*
X98221428Y-94401666D02*
X98554761Y-94663571D01*
X99021428Y-92473095D02*
X99354761Y-92473095D01*
X99021428Y-92258809D02*
X99283332Y-92258809D01*
X99330951Y-92282619D01*
X99354761Y-92330238D01*
X99354761Y-92401666D01*
X99330951Y-92449285D01*
X99307142Y-92473095D01*
X99354761Y-92925476D02*
X99092856Y-92925476D01*
X99045237Y-92901666D01*
X99021428Y-92854047D01*
X99021428Y-92758809D01*
X99045237Y-92711190D01*
X99330951Y-92925476D02*
X99354761Y-92877857D01*
X99354761Y-92758809D01*
X99330951Y-92711190D01*
X99283332Y-92687380D01*
X99235713Y-92687380D01*
X99188094Y-92711190D01*
X99164285Y-92758809D01*
X99164285Y-92877857D01*
X99140475Y-92925476D01*
X99354761Y-93163571D02*
X99021428Y-93163571D01*
X99116666Y-93163571D02*
X99069047Y-93187380D01*
X99045237Y-93211190D01*
X99021428Y-93258809D01*
X99021428Y-93306428D01*
X99021428Y-93401666D02*
X99021428Y-93592142D01*
X98854761Y-93473095D02*
X99283332Y-93473095D01*
X99330951Y-93496904D01*
X99354761Y-93544523D01*
X99354761Y-93592142D01*
X99402380Y-93639761D02*
X99402380Y-94020714D01*
X99354761Y-94139761D02*
X99021428Y-94139761D01*
X99116666Y-94139761D02*
X99069047Y-94163571D01*
X99045237Y-94187380D01*
X99021428Y-94235000D01*
X99021428Y-94282619D01*
X99354761Y-94401666D02*
X99021428Y-94663571D01*
X99021428Y-94401666D02*
X99354761Y-94663571D01*
D11*
G04 #@! TO.C,U1*
X177250000Y-90950000D02*
X178200000Y-90950000D01*
X178200000Y-90950000D02*
X178200000Y-90400000D01*
X170950000Y-70450000D02*
X174950000Y-70450000D01*
X170950000Y-92350000D02*
X174950000Y-92350000D01*
X170950000Y-70450000D02*
X170950000Y-71650000D01*
X170950000Y-71650000D02*
X169750000Y-71650000D01*
X169750000Y-71650000D02*
X169750000Y-72100000D01*
X169750000Y-90700000D02*
X169750000Y-91150000D01*
X169750000Y-91150000D02*
X170950000Y-91150000D01*
X170950000Y-91150000D02*
X170950000Y-92350000D01*
D12*
G04 #@! TO.C,TP1*
X146280000Y-72300000D02*
X146280000Y-73700000D01*
X147680000Y-72300000D02*
X146280000Y-72300000D01*
X147680000Y-73700000D02*
X147680000Y-72300000D01*
X146280000Y-73700000D02*
X147680000Y-73700000D01*
G04 #@! TO.C,R5*
X167369258Y-71388500D02*
X166894742Y-71388500D01*
X167369258Y-70343500D02*
X166894742Y-70343500D01*
G04 #@! TO.C,JP1*
X145700000Y-72050000D02*
X141600000Y-72050000D01*
X141600000Y-72050000D02*
X141600000Y-74050000D01*
X141600000Y-74050000D02*
X145700000Y-74050000D01*
X145700000Y-74050000D02*
X145700000Y-72050000D01*
X144950000Y-74250000D02*
X145250000Y-74550000D01*
X145250000Y-74550000D02*
X144650000Y-74550000D01*
X144950000Y-74250000D02*
X144650000Y-74550000D01*
G04 #@! TO.C,TP1*
D10*
X147610952Y-74174190D02*
X147325238Y-74174190D01*
X147468095Y-74674190D02*
X147468095Y-74174190D01*
X147158571Y-74674190D02*
X147158571Y-74174190D01*
X146968095Y-74174190D01*
X146920476Y-74198000D01*
X146896666Y-74221809D01*
X146872857Y-74269428D01*
X146872857Y-74340857D01*
X146896666Y-74388476D01*
X146920476Y-74412285D01*
X146968095Y-74436095D01*
X147158571Y-74436095D01*
X146396666Y-74674190D02*
X146682380Y-74674190D01*
X146539523Y-74674190D02*
X146539523Y-74174190D01*
X146587142Y-74245619D01*
X146634761Y-74293238D01*
X146682380Y-74317047D01*
G04 #@! TO.C,R5*
X164965333Y-71092190D02*
X165132000Y-70854095D01*
X165251047Y-71092190D02*
X165251047Y-70592190D01*
X165060571Y-70592190D01*
X165012952Y-70616000D01*
X164989142Y-70639809D01*
X164965333Y-70687428D01*
X164965333Y-70758857D01*
X164989142Y-70806476D01*
X165012952Y-70830285D01*
X165060571Y-70854095D01*
X165251047Y-70854095D01*
X164512952Y-70592190D02*
X164751047Y-70592190D01*
X164774857Y-70830285D01*
X164751047Y-70806476D01*
X164703428Y-70782666D01*
X164584380Y-70782666D01*
X164536761Y-70806476D01*
X164512952Y-70830285D01*
X164489142Y-70877904D01*
X164489142Y-70996952D01*
X164512952Y-71044571D01*
X164536761Y-71068380D01*
X164584380Y-71092190D01*
X164703428Y-71092190D01*
X164751047Y-71068380D01*
X164774857Y-71044571D01*
G04 #@! TO.C,JP1*
X144316666Y-74326190D02*
X144316666Y-74683333D01*
X144340476Y-74754761D01*
X144388095Y-74802380D01*
X144459523Y-74826190D01*
X144507142Y-74826190D01*
X144078571Y-74826190D02*
X144078571Y-74326190D01*
X143888095Y-74326190D01*
X143840476Y-74350000D01*
X143816666Y-74373809D01*
X143792857Y-74421428D01*
X143792857Y-74492857D01*
X143816666Y-74540476D01*
X143840476Y-74564285D01*
X143888095Y-74588095D01*
X144078571Y-74588095D01*
X143316666Y-74826190D02*
X143602380Y-74826190D01*
X143459523Y-74826190D02*
X143459523Y-74326190D01*
X143507142Y-74397619D01*
X143554761Y-74445238D01*
X143602380Y-74469047D01*
G04 #@! TD*
%LPC*%
D13*
G04 #@! TO.C,U1*
X93750000Y-81400000D03*
D14*
X176500000Y-71050000D03*
X176500000Y-91750000D03*
D15*
X177275000Y-72150000D03*
X169725000Y-72400000D03*
X177275000Y-72650000D03*
X169725000Y-72900000D03*
X177275000Y-73150000D03*
X169725000Y-73400000D03*
X177275000Y-73650000D03*
X169725000Y-73900000D03*
X177275000Y-74150000D03*
X169725000Y-74400000D03*
X177275000Y-74650000D03*
X169725000Y-74900000D03*
X177275000Y-75150000D03*
X169725000Y-75400000D03*
X177275000Y-75650000D03*
X169725000Y-75900000D03*
X177275000Y-76150000D03*
X169725000Y-76400000D03*
X177275000Y-76650000D03*
X169725000Y-76900000D03*
X177275000Y-77150000D03*
X169725000Y-77400000D03*
X177275000Y-77650000D03*
X169725000Y-77900000D03*
X177275000Y-78150000D03*
X169725000Y-78400000D03*
X177275000Y-78650000D03*
X169725000Y-78900000D03*
X177275000Y-79150000D03*
X169725000Y-79400000D03*
X177275000Y-79650000D03*
X169725000Y-79900000D03*
X177275000Y-80150000D03*
X169725000Y-80400000D03*
X177275000Y-80650000D03*
X169725000Y-80900000D03*
X177275000Y-81150000D03*
X169725000Y-81400000D03*
X177275000Y-81650000D03*
X169725000Y-81900000D03*
X177275000Y-82150000D03*
X169725000Y-82400000D03*
X177275000Y-82650000D03*
X169725000Y-82900000D03*
X177275000Y-83150000D03*
X169725000Y-83400000D03*
X177275000Y-83650000D03*
X169725000Y-83900000D03*
X177275000Y-84150000D03*
X169725000Y-84400000D03*
X177275000Y-84650000D03*
X169725000Y-84900000D03*
X177275000Y-85150000D03*
X169725000Y-85400000D03*
X177275000Y-85650000D03*
X169725000Y-85900000D03*
X177275000Y-88150000D03*
X169725000Y-88400000D03*
X177275000Y-88650000D03*
X169725000Y-88900000D03*
X177275000Y-89150000D03*
X169725000Y-89400000D03*
X177275000Y-89650000D03*
X169725000Y-89900000D03*
X177275000Y-90150000D03*
X169725000Y-90400000D03*
X177275000Y-90650000D03*
X169725000Y-87900000D03*
X169725000Y-87400000D03*
X169725000Y-86900000D03*
X169725000Y-86400000D03*
X177275000Y-87650000D03*
X177275000Y-87150000D03*
X177275000Y-86650000D03*
X177275000Y-86150000D03*
D16*
X93750000Y-81400000D03*
G04 #@! TD*
D17*
G04 #@! TO.C,U14*
X108240000Y-97350000D03*
X107240000Y-97350000D03*
X113240000Y-97350000D03*
X112240000Y-97350000D03*
X111240000Y-97350000D03*
X110240000Y-97350000D03*
X109240000Y-97350000D03*
X104240000Y-97350000D03*
X103240000Y-97350000D03*
X102240000Y-97350000D03*
X101240000Y-97350000D03*
X100240000Y-97350000D03*
X99240000Y-97350000D03*
X98240000Y-97350000D03*
X97240000Y-97350000D03*
X96240000Y-97350000D03*
X95240000Y-97350000D03*
D18*
X94240000Y-96800000D03*
G04 #@! TD*
D19*
G04 #@! TO.C,TP1*
X146980000Y-73000000D03*
G04 #@! TD*
G04 #@! TO.C,R5*
G36*
G01*
X166707000Y-70591000D02*
X166707000Y-71141000D01*
G75*
G02*
X166507000Y-71341000I-200000J0D01*
G01*
X166107000Y-71341000D01*
G75*
G02*
X165907000Y-71141000I0J200000D01*
G01*
X165907000Y-70591000D01*
G75*
G02*
X166107000Y-70391000I200000J0D01*
G01*
X166507000Y-70391000D01*
G75*
G02*
X166707000Y-70591000I0J-200000D01*
G01*
G37*
G36*
G01*
X168357000Y-70591000D02*
X168357000Y-71141000D01*
G75*
G02*
X168157000Y-71341000I-200000J0D01*
G01*
X167757000Y-71341000D01*
G75*
G02*
X167557000Y-71141000I0J200000D01*
G01*
X167557000Y-70591000D01*
G75*
G02*
X167757000Y-70391000I200000J0D01*
G01*
X168157000Y-70391000D01*
G75*
G02*
X168357000Y-70591000I0J-200000D01*
G01*
G37*
G04 #@! TD*
D20*
G04 #@! TO.C,JP1*
X143650000Y-73050000D03*
X142350000Y-73050000D03*
X144950000Y-73050000D03*
G04 #@! TD*
D21*
G04 #@! TO.C,U2*
X176500000Y-106500000D03*
X128500000Y-106500000D03*
X128500000Y-73500000D03*
G04 #@! TD*
M02*
