G04 #@! TF.GenerationSoftware,KiCad,Pcbnew,5.1.8*
G04 #@! TF.CreationDate,2021-01-05T10:04:31+01:00*
G04 #@! TF.ProjectId,pislice,7069736c-6963-4652-9e6b-696361645f70,rev?*
G04 #@! TF.SameCoordinates,Original*
G04 #@! TF.FileFunction,Profile,NP*
%FSLAX46Y46*%
G04 Gerber Fmt 4.6, Leading zero omitted, Abs format (unit mm)*
G04 Created by KiCad (PCBNEW 5.1.8) date 2021-01-05 10:04:31*
%MOMM*%
%LPD*%
G01*
G04 APERTURE LIST*
G04 #@! TA.AperFunction,Profile*
%ADD10C,0.050000*%
G04 #@! TD*
G04 #@! TA.AperFunction,Profile*
%ADD11C,0.100000*%
G04 #@! TD*
G04 APERTURE END LIST*
D10*
X113890000Y-92200000D02*
X113890000Y-92400000D01*
X93590000Y-92200000D02*
X93590000Y-92400000D01*
X90000000Y-88000000D02*
X90000000Y-91700000D01*
X125000000Y-92700000D02*
X125000000Y-93000000D01*
X125000000Y-95500000D02*
X125000000Y-100500000D01*
X90500000Y-70000000D02*
X90000000Y-70500000D01*
X90000000Y-70500000D02*
X90000000Y-88000000D01*
X124500000Y-92200000D02*
X113890000Y-92200000D01*
X138500000Y-110000000D02*
X125500000Y-110000000D01*
X145500000Y-110000000D02*
X138500000Y-110000000D01*
X93000000Y-92200000D02*
X93500000Y-92200000D01*
X124500000Y-92200000D02*
X125000000Y-92700000D01*
X90000000Y-91700000D02*
X90500000Y-92200000D01*
X125000000Y-109500000D02*
X125500000Y-110000000D01*
X179500000Y-70000000D02*
X180000000Y-70500000D01*
X179500000Y-110000000D02*
X180000000Y-109500000D01*
X93500000Y-92200000D02*
X93590000Y-92200000D01*
X90500000Y-92200000D02*
X93000000Y-92200000D01*
X125000000Y-95500000D02*
X125000000Y-93000000D01*
X145500000Y-110000000D02*
X179500000Y-110000000D01*
X125000000Y-100500000D02*
X125000000Y-109500000D01*
X180000000Y-109500000D02*
X180000000Y-70500000D01*
X179500000Y-70000000D02*
X90500000Y-70000000D01*
D11*
G04 #@! TO.C,U14*
X113890000Y-100300000D02*
X113390000Y-100800000D01*
X106690000Y-100300000D02*
X107190000Y-100800000D01*
X104790000Y-100300000D02*
X104290000Y-100800000D01*
X93590000Y-100300000D02*
X94090000Y-100800000D01*
X107190000Y-100800000D02*
X113390000Y-100800000D01*
X113890000Y-92400000D02*
X113890000Y-100300000D01*
X94090000Y-100800000D02*
X104290000Y-100800000D01*
X93590000Y-92400000D02*
X93590000Y-100300000D01*
X106690000Y-93350000D02*
X106690000Y-100300000D01*
X104790000Y-93350000D02*
X104790000Y-100300000D01*
X104790000Y-93350000D02*
G75*
G02*
X106690000Y-93350000I950000J0D01*
G01*
G04 #@! TD*
M02*
