G04 #@! TF.GenerationSoftware,KiCad,Pcbnew,5.1.8*
G04 #@! TF.CreationDate,2021-01-05T10:04:31+01:00*
G04 #@! TF.ProjectId,pislice,7069736c-6963-4652-9e6b-696361645f70,rev?*
G04 #@! TF.SameCoordinates,Original*
G04 #@! TF.FileFunction,Paste,Top*
G04 #@! TF.FilePolarity,Positive*
%FSLAX46Y46*%
G04 Gerber Fmt 4.6, Leading zero omitted, Abs format (unit mm)*
G04 Created by KiCad (PCBNEW 5.1.8) date 2021-01-05 10:04:31*
%MOMM*%
%LPD*%
G01*
G04 APERTURE LIST*
%ADD10R,0.160000X0.560000*%
%ADD11R,1.200000X1.600000*%
%ADD12R,3.040000X1.600000*%
%ADD13R,1.584960X0.548640*%
G04 APERTURE END LIST*
D10*
G04 #@! TO.C,X3*
X140190000Y-108500000D03*
X140190000Y-105420000D03*
X140590000Y-108500000D03*
X140590000Y-105420000D03*
X140990000Y-108500000D03*
X140990000Y-105420000D03*
X141390000Y-108500000D03*
X141390000Y-105420000D03*
X141790000Y-108500000D03*
X141790000Y-105420000D03*
X142190000Y-108500000D03*
X142190000Y-105420000D03*
X142590000Y-108500000D03*
X142590000Y-105420000D03*
X142990000Y-108500000D03*
X142990000Y-105420000D03*
X143390000Y-108500000D03*
X143390000Y-105420000D03*
X143790000Y-108500000D03*
X143790000Y-105420000D03*
X144190000Y-108500000D03*
X144190000Y-105420000D03*
X144590000Y-108500000D03*
X144590000Y-105420000D03*
X144990000Y-108500000D03*
X144990000Y-105420000D03*
X145390000Y-108500000D03*
X145390000Y-105420000D03*
X145790000Y-108500000D03*
X145790000Y-105420000D03*
X146190000Y-108500000D03*
X146190000Y-105420000D03*
X146590000Y-108500000D03*
X146590000Y-105420000D03*
X146990000Y-108500000D03*
X146990000Y-105420000D03*
X147390000Y-108500000D03*
X147390000Y-105420000D03*
X147790000Y-108500000D03*
X147790000Y-105420000D03*
X148190000Y-108500000D03*
X148190000Y-105420000D03*
X148590000Y-108500000D03*
X148590000Y-105420000D03*
X148990000Y-108500000D03*
X148990000Y-105420000D03*
X149390000Y-108500000D03*
X149390000Y-105420000D03*
X149790000Y-108500000D03*
X149790000Y-105420000D03*
X150190000Y-108500000D03*
X150190000Y-105420000D03*
X150590000Y-108500000D03*
X150590000Y-105420000D03*
X150990000Y-108500000D03*
X150990000Y-105420000D03*
X151390000Y-108500000D03*
X151390000Y-105420000D03*
X151790000Y-108500000D03*
X151790000Y-105420000D03*
X152190000Y-108500000D03*
X152190000Y-105420000D03*
X152590000Y-108500000D03*
X152590000Y-105420000D03*
X152990000Y-108500000D03*
X152990000Y-105420000D03*
X153390000Y-108500000D03*
X153390000Y-105420000D03*
X153790000Y-108500000D03*
X153790000Y-105420000D03*
X154190000Y-108500000D03*
X154190000Y-105420000D03*
X154590000Y-108500000D03*
X154590000Y-105420000D03*
X154990000Y-108500000D03*
X154990000Y-105420000D03*
X155390000Y-108500000D03*
X155390000Y-105420000D03*
X155790000Y-108500000D03*
X155790000Y-105420000D03*
X156190000Y-108500000D03*
X156190000Y-105420000D03*
X156590000Y-108500000D03*
X156590000Y-105420000D03*
X156990000Y-108500000D03*
X156990000Y-105420000D03*
X157390000Y-108500000D03*
X157390000Y-105420000D03*
X157790000Y-108500000D03*
X157790000Y-105420000D03*
X158190000Y-108500000D03*
X158190000Y-105420000D03*
X158590000Y-108500000D03*
X158590000Y-105420000D03*
X158990000Y-108500000D03*
X158990000Y-105420000D03*
X159390000Y-108500000D03*
X159390000Y-105420000D03*
X159790000Y-108500000D03*
X159790000Y-105420000D03*
G04 #@! TD*
G04 #@! TO.C,X2*
X139790000Y-74580000D03*
X139790000Y-71500000D03*
X140190000Y-74580000D03*
X140190000Y-71500000D03*
X140590000Y-74580000D03*
X140590000Y-71500000D03*
X140990000Y-74580000D03*
X140990000Y-71500000D03*
X141390000Y-74580000D03*
X141390000Y-71500000D03*
X141790000Y-74580000D03*
X141790000Y-71500000D03*
X142190000Y-74580000D03*
X142190000Y-71500000D03*
X142590000Y-74580000D03*
X142590000Y-71500000D03*
X142990000Y-74580000D03*
X142990000Y-71500000D03*
X143390000Y-74580000D03*
X143390000Y-71500000D03*
X143790000Y-74580000D03*
X143790000Y-71500000D03*
X144190000Y-74580000D03*
X144190000Y-71500000D03*
X144590000Y-74580000D03*
X144590000Y-71500000D03*
X144990000Y-74580000D03*
X144990000Y-71500000D03*
X145390000Y-74580000D03*
X145390000Y-71500000D03*
X145790000Y-74580000D03*
X145790000Y-71500000D03*
X146190000Y-74580000D03*
X146190000Y-71500000D03*
X146590000Y-74580000D03*
X146590000Y-71500000D03*
X146990000Y-74580000D03*
X146990000Y-71500000D03*
X147390000Y-74580000D03*
X147390000Y-71500000D03*
X147790000Y-74580000D03*
X147790000Y-71500000D03*
X148190000Y-74580000D03*
X148190000Y-71500000D03*
X148590000Y-74580000D03*
X148590000Y-71500000D03*
X148990000Y-74580000D03*
X148990000Y-71500000D03*
X149390000Y-74580000D03*
X149390000Y-71500000D03*
X149790000Y-74580000D03*
X149790000Y-71500000D03*
X150190000Y-74580000D03*
X150190000Y-71500000D03*
X150590000Y-74580000D03*
X150590000Y-71500000D03*
X150990000Y-74580000D03*
X150990000Y-71500000D03*
X151390000Y-74580000D03*
X151390000Y-71500000D03*
X151790000Y-74580000D03*
X151790000Y-71500000D03*
X152190000Y-74580000D03*
X152190000Y-71500000D03*
X152590000Y-74580000D03*
X152590000Y-71500000D03*
X152990000Y-74580000D03*
X152990000Y-71500000D03*
X153390000Y-74580000D03*
X153390000Y-71500000D03*
X153790000Y-74580000D03*
X153790000Y-71500000D03*
X154190000Y-74580000D03*
X154190000Y-71500000D03*
X154590000Y-74580000D03*
X154590000Y-71500000D03*
X154990000Y-74580000D03*
X154990000Y-71500000D03*
X155390000Y-74580000D03*
X155390000Y-71500000D03*
X155790000Y-74580000D03*
X155790000Y-71500000D03*
X156190000Y-74580000D03*
X156190000Y-71500000D03*
X156590000Y-74580000D03*
X156590000Y-71500000D03*
X156990000Y-74580000D03*
X156990000Y-71500000D03*
X157390000Y-74580000D03*
X157390000Y-71500000D03*
X157790000Y-74580000D03*
X157790000Y-71500000D03*
X158190000Y-74580000D03*
X158190000Y-71500000D03*
X158590000Y-74580000D03*
X158590000Y-71500000D03*
X158990000Y-74580000D03*
X158990000Y-71500000D03*
X159390000Y-74580000D03*
X159390000Y-71500000D03*
G04 #@! TD*
D11*
G04 #@! TO.C,U3*
X167450000Y-82850000D03*
X172050000Y-82850000D03*
X169750000Y-82850000D03*
D12*
X169750000Y-76550000D03*
G04 #@! TD*
G04 #@! TO.C,R6*
G36*
G01*
X92020000Y-75520000D02*
X91580000Y-75520000D01*
G75*
G02*
X91420000Y-75360000I0J160000D01*
G01*
X91420000Y-75040000D01*
G75*
G02*
X91580000Y-74880000I160000J0D01*
G01*
X92020000Y-74880000D01*
G75*
G02*
X92180000Y-75040000I0J-160000D01*
G01*
X92180000Y-75360000D01*
G75*
G02*
X92020000Y-75520000I-160000J0D01*
G01*
G37*
G36*
G01*
X92020000Y-77170000D02*
X91580000Y-77170000D01*
G75*
G02*
X91420000Y-77010000I0J160000D01*
G01*
X91420000Y-76690000D01*
G75*
G02*
X91580000Y-76530000I160000J0D01*
G01*
X92020000Y-76530000D01*
G75*
G02*
X92180000Y-76690000I0J-160000D01*
G01*
X92180000Y-77010000D01*
G75*
G02*
X92020000Y-77170000I-160000J0D01*
G01*
G37*
G04 #@! TD*
G04 #@! TO.C,D3*
G36*
G01*
X92005000Y-72362500D02*
X91595000Y-72362500D01*
G75*
G02*
X91420000Y-72187500I0J175000D01*
G01*
X91420000Y-71837500D01*
G75*
G02*
X91595000Y-71662500I175000J0D01*
G01*
X92005000Y-71662500D01*
G75*
G02*
X92180000Y-71837500I0J-175000D01*
G01*
X92180000Y-72187500D01*
G75*
G02*
X92005000Y-72362500I-175000J0D01*
G01*
G37*
G36*
G01*
X92005000Y-73937500D02*
X91595000Y-73937500D01*
G75*
G02*
X91420000Y-73762500I0J175000D01*
G01*
X91420000Y-73412500D01*
G75*
G02*
X91595000Y-73237500I175000J0D01*
G01*
X92005000Y-73237500D01*
G75*
G02*
X92180000Y-73412500I0J-175000D01*
G01*
X92180000Y-73762500D01*
G75*
G02*
X92005000Y-73937500I-175000J0D01*
G01*
G37*
G04 #@! TD*
G04 #@! TO.C,R4*
G36*
G01*
X95220000Y-75495000D02*
X94780000Y-75495000D01*
G75*
G02*
X94620000Y-75335000I0J160000D01*
G01*
X94620000Y-75015000D01*
G75*
G02*
X94780000Y-74855000I160000J0D01*
G01*
X95220000Y-74855000D01*
G75*
G02*
X95380000Y-75015000I0J-160000D01*
G01*
X95380000Y-75335000D01*
G75*
G02*
X95220000Y-75495000I-160000J0D01*
G01*
G37*
G36*
G01*
X95220000Y-77145000D02*
X94780000Y-77145000D01*
G75*
G02*
X94620000Y-76985000I0J160000D01*
G01*
X94620000Y-76665000D01*
G75*
G02*
X94780000Y-76505000I160000J0D01*
G01*
X95220000Y-76505000D01*
G75*
G02*
X95380000Y-76665000I0J-160000D01*
G01*
X95380000Y-76985000D01*
G75*
G02*
X95220000Y-77145000I-160000J0D01*
G01*
G37*
G04 #@! TD*
G04 #@! TO.C,D2*
G36*
G01*
X95205000Y-72362500D02*
X94795000Y-72362500D01*
G75*
G02*
X94620000Y-72187500I0J175000D01*
G01*
X94620000Y-71837500D01*
G75*
G02*
X94795000Y-71662500I175000J0D01*
G01*
X95205000Y-71662500D01*
G75*
G02*
X95380000Y-71837500I0J-175000D01*
G01*
X95380000Y-72187500D01*
G75*
G02*
X95205000Y-72362500I-175000J0D01*
G01*
G37*
G36*
G01*
X95205000Y-73937500D02*
X94795000Y-73937500D01*
G75*
G02*
X94620000Y-73762500I0J175000D01*
G01*
X94620000Y-73412500D01*
G75*
G02*
X94795000Y-73237500I175000J0D01*
G01*
X95205000Y-73237500D01*
G75*
G02*
X95380000Y-73412500I0J-175000D01*
G01*
X95380000Y-73762500D01*
G75*
G02*
X95205000Y-73937500I-175000J0D01*
G01*
G37*
G04 #@! TD*
G04 #@! TO.C,C8*
G36*
G01*
X173615000Y-74420001D02*
X173615000Y-73379999D01*
G75*
G02*
X173814999Y-73180000I199999J0D01*
G01*
X174335001Y-73180000D01*
G75*
G02*
X174535000Y-73379999I0J-199999D01*
G01*
X174535000Y-74420001D01*
G75*
G02*
X174335001Y-74620000I-199999J0D01*
G01*
X173814999Y-74620000D01*
G75*
G02*
X173615000Y-74420001I0J199999D01*
G01*
G37*
G36*
G01*
X170665000Y-74420001D02*
X170665000Y-73379999D01*
G75*
G02*
X170864999Y-73180000I199999J0D01*
G01*
X171385001Y-73180000D01*
G75*
G02*
X171585000Y-73379999I0J-199999D01*
G01*
X171585000Y-74420001D01*
G75*
G02*
X171385001Y-74620000I-199999J0D01*
G01*
X170864999Y-74620000D01*
G75*
G02*
X170665000Y-74420001I0J199999D01*
G01*
G37*
G04 #@! TD*
G04 #@! TO.C,C6*
G36*
G01*
X166435000Y-72700000D02*
X166435000Y-73100000D01*
G75*
G02*
X166255000Y-73280000I-180000J0D01*
G01*
X165895000Y-73280000D01*
G75*
G02*
X165715000Y-73100000I0J180000D01*
G01*
X165715000Y-72700000D01*
G75*
G02*
X165895000Y-72520000I180000J0D01*
G01*
X166255000Y-72520000D01*
G75*
G02*
X166435000Y-72700000I0J-180000D01*
G01*
G37*
G36*
G01*
X167985000Y-72700000D02*
X167985000Y-73100000D01*
G75*
G02*
X167805000Y-73280000I-180000J0D01*
G01*
X167445000Y-73280000D01*
G75*
G02*
X167265000Y-73100000I0J180000D01*
G01*
X167265000Y-72700000D01*
G75*
G02*
X167445000Y-72520000I180000J0D01*
G01*
X167805000Y-72520000D01*
G75*
G02*
X167985000Y-72700000I0J-180000D01*
G01*
G37*
G04 #@! TD*
G04 #@! TO.C,C5*
G36*
G01*
X173815000Y-86200000D02*
X173815000Y-85800000D01*
G75*
G02*
X173995000Y-85620000I180000J0D01*
G01*
X174355000Y-85620000D01*
G75*
G02*
X174535000Y-85800000I0J-180000D01*
G01*
X174535000Y-86200000D01*
G75*
G02*
X174355000Y-86380000I-180000J0D01*
G01*
X173995000Y-86380000D01*
G75*
G02*
X173815000Y-86200000I0J180000D01*
G01*
G37*
G36*
G01*
X172265000Y-86200000D02*
X172265000Y-85800000D01*
G75*
G02*
X172445000Y-85620000I180000J0D01*
G01*
X172805000Y-85620000D01*
G75*
G02*
X172985000Y-85800000I0J-180000D01*
G01*
X172985000Y-86200000D01*
G75*
G02*
X172805000Y-86380000I-180000J0D01*
G01*
X172445000Y-86380000D01*
G75*
G02*
X172265000Y-86200000I0J180000D01*
G01*
G37*
G04 #@! TD*
G04 #@! TO.C,R17*
G36*
G01*
X115180000Y-91105000D02*
X115620000Y-91105000D01*
G75*
G02*
X115780000Y-91265000I0J-160000D01*
G01*
X115780000Y-91585000D01*
G75*
G02*
X115620000Y-91745000I-160000J0D01*
G01*
X115180000Y-91745000D01*
G75*
G02*
X115020000Y-91585000I0J160000D01*
G01*
X115020000Y-91265000D01*
G75*
G02*
X115180000Y-91105000I160000J0D01*
G01*
G37*
G36*
G01*
X115180000Y-89455000D02*
X115620000Y-89455000D01*
G75*
G02*
X115780000Y-89615000I0J-160000D01*
G01*
X115780000Y-89935000D01*
G75*
G02*
X115620000Y-90095000I-160000J0D01*
G01*
X115180000Y-90095000D01*
G75*
G02*
X115020000Y-89935000I0J160000D01*
G01*
X115020000Y-89615000D01*
G75*
G02*
X115180000Y-89455000I160000J0D01*
G01*
G37*
G04 #@! TD*
G04 #@! TO.C,R16*
G36*
G01*
X116780000Y-91105000D02*
X117220000Y-91105000D01*
G75*
G02*
X117380000Y-91265000I0J-160000D01*
G01*
X117380000Y-91585000D01*
G75*
G02*
X117220000Y-91745000I-160000J0D01*
G01*
X116780000Y-91745000D01*
G75*
G02*
X116620000Y-91585000I0J160000D01*
G01*
X116620000Y-91265000D01*
G75*
G02*
X116780000Y-91105000I160000J0D01*
G01*
G37*
G36*
G01*
X116780000Y-89455000D02*
X117220000Y-89455000D01*
G75*
G02*
X117380000Y-89615000I0J-160000D01*
G01*
X117380000Y-89935000D01*
G75*
G02*
X117220000Y-90095000I-160000J0D01*
G01*
X116780000Y-90095000D01*
G75*
G02*
X116620000Y-89935000I0J160000D01*
G01*
X116620000Y-89615000D01*
G75*
G02*
X116780000Y-89455000I160000J0D01*
G01*
G37*
G04 #@! TD*
G04 #@! TO.C,R9*
G36*
G01*
X118380000Y-91105000D02*
X118820000Y-91105000D01*
G75*
G02*
X118980000Y-91265000I0J-160000D01*
G01*
X118980000Y-91585000D01*
G75*
G02*
X118820000Y-91745000I-160000J0D01*
G01*
X118380000Y-91745000D01*
G75*
G02*
X118220000Y-91585000I0J160000D01*
G01*
X118220000Y-91265000D01*
G75*
G02*
X118380000Y-91105000I160000J0D01*
G01*
G37*
G36*
G01*
X118380000Y-89455000D02*
X118820000Y-89455000D01*
G75*
G02*
X118980000Y-89615000I0J-160000D01*
G01*
X118980000Y-89935000D01*
G75*
G02*
X118820000Y-90095000I-160000J0D01*
G01*
X118380000Y-90095000D01*
G75*
G02*
X118220000Y-89935000I0J160000D01*
G01*
X118220000Y-89615000D01*
G75*
G02*
X118380000Y-89455000I160000J0D01*
G01*
G37*
G04 #@! TD*
G04 #@! TO.C,R8*
G36*
G01*
X119980000Y-91105000D02*
X120420000Y-91105000D01*
G75*
G02*
X120580000Y-91265000I0J-160000D01*
G01*
X120580000Y-91585000D01*
G75*
G02*
X120420000Y-91745000I-160000J0D01*
G01*
X119980000Y-91745000D01*
G75*
G02*
X119820000Y-91585000I0J160000D01*
G01*
X119820000Y-91265000D01*
G75*
G02*
X119980000Y-91105000I160000J0D01*
G01*
G37*
G36*
G01*
X119980000Y-89455000D02*
X120420000Y-89455000D01*
G75*
G02*
X120580000Y-89615000I0J-160000D01*
G01*
X120580000Y-89935000D01*
G75*
G02*
X120420000Y-90095000I-160000J0D01*
G01*
X119980000Y-90095000D01*
G75*
G02*
X119820000Y-89935000I0J160000D01*
G01*
X119820000Y-89615000D01*
G75*
G02*
X119980000Y-89455000I160000J0D01*
G01*
G37*
G04 #@! TD*
G04 #@! TO.C,R3*
G36*
G01*
X158330000Y-100380000D02*
X158770000Y-100380000D01*
G75*
G02*
X158930000Y-100540000I0J-160000D01*
G01*
X158930000Y-100860000D01*
G75*
G02*
X158770000Y-101020000I-160000J0D01*
G01*
X158330000Y-101020000D01*
G75*
G02*
X158170000Y-100860000I0J160000D01*
G01*
X158170000Y-100540000D01*
G75*
G02*
X158330000Y-100380000I160000J0D01*
G01*
G37*
G36*
G01*
X158330000Y-98730000D02*
X158770000Y-98730000D01*
G75*
G02*
X158930000Y-98890000I0J-160000D01*
G01*
X158930000Y-99210000D01*
G75*
G02*
X158770000Y-99370000I-160000J0D01*
G01*
X158330000Y-99370000D01*
G75*
G02*
X158170000Y-99210000I0J160000D01*
G01*
X158170000Y-98890000D01*
G75*
G02*
X158330000Y-98730000I160000J0D01*
G01*
G37*
G04 #@! TD*
G04 #@! TO.C,C7*
G36*
G01*
X121600000Y-91015000D02*
X122000000Y-91015000D01*
G75*
G02*
X122180000Y-91195000I0J-180000D01*
G01*
X122180000Y-91555000D01*
G75*
G02*
X122000000Y-91735000I-180000J0D01*
G01*
X121600000Y-91735000D01*
G75*
G02*
X121420000Y-91555000I0J180000D01*
G01*
X121420000Y-91195000D01*
G75*
G02*
X121600000Y-91015000I180000J0D01*
G01*
G37*
G36*
G01*
X121600000Y-89465000D02*
X122000000Y-89465000D01*
G75*
G02*
X122180000Y-89645000I0J-180000D01*
G01*
X122180000Y-90005000D01*
G75*
G02*
X122000000Y-90185000I-180000J0D01*
G01*
X121600000Y-90185000D01*
G75*
G02*
X121420000Y-90005000I0J180000D01*
G01*
X121420000Y-89645000D01*
G75*
G02*
X121600000Y-89465000I180000J0D01*
G01*
G37*
G04 #@! TD*
G04 #@! TO.C,C4*
G36*
G01*
X135850000Y-73565000D02*
X136250000Y-73565000D01*
G75*
G02*
X136430000Y-73745000I0J-180000D01*
G01*
X136430000Y-74105000D01*
G75*
G02*
X136250000Y-74285000I-180000J0D01*
G01*
X135850000Y-74285000D01*
G75*
G02*
X135670000Y-74105000I0J180000D01*
G01*
X135670000Y-73745000D01*
G75*
G02*
X135850000Y-73565000I180000J0D01*
G01*
G37*
G36*
G01*
X135850000Y-72015000D02*
X136250000Y-72015000D01*
G75*
G02*
X136430000Y-72195000I0J-180000D01*
G01*
X136430000Y-72555000D01*
G75*
G02*
X136250000Y-72735000I-180000J0D01*
G01*
X135850000Y-72735000D01*
G75*
G02*
X135670000Y-72555000I0J180000D01*
G01*
X135670000Y-72195000D01*
G75*
G02*
X135850000Y-72015000I180000J0D01*
G01*
G37*
G04 #@! TD*
G04 #@! TO.C,C3*
G36*
G01*
X137350000Y-73565000D02*
X137750000Y-73565000D01*
G75*
G02*
X137930000Y-73745000I0J-180000D01*
G01*
X137930000Y-74105000D01*
G75*
G02*
X137750000Y-74285000I-180000J0D01*
G01*
X137350000Y-74285000D01*
G75*
G02*
X137170000Y-74105000I0J180000D01*
G01*
X137170000Y-73745000D01*
G75*
G02*
X137350000Y-73565000I180000J0D01*
G01*
G37*
G36*
G01*
X137350000Y-72015000D02*
X137750000Y-72015000D01*
G75*
G02*
X137930000Y-72195000I0J-180000D01*
G01*
X137930000Y-72555000D01*
G75*
G02*
X137750000Y-72735000I-180000J0D01*
G01*
X137350000Y-72735000D01*
G75*
G02*
X137170000Y-72555000I0J180000D01*
G01*
X137170000Y-72195000D01*
G75*
G02*
X137350000Y-72015000I180000J0D01*
G01*
G37*
G04 #@! TD*
G04 #@! TO.C,C2*
G36*
G01*
X134350000Y-73565000D02*
X134750000Y-73565000D01*
G75*
G02*
X134930000Y-73745000I0J-180000D01*
G01*
X134930000Y-74105000D01*
G75*
G02*
X134750000Y-74285000I-180000J0D01*
G01*
X134350000Y-74285000D01*
G75*
G02*
X134170000Y-74105000I0J180000D01*
G01*
X134170000Y-73745000D01*
G75*
G02*
X134350000Y-73565000I180000J0D01*
G01*
G37*
G36*
G01*
X134350000Y-72015000D02*
X134750000Y-72015000D01*
G75*
G02*
X134930000Y-72195000I0J-180000D01*
G01*
X134930000Y-72555000D01*
G75*
G02*
X134750000Y-72735000I-180000J0D01*
G01*
X134350000Y-72735000D01*
G75*
G02*
X134170000Y-72555000I0J180000D01*
G01*
X134170000Y-72195000D01*
G75*
G02*
X134350000Y-72015000I180000J0D01*
G01*
G37*
G04 #@! TD*
G04 #@! TO.C,C1*
G36*
G01*
X132850000Y-73565000D02*
X133250000Y-73565000D01*
G75*
G02*
X133430000Y-73745000I0J-180000D01*
G01*
X133430000Y-74105000D01*
G75*
G02*
X133250000Y-74285000I-180000J0D01*
G01*
X132850000Y-74285000D01*
G75*
G02*
X132670000Y-74105000I0J180000D01*
G01*
X132670000Y-73745000D01*
G75*
G02*
X132850000Y-73565000I180000J0D01*
G01*
G37*
G36*
G01*
X132850000Y-72015000D02*
X133250000Y-72015000D01*
G75*
G02*
X133430000Y-72195000I0J-180000D01*
G01*
X133430000Y-72555000D01*
G75*
G02*
X133250000Y-72735000I-180000J0D01*
G01*
X132850000Y-72735000D01*
G75*
G02*
X132670000Y-72555000I0J180000D01*
G01*
X132670000Y-72195000D01*
G75*
G02*
X132850000Y-72015000I180000J0D01*
G01*
G37*
G04 #@! TD*
G04 #@! TO.C,R11*
G36*
G01*
X96820000Y-75495000D02*
X96380000Y-75495000D01*
G75*
G02*
X96220000Y-75335000I0J160000D01*
G01*
X96220000Y-75015000D01*
G75*
G02*
X96380000Y-74855000I160000J0D01*
G01*
X96820000Y-74855000D01*
G75*
G02*
X96980000Y-75015000I0J-160000D01*
G01*
X96980000Y-75335000D01*
G75*
G02*
X96820000Y-75495000I-160000J0D01*
G01*
G37*
G36*
G01*
X96820000Y-77145000D02*
X96380000Y-77145000D01*
G75*
G02*
X96220000Y-76985000I0J160000D01*
G01*
X96220000Y-76665000D01*
G75*
G02*
X96380000Y-76505000I160000J0D01*
G01*
X96820000Y-76505000D01*
G75*
G02*
X96980000Y-76665000I0J-160000D01*
G01*
X96980000Y-76985000D01*
G75*
G02*
X96820000Y-77145000I-160000J0D01*
G01*
G37*
G04 #@! TD*
G04 #@! TO.C,R2*
G36*
G01*
X93620000Y-75495000D02*
X93180000Y-75495000D01*
G75*
G02*
X93020000Y-75335000I0J160000D01*
G01*
X93020000Y-75015000D01*
G75*
G02*
X93180000Y-74855000I160000J0D01*
G01*
X93620000Y-74855000D01*
G75*
G02*
X93780000Y-75015000I0J-160000D01*
G01*
X93780000Y-75335000D01*
G75*
G02*
X93620000Y-75495000I-160000J0D01*
G01*
G37*
G36*
G01*
X93620000Y-77145000D02*
X93180000Y-77145000D01*
G75*
G02*
X93020000Y-76985000I0J160000D01*
G01*
X93020000Y-76665000D01*
G75*
G02*
X93180000Y-76505000I160000J0D01*
G01*
X93620000Y-76505000D01*
G75*
G02*
X93780000Y-76665000I0J-160000D01*
G01*
X93780000Y-76985000D01*
G75*
G02*
X93620000Y-77145000I-160000J0D01*
G01*
G37*
G04 #@! TD*
G04 #@! TO.C,R1*
G36*
G01*
X98420000Y-75495000D02*
X97980000Y-75495000D01*
G75*
G02*
X97820000Y-75335000I0J160000D01*
G01*
X97820000Y-75015000D01*
G75*
G02*
X97980000Y-74855000I160000J0D01*
G01*
X98420000Y-74855000D01*
G75*
G02*
X98580000Y-75015000I0J-160000D01*
G01*
X98580000Y-75335000D01*
G75*
G02*
X98420000Y-75495000I-160000J0D01*
G01*
G37*
G36*
G01*
X98420000Y-77145000D02*
X97980000Y-77145000D01*
G75*
G02*
X97820000Y-76985000I0J160000D01*
G01*
X97820000Y-76665000D01*
G75*
G02*
X97980000Y-76505000I160000J0D01*
G01*
X98420000Y-76505000D01*
G75*
G02*
X98580000Y-76665000I0J-160000D01*
G01*
X98580000Y-76985000D01*
G75*
G02*
X98420000Y-77145000I-160000J0D01*
G01*
G37*
G04 #@! TD*
G04 #@! TO.C,D5*
G36*
G01*
X93605000Y-72362500D02*
X93195000Y-72362500D01*
G75*
G02*
X93020000Y-72187500I0J175000D01*
G01*
X93020000Y-71837500D01*
G75*
G02*
X93195000Y-71662500I175000J0D01*
G01*
X93605000Y-71662500D01*
G75*
G02*
X93780000Y-71837500I0J-175000D01*
G01*
X93780000Y-72187500D01*
G75*
G02*
X93605000Y-72362500I-175000J0D01*
G01*
G37*
G36*
G01*
X93605000Y-73937500D02*
X93195000Y-73937500D01*
G75*
G02*
X93020000Y-73762500I0J175000D01*
G01*
X93020000Y-73412500D01*
G75*
G02*
X93195000Y-73237500I175000J0D01*
G01*
X93605000Y-73237500D01*
G75*
G02*
X93780000Y-73412500I0J-175000D01*
G01*
X93780000Y-73762500D01*
G75*
G02*
X93605000Y-73937500I-175000J0D01*
G01*
G37*
G04 #@! TD*
G04 #@! TO.C,D4*
G36*
G01*
X98405000Y-72362500D02*
X97995000Y-72362500D01*
G75*
G02*
X97820000Y-72187500I0J175000D01*
G01*
X97820000Y-71837500D01*
G75*
G02*
X97995000Y-71662500I175000J0D01*
G01*
X98405000Y-71662500D01*
G75*
G02*
X98580000Y-71837500I0J-175000D01*
G01*
X98580000Y-72187500D01*
G75*
G02*
X98405000Y-72362500I-175000J0D01*
G01*
G37*
G36*
G01*
X98405000Y-73937500D02*
X97995000Y-73937500D01*
G75*
G02*
X97820000Y-73762500I0J175000D01*
G01*
X97820000Y-73412500D01*
G75*
G02*
X97995000Y-73237500I175000J0D01*
G01*
X98405000Y-73237500D01*
G75*
G02*
X98580000Y-73412500I0J-175000D01*
G01*
X98580000Y-73762500D01*
G75*
G02*
X98405000Y-73937500I-175000J0D01*
G01*
G37*
G04 #@! TD*
D10*
G04 #@! TO.C,U2*
X140190000Y-74580000D03*
X140190000Y-71500000D03*
X140590000Y-74580000D03*
X140590000Y-71500000D03*
X140990000Y-74580000D03*
X140990000Y-71500000D03*
X141390000Y-74580000D03*
X141390000Y-71500000D03*
X141790000Y-74580000D03*
X141790000Y-71500000D03*
X142190000Y-74580000D03*
X142190000Y-71500000D03*
X142590000Y-74580000D03*
X142590000Y-71500000D03*
X142990000Y-74580000D03*
X142990000Y-71500000D03*
X143390000Y-74580000D03*
X143390000Y-71500000D03*
X143790000Y-74580000D03*
X143790000Y-71500000D03*
X144190000Y-74580000D03*
X144190000Y-71500000D03*
X144590000Y-74580000D03*
X144590000Y-71500000D03*
X144990000Y-74580000D03*
X144990000Y-71500000D03*
X145390000Y-74580000D03*
X145390000Y-71500000D03*
X145790000Y-74580000D03*
X145790000Y-71500000D03*
X146190000Y-74580000D03*
X146190000Y-71500000D03*
X146590000Y-74580000D03*
X146590000Y-71500000D03*
X146990000Y-74580000D03*
X146990000Y-71500000D03*
X147390000Y-74580000D03*
X147390000Y-71500000D03*
X147790000Y-74580000D03*
X147790000Y-71500000D03*
X148190000Y-74580000D03*
X148190000Y-71500000D03*
X148590000Y-74580000D03*
X148590000Y-71500000D03*
X148990000Y-74580000D03*
X148990000Y-71500000D03*
X149390000Y-74580000D03*
X149390000Y-71500000D03*
X149790000Y-74580000D03*
X149790000Y-71500000D03*
X150190000Y-74580000D03*
X150190000Y-71500000D03*
X150590000Y-74580000D03*
X150590000Y-71500000D03*
X150990000Y-74580000D03*
X150990000Y-71500000D03*
X151390000Y-74580000D03*
X151390000Y-71500000D03*
X151790000Y-74580000D03*
X151790000Y-71500000D03*
X152190000Y-74580000D03*
X152190000Y-71500000D03*
X152590000Y-74580000D03*
X152590000Y-71500000D03*
X152990000Y-74580000D03*
X152990000Y-71500000D03*
X153390000Y-74580000D03*
X153390000Y-71500000D03*
X153790000Y-74580000D03*
X153790000Y-71500000D03*
X154190000Y-74580000D03*
X154190000Y-71500000D03*
X154590000Y-74580000D03*
X154590000Y-71500000D03*
X154990000Y-74580000D03*
X154990000Y-71500000D03*
X155390000Y-74580000D03*
X155390000Y-71500000D03*
X155790000Y-74580000D03*
X155790000Y-71500000D03*
X156190000Y-74580000D03*
X156190000Y-71500000D03*
X156590000Y-74580000D03*
X156590000Y-71500000D03*
X156990000Y-74580000D03*
X156990000Y-71500000D03*
X157390000Y-74580000D03*
X157390000Y-71500000D03*
X157790000Y-74580000D03*
X157790000Y-71500000D03*
X158190000Y-74580000D03*
X158190000Y-71500000D03*
X158590000Y-74580000D03*
X158590000Y-71500000D03*
X158990000Y-74580000D03*
X158990000Y-71500000D03*
X159390000Y-74580000D03*
X159390000Y-71500000D03*
X159790000Y-74580000D03*
X159790000Y-71500000D03*
X140190000Y-105420000D03*
X140590000Y-105420000D03*
X140990000Y-105420000D03*
X141390000Y-105420000D03*
X141790000Y-105420000D03*
X142190000Y-105420000D03*
X142590000Y-105420000D03*
X142990000Y-105420000D03*
X143390000Y-105420000D03*
X143790000Y-105420000D03*
X144190000Y-105420000D03*
X144590000Y-105420000D03*
X144990000Y-105420000D03*
X145390000Y-105420000D03*
X145790000Y-105420000D03*
X146190000Y-105420000D03*
X146590000Y-105420000D03*
X146990000Y-105420000D03*
X147390000Y-105420000D03*
X147790000Y-105420000D03*
X148190000Y-105420000D03*
X148590000Y-105420000D03*
X148990000Y-105420000D03*
X149390000Y-105420000D03*
X149790000Y-105420000D03*
X150190000Y-105420000D03*
X150590000Y-105420000D03*
X150990000Y-105420000D03*
X151390000Y-105420000D03*
X151790000Y-105420000D03*
X152190000Y-105420000D03*
X152590000Y-105420000D03*
X152990000Y-105420000D03*
X153390000Y-105420000D03*
X153790000Y-105420000D03*
X154190000Y-105420000D03*
X154590000Y-105420000D03*
X154990000Y-105420000D03*
X155390000Y-105420000D03*
X155790000Y-105420000D03*
X156190000Y-105420000D03*
X156590000Y-105420000D03*
X156990000Y-105420000D03*
X157390000Y-105420000D03*
X157790000Y-105420000D03*
X158190000Y-105420000D03*
X158590000Y-105420000D03*
X158990000Y-105420000D03*
X159390000Y-105420000D03*
X159790000Y-108500000D03*
X159390000Y-108500000D03*
X158990000Y-108500000D03*
X158590000Y-108500000D03*
X158190000Y-108500000D03*
X157790000Y-108500000D03*
X157390000Y-108500000D03*
X156990000Y-108500000D03*
X156590000Y-108500000D03*
X156190000Y-108500000D03*
X155790000Y-108500000D03*
X155390000Y-108500000D03*
X154990000Y-108500000D03*
X154590000Y-108500000D03*
X154190000Y-108500000D03*
X153790000Y-108500000D03*
X153390000Y-108500000D03*
X152990000Y-108500000D03*
X152590000Y-108500000D03*
X152190000Y-108500000D03*
X151790000Y-108500000D03*
X151390000Y-108500000D03*
X150990000Y-108500000D03*
X150590000Y-108500000D03*
X150190000Y-108500000D03*
X149790000Y-108500000D03*
X149390000Y-108500000D03*
X148990000Y-108500000D03*
X148590000Y-108500000D03*
X148190000Y-108500000D03*
X147790000Y-108500000D03*
X147390000Y-108500000D03*
X146990000Y-108500000D03*
X146590000Y-108500000D03*
X146190000Y-108500000D03*
X145790000Y-108500000D03*
X145390000Y-108500000D03*
X144990000Y-108500000D03*
X144590000Y-108500000D03*
X144190000Y-108500000D03*
X143790000Y-108500000D03*
X143390000Y-108500000D03*
X142990000Y-108500000D03*
X142590000Y-108500000D03*
X142190000Y-108500000D03*
X141790000Y-108500000D03*
X141390000Y-108500000D03*
X140990000Y-108500000D03*
X140590000Y-108500000D03*
X140190000Y-108500000D03*
X159790000Y-105420000D03*
G04 #@! TD*
D13*
G04 #@! TO.C,K1*
X108457000Y-72615000D03*
X108457000Y-73885000D03*
X108457000Y-75155000D03*
X108457000Y-76425000D03*
X108457000Y-77695000D03*
X108457000Y-78965000D03*
X108457000Y-80235000D03*
X108457000Y-81505000D03*
X108457000Y-82775000D03*
X108457000Y-84045000D03*
X108457000Y-85315000D03*
X108457000Y-86585000D03*
X123443000Y-86585000D03*
X123443000Y-85315000D03*
X123443000Y-84045000D03*
X123443000Y-82775000D03*
X123443000Y-81505000D03*
X123443000Y-80235000D03*
X123443000Y-78965000D03*
X123443000Y-77695000D03*
X123443000Y-76425000D03*
X123443000Y-75155000D03*
X123443000Y-73885000D03*
X123443000Y-72615000D03*
G04 #@! TD*
G04 #@! TO.C,D1*
G36*
G01*
X96805000Y-72362500D02*
X96395000Y-72362500D01*
G75*
G02*
X96220000Y-72187500I0J175000D01*
G01*
X96220000Y-71837500D01*
G75*
G02*
X96395000Y-71662500I175000J0D01*
G01*
X96805000Y-71662500D01*
G75*
G02*
X96980000Y-71837500I0J-175000D01*
G01*
X96980000Y-72187500D01*
G75*
G02*
X96805000Y-72362500I-175000J0D01*
G01*
G37*
G36*
G01*
X96805000Y-73937500D02*
X96395000Y-73937500D01*
G75*
G02*
X96220000Y-73762500I0J175000D01*
G01*
X96220000Y-73412500D01*
G75*
G02*
X96395000Y-73237500I175000J0D01*
G01*
X96805000Y-73237500D01*
G75*
G02*
X96980000Y-73412500I0J-175000D01*
G01*
X96980000Y-73762500D01*
G75*
G02*
X96805000Y-73937500I-175000J0D01*
G01*
G37*
G04 #@! TD*
M02*
