G04 #@! TF.GenerationSoftware,KiCad,Pcbnew,5.1.8*
G04 #@! TF.CreationDate,2021-01-05T10:04:31+01:00*
G04 #@! TF.ProjectId,pislice,7069736c-6963-4652-9e6b-696361645f70,rev?*
G04 #@! TF.SameCoordinates,Original*
G04 #@! TF.FileFunction,Copper,L4,Bot*
G04 #@! TF.FilePolarity,Positive*
%FSLAX46Y46*%
G04 Gerber Fmt 4.6, Leading zero omitted, Abs format (unit mm)*
G04 Created by KiCad (PCBNEW 5.1.8) date 2021-01-05 10:04:31*
%MOMM*%
%LPD*%
G01*
G04 APERTURE LIST*
G04 #@! TA.AperFunction,EtchedComponent*
%ADD10C,0.100000*%
G04 #@! TD*
G04 #@! TA.AperFunction,ComponentPad*
%ADD11C,5.000000*%
G04 #@! TD*
G04 #@! TA.AperFunction,SMDPad,CuDef*
%ADD12R,2.750000X1.200000*%
G04 #@! TD*
G04 #@! TA.AperFunction,SMDPad,CuDef*
%ADD13R,1.550000X0.300000*%
G04 #@! TD*
G04 #@! TA.AperFunction,ComponentPad*
%ADD14C,3.000000*%
G04 #@! TD*
G04 #@! TA.AperFunction,ConnectorPad*
%ADD15R,0.700000X4.300000*%
G04 #@! TD*
G04 #@! TA.AperFunction,ConnectorPad*
%ADD16R,0.700000X3.200000*%
G04 #@! TD*
G04 #@! TA.AperFunction,SMDPad,CuDef*
%ADD17R,1.000000X1.000000*%
G04 #@! TD*
G04 #@! TA.AperFunction,SMDPad,CuDef*
%ADD18R,1.000000X1.500000*%
G04 #@! TD*
G04 #@! TA.AperFunction,ViaPad*
%ADD19C,0.400000*%
G04 #@! TD*
G04 #@! TA.AperFunction,ViaPad*
%ADD20C,0.600000*%
G04 #@! TD*
G04 #@! TA.AperFunction,Conductor*
%ADD21C,0.200000*%
G04 #@! TD*
G04 #@! TA.AperFunction,Conductor*
%ADD22C,0.228600*%
G04 #@! TD*
G04 #@! TA.AperFunction,Conductor*
%ADD23C,0.300000*%
G04 #@! TD*
G04 #@! TA.AperFunction,Conductor*
%ADD24C,0.400000*%
G04 #@! TD*
G04 #@! TA.AperFunction,Conductor*
%ADD25C,0.100000*%
G04 #@! TD*
G04 #@! TA.AperFunction,Conductor*
%ADD26C,0.254000*%
G04 #@! TD*
%ADD27C,0.200000*%
%ADD28C,0.300000*%
%ADD29C,0.350000*%
G04 APERTURE END LIST*
D10*
G04 #@! TO.C,JP1*
G36*
X144550000Y-73250000D02*
G01*
X144050000Y-73250000D01*
X144050000Y-73650000D01*
X144550000Y-73650000D01*
X144550000Y-73250000D01*
G37*
G36*
X144550000Y-72450000D02*
G01*
X144050000Y-72450000D01*
X144050000Y-72850000D01*
X144550000Y-72850000D01*
X144550000Y-72450000D01*
G37*
G04 #@! TD*
D11*
G04 #@! TO.P,U1,76*
G04 #@! TO.N,N/C*
X93750000Y-81400000D03*
D12*
G04 #@! TO.P,U1,*
G04 #@! TO.N,*
X176500000Y-71050000D03*
X176500000Y-91750000D03*
D13*
G04 #@! TO.P,U1,75*
G04 #@! TO.N,GND*
X177275000Y-72150000D03*
G04 #@! TO.P,U1,74*
G04 #@! TO.N,+3V3*
X169725000Y-72400000D03*
G04 #@! TO.P,U1,73*
G04 #@! TO.N,GND*
X177275000Y-72650000D03*
G04 #@! TO.P,U1,72*
G04 #@! TO.N,+3V3*
X169725000Y-72900000D03*
G04 #@! TO.P,U1,71*
G04 #@! TO.N,GND*
X177275000Y-73150000D03*
G04 #@! TO.P,U1,70*
G04 #@! TO.N,+3V3*
X169725000Y-73400000D03*
G04 #@! TO.P,U1,69*
G04 #@! TO.N,N/C*
X177275000Y-73650000D03*
G04 #@! TO.P,U1,68*
X169725000Y-73900000D03*
G04 #@! TO.P,U1,67*
X177275000Y-74150000D03*
G04 #@! TO.P,U1,66*
X169725000Y-74400000D03*
G04 #@! TO.P,U1,65*
X177275000Y-74650000D03*
G04 #@! TO.P,U1,64*
X169725000Y-74900000D03*
G04 #@! TO.P,U1,63*
X177275000Y-75150000D03*
G04 #@! TO.P,U1,62*
X169725000Y-75400000D03*
G04 #@! TO.P,U1,61*
X177275000Y-75650000D03*
G04 #@! TO.P,U1,60*
X169725000Y-75900000D03*
G04 #@! TO.P,U1,59*
X177275000Y-76150000D03*
G04 #@! TO.P,U1,58*
X169725000Y-76400000D03*
G04 #@! TO.P,U1,57*
G04 #@! TO.N,GND*
X177275000Y-76650000D03*
G04 #@! TO.P,U1,56*
G04 #@! TO.N,N/C*
X169725000Y-76900000D03*
G04 #@! TO.P,U1,55*
G04 #@! TO.N,c1-pcie-clk+*
X177275000Y-77150000D03*
G04 #@! TO.P,U1,54*
G04 #@! TO.N,Net-(R5-Pad1)*
X169725000Y-77400000D03*
G04 #@! TO.P,U1,53*
G04 #@! TO.N,c1-pcie-clk-*
X177275000Y-77650000D03*
G04 #@! TO.P,U1,52*
G04 #@! TO.N,c1-pcie-clk-nreq*
X169725000Y-77900000D03*
G04 #@! TO.P,U1,51*
G04 #@! TO.N,GND*
X177275000Y-78150000D03*
G04 #@! TO.P,U1,50*
G04 #@! TO.N,c1-pcie-nrst*
X169725000Y-78400000D03*
G04 #@! TO.P,U1,49*
G04 #@! TO.N,N/C*
X177275000Y-78650000D03*
G04 #@! TO.P,U1,48*
X169725000Y-78900000D03*
G04 #@! TO.P,U1,47*
X177275000Y-79150000D03*
G04 #@! TO.P,U1,46*
X169725000Y-79400000D03*
G04 #@! TO.P,U1,45*
G04 #@! TO.N,GND*
X177275000Y-79650000D03*
G04 #@! TO.P,U1,44*
G04 #@! TO.N,N/C*
X169725000Y-79900000D03*
G04 #@! TO.P,U1,43*
X177275000Y-80150000D03*
G04 #@! TO.P,U1,42*
X169725000Y-80400000D03*
G04 #@! TO.P,U1,41*
X177275000Y-80650000D03*
G04 #@! TO.P,U1,40*
X169725000Y-80900000D03*
G04 #@! TO.P,U1,39*
G04 #@! TO.N,GND*
X177275000Y-81150000D03*
G04 #@! TO.P,U1,38*
G04 #@! TO.N,N/C*
X169725000Y-81400000D03*
G04 #@! TO.P,U1,37*
G04 #@! TO.N,c1-pcie-tx+*
X177275000Y-81650000D03*
G04 #@! TO.P,U1,36*
G04 #@! TO.N,N/C*
X169725000Y-81900000D03*
G04 #@! TO.P,U1,35*
G04 #@! TO.N,c1-pcie-tx-*
X177275000Y-82150000D03*
G04 #@! TO.P,U1,34*
G04 #@! TO.N,N/C*
X169725000Y-82400000D03*
G04 #@! TO.P,U1,33*
G04 #@! TO.N,GND*
X177275000Y-82650000D03*
G04 #@! TO.P,U1,32*
G04 #@! TO.N,N/C*
X169725000Y-82900000D03*
G04 #@! TO.P,U1,31*
G04 #@! TO.N,c1-pcie-rx+*
X177275000Y-83150000D03*
G04 #@! TO.P,U1,30*
G04 #@! TO.N,N/C*
X169725000Y-83400000D03*
G04 #@! TO.P,U1,29*
G04 #@! TO.N,c1-pcie-rx-*
X177275000Y-83650000D03*
G04 #@! TO.P,U1,28*
G04 #@! TO.N,N/C*
X169725000Y-83900000D03*
G04 #@! TO.P,U1,27*
G04 #@! TO.N,GND*
X177275000Y-84150000D03*
G04 #@! TO.P,U1,26*
G04 #@! TO.N,N/C*
X169725000Y-84400000D03*
G04 #@! TO.P,U1,25*
X177275000Y-84650000D03*
G04 #@! TO.P,U1,24*
X169725000Y-84900000D03*
G04 #@! TO.P,U1,23*
X177275000Y-85150000D03*
G04 #@! TO.P,U1,22*
X169725000Y-85400000D03*
G04 #@! TO.P,U1,21*
X177275000Y-85650000D03*
G04 #@! TO.P,U1,20*
X169725000Y-85900000D03*
G04 #@! TO.P,U1,11*
X177275000Y-88150000D03*
G04 #@! TO.P,U1,10*
X169725000Y-88400000D03*
G04 #@! TO.P,U1,9*
X177275000Y-88650000D03*
G04 #@! TO.P,U1,8*
X169725000Y-88900000D03*
G04 #@! TO.P,U1,7*
X177275000Y-89150000D03*
G04 #@! TO.P,U1,6*
X169725000Y-89400000D03*
G04 #@! TO.P,U1,5*
X177275000Y-89650000D03*
G04 #@! TO.P,U1,4*
G04 #@! TO.N,+3V3*
X169725000Y-89900000D03*
G04 #@! TO.P,U1,3*
G04 #@! TO.N,GND*
X177275000Y-90150000D03*
G04 #@! TO.P,U1,2*
G04 #@! TO.N,+3V3*
X169725000Y-90400000D03*
G04 #@! TO.P,U1,1*
G04 #@! TO.N,N/C*
X177275000Y-90650000D03*
G04 #@! TO.P,U1,12*
G04 #@! TO.N,+3V3*
X169725000Y-87900000D03*
G04 #@! TO.P,U1,14*
X169725000Y-87400000D03*
G04 #@! TO.P,U1,16*
X169725000Y-86900000D03*
G04 #@! TO.P,U1,18*
X169725000Y-86400000D03*
G04 #@! TO.P,U1,13*
G04 #@! TO.N,N/C*
X177275000Y-87650000D03*
G04 #@! TO.P,U1,15*
X177275000Y-87150000D03*
G04 #@! TO.P,U1,17*
X177275000Y-86650000D03*
G04 #@! TO.P,U1,19*
X177275000Y-86150000D03*
D14*
G04 #@! TO.P,U1,76*
X93750000Y-81400000D03*
G04 #@! TD*
D15*
G04 #@! TO.P,U14,A13*
G04 #@! TO.N,eth-p4+*
X108240000Y-97350000D03*
G04 #@! TO.P,U14,A12*
G04 #@! TO.N,GND*
X107240000Y-97350000D03*
G04 #@! TO.P,U14,A18*
X113240000Y-97350000D03*
G04 #@! TO.P,U14,A17*
G04 #@! TO.N,eth-p3-*
X112240000Y-97350000D03*
G04 #@! TO.P,U14,A16*
G04 #@! TO.N,eth-p3+*
X111240000Y-97350000D03*
G04 #@! TO.P,U14,A15*
G04 #@! TO.N,GND*
X110240000Y-97350000D03*
G04 #@! TO.P,U14,A14*
G04 #@! TO.N,eth-p4-*
X109240000Y-97350000D03*
G04 #@! TO.P,U14,A11*
G04 #@! TO.N,c1-eth-led2*
X104240000Y-97350000D03*
G04 #@! TO.P,U14,A10*
G04 #@! TO.N,c1-eth-led3*
X103240000Y-97350000D03*
G04 #@! TO.P,U14,A9*
G04 #@! TO.N,c1-run-reset*
X102240000Y-97350000D03*
G04 #@! TO.P,U14,A8*
G04 #@! TO.N,c1-led-activity*
X101240000Y-97350000D03*
G04 #@! TO.P,U14,A7*
G04 #@! TO.N,GND*
X100240000Y-97350000D03*
G04 #@! TO.P,U14,A6*
G04 #@! TO.N,c1_UART_RX*
X99240000Y-97350000D03*
G04 #@! TO.P,U14,A5*
G04 #@! TO.N,c1_UART_TX*
X98240000Y-97350000D03*
G04 #@! TO.P,U14,A4*
G04 #@! TO.N,GND*
X97240000Y-97350000D03*
G04 #@! TO.P,U14,A3*
G04 #@! TO.N,N/C*
X96240000Y-97350000D03*
G04 #@! TO.P,U14,A2*
G04 #@! TO.N,+5V*
X95240000Y-97350000D03*
D16*
G04 #@! TO.P,U14,A1*
X94240000Y-96800000D03*
G04 #@! TD*
D17*
G04 #@! TO.P,TP1,1*
G04 #@! TO.N,Net-(TP1-Pad1)*
X146980000Y-73000000D03*
G04 #@! TD*
G04 #@! TO.P,R5,2*
G04 #@! TO.N,N/C*
G04 #@! TA.AperFunction,SMDPad,CuDef*
G36*
G01*
X166707000Y-70591000D02*
X166707000Y-71141000D01*
G75*
G02*
X166507000Y-71341000I-200000J0D01*
G01*
X166107000Y-71341000D01*
G75*
G02*
X165907000Y-71141000I0J200000D01*
G01*
X165907000Y-70591000D01*
G75*
G02*
X166107000Y-70391000I200000J0D01*
G01*
X166507000Y-70391000D01*
G75*
G02*
X166707000Y-70591000I0J-200000D01*
G01*
G37*
G04 #@! TD.AperFunction*
G04 #@! TO.P,R5,1*
G04 #@! TO.N,Net-(R5-Pad1)*
G04 #@! TA.AperFunction,SMDPad,CuDef*
G36*
G01*
X168357000Y-70591000D02*
X168357000Y-71141000D01*
G75*
G02*
X168157000Y-71341000I-200000J0D01*
G01*
X167757000Y-71341000D01*
G75*
G02*
X167557000Y-71141000I0J200000D01*
G01*
X167557000Y-70591000D01*
G75*
G02*
X167757000Y-70391000I200000J0D01*
G01*
X168157000Y-70391000D01*
G75*
G02*
X168357000Y-70591000I0J-200000D01*
G01*
G37*
G04 #@! TD.AperFunction*
G04 #@! TD*
D18*
G04 #@! TO.P,JP1,2*
G04 #@! TO.N,GPIO_REF*
X143650000Y-73050000D03*
G04 #@! TO.P,JP1,3*
G04 #@! TO.N,Net-(JP1-Pad3)*
X142350000Y-73050000D03*
G04 #@! TO.P,JP1,1*
G04 #@! TO.N,Net-(JP1-Pad1)*
X144950000Y-73050000D03*
G04 #@! TD*
D19*
G04 #@! TO.N,GND*
X97200000Y-93300000D03*
X97200000Y-92500000D03*
X97200000Y-94100000D03*
X110250000Y-93350000D03*
X110250000Y-92500000D03*
X107250000Y-93350000D03*
X113250000Y-93350000D03*
X113250000Y-92500000D03*
X160400000Y-71800000D03*
X159200000Y-75800000D03*
X158200000Y-73600000D03*
X111000000Y-79200000D03*
X110000000Y-75200000D03*
X113200000Y-82600000D03*
X110400000Y-90600000D03*
X108000000Y-88200000D03*
X113400000Y-90400000D03*
X141400000Y-73200000D03*
X179000000Y-74000000D03*
X179000000Y-76000000D03*
X179000000Y-78000000D03*
X179000000Y-80000000D03*
X179000000Y-82000000D03*
X176000000Y-94000000D03*
X175500000Y-89000000D03*
X175500000Y-85500000D03*
X175000000Y-80000000D03*
X174000000Y-76000000D03*
X165000000Y-81500000D03*
X165000000Y-84000000D03*
X165000000Y-87000000D03*
X157000000Y-80500000D03*
X160000000Y-77000000D03*
X153000000Y-73000000D03*
X151000000Y-73000000D03*
X148800000Y-70700000D03*
X152500000Y-70700000D03*
X154400000Y-70700000D03*
X156500000Y-70700000D03*
X146400000Y-70700000D03*
X139200000Y-71800000D03*
X148000000Y-72800000D03*
X150600000Y-75500000D03*
X158100000Y-79000000D03*
X163200000Y-72900000D03*
X127000000Y-83800000D03*
X128700000Y-83800000D03*
X126400000Y-81000000D03*
X120200000Y-82400000D03*
X115200000Y-85200000D03*
X120000000Y-72200000D03*
X117500000Y-72300000D03*
X103900000Y-72100000D03*
X104300000Y-81300000D03*
X101750000Y-85100000D03*
X100220000Y-85800000D03*
X98740000Y-86600000D03*
X96300000Y-87200000D03*
X92100000Y-88700000D03*
X134400000Y-105900000D03*
X128600000Y-99300000D03*
X128300000Y-92400000D03*
X135000000Y-98600000D03*
X151000000Y-104200000D03*
X151900000Y-107200000D03*
X164200000Y-99800000D03*
X172100000Y-93700000D03*
X163500000Y-103400000D03*
X164900000Y-104200000D03*
X161500000Y-107600000D03*
X104900000Y-85100000D03*
X110500000Y-82900000D03*
X112800000Y-87800000D03*
X100200000Y-94100000D03*
X100200000Y-93300000D03*
X100200000Y-92500000D03*
X106900000Y-77550000D03*
X106700000Y-76000000D03*
X104600000Y-76000000D03*
X113700000Y-76700000D03*
X112300000Y-75200000D03*
X179100000Y-71900000D03*
X151800000Y-76200000D03*
G04 #@! TO.N,+3V3*
X169300000Y-72900000D03*
X167900000Y-74000000D03*
X167900000Y-74800000D03*
X167800000Y-78500000D03*
X167800000Y-79200000D03*
X167800000Y-80000000D03*
G04 #@! TO.N,c1-pcie-rx-*
X169500000Y-102423800D03*
G04 #@! TO.N,c1-pcie-rx+*
X169500000Y-102976200D03*
G04 #@! TO.N,c1-pcie-clk+*
X157995303Y-107104697D03*
G04 #@! TO.N,c1-pcie-clk-*
X157604697Y-107495303D03*
G04 #@! TO.N,c1-pcie-clk-nreq*
X162900000Y-103800000D03*
G04 #@! TO.N,c1-pcie-nrst*
X157300000Y-104100000D03*
G04 #@! TO.N,c1-pcie-tx+*
X155876200Y-106800000D03*
G04 #@! TO.N,c1-pcie-tx-*
X155323800Y-106800000D03*
G04 #@! TO.N,eth-p4+*
X110404697Y-85204697D03*
G04 #@! TO.N,eth-p4-*
X110795303Y-85595303D03*
G04 #@! TO.N,eth-p3-*
X110900000Y-87023800D03*
G04 #@! TO.N,eth-p3+*
X110900000Y-87576200D03*
G04 #@! TO.N,c1-led-activity*
X155800000Y-72500000D03*
X97954821Y-79018439D03*
G04 #@! TO.N,+5V*
X94200000Y-90600000D03*
X94800000Y-90600000D03*
X95400000Y-90600000D03*
X94200000Y-91200000D03*
X94800000Y-91200000D03*
X95400000Y-91200000D03*
X94200000Y-91800000D03*
X94800000Y-91800000D03*
X95400000Y-91800000D03*
X94200000Y-92400000D03*
X94800000Y-92400000D03*
X95400000Y-92400000D03*
X94200000Y-93000000D03*
X94800000Y-93000000D03*
X95400000Y-93000000D03*
X144000000Y-70800000D03*
X143200000Y-70800000D03*
X133000000Y-71000000D03*
X134600000Y-71000000D03*
X136000000Y-71000000D03*
X137600000Y-71000000D03*
X167400000Y-84800000D03*
X167400000Y-85600000D03*
X167400000Y-86400000D03*
X167400000Y-87200000D03*
X167400000Y-88000000D03*
X167400000Y-89000000D03*
G04 #@! TO.N,c1_UART_TX*
X149000000Y-72600000D03*
G04 #@! TO.N,c1_UART_RX*
X149800000Y-72700000D03*
G04 #@! TO.N,c1-usb-d+*
X124504697Y-88604697D03*
X104900000Y-86623800D03*
G04 #@! TO.N,c1-usb-d-*
X124895303Y-88995303D03*
X104900000Y-87176200D03*
G04 #@! TO.N,GPIO_REF*
X143650000Y-73050000D03*
D20*
X102800000Y-90350000D03*
X101300000Y-73850000D03*
X101300000Y-77462054D03*
D19*
G04 #@! TO.N,c1-usb-otg-id*
X104700000Y-90200000D03*
X158500000Y-101700000D03*
D20*
G04 #@! TO.N,Net-(JP1-Pad3)*
X142350000Y-73050000D03*
G04 #@! TO.N,Net-(JP1-Pad1)*
X144950000Y-73050000D03*
D19*
G04 #@! TO.N,c1-rpiboot*
X100750000Y-90250000D03*
X139700000Y-75800000D03*
X100150000Y-76252410D03*
X100150000Y-74642770D03*
G04 #@! TO.N,c1-eeprom_wp*
X100000000Y-90250000D03*
X103550000Y-76050000D03*
X103650000Y-79650000D03*
X156100000Y-75800000D03*
G04 #@! TO.N,Net-(R4-Pad1)*
X157400000Y-73400000D03*
X101200000Y-78819276D03*
G04 #@! TO.N,Net-(TP1-Pad1)*
X140000000Y-72350000D03*
G04 #@! TO.N,c1-run-reset*
X141900000Y-76504821D03*
G04 #@! TO.N,c1-eth-led3*
X157243401Y-72223952D03*
X99412044Y-78850808D03*
G04 #@! TO.N,c1-eth-led2*
X157149902Y-72770258D03*
X99936463Y-79024426D03*
G04 #@! TD*
D21*
G04 #@! TO.N,GND*
X178850000Y-72150000D02*
X179100000Y-71900000D01*
X177275000Y-72150000D02*
X178850000Y-72150000D01*
X177275000Y-72650000D02*
X178850000Y-72650000D01*
X179100000Y-72400000D02*
X179100000Y-71900000D01*
X178850000Y-72650000D02*
X179100000Y-72400000D01*
X177275000Y-73150000D02*
X178750000Y-73150000D01*
X179000000Y-73400000D02*
X179000000Y-74000000D01*
X178750000Y-73150000D02*
X179000000Y-73400000D01*
D22*
G04 #@! TO.N,c1-pcie-rx-*
X169585700Y-102509500D02*
X169500000Y-102423800D01*
X177037478Y-95193113D02*
X174838795Y-97391797D01*
X177116293Y-95029447D02*
X177102590Y-95089484D01*
X177116293Y-94967867D02*
X177116293Y-95029447D01*
X177075872Y-94852348D02*
X177102590Y-94907830D01*
X174838795Y-97391797D02*
X169721092Y-102509500D01*
X178709500Y-84078908D02*
X178709500Y-93521092D01*
X177767150Y-94453690D02*
X177711668Y-94480409D01*
X169721092Y-102509500D02*
X169585700Y-102509500D01*
X178221092Y-83590500D02*
X178709500Y-84078908D01*
X177075872Y-95144966D02*
X177037478Y-95193113D01*
X178709500Y-93521092D02*
X177815296Y-94415296D01*
X177651631Y-94494112D02*
X177590051Y-94494112D01*
X176996599Y-94460957D02*
X176969880Y-94516439D01*
X176956177Y-94638056D02*
X176969880Y-94698093D01*
X177711668Y-94480409D02*
X177651631Y-94494112D01*
X177530014Y-94480409D02*
X177474532Y-94453690D01*
X177320276Y-94347699D02*
X177260239Y-94333996D01*
X177102590Y-94907830D02*
X177116293Y-94967867D01*
X177083140Y-94374417D02*
X177034994Y-94412812D01*
X177900000Y-83650000D02*
X177959500Y-83590500D01*
X176969880Y-94698093D02*
X176996599Y-94753575D01*
X177959500Y-83590500D02*
X178221092Y-83590500D01*
X177815296Y-94415296D02*
X177767150Y-94453690D01*
X177275000Y-83650000D02*
X177900000Y-83650000D01*
X177474532Y-94453690D02*
X177426387Y-94415296D01*
X177426387Y-94415296D02*
X177423903Y-94412812D01*
X177260239Y-94333996D02*
X177198659Y-94333996D01*
X177034994Y-94801720D02*
X177037477Y-94804203D01*
X177037477Y-94804203D02*
X177075872Y-94852348D01*
X177590051Y-94494112D02*
X177530014Y-94480409D01*
X177198659Y-94333996D02*
X177138622Y-94347699D01*
X177102590Y-95089484D02*
X177075872Y-95144966D01*
X177138622Y-94347699D02*
X177083140Y-94374417D01*
X177034994Y-94412812D02*
X176996599Y-94460957D01*
X176969880Y-94516439D02*
X176956177Y-94576476D01*
X177423903Y-94412812D02*
X177375758Y-94374417D01*
X176956177Y-94576476D02*
X176956177Y-94638056D01*
X177375758Y-94374417D02*
X177320276Y-94347699D01*
X176996599Y-94753575D02*
X177034994Y-94801720D01*
G04 #@! TO.N,c1-pcie-rx+*
X169585700Y-102890500D02*
X169878908Y-102890500D01*
X169500000Y-102976200D02*
X169585700Y-102890500D01*
X179090500Y-83921092D02*
X178378908Y-83209500D01*
X177900000Y-83150000D02*
X177275000Y-83150000D01*
X179090500Y-93678908D02*
X179090500Y-83921092D01*
X178378908Y-83209500D02*
X177959500Y-83209500D01*
X177959500Y-83209500D02*
X177900000Y-83150000D01*
X169878908Y-102890500D02*
X179090500Y-93678908D01*
G04 #@! TO.N,c1-pcie-clk+*
X157995303Y-107104697D02*
X157995303Y-107225895D01*
X176052999Y-77209500D02*
X176112499Y-77150000D01*
X172909500Y-94721092D02*
X172909500Y-78821092D01*
X172909500Y-78821092D02*
X174521092Y-77209500D01*
X160221092Y-107409500D02*
X172909500Y-94721092D01*
X157995303Y-107225895D02*
X158178908Y-107409500D01*
X176112499Y-77150000D02*
X177275000Y-77150000D01*
X158178908Y-107409500D02*
X160221092Y-107409500D01*
X174521092Y-77209500D02*
X176052999Y-77209500D01*
G04 #@! TO.N,c1-pcie-clk-*
X160378908Y-107790500D02*
X173290500Y-94878908D01*
X157604697Y-107495303D02*
X157725895Y-107495303D01*
X157725895Y-107495303D02*
X158021092Y-107790500D01*
X158021092Y-107790500D02*
X160378908Y-107790500D01*
X173290500Y-94878908D02*
X173290500Y-78978908D01*
X173290500Y-78978908D02*
X174678908Y-77590500D01*
X174678908Y-77590500D02*
X176052999Y-77590500D01*
X176052999Y-77590500D02*
X176112499Y-77650000D01*
X176112499Y-77650000D02*
X177275000Y-77650000D01*
D21*
G04 #@! TO.N,c1-pcie-clk-nreq*
X170602706Y-77900000D02*
X171104812Y-78402106D01*
X169725000Y-77900000D02*
X170602706Y-77900000D01*
X171104812Y-78402106D02*
X171104812Y-95095188D01*
X162900000Y-103300000D02*
X171104812Y-95095188D01*
X162900000Y-103800000D02*
X162900000Y-103300000D01*
G04 #@! TO.N,c1-pcie-nrst*
X169725000Y-78400000D02*
X170604322Y-78400000D01*
X170604322Y-78400000D02*
X170752401Y-78548079D01*
X170752401Y-78548079D02*
X170752401Y-91247599D01*
X170752401Y-91247599D02*
X170752401Y-91547599D01*
X158200000Y-104100000D02*
X157300000Y-104100000D01*
X170752401Y-91547599D02*
X158200000Y-104100000D01*
D22*
G04 #@! TO.N,c1-pcie-tx+*
X155861210Y-106814990D02*
X155876200Y-106800000D01*
X155790500Y-106885700D02*
X155861210Y-106814990D01*
X156478908Y-108509500D02*
X155790500Y-107821092D01*
X161621092Y-108509500D02*
X156478908Y-108509500D01*
X169900633Y-100221851D02*
X169868717Y-100261874D01*
X169922843Y-100175730D02*
X169900633Y-100221851D01*
X169934234Y-100074634D02*
X169934234Y-100125824D01*
X169900633Y-99978606D02*
X169922843Y-100024727D01*
X169868716Y-99938584D02*
X169900633Y-99978606D01*
X169868717Y-100261874D02*
X161621092Y-108509500D01*
X170429153Y-99669423D02*
X170379246Y-99680814D01*
X155790500Y-107821092D02*
X155790500Y-106885700D01*
X169831925Y-99578504D02*
X169800008Y-99618526D01*
X169934234Y-100125824D02*
X169922843Y-100175730D01*
X169922843Y-100024727D02*
X169934234Y-100074634D01*
X170475273Y-99647212D02*
X170429153Y-99669423D01*
X174109500Y-96021092D02*
X170515296Y-99615296D01*
X170379246Y-99680814D02*
X170328056Y-99680814D01*
X170155214Y-99578504D02*
X170115192Y-99546587D01*
X170515296Y-99615296D02*
X170475273Y-99647212D01*
X170328056Y-99680814D02*
X170278149Y-99669423D01*
X169967974Y-99512986D02*
X169918068Y-99524377D01*
X169831925Y-99901793D02*
X169868716Y-99938584D01*
X175321092Y-81709500D02*
X174109500Y-82921092D01*
X170278149Y-99669423D02*
X170232028Y-99647212D01*
X176052999Y-81709500D02*
X175321092Y-81709500D01*
X170232028Y-99647212D02*
X170192006Y-99615296D01*
X176112499Y-81650000D02*
X176052999Y-81709500D01*
X170192006Y-99615296D02*
X170155214Y-99578504D01*
X170069071Y-99524377D02*
X170019164Y-99512986D01*
X170115192Y-99546587D02*
X170069071Y-99524377D01*
X170019164Y-99512986D02*
X169967974Y-99512986D01*
X169918068Y-99524377D02*
X169871947Y-99546587D01*
X169871947Y-99546587D02*
X169831925Y-99578504D01*
X169800008Y-99618526D02*
X169777797Y-99664646D01*
X174109500Y-82921092D02*
X174109500Y-96021092D01*
X169777797Y-99664646D02*
X169766406Y-99714553D01*
X169766406Y-99714553D02*
X169766406Y-99765743D01*
X177275000Y-81650000D02*
X176112499Y-81650000D01*
X169766406Y-99765743D02*
X169777797Y-99815650D01*
X169777797Y-99815650D02*
X169800008Y-99861771D01*
X169800008Y-99861771D02*
X169831925Y-99901793D01*
G04 #@! TO.N,c1-pcie-tx-*
X155409500Y-106885700D02*
X155323800Y-106800000D01*
X156321092Y-108890500D02*
X155409500Y-107978908D01*
X155409500Y-107978908D02*
X155409500Y-106885700D01*
X161778908Y-108890500D02*
X156321092Y-108890500D01*
X174490500Y-96178908D02*
X161778908Y-108890500D01*
X174490500Y-83078908D02*
X174490500Y-96178908D01*
X175478908Y-82090500D02*
X174490500Y-83078908D01*
X177275000Y-82150000D02*
X176112499Y-82150000D01*
X176052999Y-82090500D02*
X175478908Y-82090500D01*
X176112499Y-82150000D02*
X176052999Y-82090500D01*
G04 #@! TO.N,eth-p4+*
X108240000Y-94124999D02*
X108240000Y-97350000D01*
X108549500Y-93815499D02*
X108240000Y-94124999D01*
X108549500Y-87181092D02*
X108549500Y-93815499D01*
X110404697Y-85325895D02*
X108549500Y-87181092D01*
X110404697Y-85204697D02*
X110404697Y-85325895D01*
G04 #@! TO.N,eth-p4-*
X109240000Y-94124999D02*
X109240000Y-97350000D01*
X108930500Y-87338908D02*
X108930500Y-93815499D01*
X110674105Y-85595303D02*
X108930500Y-87338908D01*
X108930500Y-93815499D02*
X109240000Y-94124999D01*
X110795303Y-85595303D02*
X110674105Y-85595303D01*
G04 #@! TO.N,eth-p3-*
X112240000Y-94124999D02*
X112240000Y-97350000D01*
X111930500Y-93815499D02*
X112240000Y-94124999D01*
X110985700Y-87109500D02*
X111378908Y-87109500D01*
X110900000Y-87023800D02*
X110985700Y-87109500D01*
X111930500Y-87661092D02*
X111930500Y-93815499D01*
X111378908Y-87109500D02*
X111930500Y-87661092D01*
G04 #@! TO.N,eth-p3+*
X111240000Y-94124999D02*
X111240000Y-97350000D01*
X111549500Y-93815499D02*
X111240000Y-94124999D01*
X110985700Y-87490500D02*
X111221092Y-87490500D01*
X110900000Y-87576200D02*
X110985700Y-87490500D01*
X111549500Y-87818908D02*
X111549500Y-93815499D01*
X111221092Y-87490500D02*
X111549500Y-87818908D01*
D21*
G04 #@! TO.N,c1-led-activity*
X97954821Y-79595091D02*
X97954821Y-79018439D01*
X101240000Y-97350000D02*
X101240000Y-82880270D01*
X101240000Y-82880270D02*
X97954821Y-79595091D01*
X112920660Y-78457233D02*
X111173061Y-76709634D01*
X139029340Y-78457233D02*
X112920660Y-78457233D01*
X111173061Y-76709634D02*
X109344928Y-76709634D01*
X109192527Y-76557233D02*
X100514733Y-76557233D01*
X100367154Y-76704812D02*
X99443572Y-76704812D01*
X99443572Y-76704812D02*
X97954821Y-78193563D01*
X141434162Y-76052411D02*
X139029340Y-78457233D01*
X97954821Y-78193563D02*
X97954821Y-79018439D01*
X100514733Y-76557233D02*
X100367154Y-76704812D01*
X109344928Y-76709634D02*
X109192527Y-76557233D01*
X141434162Y-76052411D02*
X150947589Y-76052411D01*
X151500000Y-75500000D02*
X152800000Y-75500000D01*
X150947589Y-76052411D02*
X151500000Y-75500000D01*
X155800000Y-72500000D02*
X152800000Y-75500000D01*
G04 #@! TO.N,c1_UART_TX*
X98240000Y-82936768D02*
X98240000Y-97350000D01*
X96445179Y-80021625D02*
X96502401Y-80078847D01*
X98658053Y-75095179D02*
X96445178Y-77308054D01*
X149000000Y-72600000D02*
X149000000Y-72882842D01*
X96445178Y-77308054D02*
X96445179Y-80021625D01*
X108727241Y-75095179D02*
X98658053Y-75095179D01*
X96502401Y-80078847D02*
X96502401Y-81199169D01*
X109636874Y-76004812D02*
X108727241Y-75095179D01*
X111465007Y-76004812D02*
X109636874Y-76004812D01*
X96502401Y-81199169D02*
X98240000Y-82936768D01*
X113212607Y-77752411D02*
X111465007Y-76004812D01*
X146582842Y-75300000D02*
X141189804Y-75300000D01*
X138737393Y-77752411D02*
X113212607Y-77752411D01*
X141189804Y-75300000D02*
X138737393Y-77752411D01*
X149000000Y-72882842D02*
X146582842Y-75300000D01*
G04 #@! TO.N,c1_UART_RX*
X96854812Y-81053196D02*
X96854812Y-79932874D01*
X98904027Y-75447589D02*
X108581267Y-75447589D01*
X108581267Y-75447589D02*
X109490901Y-76357223D01*
X96797589Y-79875651D02*
X96797590Y-77554026D01*
X146847589Y-75652411D02*
X149800000Y-72700000D01*
X141335777Y-75652411D02*
X146847589Y-75652411D01*
X138883366Y-78104822D02*
X141335777Y-75652411D01*
X111319034Y-76357223D02*
X113066634Y-78104822D01*
X96854812Y-79932874D02*
X96797589Y-79875651D01*
X99240000Y-97350000D02*
X99240000Y-83438384D01*
X99240000Y-83438384D02*
X96854812Y-81053196D01*
X113066634Y-78104822D02*
X138883366Y-78104822D01*
X109490901Y-76357223D02*
X111319034Y-76357223D01*
X96797590Y-77554026D02*
X98904027Y-75447589D01*
D22*
G04 #@! TO.N,c1-usb-d+*
X124504697Y-88604697D02*
X124504697Y-88725895D01*
X124504697Y-88725895D02*
X124021092Y-89209500D01*
X124021092Y-89209500D02*
X116178908Y-89209500D01*
X116178908Y-89209500D02*
X111178908Y-84209500D01*
X111178908Y-84209500D02*
X109621092Y-84209500D01*
X104985700Y-86709500D02*
X104900000Y-86623800D01*
X107121092Y-86709500D02*
X104985700Y-86709500D01*
X109621092Y-84209500D02*
X107121092Y-86709500D01*
G04 #@! TO.N,c1-usb-d-*
X124895303Y-88995303D02*
X124774105Y-88995303D01*
X124774105Y-88995303D02*
X124178908Y-89590500D01*
X124178908Y-89590500D02*
X116021092Y-89590500D01*
X116021092Y-89590500D02*
X111021092Y-84590500D01*
X111021092Y-84590500D02*
X109778908Y-84590500D01*
X104985700Y-87090500D02*
X104900000Y-87176200D01*
X107278908Y-87090500D02*
X104985700Y-87090500D01*
X109778908Y-84590500D02*
X107278908Y-87090500D01*
D23*
G04 #@! TO.N,GPIO_REF*
X143600000Y-73000000D02*
X143650000Y-73050000D01*
D24*
X115089805Y-76800000D02*
X137882444Y-76800000D01*
X101300000Y-73850000D02*
X112139805Y-73850000D01*
X112139805Y-73850000D02*
X115089805Y-76800000D01*
X137882444Y-76800000D02*
X140482444Y-74200000D01*
X140482444Y-74200000D02*
X143650000Y-74200000D01*
X143650000Y-74200000D02*
X143650000Y-73050000D01*
X98859634Y-78426938D02*
X99776938Y-77509634D01*
X101252420Y-77509634D02*
X101300000Y-77462054D01*
X99776938Y-77509634D02*
X101252420Y-77509634D01*
X98859634Y-79324676D02*
X98859634Y-78426938D01*
X102800000Y-83265042D02*
X98859634Y-79324676D01*
X102800000Y-90350000D02*
X102800000Y-83265042D01*
D21*
G04 #@! TO.N,c1-usb-otg-id*
X104700000Y-90200000D02*
X104300000Y-89800000D01*
X104300000Y-89800000D02*
X104300000Y-84100000D01*
X104300000Y-84100000D02*
X104800000Y-83600000D01*
X104800000Y-83600000D02*
X111700000Y-83600000D01*
X111700000Y-83600000D02*
X116000000Y-87900000D01*
X116000000Y-87900000D02*
X125900000Y-87900000D01*
X125900000Y-87900000D02*
X139700000Y-101700000D01*
X139700000Y-101700000D02*
X158500000Y-101700000D01*
G04 #@! TO.N,Net-(R5-Pad1)*
X170700000Y-77400000D02*
X169725000Y-77400000D01*
X170752401Y-77347599D02*
X170700000Y-77400000D01*
X170752401Y-72077401D02*
X170752401Y-77347599D01*
X169541000Y-70866000D02*
X170752401Y-72077401D01*
X167957000Y-70866000D02*
X169541000Y-70866000D01*
G04 #@! TO.N,c1-rpiboot*
X99245974Y-76252410D02*
X100150000Y-76252410D01*
X97502411Y-79583705D02*
X97502411Y-77995973D01*
X138100000Y-77400000D02*
X113600000Y-77400000D01*
X139700000Y-75800000D02*
X138100000Y-77400000D01*
X97559632Y-79640926D02*
X97502411Y-79583705D01*
X110842770Y-74642770D02*
X100150000Y-74642770D01*
X113600000Y-77400000D02*
X110842770Y-74642770D01*
X100750000Y-82951616D02*
X97559632Y-79761248D01*
X100750000Y-90250000D02*
X100750000Y-82951616D01*
X97559632Y-79761248D02*
X97559632Y-79640926D01*
X97502411Y-77995973D02*
X99245974Y-76252410D01*
G04 #@! TO.N,c1-eeprom_wp*
X100000000Y-90250000D02*
X99650000Y-89900000D01*
X99650000Y-89900000D02*
X99650000Y-83200000D01*
X97207222Y-79786900D02*
X97150000Y-79729678D01*
X99650000Y-83200000D02*
X97207223Y-80757223D01*
X97207223Y-80757223D02*
X97207222Y-79786900D01*
X97150000Y-79729678D02*
X97150000Y-77700000D01*
X97150000Y-77700000D02*
X98650000Y-76200000D01*
X98650000Y-76200000D02*
X99050000Y-75800000D01*
X103300000Y-75800000D02*
X103550000Y-76050000D01*
X99050000Y-75800000D02*
X103300000Y-75800000D01*
X104004812Y-80004812D02*
X111454812Y-80004812D01*
X103650000Y-79650000D02*
X104004812Y-80004812D01*
X111454812Y-80004812D02*
X111700000Y-80250000D01*
X151650000Y-80250000D02*
X156100000Y-75800000D01*
X111700000Y-80250000D02*
X151650000Y-80250000D01*
G04 #@! TO.N,Net-(R4-Pad1)*
X157400000Y-73400000D02*
X150933125Y-79866875D01*
X150933125Y-79866875D02*
X111815259Y-79866875D01*
X111815259Y-79866875D02*
X111600785Y-79652401D01*
X111600785Y-79652401D02*
X110800785Y-79652401D01*
X110800785Y-79652401D02*
X109967660Y-78819276D01*
X109967660Y-78819276D02*
X101200000Y-78819276D01*
G04 #@! TO.N,Net-(TP1-Pad1)*
X140654812Y-71695188D02*
X146245188Y-71695188D01*
X146850000Y-72300000D02*
X146850000Y-73000000D01*
X140000000Y-72350000D02*
X140654812Y-71695188D01*
X146245188Y-71695188D02*
X146850000Y-72300000D01*
G04 #@! TO.N,c1-run-reset*
X98407223Y-79512071D02*
X98407223Y-78239545D01*
X100513127Y-77057223D02*
X100660706Y-76909644D01*
X109198955Y-77062045D02*
X111027088Y-77062045D01*
X111027088Y-77062045D02*
X112774687Y-78809644D01*
X99589545Y-77057223D02*
X100513127Y-77057223D01*
X100660706Y-76909644D02*
X109046554Y-76909644D01*
X98407223Y-78239545D02*
X99589545Y-77057223D01*
X112774687Y-78809644D02*
X139595177Y-78809644D01*
X102240000Y-97350000D02*
X102240000Y-83344848D01*
X139595177Y-78809644D02*
X141900000Y-76504821D01*
X102240000Y-83344848D02*
X98407223Y-79512071D01*
X109046554Y-76909644D02*
X109198955Y-77062045D01*
G04 #@! TO.N,c1-eth-led3*
X100248397Y-78014455D02*
X99412044Y-78850808D01*
X103240000Y-97350000D02*
X103352401Y-97237599D01*
X111481114Y-78014455D02*
X100248397Y-78014455D01*
X150022456Y-79162055D02*
X112628714Y-79162055D01*
X157243401Y-72223952D02*
X156960559Y-72223952D01*
X103352401Y-83125116D02*
X99412044Y-79184759D01*
X112628714Y-79162055D02*
X111481114Y-78014455D01*
X156960559Y-72223952D02*
X150022456Y-79162055D01*
X103352401Y-97237599D02*
X103352401Y-83125116D01*
X99412044Y-79184759D02*
X99412044Y-78850808D01*
G04 #@! TO.N,c1-eth-led2*
X103947589Y-83035552D02*
X99936463Y-79024426D01*
X103947589Y-97057589D02*
X103947589Y-83035552D01*
X150405695Y-79514465D02*
X112482740Y-79514465D01*
X104240000Y-97350000D02*
X103947589Y-97057589D01*
X157149902Y-72770258D02*
X150405695Y-79514465D01*
X111335141Y-78366866D02*
X100594023Y-78366866D01*
X112482740Y-79514465D02*
X111335141Y-78366866D01*
X100594023Y-78366866D02*
X99936463Y-79024426D01*
G04 #@! TD*
G04 #@! TO.N,GND*
X165786242Y-70270242D02*
X165729828Y-70338982D01*
X165687909Y-70417407D01*
X165662095Y-70502503D01*
X165653379Y-70591000D01*
X165653379Y-71141000D01*
X165662095Y-71229497D01*
X165687909Y-71314593D01*
X165729828Y-71393018D01*
X165786242Y-71461758D01*
X165854982Y-71518172D01*
X165933407Y-71560091D01*
X166018503Y-71585905D01*
X166107000Y-71594621D01*
X166507000Y-71594621D01*
X166595497Y-71585905D01*
X166680593Y-71560091D01*
X166759018Y-71518172D01*
X166827758Y-71461758D01*
X166884172Y-71393018D01*
X166926091Y-71314593D01*
X166951905Y-71229497D01*
X166960621Y-71141000D01*
X166960621Y-70591000D01*
X166951905Y-70502503D01*
X166926091Y-70417407D01*
X166884172Y-70338982D01*
X166827758Y-70270242D01*
X166772631Y-70225000D01*
X167491369Y-70225000D01*
X167436242Y-70270242D01*
X167379828Y-70338982D01*
X167337909Y-70417407D01*
X167312095Y-70502503D01*
X167303379Y-70591000D01*
X167303379Y-71141000D01*
X167312095Y-71229497D01*
X167337909Y-71314593D01*
X167379828Y-71393018D01*
X167436242Y-71461758D01*
X167504982Y-71518172D01*
X167583407Y-71560091D01*
X167668503Y-71585905D01*
X167757000Y-71594621D01*
X168157000Y-71594621D01*
X168245497Y-71585905D01*
X168330593Y-71560091D01*
X168409018Y-71518172D01*
X168477758Y-71461758D01*
X168534172Y-71393018D01*
X168576091Y-71314593D01*
X168601905Y-71229497D01*
X168602998Y-71218400D01*
X169395032Y-71218400D01*
X170024231Y-71847600D01*
X167100000Y-71847600D01*
X167050759Y-71852450D01*
X167003411Y-71866813D01*
X166959774Y-71890137D01*
X166921526Y-71921526D01*
X166890137Y-71959774D01*
X166866813Y-72003411D01*
X166852450Y-72050759D01*
X166847600Y-72100000D01*
X166847600Y-90600000D01*
X166852450Y-90649241D01*
X166866813Y-90696589D01*
X166890137Y-90740226D01*
X166921526Y-90778474D01*
X166959774Y-90809863D01*
X167003411Y-90833187D01*
X167050759Y-90847550D01*
X167100000Y-90852400D01*
X170400002Y-90852400D01*
X170400002Y-91230279D01*
X170400001Y-91230289D01*
X170400001Y-91401630D01*
X158054032Y-103747600D01*
X157586894Y-103747600D01*
X157514292Y-103699088D01*
X157431960Y-103664985D01*
X157344558Y-103647600D01*
X157255442Y-103647600D01*
X157168040Y-103664985D01*
X157085708Y-103699088D01*
X157011612Y-103748598D01*
X156948598Y-103811612D01*
X156899088Y-103885708D01*
X156864985Y-103968040D01*
X156847600Y-104055442D01*
X156847600Y-104144558D01*
X156864985Y-104231960D01*
X156899088Y-104314292D01*
X156948598Y-104388388D01*
X157011612Y-104451402D01*
X157085708Y-104500912D01*
X157168040Y-104535015D01*
X157255442Y-104552400D01*
X157344558Y-104552400D01*
X157431960Y-104535015D01*
X157514292Y-104500912D01*
X157586894Y-104452400D01*
X158182696Y-104452400D01*
X158200000Y-104454104D01*
X158217304Y-104452400D01*
X158217311Y-104452400D01*
X158269082Y-104447301D01*
X158335510Y-104427150D01*
X158396730Y-104394428D01*
X158450390Y-104350390D01*
X158461429Y-104336939D01*
X170752413Y-92045956D01*
X170752413Y-94949219D01*
X162663057Y-103038575D01*
X162649611Y-103049610D01*
X162638576Y-103063056D01*
X162638575Y-103063057D01*
X162605573Y-103103270D01*
X162572850Y-103164491D01*
X162552699Y-103230918D01*
X162545896Y-103300000D01*
X162547601Y-103317313D01*
X162547601Y-103513105D01*
X162499088Y-103585708D01*
X162464985Y-103668040D01*
X162447600Y-103755442D01*
X162447600Y-103844558D01*
X162464985Y-103931960D01*
X162499088Y-104014292D01*
X162548598Y-104088388D01*
X162611612Y-104151402D01*
X162685708Y-104200912D01*
X162768040Y-104235015D01*
X162855442Y-104252400D01*
X162859601Y-104252400D01*
X160069201Y-107042800D01*
X158444254Y-107042800D01*
X158430318Y-106972737D01*
X158396215Y-106890405D01*
X158346705Y-106816309D01*
X158283691Y-106753295D01*
X158209595Y-106703785D01*
X158127263Y-106669682D01*
X158039861Y-106652297D01*
X157950745Y-106652297D01*
X157863343Y-106669682D01*
X157781011Y-106703785D01*
X157706915Y-106753295D01*
X157643901Y-106816309D01*
X157594391Y-106890405D01*
X157560288Y-106972737D01*
X157545763Y-107045763D01*
X157472737Y-107060288D01*
X157390405Y-107094391D01*
X157316309Y-107143901D01*
X157253295Y-107206915D01*
X157203785Y-107281011D01*
X157169682Y-107363343D01*
X157152297Y-107450745D01*
X157152297Y-107539861D01*
X157169682Y-107627263D01*
X157203785Y-107709595D01*
X157253295Y-107783691D01*
X157316309Y-107846705D01*
X157390405Y-107896215D01*
X157472737Y-107930318D01*
X157560139Y-107947703D01*
X157649255Y-107947703D01*
X157657970Y-107945970D01*
X157749063Y-108037062D01*
X157760542Y-108051050D01*
X157774529Y-108062529D01*
X157774532Y-108062532D01*
X157797818Y-108081642D01*
X157816379Y-108096875D01*
X157880083Y-108130926D01*
X157919227Y-108142800D01*
X156630800Y-108142800D01*
X156157200Y-107669201D01*
X156157200Y-107156339D01*
X156164588Y-107151402D01*
X156227602Y-107088388D01*
X156277112Y-107014292D01*
X156311215Y-106931960D01*
X156328600Y-106844558D01*
X156328600Y-106755442D01*
X156311215Y-106668040D01*
X156277112Y-106585708D01*
X156227602Y-106511612D01*
X156164588Y-106448598D01*
X156090492Y-106399088D01*
X156008160Y-106364985D01*
X155920758Y-106347600D01*
X155831642Y-106347600D01*
X155744240Y-106364985D01*
X155661908Y-106399088D01*
X155600000Y-106440454D01*
X155538092Y-106399088D01*
X155455760Y-106364985D01*
X155368358Y-106347600D01*
X155279242Y-106347600D01*
X155191840Y-106364985D01*
X155109508Y-106399088D01*
X155035412Y-106448598D01*
X154972398Y-106511612D01*
X154922888Y-106585708D01*
X154888785Y-106668040D01*
X154871400Y-106755442D01*
X154871400Y-106844558D01*
X154888785Y-106931960D01*
X154922888Y-107014292D01*
X154972398Y-107088388D01*
X155035412Y-107151402D01*
X155042801Y-107156339D01*
X155042800Y-107960906D01*
X155041027Y-107978908D01*
X155042800Y-107996910D01*
X155042800Y-107996919D01*
X155048106Y-108050793D01*
X155069074Y-108119916D01*
X155074959Y-108130925D01*
X155103125Y-108183621D01*
X155137468Y-108225467D01*
X155137471Y-108225470D01*
X155148950Y-108239457D01*
X155162938Y-108250937D01*
X156049063Y-109137063D01*
X156060542Y-109151050D01*
X156074529Y-109162529D01*
X156074532Y-109162532D01*
X156116379Y-109196875D01*
X156180083Y-109230926D01*
X156249206Y-109251894D01*
X156303080Y-109257200D01*
X156303090Y-109257200D01*
X156321092Y-109258973D01*
X156339094Y-109257200D01*
X161760906Y-109257200D01*
X161778908Y-109258973D01*
X161796910Y-109257200D01*
X161796920Y-109257200D01*
X161850794Y-109251894D01*
X161919917Y-109230926D01*
X161983621Y-109196875D01*
X162039458Y-109151050D01*
X162050942Y-109137057D01*
X164998247Y-106189752D01*
X173350000Y-106189752D01*
X173350000Y-106810248D01*
X173471052Y-107418821D01*
X173708506Y-107992085D01*
X174053235Y-108508008D01*
X174491992Y-108946765D01*
X175007915Y-109291494D01*
X175581179Y-109528948D01*
X176189752Y-109650000D01*
X176810248Y-109650000D01*
X177418821Y-109528948D01*
X177992085Y-109291494D01*
X178508008Y-108946765D01*
X178946765Y-108508008D01*
X179291494Y-107992085D01*
X179528948Y-107418821D01*
X179650000Y-106810248D01*
X179650000Y-106189752D01*
X179528948Y-105581179D01*
X179291494Y-105007915D01*
X178946765Y-104491992D01*
X178508008Y-104053235D01*
X177992085Y-103708506D01*
X177418821Y-103471052D01*
X176810248Y-103350000D01*
X176189752Y-103350000D01*
X175581179Y-103471052D01*
X175007915Y-103708506D01*
X174491992Y-104053235D01*
X174053235Y-104491992D01*
X173708506Y-105007915D01*
X173471052Y-105581179D01*
X173350000Y-106189752D01*
X164998247Y-106189752D01*
X168808757Y-102379242D01*
X169047600Y-102379242D01*
X169047600Y-102468358D01*
X169064985Y-102555760D01*
X169099088Y-102638092D01*
X169140454Y-102700000D01*
X169099088Y-102761908D01*
X169064985Y-102844240D01*
X169047600Y-102931642D01*
X169047600Y-103020758D01*
X169064985Y-103108160D01*
X169099088Y-103190492D01*
X169148598Y-103264588D01*
X169211612Y-103327602D01*
X169285708Y-103377112D01*
X169368040Y-103411215D01*
X169455442Y-103428600D01*
X169544558Y-103428600D01*
X169631960Y-103411215D01*
X169714292Y-103377112D01*
X169788388Y-103327602D01*
X169851402Y-103264588D01*
X169856339Y-103257200D01*
X169860906Y-103257200D01*
X169878908Y-103258973D01*
X169896910Y-103257200D01*
X169896920Y-103257200D01*
X169950794Y-103251894D01*
X170019917Y-103230926D01*
X170083621Y-103196875D01*
X170139458Y-103151050D01*
X170150942Y-103137057D01*
X179337067Y-93950933D01*
X179351049Y-93939458D01*
X179362525Y-93925475D01*
X179362532Y-93925468D01*
X179396874Y-93883622D01*
X179396875Y-93883621D01*
X179430926Y-93819917D01*
X179451894Y-93750794D01*
X179457200Y-93696920D01*
X179457200Y-93696911D01*
X179458973Y-93678909D01*
X179457200Y-93660907D01*
X179457200Y-83939093D01*
X179458973Y-83921091D01*
X179457200Y-83903089D01*
X179457200Y-83903080D01*
X179451894Y-83849206D01*
X179430926Y-83780083D01*
X179412652Y-83745895D01*
X179396875Y-83716378D01*
X179362532Y-83674532D01*
X179362529Y-83674529D01*
X179351050Y-83660542D01*
X179337063Y-83649063D01*
X178650940Y-82962941D01*
X178639458Y-82948950D01*
X178583621Y-82903125D01*
X178519917Y-82869074D01*
X178450794Y-82848106D01*
X178447232Y-82847755D01*
X178451935Y-82800000D01*
X178450000Y-82800000D01*
X178350000Y-82700000D01*
X177325000Y-82700000D01*
X177325000Y-82720000D01*
X177225000Y-82720000D01*
X177225000Y-82700000D01*
X176200000Y-82700000D01*
X176100000Y-82800000D01*
X176098065Y-82800000D01*
X176105788Y-82878414D01*
X176128660Y-82953814D01*
X176165803Y-83023303D01*
X176215789Y-83084211D01*
X176246379Y-83109316D01*
X176246379Y-83300000D01*
X176251252Y-83349479D01*
X176265685Y-83397057D01*
X176267258Y-83400000D01*
X176265685Y-83402943D01*
X176251252Y-83450521D01*
X176246379Y-83500000D01*
X176246379Y-83690684D01*
X176215789Y-83715789D01*
X176165803Y-83776697D01*
X176128660Y-83846186D01*
X176105788Y-83921586D01*
X176098065Y-84000000D01*
X176100000Y-84000000D01*
X176200000Y-84100000D01*
X177225000Y-84100000D01*
X177225000Y-84080000D01*
X177325000Y-84080000D01*
X177325000Y-84100000D01*
X177345000Y-84100000D01*
X177345000Y-84200000D01*
X177325000Y-84200000D01*
X177325000Y-84220000D01*
X177225000Y-84220000D01*
X177225000Y-84200000D01*
X176200000Y-84200000D01*
X176100000Y-84300000D01*
X176098065Y-84300000D01*
X176105788Y-84378414D01*
X176128660Y-84453814D01*
X176165803Y-84523303D01*
X176215789Y-84584211D01*
X176246379Y-84609316D01*
X176246379Y-84800000D01*
X176251252Y-84849479D01*
X176265685Y-84897057D01*
X176267258Y-84900000D01*
X176265685Y-84902943D01*
X176251252Y-84950521D01*
X176246379Y-85000000D01*
X176246379Y-85300000D01*
X176251252Y-85349479D01*
X176265685Y-85397057D01*
X176267258Y-85400000D01*
X176265685Y-85402943D01*
X176251252Y-85450521D01*
X176246379Y-85500000D01*
X176246379Y-85800000D01*
X176251252Y-85849479D01*
X176265685Y-85897057D01*
X176267258Y-85900000D01*
X176265685Y-85902943D01*
X176251252Y-85950521D01*
X176246379Y-86000000D01*
X176246379Y-86300000D01*
X176251252Y-86349479D01*
X176265685Y-86397057D01*
X176267258Y-86400000D01*
X176265685Y-86402943D01*
X176251252Y-86450521D01*
X176246379Y-86500000D01*
X176246379Y-86800000D01*
X176251252Y-86849479D01*
X176265685Y-86897057D01*
X176267258Y-86900000D01*
X176265685Y-86902943D01*
X176251252Y-86950521D01*
X176246379Y-87000000D01*
X176246379Y-87300000D01*
X176251252Y-87349479D01*
X176265685Y-87397057D01*
X176267258Y-87400000D01*
X176265685Y-87402943D01*
X176251252Y-87450521D01*
X176246379Y-87500000D01*
X176246379Y-87800000D01*
X176251252Y-87849479D01*
X176265685Y-87897057D01*
X176267258Y-87900000D01*
X176265685Y-87902943D01*
X176251252Y-87950521D01*
X176246379Y-88000000D01*
X176246379Y-88300000D01*
X176251252Y-88349479D01*
X176265685Y-88397057D01*
X176267258Y-88400000D01*
X176265685Y-88402943D01*
X176251252Y-88450521D01*
X176246379Y-88500000D01*
X176246379Y-88800000D01*
X176251252Y-88849479D01*
X176265685Y-88897057D01*
X176267258Y-88900000D01*
X176265685Y-88902943D01*
X176251252Y-88950521D01*
X176246379Y-89000000D01*
X176246379Y-89300000D01*
X176251252Y-89349479D01*
X176265685Y-89397057D01*
X176267258Y-89400000D01*
X176265685Y-89402943D01*
X176251252Y-89450521D01*
X176246379Y-89500000D01*
X176246379Y-89690684D01*
X176215789Y-89715789D01*
X176165803Y-89776697D01*
X176128660Y-89846186D01*
X176105788Y-89921586D01*
X176098065Y-90000000D01*
X176100000Y-90000000D01*
X176200000Y-90100000D01*
X177225000Y-90100000D01*
X177225000Y-90080000D01*
X177325000Y-90080000D01*
X177325000Y-90100000D01*
X177345000Y-90100000D01*
X177345000Y-90200000D01*
X177325000Y-90200000D01*
X177325000Y-90220000D01*
X177225000Y-90220000D01*
X177225000Y-90200000D01*
X176200000Y-90200000D01*
X176100000Y-90300000D01*
X176098065Y-90300000D01*
X176105788Y-90378414D01*
X176128660Y-90453814D01*
X176165803Y-90523303D01*
X176215789Y-90584211D01*
X176246379Y-90609316D01*
X176246379Y-90800000D01*
X176251252Y-90849479D01*
X176265479Y-90896379D01*
X175125000Y-90896379D01*
X175075521Y-90901252D01*
X175027943Y-90915685D01*
X174984096Y-90939122D01*
X174945663Y-90970663D01*
X174914122Y-91009096D01*
X174890685Y-91052943D01*
X174876252Y-91100521D01*
X174871379Y-91150000D01*
X174871379Y-92350000D01*
X174876252Y-92399479D01*
X174890685Y-92447057D01*
X174914122Y-92490904D01*
X174945663Y-92529337D01*
X174984096Y-92560878D01*
X175027943Y-92584315D01*
X175075521Y-92598748D01*
X175125000Y-92603621D01*
X177875000Y-92603621D01*
X177924479Y-92598748D01*
X177972057Y-92584315D01*
X178015904Y-92560878D01*
X178054337Y-92529337D01*
X178085878Y-92490904D01*
X178109315Y-92447057D01*
X178123748Y-92399479D01*
X178128621Y-92350000D01*
X178128621Y-91150000D01*
X178123748Y-91100521D01*
X178109315Y-91052943D01*
X178106013Y-91046766D01*
X178147057Y-91034315D01*
X178190904Y-91010878D01*
X178229337Y-90979337D01*
X178260878Y-90940904D01*
X178284315Y-90897057D01*
X178298748Y-90849479D01*
X178303621Y-90800000D01*
X178303621Y-90609316D01*
X178334211Y-90584211D01*
X178342801Y-90573744D01*
X178342801Y-93369199D01*
X177615457Y-94096544D01*
X177614441Y-94095734D01*
X177597324Y-94080001D01*
X177570886Y-94063901D01*
X177544883Y-94047049D01*
X177523271Y-94038450D01*
X177490974Y-94022897D01*
X177470777Y-94011362D01*
X177441374Y-94001534D01*
X177412308Y-93990904D01*
X177389342Y-93987333D01*
X177354381Y-93979353D01*
X177332125Y-93972602D01*
X177301290Y-93969565D01*
X177270572Y-93965667D01*
X177247379Y-93967296D01*
X177211518Y-93967296D01*
X177188325Y-93965667D01*
X177157606Y-93969565D01*
X177126773Y-93972602D01*
X177104517Y-93979353D01*
X177069556Y-93987333D01*
X177046590Y-93990904D01*
X177017524Y-94001534D01*
X176988121Y-94011362D01*
X176967925Y-94022896D01*
X176935621Y-94038453D01*
X176914018Y-94047048D01*
X176888031Y-94063890D01*
X176861574Y-94080001D01*
X176844456Y-94095735D01*
X176816421Y-94118093D01*
X176797268Y-94131282D01*
X176775664Y-94153500D01*
X176753467Y-94175083D01*
X176740281Y-94194230D01*
X176717917Y-94222274D01*
X176702186Y-94239387D01*
X176686087Y-94265824D01*
X176669231Y-94291832D01*
X176660632Y-94313444D01*
X176645080Y-94345738D01*
X176633543Y-94365938D01*
X176623718Y-94395332D01*
X176613086Y-94424402D01*
X176609513Y-94447375D01*
X176601533Y-94482338D01*
X176594783Y-94504591D01*
X176591747Y-94535422D01*
X176587848Y-94566143D01*
X176589477Y-94589336D01*
X176589477Y-94625196D01*
X176587848Y-94648389D01*
X176591746Y-94679107D01*
X176594783Y-94709942D01*
X176601534Y-94732198D01*
X176609513Y-94767157D01*
X176613086Y-94790130D01*
X176623718Y-94819200D01*
X176633543Y-94848594D01*
X176645080Y-94868794D01*
X176660632Y-94901088D01*
X176669231Y-94922700D01*
X176686087Y-94948708D01*
X176702186Y-94975145D01*
X176717917Y-94992258D01*
X176718726Y-94993273D01*
X174592240Y-97119761D01*
X174592235Y-97119765D01*
X169696488Y-102015513D01*
X169631960Y-101988785D01*
X169544558Y-101971400D01*
X169455442Y-101971400D01*
X169368040Y-101988785D01*
X169285708Y-102022888D01*
X169211612Y-102072398D01*
X169148598Y-102135412D01*
X169099088Y-102209508D01*
X169064985Y-102291840D01*
X169047600Y-102379242D01*
X168808757Y-102379242D01*
X174737063Y-96450937D01*
X174751050Y-96439458D01*
X174762529Y-96425471D01*
X174762532Y-96425468D01*
X174796875Y-96383621D01*
X174830926Y-96319917D01*
X174842536Y-96281642D01*
X174851894Y-96250794D01*
X174857200Y-96196920D01*
X174857200Y-96196910D01*
X174858973Y-96178908D01*
X174857200Y-96160906D01*
X174857200Y-83230799D01*
X175630800Y-82457200D01*
X175909329Y-82457200D01*
X175971490Y-82490426D01*
X176040613Y-82511394D01*
X176094487Y-82516700D01*
X176094497Y-82516700D01*
X176112499Y-82518473D01*
X176117937Y-82517937D01*
X176200000Y-82600000D01*
X177225000Y-82600000D01*
X177225000Y-82580000D01*
X177325000Y-82580000D01*
X177325000Y-82600000D01*
X178350000Y-82600000D01*
X178450000Y-82500000D01*
X178451935Y-82500000D01*
X178444212Y-82421586D01*
X178421340Y-82346186D01*
X178384197Y-82276697D01*
X178334211Y-82215789D01*
X178303621Y-82190684D01*
X178303621Y-82000000D01*
X178298748Y-81950521D01*
X178284315Y-81902943D01*
X178282742Y-81900000D01*
X178284315Y-81897057D01*
X178298748Y-81849479D01*
X178303621Y-81800000D01*
X178303621Y-81609316D01*
X178334211Y-81584211D01*
X178384197Y-81523303D01*
X178421340Y-81453814D01*
X178444212Y-81378414D01*
X178451935Y-81300000D01*
X178450000Y-81300000D01*
X178350000Y-81200000D01*
X177325000Y-81200000D01*
X177325000Y-81220000D01*
X177225000Y-81220000D01*
X177225000Y-81200000D01*
X176200000Y-81200000D01*
X176117937Y-81282063D01*
X176112499Y-81281527D01*
X176094497Y-81283300D01*
X176094487Y-81283300D01*
X176040613Y-81288606D01*
X175971490Y-81309574D01*
X175909329Y-81342800D01*
X175339094Y-81342800D01*
X175321092Y-81341027D01*
X175303090Y-81342800D01*
X175303080Y-81342800D01*
X175249206Y-81348106D01*
X175180083Y-81369074D01*
X175116379Y-81403125D01*
X175074532Y-81437468D01*
X175074529Y-81437471D01*
X175060542Y-81448950D01*
X175049063Y-81462937D01*
X173862938Y-82649063D01*
X173848950Y-82660543D01*
X173837471Y-82674530D01*
X173837468Y-82674533D01*
X173803125Y-82716379D01*
X173796199Y-82729337D01*
X173769074Y-82780084D01*
X173748106Y-82849207D01*
X173742800Y-82903081D01*
X173742800Y-82903090D01*
X173741027Y-82921092D01*
X173742800Y-82939094D01*
X173742801Y-95869199D01*
X170348780Y-99263221D01*
X170336758Y-99252170D01*
X170310309Y-99236064D01*
X170284317Y-99219219D01*
X170262706Y-99210621D01*
X170239757Y-99199569D01*
X170219572Y-99188041D01*
X170190203Y-99178224D01*
X170161102Y-99167581D01*
X170138131Y-99164009D01*
X170113304Y-99158343D01*
X170091050Y-99151592D01*
X170060219Y-99148556D01*
X170029498Y-99144657D01*
X170006305Y-99146286D01*
X169980830Y-99146286D01*
X169957637Y-99144657D01*
X169926928Y-99148555D01*
X169896088Y-99151592D01*
X169873825Y-99158345D01*
X169849006Y-99164010D01*
X169826037Y-99167582D01*
X169796953Y-99178218D01*
X169767565Y-99188041D01*
X169747373Y-99199574D01*
X169724424Y-99210625D01*
X169702822Y-99219220D01*
X169676846Y-99236054D01*
X169650381Y-99252170D01*
X169633257Y-99267910D01*
X169613345Y-99283790D01*
X169594198Y-99296975D01*
X169572614Y-99319173D01*
X169550395Y-99340778D01*
X169537206Y-99359930D01*
X169521334Y-99379832D01*
X169505597Y-99396952D01*
X169489489Y-99423404D01*
X169472640Y-99449401D01*
X169464043Y-99471009D01*
X169452993Y-99493954D01*
X169441461Y-99514145D01*
X169431641Y-99543523D01*
X169421004Y-99572606D01*
X169417431Y-99595577D01*
X169411762Y-99620417D01*
X169405012Y-99642668D01*
X169401976Y-99673494D01*
X169398077Y-99704219D01*
X169399706Y-99727412D01*
X169399706Y-99752884D01*
X169398077Y-99776077D01*
X169401976Y-99806798D01*
X169405012Y-99837629D01*
X169411763Y-99859883D01*
X169417431Y-99884716D01*
X169421003Y-99907687D01*
X169431640Y-99936770D01*
X169441461Y-99966151D01*
X169452992Y-99986341D01*
X169464043Y-100009288D01*
X169472640Y-100030896D01*
X169489486Y-100056889D01*
X169505595Y-100083342D01*
X169516641Y-100095358D01*
X161469201Y-108142800D01*
X160480773Y-108142800D01*
X160519917Y-108130926D01*
X160583621Y-108096875D01*
X160639458Y-108051050D01*
X160650942Y-108037057D01*
X173537067Y-95150933D01*
X173551049Y-95139458D01*
X173562525Y-95125475D01*
X173562532Y-95125468D01*
X173596875Y-95083621D01*
X173630926Y-95019917D01*
X173651894Y-94950794D01*
X173652982Y-94939744D01*
X173657200Y-94896920D01*
X173657200Y-94896913D01*
X173658973Y-94878908D01*
X173657200Y-94860903D01*
X173657200Y-79800000D01*
X176098065Y-79800000D01*
X176105788Y-79878414D01*
X176128660Y-79953814D01*
X176165803Y-80023303D01*
X176215789Y-80084211D01*
X176246379Y-80109316D01*
X176246379Y-80300000D01*
X176251252Y-80349479D01*
X176265685Y-80397057D01*
X176267258Y-80400000D01*
X176265685Y-80402943D01*
X176251252Y-80450521D01*
X176246379Y-80500000D01*
X176246379Y-80690684D01*
X176215789Y-80715789D01*
X176165803Y-80776697D01*
X176128660Y-80846186D01*
X176105788Y-80921586D01*
X176098065Y-81000000D01*
X176100000Y-81000000D01*
X176200000Y-81100000D01*
X177225000Y-81100000D01*
X177225000Y-81080000D01*
X177325000Y-81080000D01*
X177325000Y-81100000D01*
X178350000Y-81100000D01*
X178450000Y-81000000D01*
X178451935Y-81000000D01*
X178444212Y-80921586D01*
X178421340Y-80846186D01*
X178384197Y-80776697D01*
X178334211Y-80715789D01*
X178303621Y-80690684D01*
X178303621Y-80500000D01*
X178298748Y-80450521D01*
X178284315Y-80402943D01*
X178282742Y-80400000D01*
X178284315Y-80397057D01*
X178298748Y-80349479D01*
X178303621Y-80300000D01*
X178303621Y-80109316D01*
X178334211Y-80084211D01*
X178384197Y-80023303D01*
X178421340Y-79953814D01*
X178444212Y-79878414D01*
X178451935Y-79800000D01*
X178450000Y-79800000D01*
X178350000Y-79700000D01*
X177325000Y-79700000D01*
X177325000Y-79720000D01*
X177225000Y-79720000D01*
X177225000Y-79700000D01*
X176200000Y-79700000D01*
X176100000Y-79800000D01*
X176098065Y-79800000D01*
X173657200Y-79800000D01*
X173657200Y-79130799D01*
X174487999Y-78300000D01*
X176098065Y-78300000D01*
X176105788Y-78378414D01*
X176128660Y-78453814D01*
X176165803Y-78523303D01*
X176215789Y-78584211D01*
X176246379Y-78609316D01*
X176246379Y-78800000D01*
X176251252Y-78849479D01*
X176265685Y-78897057D01*
X176267258Y-78900000D01*
X176265685Y-78902943D01*
X176251252Y-78950521D01*
X176246379Y-79000000D01*
X176246379Y-79190684D01*
X176215789Y-79215789D01*
X176165803Y-79276697D01*
X176128660Y-79346186D01*
X176105788Y-79421586D01*
X176098065Y-79500000D01*
X176100000Y-79500000D01*
X176200000Y-79600000D01*
X177225000Y-79600000D01*
X177225000Y-79580000D01*
X177325000Y-79580000D01*
X177325000Y-79600000D01*
X178350000Y-79600000D01*
X178450000Y-79500000D01*
X178451935Y-79500000D01*
X178444212Y-79421586D01*
X178421340Y-79346186D01*
X178384197Y-79276697D01*
X178334211Y-79215789D01*
X178303621Y-79190684D01*
X178303621Y-79000000D01*
X178298748Y-78950521D01*
X178284315Y-78902943D01*
X178282742Y-78900000D01*
X178284315Y-78897057D01*
X178298748Y-78849479D01*
X178303621Y-78800000D01*
X178303621Y-78609316D01*
X178334211Y-78584211D01*
X178384197Y-78523303D01*
X178421340Y-78453814D01*
X178444212Y-78378414D01*
X178451935Y-78300000D01*
X178450000Y-78300000D01*
X178350000Y-78200000D01*
X177325000Y-78200000D01*
X177325000Y-78220000D01*
X177225000Y-78220000D01*
X177225000Y-78200000D01*
X176200000Y-78200000D01*
X176100000Y-78300000D01*
X176098065Y-78300000D01*
X174487999Y-78300000D01*
X174830800Y-77957200D01*
X175909329Y-77957200D01*
X175971490Y-77990426D01*
X176040613Y-78011394D01*
X176094487Y-78016700D01*
X176094497Y-78016700D01*
X176112499Y-78018473D01*
X176117937Y-78017937D01*
X176200000Y-78100000D01*
X177225000Y-78100000D01*
X177225000Y-78080000D01*
X177325000Y-78080000D01*
X177325000Y-78100000D01*
X178350000Y-78100000D01*
X178450000Y-78000000D01*
X178451935Y-78000000D01*
X178444212Y-77921586D01*
X178421340Y-77846186D01*
X178384197Y-77776697D01*
X178334211Y-77715789D01*
X178303621Y-77690684D01*
X178303621Y-77500000D01*
X178298748Y-77450521D01*
X178284315Y-77402943D01*
X178282742Y-77400000D01*
X178284315Y-77397057D01*
X178298748Y-77349479D01*
X178303621Y-77300000D01*
X178303621Y-77109316D01*
X178334211Y-77084211D01*
X178384197Y-77023303D01*
X178421340Y-76953814D01*
X178444212Y-76878414D01*
X178451935Y-76800000D01*
X178450000Y-76800000D01*
X178350000Y-76700000D01*
X177325000Y-76700000D01*
X177325000Y-76720000D01*
X177225000Y-76720000D01*
X177225000Y-76700000D01*
X176200000Y-76700000D01*
X176117937Y-76782063D01*
X176112499Y-76781527D01*
X176094497Y-76783300D01*
X176094487Y-76783300D01*
X176040613Y-76788606D01*
X175971490Y-76809574D01*
X175909329Y-76842800D01*
X174539093Y-76842800D01*
X174521091Y-76841027D01*
X174503089Y-76842800D01*
X174503080Y-76842800D01*
X174449206Y-76848106D01*
X174380083Y-76869074D01*
X174351442Y-76884383D01*
X174316378Y-76903125D01*
X174274532Y-76937468D01*
X174274529Y-76937471D01*
X174260542Y-76948950D01*
X174249063Y-76962937D01*
X172662938Y-78549063D01*
X172648951Y-78560542D01*
X172637472Y-78574529D01*
X172637468Y-78574533D01*
X172603125Y-78616379D01*
X172582975Y-78654078D01*
X172569075Y-78680083D01*
X172548107Y-78749206D01*
X172546794Y-78762541D01*
X172541027Y-78821092D01*
X172542801Y-78839104D01*
X172542800Y-90783036D01*
X172536500Y-90776736D01*
X172405079Y-90688923D01*
X172259051Y-90628436D01*
X172104029Y-90597600D01*
X171945971Y-90597600D01*
X171790949Y-90628436D01*
X171644921Y-90688923D01*
X171513500Y-90776736D01*
X171457212Y-90833024D01*
X171457212Y-78419409D01*
X171458916Y-78402105D01*
X171457212Y-78384801D01*
X171457212Y-78384795D01*
X171452113Y-78333024D01*
X171431962Y-78266596D01*
X171399240Y-78205376D01*
X171373804Y-78174383D01*
X171366237Y-78165162D01*
X171366232Y-78165157D01*
X171355201Y-78151716D01*
X171341761Y-78140686D01*
X170895930Y-77694856D01*
X170896730Y-77694428D01*
X170950390Y-77650390D01*
X170961429Y-77636939D01*
X170989340Y-77609028D01*
X171002791Y-77597989D01*
X171046829Y-77544329D01*
X171079551Y-77483109D01*
X171097099Y-77425261D01*
X171099702Y-77416682D01*
X171102409Y-77389195D01*
X171104801Y-77364910D01*
X171104801Y-77364904D01*
X171106505Y-77347600D01*
X171104801Y-77330296D01*
X171104801Y-72094712D01*
X171106506Y-72077401D01*
X171099702Y-72008318D01*
X171079551Y-71941891D01*
X171065170Y-71914985D01*
X171046829Y-71880671D01*
X171023668Y-71852450D01*
X171013826Y-71840457D01*
X171013821Y-71840452D01*
X171002790Y-71827011D01*
X170989350Y-71815981D01*
X170469717Y-71296348D01*
X170972600Y-71296348D01*
X170972600Y-71503652D01*
X171013043Y-71706974D01*
X171092375Y-71898498D01*
X171207548Y-72070866D01*
X171354134Y-72217452D01*
X171526502Y-72332625D01*
X171718026Y-72411957D01*
X171921348Y-72452400D01*
X172128652Y-72452400D01*
X172331974Y-72411957D01*
X172523498Y-72332625D01*
X172695866Y-72217452D01*
X172842452Y-72070866D01*
X172957625Y-71898498D01*
X173036957Y-71706974D01*
X173077400Y-71503652D01*
X173077400Y-71296348D01*
X173036957Y-71093026D01*
X172957625Y-70901502D01*
X172842452Y-70729134D01*
X172695866Y-70582548D01*
X172523498Y-70467375D01*
X172331974Y-70388043D01*
X172128652Y-70347600D01*
X171921348Y-70347600D01*
X171718026Y-70388043D01*
X171526502Y-70467375D01*
X171354134Y-70582548D01*
X171207548Y-70729134D01*
X171092375Y-70901502D01*
X171013043Y-71093026D01*
X170972600Y-71296348D01*
X170469717Y-71296348D01*
X169802429Y-70629061D01*
X169791390Y-70615610D01*
X169737730Y-70571572D01*
X169676510Y-70538850D01*
X169610082Y-70518699D01*
X169558311Y-70513600D01*
X169558304Y-70513600D01*
X169541000Y-70511896D01*
X169523696Y-70513600D01*
X168602998Y-70513600D01*
X168601905Y-70502503D01*
X168576091Y-70417407D01*
X168534172Y-70338982D01*
X168477758Y-70270242D01*
X168422631Y-70225000D01*
X175010516Y-70225000D01*
X174984096Y-70239122D01*
X174945663Y-70270663D01*
X174914122Y-70309096D01*
X174890685Y-70352943D01*
X174876252Y-70400521D01*
X174871379Y-70450000D01*
X174871379Y-71650000D01*
X174876252Y-71699479D01*
X174890685Y-71747057D01*
X174914122Y-71790904D01*
X174945663Y-71829337D01*
X174984096Y-71860878D01*
X175027943Y-71884315D01*
X175075521Y-71898748D01*
X175125000Y-71903621D01*
X176111238Y-71903621D01*
X176105788Y-71921586D01*
X176098065Y-72000000D01*
X176100000Y-72000000D01*
X176200000Y-72100000D01*
X176480353Y-72100000D01*
X176421586Y-72105788D01*
X176346186Y-72128660D01*
X176276697Y-72165803D01*
X176235028Y-72200000D01*
X176200000Y-72200000D01*
X176100000Y-72300000D01*
X176098065Y-72300000D01*
X176105788Y-72378414D01*
X176112336Y-72400000D01*
X176105788Y-72421586D01*
X176098065Y-72500000D01*
X176100000Y-72500000D01*
X176200000Y-72600000D01*
X176235028Y-72600000D01*
X176276697Y-72634197D01*
X176306262Y-72650000D01*
X176276697Y-72665803D01*
X176235028Y-72700000D01*
X176200000Y-72700000D01*
X176100000Y-72800000D01*
X176098065Y-72800000D01*
X176105788Y-72878414D01*
X176112336Y-72900000D01*
X176105788Y-72921586D01*
X176098065Y-73000000D01*
X176100000Y-73000000D01*
X176200000Y-73100000D01*
X176235028Y-73100000D01*
X176276697Y-73134197D01*
X176346186Y-73171340D01*
X176421586Y-73194212D01*
X176480353Y-73200000D01*
X176200000Y-73200000D01*
X176100000Y-73300000D01*
X176098065Y-73300000D01*
X176105788Y-73378414D01*
X176128660Y-73453814D01*
X176165803Y-73523303D01*
X176215789Y-73584211D01*
X176246379Y-73609316D01*
X176246379Y-73800000D01*
X176251252Y-73849479D01*
X176265685Y-73897057D01*
X176267258Y-73900000D01*
X176265685Y-73902943D01*
X176251252Y-73950521D01*
X176246379Y-74000000D01*
X176246379Y-74300000D01*
X176251252Y-74349479D01*
X176265685Y-74397057D01*
X176267258Y-74400000D01*
X176265685Y-74402943D01*
X176251252Y-74450521D01*
X176246379Y-74500000D01*
X176246379Y-74800000D01*
X176251252Y-74849479D01*
X176265685Y-74897057D01*
X176267258Y-74900000D01*
X176265685Y-74902943D01*
X176251252Y-74950521D01*
X176246379Y-75000000D01*
X176246379Y-75300000D01*
X176251252Y-75349479D01*
X176265685Y-75397057D01*
X176267258Y-75400000D01*
X176265685Y-75402943D01*
X176251252Y-75450521D01*
X176246379Y-75500000D01*
X176246379Y-75800000D01*
X176251252Y-75849479D01*
X176265685Y-75897057D01*
X176267258Y-75900000D01*
X176265685Y-75902943D01*
X176251252Y-75950521D01*
X176246379Y-76000000D01*
X176246379Y-76190684D01*
X176215789Y-76215789D01*
X176165803Y-76276697D01*
X176128660Y-76346186D01*
X176105788Y-76421586D01*
X176098065Y-76500000D01*
X176100000Y-76500000D01*
X176200000Y-76600000D01*
X177225000Y-76600000D01*
X177225000Y-76580000D01*
X177325000Y-76580000D01*
X177325000Y-76600000D01*
X178350000Y-76600000D01*
X178450000Y-76500000D01*
X178451935Y-76500000D01*
X178444212Y-76421586D01*
X178421340Y-76346186D01*
X178384197Y-76276697D01*
X178334211Y-76215789D01*
X178303621Y-76190684D01*
X178303621Y-76000000D01*
X178298748Y-75950521D01*
X178284315Y-75902943D01*
X178282742Y-75900000D01*
X178284315Y-75897057D01*
X178298748Y-75849479D01*
X178303621Y-75800000D01*
X178303621Y-75500000D01*
X178298748Y-75450521D01*
X178284315Y-75402943D01*
X178282742Y-75400000D01*
X178284315Y-75397057D01*
X178298748Y-75349479D01*
X178303621Y-75300000D01*
X178303621Y-75000000D01*
X178298748Y-74950521D01*
X178284315Y-74902943D01*
X178282742Y-74900000D01*
X178284315Y-74897057D01*
X178298748Y-74849479D01*
X178303621Y-74800000D01*
X178303621Y-74500000D01*
X178298748Y-74450521D01*
X178284315Y-74402943D01*
X178282742Y-74400000D01*
X178284315Y-74397057D01*
X178298748Y-74349479D01*
X178303621Y-74300000D01*
X178303621Y-74000000D01*
X178298748Y-73950521D01*
X178284315Y-73902943D01*
X178282742Y-73900000D01*
X178284315Y-73897057D01*
X178298748Y-73849479D01*
X178303621Y-73800000D01*
X178303621Y-73609316D01*
X178334211Y-73584211D01*
X178384197Y-73523303D01*
X178421340Y-73453814D01*
X178444212Y-73378414D01*
X178451935Y-73300000D01*
X178450000Y-73300000D01*
X178350000Y-73200000D01*
X178069647Y-73200000D01*
X178128414Y-73194212D01*
X178203814Y-73171340D01*
X178273303Y-73134197D01*
X178314972Y-73100000D01*
X178350000Y-73100000D01*
X178450000Y-73000000D01*
X178451935Y-73000000D01*
X178444212Y-72921586D01*
X178437664Y-72900000D01*
X178444212Y-72878414D01*
X178451935Y-72800000D01*
X178450000Y-72800000D01*
X178350000Y-72700000D01*
X178314972Y-72700000D01*
X178273303Y-72665803D01*
X178243738Y-72650000D01*
X178273303Y-72634197D01*
X178314972Y-72600000D01*
X178350000Y-72600000D01*
X178450000Y-72500000D01*
X178451935Y-72500000D01*
X178444212Y-72421586D01*
X178437664Y-72400000D01*
X178444212Y-72378414D01*
X178451935Y-72300000D01*
X178450000Y-72300000D01*
X178350000Y-72200000D01*
X178314972Y-72200000D01*
X178273303Y-72165803D01*
X178203814Y-72128660D01*
X178128414Y-72105788D01*
X178069647Y-72100000D01*
X178350000Y-72100000D01*
X178450000Y-72000000D01*
X178451935Y-72000000D01*
X178444212Y-71921586D01*
X178421340Y-71846186D01*
X178384197Y-71776697D01*
X178334211Y-71715789D01*
X178273303Y-71665803D01*
X178203814Y-71628660D01*
X178128621Y-71605851D01*
X178128621Y-70450000D01*
X178123748Y-70400521D01*
X178109315Y-70352943D01*
X178085878Y-70309096D01*
X178054337Y-70270663D01*
X178015904Y-70239122D01*
X177989484Y-70225000D01*
X179406803Y-70225000D01*
X179775001Y-70593199D01*
X179775000Y-109406802D01*
X179406803Y-109775000D01*
X125593198Y-109775000D01*
X125225000Y-109406803D01*
X125225000Y-106189752D01*
X125350000Y-106189752D01*
X125350000Y-106810248D01*
X125471052Y-107418821D01*
X125708506Y-107992085D01*
X126053235Y-108508008D01*
X126491992Y-108946765D01*
X127007915Y-109291494D01*
X127581179Y-109528948D01*
X128189752Y-109650000D01*
X128810248Y-109650000D01*
X129418821Y-109528948D01*
X129992085Y-109291494D01*
X130508008Y-108946765D01*
X130946765Y-108508008D01*
X131291494Y-107992085D01*
X131528948Y-107418821D01*
X131650000Y-106810248D01*
X131650000Y-106189752D01*
X131528948Y-105581179D01*
X131291494Y-105007915D01*
X130946765Y-104491992D01*
X130508008Y-104053235D01*
X129992085Y-103708506D01*
X129418821Y-103471052D01*
X128810248Y-103350000D01*
X128189752Y-103350000D01*
X127581179Y-103471052D01*
X127007915Y-103708506D01*
X126491992Y-104053235D01*
X126053235Y-104491992D01*
X125708506Y-105007915D01*
X125471052Y-105581179D01*
X125350000Y-106189752D01*
X125225000Y-106189752D01*
X125225000Y-92711037D01*
X125226087Y-92700000D01*
X125225000Y-92688963D01*
X125225000Y-92688953D01*
X125221744Y-92655892D01*
X125210836Y-92619935D01*
X125208878Y-92613479D01*
X125187985Y-92574392D01*
X125166910Y-92548712D01*
X125166908Y-92548710D01*
X125159868Y-92540132D01*
X125151291Y-92533093D01*
X124666912Y-92048715D01*
X124659868Y-92040132D01*
X124625608Y-92012015D01*
X124586520Y-91991122D01*
X124544108Y-91978256D01*
X124511047Y-91975000D01*
X124511037Y-91975000D01*
X124500000Y-91973913D01*
X124488963Y-91975000D01*
X113901047Y-91975000D01*
X113890000Y-91973912D01*
X113878953Y-91975000D01*
X113845892Y-91978256D01*
X113803480Y-91991122D01*
X113764392Y-92012015D01*
X113730132Y-92040132D01*
X113702015Y-92074392D01*
X113681122Y-92113480D01*
X113668256Y-92155892D01*
X113663912Y-92200000D01*
X113665000Y-92211047D01*
X113665000Y-92290608D01*
X113657913Y-92303867D01*
X113643618Y-92350993D01*
X113640000Y-92387726D01*
X113640000Y-94802990D01*
X113590000Y-94798065D01*
X113390000Y-94800000D01*
X113290000Y-94900000D01*
X113290000Y-97300000D01*
X113310000Y-97300000D01*
X113310000Y-97400000D01*
X113290000Y-97400000D01*
X113290000Y-99800000D01*
X113390000Y-99900000D01*
X113590000Y-99901935D01*
X113640001Y-99897010D01*
X113640001Y-100196446D01*
X113286448Y-100550000D01*
X107293553Y-100550000D01*
X106940000Y-100196448D01*
X106940000Y-99901451D01*
X107090000Y-99900000D01*
X107190000Y-99800000D01*
X107190000Y-97400000D01*
X107170000Y-97400000D01*
X107170000Y-97300000D01*
X107190000Y-97300000D01*
X107190000Y-94900000D01*
X107090000Y-94800000D01*
X106940000Y-94798549D01*
X106940000Y-93337725D01*
X106939914Y-93336853D01*
X106939901Y-93334983D01*
X106938714Y-93323691D01*
X106938714Y-93312340D01*
X106938349Y-93308869D01*
X106917682Y-93124617D01*
X106912973Y-93102461D01*
X106908571Y-93080228D01*
X106907538Y-93076893D01*
X106907538Y-93076891D01*
X106907536Y-93076885D01*
X106851477Y-92900163D01*
X106842551Y-92879337D01*
X106833916Y-92858387D01*
X106832256Y-92855317D01*
X106742935Y-92692842D01*
X106730114Y-92674118D01*
X106717594Y-92655273D01*
X106715374Y-92652590D01*
X106715369Y-92652583D01*
X106715363Y-92652578D01*
X106596191Y-92510554D01*
X106580032Y-92494730D01*
X106564036Y-92478622D01*
X106561331Y-92476416D01*
X106416836Y-92360240D01*
X106397908Y-92347853D01*
X106379092Y-92335162D01*
X106376009Y-92333523D01*
X106211700Y-92247624D01*
X106190674Y-92239129D01*
X106169803Y-92230355D01*
X106166461Y-92229346D01*
X105988597Y-92176998D01*
X105966367Y-92172758D01*
X105944145Y-92168196D01*
X105940670Y-92167856D01*
X105756026Y-92151052D01*
X105733368Y-92151210D01*
X105710710Y-92151052D01*
X105707246Y-92151392D01*
X105707236Y-92151392D01*
X105707227Y-92151394D01*
X105522843Y-92170774D01*
X105500638Y-92175332D01*
X105478392Y-92179575D01*
X105475054Y-92180583D01*
X105475048Y-92180584D01*
X105475042Y-92180586D01*
X105297934Y-92235410D01*
X105277035Y-92244195D01*
X105256036Y-92252679D01*
X105252963Y-92254313D01*
X105252954Y-92254317D01*
X105252947Y-92254322D01*
X105089861Y-92342502D01*
X105071137Y-92355132D01*
X105052115Y-92367579D01*
X105049410Y-92369786D01*
X104906551Y-92487970D01*
X104890591Y-92504041D01*
X104874397Y-92519900D01*
X104872172Y-92522590D01*
X104754989Y-92666270D01*
X104742458Y-92685131D01*
X104729649Y-92703838D01*
X104727989Y-92706909D01*
X104640944Y-92870615D01*
X104632309Y-92891565D01*
X104623383Y-92912391D01*
X104622352Y-92915722D01*
X104622352Y-92915724D01*
X104622351Y-92915726D01*
X104568763Y-93093220D01*
X104564367Y-93115423D01*
X104559651Y-93137609D01*
X104559286Y-93141081D01*
X104541193Y-93325604D01*
X104541193Y-93325614D01*
X104540000Y-93337726D01*
X104540000Y-94946379D01*
X104299989Y-94946379D01*
X104299989Y-90415640D01*
X104348598Y-90488388D01*
X104411612Y-90551402D01*
X104485708Y-90600912D01*
X104568040Y-90635015D01*
X104655442Y-90652400D01*
X104744558Y-90652400D01*
X104831960Y-90635015D01*
X104914292Y-90600912D01*
X104988388Y-90551402D01*
X105051402Y-90488388D01*
X105100912Y-90414292D01*
X105135015Y-90331960D01*
X105152400Y-90244558D01*
X105152400Y-90155442D01*
X105135015Y-90068040D01*
X105100912Y-89985708D01*
X105051402Y-89911612D01*
X104988388Y-89848598D01*
X104914292Y-89799088D01*
X104831960Y-89764985D01*
X104746319Y-89747950D01*
X104652400Y-89654032D01*
X104652400Y-87554856D01*
X104685708Y-87577112D01*
X104768040Y-87611215D01*
X104855442Y-87628600D01*
X104944558Y-87628600D01*
X105031960Y-87611215D01*
X105114292Y-87577112D01*
X105188388Y-87527602D01*
X105251402Y-87464588D01*
X105256339Y-87457200D01*
X107260906Y-87457200D01*
X107278908Y-87458973D01*
X107296910Y-87457200D01*
X107296920Y-87457200D01*
X107350794Y-87451894D01*
X107419917Y-87430926D01*
X107483621Y-87396875D01*
X107539458Y-87351050D01*
X107550942Y-87337057D01*
X109930800Y-84957200D01*
X110025972Y-84957200D01*
X110003785Y-84990405D01*
X109969682Y-85072737D01*
X109952297Y-85160139D01*
X109952297Y-85249255D01*
X109954030Y-85257970D01*
X108302938Y-86909063D01*
X108288950Y-86920543D01*
X108277471Y-86934530D01*
X108277468Y-86934533D01*
X108243125Y-86976379D01*
X108229830Y-87001252D01*
X108209074Y-87040084D01*
X108188106Y-87109207D01*
X108182800Y-87163081D01*
X108182800Y-87163090D01*
X108181027Y-87181092D01*
X108182800Y-87199094D01*
X108182801Y-93663606D01*
X107993438Y-93852970D01*
X107979450Y-93864450D01*
X107967971Y-93878437D01*
X107967968Y-93878440D01*
X107933625Y-93920286D01*
X107923378Y-93939457D01*
X107899574Y-93983991D01*
X107878606Y-94053114D01*
X107873300Y-94106988D01*
X107873300Y-94106997D01*
X107871527Y-94124999D01*
X107873300Y-94143001D01*
X107873300Y-94915042D01*
X107813303Y-94865803D01*
X107743814Y-94828660D01*
X107668414Y-94805788D01*
X107590000Y-94798065D01*
X107390000Y-94800000D01*
X107290000Y-94900000D01*
X107290000Y-97300000D01*
X107310000Y-97300000D01*
X107310000Y-97400000D01*
X107290000Y-97400000D01*
X107290000Y-99800000D01*
X107390000Y-99900000D01*
X107590000Y-99901935D01*
X107668414Y-99894212D01*
X107743814Y-99871340D01*
X107813303Y-99834197D01*
X107874211Y-99784211D01*
X107899316Y-99753621D01*
X108590000Y-99753621D01*
X108639479Y-99748748D01*
X108687057Y-99734315D01*
X108730904Y-99710878D01*
X108740000Y-99703413D01*
X108749096Y-99710878D01*
X108792943Y-99734315D01*
X108840521Y-99748748D01*
X108890000Y-99753621D01*
X109580684Y-99753621D01*
X109605789Y-99784211D01*
X109666697Y-99834197D01*
X109736186Y-99871340D01*
X109811586Y-99894212D01*
X109890000Y-99901935D01*
X110090000Y-99900000D01*
X110190000Y-99800000D01*
X110190000Y-97400000D01*
X110170000Y-97400000D01*
X110170000Y-97300000D01*
X110190000Y-97300000D01*
X110190000Y-94900000D01*
X110290000Y-94900000D01*
X110290000Y-97300000D01*
X110310000Y-97300000D01*
X110310000Y-97400000D01*
X110290000Y-97400000D01*
X110290000Y-99800000D01*
X110390000Y-99900000D01*
X110590000Y-99901935D01*
X110668414Y-99894212D01*
X110743814Y-99871340D01*
X110813303Y-99834197D01*
X110874211Y-99784211D01*
X110899316Y-99753621D01*
X111590000Y-99753621D01*
X111639479Y-99748748D01*
X111687057Y-99734315D01*
X111730904Y-99710878D01*
X111740000Y-99703413D01*
X111749096Y-99710878D01*
X111792943Y-99734315D01*
X111840521Y-99748748D01*
X111890000Y-99753621D01*
X112580684Y-99753621D01*
X112605789Y-99784211D01*
X112666697Y-99834197D01*
X112736186Y-99871340D01*
X112811586Y-99894212D01*
X112890000Y-99901935D01*
X113090000Y-99900000D01*
X113190000Y-99800000D01*
X113190000Y-97400000D01*
X113170000Y-97400000D01*
X113170000Y-97300000D01*
X113190000Y-97300000D01*
X113190000Y-94900000D01*
X113090000Y-94800000D01*
X112890000Y-94798065D01*
X112811586Y-94805788D01*
X112736186Y-94828660D01*
X112666697Y-94865803D01*
X112606700Y-94915041D01*
X112606700Y-94143000D01*
X112608473Y-94124998D01*
X112606700Y-94106996D01*
X112606700Y-94106987D01*
X112601394Y-94053113D01*
X112580426Y-93983990D01*
X112546376Y-93920287D01*
X112546375Y-93920285D01*
X112512032Y-93878439D01*
X112512025Y-93878432D01*
X112500549Y-93864449D01*
X112486567Y-93852974D01*
X112297200Y-93663608D01*
X112297200Y-87679094D01*
X112298973Y-87661092D01*
X112297200Y-87643090D01*
X112297200Y-87643080D01*
X112291894Y-87589206D01*
X112271361Y-87521517D01*
X112270926Y-87520082D01*
X112236875Y-87456379D01*
X112202532Y-87414532D01*
X112202525Y-87414525D01*
X112191049Y-87400542D01*
X112177067Y-87389067D01*
X111650940Y-86862941D01*
X111639458Y-86848950D01*
X111583621Y-86803125D01*
X111519917Y-86769074D01*
X111450794Y-86748106D01*
X111396920Y-86742800D01*
X111396910Y-86742800D01*
X111378908Y-86741027D01*
X111360906Y-86742800D01*
X111256339Y-86742800D01*
X111251402Y-86735412D01*
X111188388Y-86672398D01*
X111114292Y-86622888D01*
X111031960Y-86588785D01*
X110944558Y-86571400D01*
X110855442Y-86571400D01*
X110768040Y-86588785D01*
X110685708Y-86622888D01*
X110611612Y-86672398D01*
X110548598Y-86735412D01*
X110499088Y-86809508D01*
X110464985Y-86891840D01*
X110447600Y-86979242D01*
X110447600Y-87068358D01*
X110464985Y-87155760D01*
X110499088Y-87238092D01*
X110540454Y-87300000D01*
X110499088Y-87361908D01*
X110464985Y-87444240D01*
X110447600Y-87531642D01*
X110447600Y-87620758D01*
X110464985Y-87708160D01*
X110499088Y-87790492D01*
X110548598Y-87864588D01*
X110611612Y-87927602D01*
X110685708Y-87977112D01*
X110768040Y-88011215D01*
X110855442Y-88028600D01*
X110944558Y-88028600D01*
X111031960Y-88011215D01*
X111114292Y-87977112D01*
X111159143Y-87947143D01*
X111182800Y-87970800D01*
X111182801Y-93663606D01*
X110993438Y-93852970D01*
X110979450Y-93864450D01*
X110967971Y-93878437D01*
X110967968Y-93878440D01*
X110933625Y-93920286D01*
X110923378Y-93939457D01*
X110899574Y-93983991D01*
X110878606Y-94053114D01*
X110873300Y-94106988D01*
X110873300Y-94106997D01*
X110871527Y-94124999D01*
X110873300Y-94143001D01*
X110873300Y-94915042D01*
X110813303Y-94865803D01*
X110743814Y-94828660D01*
X110668414Y-94805788D01*
X110590000Y-94798065D01*
X110390000Y-94800000D01*
X110290000Y-94900000D01*
X110190000Y-94900000D01*
X110090000Y-94800000D01*
X109890000Y-94798065D01*
X109811586Y-94805788D01*
X109736186Y-94828660D01*
X109666697Y-94865803D01*
X109606700Y-94915041D01*
X109606700Y-94143000D01*
X109608473Y-94124998D01*
X109606700Y-94106996D01*
X109606700Y-94106987D01*
X109601394Y-94053113D01*
X109580426Y-93983990D01*
X109546376Y-93920287D01*
X109546375Y-93920285D01*
X109512032Y-93878439D01*
X109512025Y-93878432D01*
X109500549Y-93864449D01*
X109486567Y-93852974D01*
X109297200Y-93663608D01*
X109297200Y-87490799D01*
X110742030Y-86045970D01*
X110750745Y-86047703D01*
X110839861Y-86047703D01*
X110927263Y-86030318D01*
X111009595Y-85996215D01*
X111083691Y-85946705D01*
X111146705Y-85883691D01*
X111196215Y-85809595D01*
X111230318Y-85727263D01*
X111247703Y-85639861D01*
X111247703Y-85550745D01*
X111230318Y-85463343D01*
X111196215Y-85381011D01*
X111146705Y-85306915D01*
X111083691Y-85243901D01*
X111009595Y-85194391D01*
X110927263Y-85160288D01*
X110854237Y-85145763D01*
X110839712Y-85072737D01*
X110805609Y-84990405D01*
X110783422Y-84957200D01*
X110869201Y-84957200D01*
X115749063Y-89837063D01*
X115760542Y-89851050D01*
X115774529Y-89862529D01*
X115774532Y-89862532D01*
X115816379Y-89896875D01*
X115880083Y-89930926D01*
X115949206Y-89951894D01*
X116003080Y-89957200D01*
X116003090Y-89957200D01*
X116021092Y-89958973D01*
X116039094Y-89957200D01*
X124160906Y-89957200D01*
X124178908Y-89958973D01*
X124196910Y-89957200D01*
X124196920Y-89957200D01*
X124250794Y-89951894D01*
X124319917Y-89930926D01*
X124383621Y-89896875D01*
X124439458Y-89851050D01*
X124450942Y-89837058D01*
X124842030Y-89445970D01*
X124850745Y-89447703D01*
X124939861Y-89447703D01*
X125027263Y-89430318D01*
X125109595Y-89396215D01*
X125183691Y-89346705D01*
X125246705Y-89283691D01*
X125296215Y-89209595D01*
X125330318Y-89127263D01*
X125347703Y-89039861D01*
X125347703Y-88950745D01*
X125330318Y-88863343D01*
X125296215Y-88781011D01*
X125246705Y-88706915D01*
X125183691Y-88643901D01*
X125109595Y-88594391D01*
X125027263Y-88560288D01*
X124954237Y-88545763D01*
X124939712Y-88472737D01*
X124905609Y-88390405D01*
X124856099Y-88316309D01*
X124793085Y-88253295D01*
X124791746Y-88252400D01*
X125754032Y-88252400D01*
X139438575Y-101936944D01*
X139449610Y-101950390D01*
X139503270Y-101994428D01*
X139564490Y-102027150D01*
X139599995Y-102037920D01*
X139630916Y-102047301D01*
X139643473Y-102048538D01*
X139682689Y-102052400D01*
X139682695Y-102052400D01*
X139699999Y-102054104D01*
X139717303Y-102052400D01*
X158213106Y-102052400D01*
X158285708Y-102100912D01*
X158368040Y-102135015D01*
X158455442Y-102152400D01*
X158544558Y-102152400D01*
X158631960Y-102135015D01*
X158714292Y-102100912D01*
X158788388Y-102051402D01*
X158851402Y-101988388D01*
X158900912Y-101914292D01*
X158935015Y-101831960D01*
X158952400Y-101744558D01*
X158952400Y-101655442D01*
X158935015Y-101568040D01*
X158900912Y-101485708D01*
X158851402Y-101411612D01*
X158788388Y-101348598D01*
X158714292Y-101299088D01*
X158631960Y-101264985D01*
X158544558Y-101247600D01*
X158455442Y-101247600D01*
X158368040Y-101264985D01*
X158285708Y-101299088D01*
X158213106Y-101347600D01*
X139845969Y-101347600D01*
X126161429Y-87663061D01*
X126150390Y-87649610D01*
X126096730Y-87605572D01*
X126035510Y-87572850D01*
X125969082Y-87552699D01*
X125917311Y-87547600D01*
X125917304Y-87547600D01*
X125900000Y-87545896D01*
X125882696Y-87547600D01*
X116145968Y-87547600D01*
X111961429Y-83363061D01*
X111950390Y-83349610D01*
X111896730Y-83305572D01*
X111835510Y-83272850D01*
X111769082Y-83252699D01*
X111717311Y-83247600D01*
X111717304Y-83247600D01*
X111700000Y-83245896D01*
X111682696Y-83247600D01*
X104817311Y-83247600D01*
X104800000Y-83245895D01*
X104730917Y-83252699D01*
X104676911Y-83269082D01*
X104664490Y-83272850D01*
X104603270Y-83305572D01*
X104549610Y-83349610D01*
X104538575Y-83363056D01*
X104299989Y-83601643D01*
X104299989Y-83052863D01*
X104301694Y-83035552D01*
X104294890Y-82966469D01*
X104274739Y-82900042D01*
X104269078Y-82889450D01*
X104242017Y-82838822D01*
X104197979Y-82785162D01*
X104184533Y-82774127D01*
X100434831Y-79024426D01*
X100739991Y-78719266D01*
X100758630Y-78719266D01*
X100747600Y-78774718D01*
X100747600Y-78863834D01*
X100764985Y-78951236D01*
X100799088Y-79033568D01*
X100848598Y-79107664D01*
X100911612Y-79170678D01*
X100985708Y-79220188D01*
X101068040Y-79254291D01*
X101155442Y-79271676D01*
X101244558Y-79271676D01*
X101331960Y-79254291D01*
X101414292Y-79220188D01*
X101486894Y-79171676D01*
X109821692Y-79171676D01*
X110302427Y-79652412D01*
X104150781Y-79652412D01*
X104102050Y-79603681D01*
X104085015Y-79518040D01*
X104050912Y-79435708D01*
X104001402Y-79361612D01*
X103938388Y-79298598D01*
X103864292Y-79249088D01*
X103781960Y-79214985D01*
X103694558Y-79197600D01*
X103605442Y-79197600D01*
X103518040Y-79214985D01*
X103435708Y-79249088D01*
X103361612Y-79298598D01*
X103298598Y-79361612D01*
X103249088Y-79435708D01*
X103214985Y-79518040D01*
X103197600Y-79605442D01*
X103197600Y-79694558D01*
X103214985Y-79781960D01*
X103249088Y-79864292D01*
X103298598Y-79938388D01*
X103361612Y-80001402D01*
X103435708Y-80050912D01*
X103518040Y-80085015D01*
X103603681Y-80102050D01*
X103743386Y-80241755D01*
X103754422Y-80255202D01*
X103808082Y-80299240D01*
X103839536Y-80316052D01*
X103869302Y-80331962D01*
X103935729Y-80352113D01*
X103942008Y-80352731D01*
X103987501Y-80357212D01*
X103987508Y-80357212D01*
X104004812Y-80358916D01*
X104022116Y-80357212D01*
X111308844Y-80357212D01*
X111438575Y-80486944D01*
X111449610Y-80500390D01*
X111503270Y-80544428D01*
X111564490Y-80577150D01*
X111599995Y-80587920D01*
X111630916Y-80597301D01*
X111643473Y-80598538D01*
X111682689Y-80602400D01*
X111682695Y-80602400D01*
X111699999Y-80604104D01*
X111717303Y-80602400D01*
X151632696Y-80602400D01*
X151650000Y-80604104D01*
X151667304Y-80602400D01*
X151667311Y-80602400D01*
X151719082Y-80597301D01*
X151785510Y-80577150D01*
X151846730Y-80544428D01*
X151900390Y-80500390D01*
X151911429Y-80486939D01*
X156146318Y-76252050D01*
X156231960Y-76235015D01*
X156314292Y-76200912D01*
X156388388Y-76151402D01*
X156451402Y-76088388D01*
X156500912Y-76014292D01*
X156535015Y-75931960D01*
X156552400Y-75844558D01*
X156552400Y-75755442D01*
X156535015Y-75668040D01*
X156500912Y-75585708D01*
X156451402Y-75511612D01*
X156388388Y-75448598D01*
X156314292Y-75399088D01*
X156231960Y-75364985D01*
X156144558Y-75347600D01*
X156055442Y-75347600D01*
X155968040Y-75364985D01*
X155908877Y-75389491D01*
X157446318Y-73852050D01*
X157531960Y-73835015D01*
X157614292Y-73800912D01*
X157688388Y-73751402D01*
X157751402Y-73688388D01*
X157800912Y-73614292D01*
X157835015Y-73531960D01*
X157852400Y-73444558D01*
X157852400Y-73355442D01*
X157835015Y-73268040D01*
X157800912Y-73185708D01*
X157751402Y-73111612D01*
X157688388Y-73048598D01*
X157614292Y-72999088D01*
X157554970Y-72974516D01*
X157584917Y-72902218D01*
X157602302Y-72814816D01*
X157602302Y-72725700D01*
X157584917Y-72638298D01*
X157550920Y-72556223D01*
X157594803Y-72512340D01*
X157644313Y-72438244D01*
X157678416Y-72355912D01*
X157695801Y-72268510D01*
X157695801Y-72179394D01*
X157678416Y-72091992D01*
X157644313Y-72009660D01*
X157594803Y-71935564D01*
X157531789Y-71872550D01*
X157457693Y-71823040D01*
X157375361Y-71788937D01*
X157287959Y-71771552D01*
X157198843Y-71771552D01*
X157111441Y-71788937D01*
X157029109Y-71823040D01*
X156958797Y-71870021D01*
X156943257Y-71871552D01*
X156943248Y-71871552D01*
X156891477Y-71876651D01*
X156825049Y-71896802D01*
X156763829Y-71929524D01*
X156710169Y-71973562D01*
X156699130Y-71987013D01*
X156248800Y-72437343D01*
X156235015Y-72368040D01*
X156200912Y-72285708D01*
X156151402Y-72211612D01*
X156088388Y-72148598D01*
X156014292Y-72099088D01*
X155931960Y-72064985D01*
X155844558Y-72047600D01*
X155755442Y-72047600D01*
X155668040Y-72064985D01*
X155585708Y-72099088D01*
X155511612Y-72148598D01*
X155448598Y-72211612D01*
X155399088Y-72285708D01*
X155364985Y-72368040D01*
X155347950Y-72453681D01*
X152654032Y-75147600D01*
X151517303Y-75147600D01*
X151499999Y-75145896D01*
X151482695Y-75147600D01*
X151482689Y-75147600D01*
X151444087Y-75151402D01*
X151430916Y-75152699D01*
X151399995Y-75162080D01*
X151364490Y-75172850D01*
X151303270Y-75205572D01*
X151249610Y-75249610D01*
X151238575Y-75263056D01*
X150801621Y-75700011D01*
X147298357Y-75700011D01*
X149846319Y-73152050D01*
X149931960Y-73135015D01*
X150014292Y-73100912D01*
X150088388Y-73051402D01*
X150151402Y-72988388D01*
X150200912Y-72914292D01*
X150235015Y-72831960D01*
X150252400Y-72744558D01*
X150252400Y-72655442D01*
X150235015Y-72568040D01*
X150200912Y-72485708D01*
X150151402Y-72411612D01*
X150088388Y-72348598D01*
X150014292Y-72299088D01*
X149931960Y-72264985D01*
X149844558Y-72247600D01*
X149755442Y-72247600D01*
X149668040Y-72264985D01*
X149585708Y-72299088D01*
X149511612Y-72348598D01*
X149448598Y-72411612D01*
X149425784Y-72445755D01*
X149400912Y-72385708D01*
X149351402Y-72311612D01*
X149288388Y-72248598D01*
X149214292Y-72199088D01*
X149131960Y-72164985D01*
X149044558Y-72147600D01*
X148955442Y-72147600D01*
X148868040Y-72164985D01*
X148785708Y-72199088D01*
X148711612Y-72248598D01*
X148648598Y-72311612D01*
X148599088Y-72385708D01*
X148564985Y-72468040D01*
X148547600Y-72555442D01*
X148547600Y-72644558D01*
X148564985Y-72731960D01*
X148590621Y-72793852D01*
X146436874Y-74947600D01*
X141207115Y-74947600D01*
X141189804Y-74945895D01*
X141120721Y-74952699D01*
X141063953Y-74969920D01*
X141054294Y-74972850D01*
X140993074Y-75005572D01*
X140939414Y-75049610D01*
X140928379Y-75063056D01*
X140152400Y-75839035D01*
X140152400Y-75755442D01*
X140135015Y-75668040D01*
X140100912Y-75585708D01*
X140051402Y-75511612D01*
X139988388Y-75448598D01*
X139919599Y-75402634D01*
X140669834Y-74652400D01*
X143627785Y-74652400D01*
X143650000Y-74654588D01*
X143672214Y-74652400D01*
X143672215Y-74652400D01*
X143738686Y-74645853D01*
X143823963Y-74619985D01*
X143902556Y-74577976D01*
X143971442Y-74521442D01*
X144027976Y-74452556D01*
X144069985Y-74373963D01*
X144095853Y-74288686D01*
X144100465Y-74241858D01*
X144102400Y-74222215D01*
X144102400Y-74222214D01*
X144104588Y-74200000D01*
X144102400Y-74177785D01*
X144102400Y-74053621D01*
X144150000Y-74053621D01*
X144199479Y-74048748D01*
X144247057Y-74034315D01*
X144290904Y-74010878D01*
X144300000Y-74003413D01*
X144309096Y-74010878D01*
X144352943Y-74034315D01*
X144400521Y-74048748D01*
X144450000Y-74053621D01*
X145450000Y-74053621D01*
X145499479Y-74048748D01*
X145547057Y-74034315D01*
X145590904Y-74010878D01*
X145629337Y-73979337D01*
X145660878Y-73940904D01*
X145684315Y-73897057D01*
X145698748Y-73849479D01*
X145703621Y-73800000D01*
X145703621Y-72300000D01*
X145698748Y-72250521D01*
X145684315Y-72202943D01*
X145660878Y-72159096D01*
X145629337Y-72120663D01*
X145590904Y-72089122D01*
X145547057Y-72065685D01*
X145499479Y-72051252D01*
X145462276Y-72047588D01*
X146099220Y-72047588D01*
X146340176Y-72288544D01*
X146339096Y-72289122D01*
X146300663Y-72320663D01*
X146269122Y-72359096D01*
X146245685Y-72402943D01*
X146231252Y-72450521D01*
X146226379Y-72500000D01*
X146226379Y-73500000D01*
X146231252Y-73549479D01*
X146245685Y-73597057D01*
X146269122Y-73640904D01*
X146300663Y-73679337D01*
X146339096Y-73710878D01*
X146382943Y-73734315D01*
X146430521Y-73748748D01*
X146480000Y-73753621D01*
X147480000Y-73753621D01*
X147529479Y-73748748D01*
X147577057Y-73734315D01*
X147620904Y-73710878D01*
X147659337Y-73679337D01*
X147690878Y-73640904D01*
X147714315Y-73597057D01*
X147728748Y-73549479D01*
X147733621Y-73500000D01*
X147733621Y-72500000D01*
X147728748Y-72450521D01*
X147714315Y-72402943D01*
X147690878Y-72359096D01*
X147659337Y-72320663D01*
X147620904Y-72289122D01*
X147577057Y-72265685D01*
X147529479Y-72251252D01*
X147480000Y-72246379D01*
X147198824Y-72246379D01*
X147197301Y-72230918D01*
X147177150Y-72164490D01*
X147144428Y-72103270D01*
X147100389Y-72049610D01*
X147086943Y-72038575D01*
X146506617Y-71458249D01*
X146495578Y-71444798D01*
X146441918Y-71400760D01*
X146380698Y-71368038D01*
X146314270Y-71347887D01*
X146262499Y-71342788D01*
X146262492Y-71342788D01*
X146245188Y-71341084D01*
X146227884Y-71342788D01*
X140672115Y-71342788D01*
X140654811Y-71341084D01*
X140637507Y-71342788D01*
X140637501Y-71342788D01*
X140592635Y-71347207D01*
X140585729Y-71347887D01*
X140519302Y-71368038D01*
X140458082Y-71400760D01*
X140404422Y-71444798D01*
X140393387Y-71458244D01*
X139953682Y-71897950D01*
X139868040Y-71914985D01*
X139785708Y-71949088D01*
X139711612Y-71998598D01*
X139648598Y-72061612D01*
X139599088Y-72135708D01*
X139564985Y-72218040D01*
X139547600Y-72305442D01*
X139547600Y-72394558D01*
X139564985Y-72481960D01*
X139599088Y-72564292D01*
X139648598Y-72638388D01*
X139711612Y-72701402D01*
X139785708Y-72750912D01*
X139868040Y-72785015D01*
X139955442Y-72802400D01*
X140044558Y-72802400D01*
X140131960Y-72785015D01*
X140214292Y-72750912D01*
X140288388Y-72701402D01*
X140351402Y-72638388D01*
X140400912Y-72564292D01*
X140435015Y-72481960D01*
X140452050Y-72396318D01*
X140800781Y-72047588D01*
X141837724Y-72047588D01*
X141800521Y-72051252D01*
X141752943Y-72065685D01*
X141709096Y-72089122D01*
X141670663Y-72120663D01*
X141639122Y-72159096D01*
X141615685Y-72202943D01*
X141601252Y-72250521D01*
X141596379Y-72300000D01*
X141596379Y-73747600D01*
X140504650Y-73747600D01*
X140482443Y-73745413D01*
X140460236Y-73747600D01*
X140460229Y-73747600D01*
X140393758Y-73754147D01*
X140308481Y-73780015D01*
X140229888Y-73822024D01*
X140161002Y-73878558D01*
X140146841Y-73895813D01*
X137695055Y-76347600D01*
X129856633Y-76347600D01*
X129992085Y-76291494D01*
X130508008Y-75946765D01*
X130946765Y-75508008D01*
X131291494Y-74992085D01*
X131528948Y-74418821D01*
X131650000Y-73810248D01*
X131650000Y-73189752D01*
X131528948Y-72581179D01*
X131291494Y-72007915D01*
X130946765Y-71491992D01*
X130508008Y-71053235D01*
X130361651Y-70955442D01*
X132547600Y-70955442D01*
X132547600Y-71044558D01*
X132564985Y-71131960D01*
X132599088Y-71214292D01*
X132648598Y-71288388D01*
X132711612Y-71351402D01*
X132785708Y-71400912D01*
X132868040Y-71435015D01*
X132955442Y-71452400D01*
X133044558Y-71452400D01*
X133131960Y-71435015D01*
X133214292Y-71400912D01*
X133288388Y-71351402D01*
X133351402Y-71288388D01*
X133400912Y-71214292D01*
X133435015Y-71131960D01*
X133452400Y-71044558D01*
X133452400Y-70955442D01*
X134147600Y-70955442D01*
X134147600Y-71044558D01*
X134164985Y-71131960D01*
X134199088Y-71214292D01*
X134248598Y-71288388D01*
X134311612Y-71351402D01*
X134385708Y-71400912D01*
X134468040Y-71435015D01*
X134555442Y-71452400D01*
X134644558Y-71452400D01*
X134731960Y-71435015D01*
X134814292Y-71400912D01*
X134888388Y-71351402D01*
X134951402Y-71288388D01*
X135000912Y-71214292D01*
X135035015Y-71131960D01*
X135052400Y-71044558D01*
X135052400Y-70955442D01*
X135547600Y-70955442D01*
X135547600Y-71044558D01*
X135564985Y-71131960D01*
X135599088Y-71214292D01*
X135648598Y-71288388D01*
X135711612Y-71351402D01*
X135785708Y-71400912D01*
X135868040Y-71435015D01*
X135955442Y-71452400D01*
X136044558Y-71452400D01*
X136131960Y-71435015D01*
X136214292Y-71400912D01*
X136288388Y-71351402D01*
X136351402Y-71288388D01*
X136400912Y-71214292D01*
X136435015Y-71131960D01*
X136452400Y-71044558D01*
X136452400Y-70955442D01*
X137147600Y-70955442D01*
X137147600Y-71044558D01*
X137164985Y-71131960D01*
X137199088Y-71214292D01*
X137248598Y-71288388D01*
X137311612Y-71351402D01*
X137385708Y-71400912D01*
X137468040Y-71435015D01*
X137555442Y-71452400D01*
X137644558Y-71452400D01*
X137731960Y-71435015D01*
X137814292Y-71400912D01*
X137888388Y-71351402D01*
X137951402Y-71288388D01*
X138000912Y-71214292D01*
X138035015Y-71131960D01*
X138052400Y-71044558D01*
X138052400Y-70955442D01*
X138035015Y-70868040D01*
X138000912Y-70785708D01*
X137980689Y-70755442D01*
X142747600Y-70755442D01*
X142747600Y-70844558D01*
X142764985Y-70931960D01*
X142799088Y-71014292D01*
X142848598Y-71088388D01*
X142911612Y-71151402D01*
X142985708Y-71200912D01*
X143068040Y-71235015D01*
X143155442Y-71252400D01*
X143244558Y-71252400D01*
X143331960Y-71235015D01*
X143414292Y-71200912D01*
X143488388Y-71151402D01*
X143551402Y-71088388D01*
X143600000Y-71015657D01*
X143648598Y-71088388D01*
X143711612Y-71151402D01*
X143785708Y-71200912D01*
X143868040Y-71235015D01*
X143955442Y-71252400D01*
X144044558Y-71252400D01*
X144131960Y-71235015D01*
X144214292Y-71200912D01*
X144288388Y-71151402D01*
X144351402Y-71088388D01*
X144400912Y-71014292D01*
X144435015Y-70931960D01*
X144452400Y-70844558D01*
X144452400Y-70755442D01*
X144435015Y-70668040D01*
X144400912Y-70585708D01*
X144351402Y-70511612D01*
X144288388Y-70448598D01*
X144214292Y-70399088D01*
X144131960Y-70364985D01*
X144044558Y-70347600D01*
X143955442Y-70347600D01*
X143868040Y-70364985D01*
X143785708Y-70399088D01*
X143711612Y-70448598D01*
X143648598Y-70511612D01*
X143600000Y-70584343D01*
X143551402Y-70511612D01*
X143488388Y-70448598D01*
X143414292Y-70399088D01*
X143331960Y-70364985D01*
X143244558Y-70347600D01*
X143155442Y-70347600D01*
X143068040Y-70364985D01*
X142985708Y-70399088D01*
X142911612Y-70448598D01*
X142848598Y-70511612D01*
X142799088Y-70585708D01*
X142764985Y-70668040D01*
X142747600Y-70755442D01*
X137980689Y-70755442D01*
X137951402Y-70711612D01*
X137888388Y-70648598D01*
X137814292Y-70599088D01*
X137731960Y-70564985D01*
X137644558Y-70547600D01*
X137555442Y-70547600D01*
X137468040Y-70564985D01*
X137385708Y-70599088D01*
X137311612Y-70648598D01*
X137248598Y-70711612D01*
X137199088Y-70785708D01*
X137164985Y-70868040D01*
X137147600Y-70955442D01*
X136452400Y-70955442D01*
X136435015Y-70868040D01*
X136400912Y-70785708D01*
X136351402Y-70711612D01*
X136288388Y-70648598D01*
X136214292Y-70599088D01*
X136131960Y-70564985D01*
X136044558Y-70547600D01*
X135955442Y-70547600D01*
X135868040Y-70564985D01*
X135785708Y-70599088D01*
X135711612Y-70648598D01*
X135648598Y-70711612D01*
X135599088Y-70785708D01*
X135564985Y-70868040D01*
X135547600Y-70955442D01*
X135052400Y-70955442D01*
X135035015Y-70868040D01*
X135000912Y-70785708D01*
X134951402Y-70711612D01*
X134888388Y-70648598D01*
X134814292Y-70599088D01*
X134731960Y-70564985D01*
X134644558Y-70547600D01*
X134555442Y-70547600D01*
X134468040Y-70564985D01*
X134385708Y-70599088D01*
X134311612Y-70648598D01*
X134248598Y-70711612D01*
X134199088Y-70785708D01*
X134164985Y-70868040D01*
X134147600Y-70955442D01*
X133452400Y-70955442D01*
X133435015Y-70868040D01*
X133400912Y-70785708D01*
X133351402Y-70711612D01*
X133288388Y-70648598D01*
X133214292Y-70599088D01*
X133131960Y-70564985D01*
X133044558Y-70547600D01*
X132955442Y-70547600D01*
X132868040Y-70564985D01*
X132785708Y-70599088D01*
X132711612Y-70648598D01*
X132648598Y-70711612D01*
X132599088Y-70785708D01*
X132564985Y-70868040D01*
X132547600Y-70955442D01*
X130361651Y-70955442D01*
X129992085Y-70708506D01*
X129418821Y-70471052D01*
X128810248Y-70350000D01*
X128189752Y-70350000D01*
X127581179Y-70471052D01*
X127007915Y-70708506D01*
X126491992Y-71053235D01*
X126053235Y-71491992D01*
X125708506Y-72007915D01*
X125471052Y-72581179D01*
X125350000Y-73189752D01*
X125350000Y-73810248D01*
X125471052Y-74418821D01*
X125708506Y-74992085D01*
X126053235Y-75508008D01*
X126491992Y-75946765D01*
X127007915Y-76291494D01*
X127143367Y-76347600D01*
X115277195Y-76347600D01*
X112475412Y-73545818D01*
X112461247Y-73528558D01*
X112392361Y-73472024D01*
X112313768Y-73430015D01*
X112228491Y-73404147D01*
X112162020Y-73397600D01*
X112162012Y-73397600D01*
X112139805Y-73395413D01*
X112117598Y-73397600D01*
X101617230Y-73397600D01*
X101561660Y-73360469D01*
X101461129Y-73318828D01*
X101354407Y-73297600D01*
X101245593Y-73297600D01*
X101138871Y-73318828D01*
X101038340Y-73360469D01*
X100947865Y-73420923D01*
X100870923Y-73497865D01*
X100810469Y-73588340D01*
X100768828Y-73688871D01*
X100747600Y-73795593D01*
X100747600Y-73904407D01*
X100768828Y-74011129D01*
X100810469Y-74111660D01*
X100870923Y-74202135D01*
X100947865Y-74279077D01*
X100964766Y-74290370D01*
X100436894Y-74290370D01*
X100364292Y-74241858D01*
X100281960Y-74207755D01*
X100194558Y-74190370D01*
X100105442Y-74190370D01*
X100018040Y-74207755D01*
X99935708Y-74241858D01*
X99861612Y-74291368D01*
X99798598Y-74354382D01*
X99749088Y-74428478D01*
X99714985Y-74510810D01*
X99697600Y-74598212D01*
X99697600Y-74687328D01*
X99708630Y-74742779D01*
X98675364Y-74742779D01*
X98658053Y-74741074D01*
X98588970Y-74747878D01*
X98564036Y-74755442D01*
X98522543Y-74768029D01*
X98461323Y-74800751D01*
X98407663Y-74844789D01*
X98396628Y-74858235D01*
X96208234Y-77046630D01*
X96194788Y-77057665D01*
X96150750Y-77111325D01*
X96136699Y-77137614D01*
X96118028Y-77172545D01*
X96101547Y-77226876D01*
X96097877Y-77238973D01*
X96092778Y-77290744D01*
X96092778Y-77290750D01*
X96091074Y-77308054D01*
X96092778Y-77325358D01*
X96092780Y-79952028D01*
X95887929Y-79645447D01*
X95504553Y-79262071D01*
X95053750Y-78960854D01*
X94552846Y-78753373D01*
X94021088Y-78647600D01*
X93478912Y-78647600D01*
X92947154Y-78753373D01*
X92446250Y-78960854D01*
X91995447Y-79262071D01*
X91612071Y-79645447D01*
X91310854Y-80096250D01*
X91103373Y-80597154D01*
X90997600Y-81128912D01*
X90997600Y-81671088D01*
X91103373Y-82202846D01*
X91310854Y-82703750D01*
X91612071Y-83154553D01*
X91995447Y-83537929D01*
X92446250Y-83839146D01*
X92947154Y-84046627D01*
X93478912Y-84152400D01*
X94021088Y-84152400D01*
X94552846Y-84046627D01*
X95053750Y-83839146D01*
X95504553Y-83537929D01*
X95887929Y-83154553D01*
X96189146Y-82703750D01*
X96396627Y-82202846D01*
X96498012Y-81693148D01*
X97887600Y-83082737D01*
X97887601Y-94932105D01*
X97874211Y-94915789D01*
X97813303Y-94865803D01*
X97743814Y-94828660D01*
X97668414Y-94805788D01*
X97590000Y-94798065D01*
X97390000Y-94800000D01*
X97290000Y-94900000D01*
X97290000Y-97300000D01*
X97310000Y-97300000D01*
X97310000Y-97400000D01*
X97290000Y-97400000D01*
X97290000Y-99800000D01*
X97390000Y-99900000D01*
X97590000Y-99901935D01*
X97668414Y-99894212D01*
X97743814Y-99871340D01*
X97813303Y-99834197D01*
X97874211Y-99784211D01*
X97899316Y-99753621D01*
X98590000Y-99753621D01*
X98639479Y-99748748D01*
X98687057Y-99734315D01*
X98730904Y-99710878D01*
X98740000Y-99703413D01*
X98749096Y-99710878D01*
X98792943Y-99734315D01*
X98840521Y-99748748D01*
X98890000Y-99753621D01*
X99580684Y-99753621D01*
X99605789Y-99784211D01*
X99666697Y-99834197D01*
X99736186Y-99871340D01*
X99811586Y-99894212D01*
X99890000Y-99901935D01*
X100090000Y-99900000D01*
X100190000Y-99800000D01*
X100190000Y-97400000D01*
X100170000Y-97400000D01*
X100170000Y-97300000D01*
X100190000Y-97300000D01*
X100190000Y-94900000D01*
X100090000Y-94800000D01*
X99890000Y-94798065D01*
X99811586Y-94805788D01*
X99736186Y-94828660D01*
X99666697Y-94865803D01*
X99605789Y-94915789D01*
X99592400Y-94932104D01*
X99592400Y-90448146D01*
X99599088Y-90464292D01*
X99648598Y-90538388D01*
X99711612Y-90601402D01*
X99785708Y-90650912D01*
X99868040Y-90685015D01*
X99955442Y-90702400D01*
X100044558Y-90702400D01*
X100131960Y-90685015D01*
X100214292Y-90650912D01*
X100288388Y-90601402D01*
X100351402Y-90538388D01*
X100375000Y-90503072D01*
X100398598Y-90538388D01*
X100461612Y-90601402D01*
X100535708Y-90650912D01*
X100618040Y-90685015D01*
X100705442Y-90702400D01*
X100794558Y-90702400D01*
X100881960Y-90685015D01*
X100887600Y-90682679D01*
X100887600Y-94932104D01*
X100874211Y-94915789D01*
X100813303Y-94865803D01*
X100743814Y-94828660D01*
X100668414Y-94805788D01*
X100590000Y-94798065D01*
X100390000Y-94800000D01*
X100290000Y-94900000D01*
X100290000Y-97300000D01*
X100310000Y-97300000D01*
X100310000Y-97400000D01*
X100290000Y-97400000D01*
X100290000Y-99800000D01*
X100390000Y-99900000D01*
X100590000Y-99901935D01*
X100668414Y-99894212D01*
X100743814Y-99871340D01*
X100813303Y-99834197D01*
X100874211Y-99784211D01*
X100899316Y-99753621D01*
X101590000Y-99753621D01*
X101639479Y-99748748D01*
X101687057Y-99734315D01*
X101730904Y-99710878D01*
X101740000Y-99703413D01*
X101749096Y-99710878D01*
X101792943Y-99734315D01*
X101840521Y-99748748D01*
X101890000Y-99753621D01*
X102590000Y-99753621D01*
X102639479Y-99748748D01*
X102687057Y-99734315D01*
X102730904Y-99710878D01*
X102740000Y-99703413D01*
X102749096Y-99710878D01*
X102792943Y-99734315D01*
X102840521Y-99748748D01*
X102890000Y-99753621D01*
X103590000Y-99753621D01*
X103639479Y-99748748D01*
X103687057Y-99734315D01*
X103730904Y-99710878D01*
X103740000Y-99703413D01*
X103749096Y-99710878D01*
X103792943Y-99734315D01*
X103840521Y-99748748D01*
X103890000Y-99753621D01*
X104540001Y-99753621D01*
X104540001Y-100196446D01*
X104186448Y-100550000D01*
X94193553Y-100550000D01*
X93840000Y-100196448D01*
X93840000Y-99452400D01*
X94636379Y-99452400D01*
X94636379Y-99500000D01*
X94641252Y-99549479D01*
X94655685Y-99597057D01*
X94679122Y-99640904D01*
X94710663Y-99679337D01*
X94749096Y-99710878D01*
X94792943Y-99734315D01*
X94840521Y-99748748D01*
X94890000Y-99753621D01*
X95590000Y-99753621D01*
X95639479Y-99748748D01*
X95687057Y-99734315D01*
X95730904Y-99710878D01*
X95740000Y-99703413D01*
X95749096Y-99710878D01*
X95792943Y-99734315D01*
X95840521Y-99748748D01*
X95890000Y-99753621D01*
X96580684Y-99753621D01*
X96605789Y-99784211D01*
X96666697Y-99834197D01*
X96736186Y-99871340D01*
X96811586Y-99894212D01*
X96890000Y-99901935D01*
X97090000Y-99900000D01*
X97190000Y-99800000D01*
X97190000Y-97400000D01*
X97170000Y-97400000D01*
X97170000Y-97300000D01*
X97190000Y-97300000D01*
X97190000Y-94900000D01*
X97090000Y-94800000D01*
X96890000Y-94798065D01*
X96811586Y-94805788D01*
X96736186Y-94828660D01*
X96666697Y-94865803D01*
X96605789Y-94915789D01*
X96580684Y-94946379D01*
X96052400Y-94946379D01*
X96052400Y-90000000D01*
X96047550Y-89950759D01*
X96033187Y-89903411D01*
X96009863Y-89859774D01*
X95978474Y-89821526D01*
X95940226Y-89790137D01*
X95896589Y-89766813D01*
X95849241Y-89752450D01*
X95800000Y-89747600D01*
X93800000Y-89747600D01*
X93750759Y-89752450D01*
X93703411Y-89766813D01*
X93659774Y-89790137D01*
X93621526Y-89821526D01*
X93590137Y-89859774D01*
X93566813Y-89903411D01*
X93552450Y-89950759D01*
X93547600Y-90000000D01*
X93547600Y-91975000D01*
X90593198Y-91975000D01*
X90225000Y-91606803D01*
X90225000Y-70593197D01*
X90593198Y-70225000D01*
X165841369Y-70225000D01*
X165786242Y-70270242D01*
G04 #@! TA.AperFunction,Conductor*
D25*
G36*
X165786242Y-70270242D02*
G01*
X165729828Y-70338982D01*
X165687909Y-70417407D01*
X165662095Y-70502503D01*
X165653379Y-70591000D01*
X165653379Y-71141000D01*
X165662095Y-71229497D01*
X165687909Y-71314593D01*
X165729828Y-71393018D01*
X165786242Y-71461758D01*
X165854982Y-71518172D01*
X165933407Y-71560091D01*
X166018503Y-71585905D01*
X166107000Y-71594621D01*
X166507000Y-71594621D01*
X166595497Y-71585905D01*
X166680593Y-71560091D01*
X166759018Y-71518172D01*
X166827758Y-71461758D01*
X166884172Y-71393018D01*
X166926091Y-71314593D01*
X166951905Y-71229497D01*
X166960621Y-71141000D01*
X166960621Y-70591000D01*
X166951905Y-70502503D01*
X166926091Y-70417407D01*
X166884172Y-70338982D01*
X166827758Y-70270242D01*
X166772631Y-70225000D01*
X167491369Y-70225000D01*
X167436242Y-70270242D01*
X167379828Y-70338982D01*
X167337909Y-70417407D01*
X167312095Y-70502503D01*
X167303379Y-70591000D01*
X167303379Y-71141000D01*
X167312095Y-71229497D01*
X167337909Y-71314593D01*
X167379828Y-71393018D01*
X167436242Y-71461758D01*
X167504982Y-71518172D01*
X167583407Y-71560091D01*
X167668503Y-71585905D01*
X167757000Y-71594621D01*
X168157000Y-71594621D01*
X168245497Y-71585905D01*
X168330593Y-71560091D01*
X168409018Y-71518172D01*
X168477758Y-71461758D01*
X168534172Y-71393018D01*
X168576091Y-71314593D01*
X168601905Y-71229497D01*
X168602998Y-71218400D01*
X169395032Y-71218400D01*
X170024231Y-71847600D01*
X167100000Y-71847600D01*
X167050759Y-71852450D01*
X167003411Y-71866813D01*
X166959774Y-71890137D01*
X166921526Y-71921526D01*
X166890137Y-71959774D01*
X166866813Y-72003411D01*
X166852450Y-72050759D01*
X166847600Y-72100000D01*
X166847600Y-90600000D01*
X166852450Y-90649241D01*
X166866813Y-90696589D01*
X166890137Y-90740226D01*
X166921526Y-90778474D01*
X166959774Y-90809863D01*
X167003411Y-90833187D01*
X167050759Y-90847550D01*
X167100000Y-90852400D01*
X170400002Y-90852400D01*
X170400002Y-91230279D01*
X170400001Y-91230289D01*
X170400001Y-91401630D01*
X158054032Y-103747600D01*
X157586894Y-103747600D01*
X157514292Y-103699088D01*
X157431960Y-103664985D01*
X157344558Y-103647600D01*
X157255442Y-103647600D01*
X157168040Y-103664985D01*
X157085708Y-103699088D01*
X157011612Y-103748598D01*
X156948598Y-103811612D01*
X156899088Y-103885708D01*
X156864985Y-103968040D01*
X156847600Y-104055442D01*
X156847600Y-104144558D01*
X156864985Y-104231960D01*
X156899088Y-104314292D01*
X156948598Y-104388388D01*
X157011612Y-104451402D01*
X157085708Y-104500912D01*
X157168040Y-104535015D01*
X157255442Y-104552400D01*
X157344558Y-104552400D01*
X157431960Y-104535015D01*
X157514292Y-104500912D01*
X157586894Y-104452400D01*
X158182696Y-104452400D01*
X158200000Y-104454104D01*
X158217304Y-104452400D01*
X158217311Y-104452400D01*
X158269082Y-104447301D01*
X158335510Y-104427150D01*
X158396730Y-104394428D01*
X158450390Y-104350390D01*
X158461429Y-104336939D01*
X170752413Y-92045956D01*
X170752413Y-94949219D01*
X162663057Y-103038575D01*
X162649611Y-103049610D01*
X162638576Y-103063056D01*
X162638575Y-103063057D01*
X162605573Y-103103270D01*
X162572850Y-103164491D01*
X162552699Y-103230918D01*
X162545896Y-103300000D01*
X162547601Y-103317313D01*
X162547601Y-103513105D01*
X162499088Y-103585708D01*
X162464985Y-103668040D01*
X162447600Y-103755442D01*
X162447600Y-103844558D01*
X162464985Y-103931960D01*
X162499088Y-104014292D01*
X162548598Y-104088388D01*
X162611612Y-104151402D01*
X162685708Y-104200912D01*
X162768040Y-104235015D01*
X162855442Y-104252400D01*
X162859601Y-104252400D01*
X160069201Y-107042800D01*
X158444254Y-107042800D01*
X158430318Y-106972737D01*
X158396215Y-106890405D01*
X158346705Y-106816309D01*
X158283691Y-106753295D01*
X158209595Y-106703785D01*
X158127263Y-106669682D01*
X158039861Y-106652297D01*
X157950745Y-106652297D01*
X157863343Y-106669682D01*
X157781011Y-106703785D01*
X157706915Y-106753295D01*
X157643901Y-106816309D01*
X157594391Y-106890405D01*
X157560288Y-106972737D01*
X157545763Y-107045763D01*
X157472737Y-107060288D01*
X157390405Y-107094391D01*
X157316309Y-107143901D01*
X157253295Y-107206915D01*
X157203785Y-107281011D01*
X157169682Y-107363343D01*
X157152297Y-107450745D01*
X157152297Y-107539861D01*
X157169682Y-107627263D01*
X157203785Y-107709595D01*
X157253295Y-107783691D01*
X157316309Y-107846705D01*
X157390405Y-107896215D01*
X157472737Y-107930318D01*
X157560139Y-107947703D01*
X157649255Y-107947703D01*
X157657970Y-107945970D01*
X157749063Y-108037062D01*
X157760542Y-108051050D01*
X157774529Y-108062529D01*
X157774532Y-108062532D01*
X157797818Y-108081642D01*
X157816379Y-108096875D01*
X157880083Y-108130926D01*
X157919227Y-108142800D01*
X156630800Y-108142800D01*
X156157200Y-107669201D01*
X156157200Y-107156339D01*
X156164588Y-107151402D01*
X156227602Y-107088388D01*
X156277112Y-107014292D01*
X156311215Y-106931960D01*
X156328600Y-106844558D01*
X156328600Y-106755442D01*
X156311215Y-106668040D01*
X156277112Y-106585708D01*
X156227602Y-106511612D01*
X156164588Y-106448598D01*
X156090492Y-106399088D01*
X156008160Y-106364985D01*
X155920758Y-106347600D01*
X155831642Y-106347600D01*
X155744240Y-106364985D01*
X155661908Y-106399088D01*
X155600000Y-106440454D01*
X155538092Y-106399088D01*
X155455760Y-106364985D01*
X155368358Y-106347600D01*
X155279242Y-106347600D01*
X155191840Y-106364985D01*
X155109508Y-106399088D01*
X155035412Y-106448598D01*
X154972398Y-106511612D01*
X154922888Y-106585708D01*
X154888785Y-106668040D01*
X154871400Y-106755442D01*
X154871400Y-106844558D01*
X154888785Y-106931960D01*
X154922888Y-107014292D01*
X154972398Y-107088388D01*
X155035412Y-107151402D01*
X155042801Y-107156339D01*
X155042800Y-107960906D01*
X155041027Y-107978908D01*
X155042800Y-107996910D01*
X155042800Y-107996919D01*
X155048106Y-108050793D01*
X155069074Y-108119916D01*
X155074959Y-108130925D01*
X155103125Y-108183621D01*
X155137468Y-108225467D01*
X155137471Y-108225470D01*
X155148950Y-108239457D01*
X155162938Y-108250937D01*
X156049063Y-109137063D01*
X156060542Y-109151050D01*
X156074529Y-109162529D01*
X156074532Y-109162532D01*
X156116379Y-109196875D01*
X156180083Y-109230926D01*
X156249206Y-109251894D01*
X156303080Y-109257200D01*
X156303090Y-109257200D01*
X156321092Y-109258973D01*
X156339094Y-109257200D01*
X161760906Y-109257200D01*
X161778908Y-109258973D01*
X161796910Y-109257200D01*
X161796920Y-109257200D01*
X161850794Y-109251894D01*
X161919917Y-109230926D01*
X161983621Y-109196875D01*
X162039458Y-109151050D01*
X162050942Y-109137057D01*
X164998247Y-106189752D01*
X173350000Y-106189752D01*
X173350000Y-106810248D01*
X173471052Y-107418821D01*
X173708506Y-107992085D01*
X174053235Y-108508008D01*
X174491992Y-108946765D01*
X175007915Y-109291494D01*
X175581179Y-109528948D01*
X176189752Y-109650000D01*
X176810248Y-109650000D01*
X177418821Y-109528948D01*
X177992085Y-109291494D01*
X178508008Y-108946765D01*
X178946765Y-108508008D01*
X179291494Y-107992085D01*
X179528948Y-107418821D01*
X179650000Y-106810248D01*
X179650000Y-106189752D01*
X179528948Y-105581179D01*
X179291494Y-105007915D01*
X178946765Y-104491992D01*
X178508008Y-104053235D01*
X177992085Y-103708506D01*
X177418821Y-103471052D01*
X176810248Y-103350000D01*
X176189752Y-103350000D01*
X175581179Y-103471052D01*
X175007915Y-103708506D01*
X174491992Y-104053235D01*
X174053235Y-104491992D01*
X173708506Y-105007915D01*
X173471052Y-105581179D01*
X173350000Y-106189752D01*
X164998247Y-106189752D01*
X168808757Y-102379242D01*
X169047600Y-102379242D01*
X169047600Y-102468358D01*
X169064985Y-102555760D01*
X169099088Y-102638092D01*
X169140454Y-102700000D01*
X169099088Y-102761908D01*
X169064985Y-102844240D01*
X169047600Y-102931642D01*
X169047600Y-103020758D01*
X169064985Y-103108160D01*
X169099088Y-103190492D01*
X169148598Y-103264588D01*
X169211612Y-103327602D01*
X169285708Y-103377112D01*
X169368040Y-103411215D01*
X169455442Y-103428600D01*
X169544558Y-103428600D01*
X169631960Y-103411215D01*
X169714292Y-103377112D01*
X169788388Y-103327602D01*
X169851402Y-103264588D01*
X169856339Y-103257200D01*
X169860906Y-103257200D01*
X169878908Y-103258973D01*
X169896910Y-103257200D01*
X169896920Y-103257200D01*
X169950794Y-103251894D01*
X170019917Y-103230926D01*
X170083621Y-103196875D01*
X170139458Y-103151050D01*
X170150942Y-103137057D01*
X179337067Y-93950933D01*
X179351049Y-93939458D01*
X179362525Y-93925475D01*
X179362532Y-93925468D01*
X179396874Y-93883622D01*
X179396875Y-93883621D01*
X179430926Y-93819917D01*
X179451894Y-93750794D01*
X179457200Y-93696920D01*
X179457200Y-93696911D01*
X179458973Y-93678909D01*
X179457200Y-93660907D01*
X179457200Y-83939093D01*
X179458973Y-83921091D01*
X179457200Y-83903089D01*
X179457200Y-83903080D01*
X179451894Y-83849206D01*
X179430926Y-83780083D01*
X179412652Y-83745895D01*
X179396875Y-83716378D01*
X179362532Y-83674532D01*
X179362529Y-83674529D01*
X179351050Y-83660542D01*
X179337063Y-83649063D01*
X178650940Y-82962941D01*
X178639458Y-82948950D01*
X178583621Y-82903125D01*
X178519917Y-82869074D01*
X178450794Y-82848106D01*
X178447232Y-82847755D01*
X178451935Y-82800000D01*
X178450000Y-82800000D01*
X178350000Y-82700000D01*
X177325000Y-82700000D01*
X177325000Y-82720000D01*
X177225000Y-82720000D01*
X177225000Y-82700000D01*
X176200000Y-82700000D01*
X176100000Y-82800000D01*
X176098065Y-82800000D01*
X176105788Y-82878414D01*
X176128660Y-82953814D01*
X176165803Y-83023303D01*
X176215789Y-83084211D01*
X176246379Y-83109316D01*
X176246379Y-83300000D01*
X176251252Y-83349479D01*
X176265685Y-83397057D01*
X176267258Y-83400000D01*
X176265685Y-83402943D01*
X176251252Y-83450521D01*
X176246379Y-83500000D01*
X176246379Y-83690684D01*
X176215789Y-83715789D01*
X176165803Y-83776697D01*
X176128660Y-83846186D01*
X176105788Y-83921586D01*
X176098065Y-84000000D01*
X176100000Y-84000000D01*
X176200000Y-84100000D01*
X177225000Y-84100000D01*
X177225000Y-84080000D01*
X177325000Y-84080000D01*
X177325000Y-84100000D01*
X177345000Y-84100000D01*
X177345000Y-84200000D01*
X177325000Y-84200000D01*
X177325000Y-84220000D01*
X177225000Y-84220000D01*
X177225000Y-84200000D01*
X176200000Y-84200000D01*
X176100000Y-84300000D01*
X176098065Y-84300000D01*
X176105788Y-84378414D01*
X176128660Y-84453814D01*
X176165803Y-84523303D01*
X176215789Y-84584211D01*
X176246379Y-84609316D01*
X176246379Y-84800000D01*
X176251252Y-84849479D01*
X176265685Y-84897057D01*
X176267258Y-84900000D01*
X176265685Y-84902943D01*
X176251252Y-84950521D01*
X176246379Y-85000000D01*
X176246379Y-85300000D01*
X176251252Y-85349479D01*
X176265685Y-85397057D01*
X176267258Y-85400000D01*
X176265685Y-85402943D01*
X176251252Y-85450521D01*
X176246379Y-85500000D01*
X176246379Y-85800000D01*
X176251252Y-85849479D01*
X176265685Y-85897057D01*
X176267258Y-85900000D01*
X176265685Y-85902943D01*
X176251252Y-85950521D01*
X176246379Y-86000000D01*
X176246379Y-86300000D01*
X176251252Y-86349479D01*
X176265685Y-86397057D01*
X176267258Y-86400000D01*
X176265685Y-86402943D01*
X176251252Y-86450521D01*
X176246379Y-86500000D01*
X176246379Y-86800000D01*
X176251252Y-86849479D01*
X176265685Y-86897057D01*
X176267258Y-86900000D01*
X176265685Y-86902943D01*
X176251252Y-86950521D01*
X176246379Y-87000000D01*
X176246379Y-87300000D01*
X176251252Y-87349479D01*
X176265685Y-87397057D01*
X176267258Y-87400000D01*
X176265685Y-87402943D01*
X176251252Y-87450521D01*
X176246379Y-87500000D01*
X176246379Y-87800000D01*
X176251252Y-87849479D01*
X176265685Y-87897057D01*
X176267258Y-87900000D01*
X176265685Y-87902943D01*
X176251252Y-87950521D01*
X176246379Y-88000000D01*
X176246379Y-88300000D01*
X176251252Y-88349479D01*
X176265685Y-88397057D01*
X176267258Y-88400000D01*
X176265685Y-88402943D01*
X176251252Y-88450521D01*
X176246379Y-88500000D01*
X176246379Y-88800000D01*
X176251252Y-88849479D01*
X176265685Y-88897057D01*
X176267258Y-88900000D01*
X176265685Y-88902943D01*
X176251252Y-88950521D01*
X176246379Y-89000000D01*
X176246379Y-89300000D01*
X176251252Y-89349479D01*
X176265685Y-89397057D01*
X176267258Y-89400000D01*
X176265685Y-89402943D01*
X176251252Y-89450521D01*
X176246379Y-89500000D01*
X176246379Y-89690684D01*
X176215789Y-89715789D01*
X176165803Y-89776697D01*
X176128660Y-89846186D01*
X176105788Y-89921586D01*
X176098065Y-90000000D01*
X176100000Y-90000000D01*
X176200000Y-90100000D01*
X177225000Y-90100000D01*
X177225000Y-90080000D01*
X177325000Y-90080000D01*
X177325000Y-90100000D01*
X177345000Y-90100000D01*
X177345000Y-90200000D01*
X177325000Y-90200000D01*
X177325000Y-90220000D01*
X177225000Y-90220000D01*
X177225000Y-90200000D01*
X176200000Y-90200000D01*
X176100000Y-90300000D01*
X176098065Y-90300000D01*
X176105788Y-90378414D01*
X176128660Y-90453814D01*
X176165803Y-90523303D01*
X176215789Y-90584211D01*
X176246379Y-90609316D01*
X176246379Y-90800000D01*
X176251252Y-90849479D01*
X176265479Y-90896379D01*
X175125000Y-90896379D01*
X175075521Y-90901252D01*
X175027943Y-90915685D01*
X174984096Y-90939122D01*
X174945663Y-90970663D01*
X174914122Y-91009096D01*
X174890685Y-91052943D01*
X174876252Y-91100521D01*
X174871379Y-91150000D01*
X174871379Y-92350000D01*
X174876252Y-92399479D01*
X174890685Y-92447057D01*
X174914122Y-92490904D01*
X174945663Y-92529337D01*
X174984096Y-92560878D01*
X175027943Y-92584315D01*
X175075521Y-92598748D01*
X175125000Y-92603621D01*
X177875000Y-92603621D01*
X177924479Y-92598748D01*
X177972057Y-92584315D01*
X178015904Y-92560878D01*
X178054337Y-92529337D01*
X178085878Y-92490904D01*
X178109315Y-92447057D01*
X178123748Y-92399479D01*
X178128621Y-92350000D01*
X178128621Y-91150000D01*
X178123748Y-91100521D01*
X178109315Y-91052943D01*
X178106013Y-91046766D01*
X178147057Y-91034315D01*
X178190904Y-91010878D01*
X178229337Y-90979337D01*
X178260878Y-90940904D01*
X178284315Y-90897057D01*
X178298748Y-90849479D01*
X178303621Y-90800000D01*
X178303621Y-90609316D01*
X178334211Y-90584211D01*
X178342801Y-90573744D01*
X178342801Y-93369199D01*
X177615457Y-94096544D01*
X177614441Y-94095734D01*
X177597324Y-94080001D01*
X177570886Y-94063901D01*
X177544883Y-94047049D01*
X177523271Y-94038450D01*
X177490974Y-94022897D01*
X177470777Y-94011362D01*
X177441374Y-94001534D01*
X177412308Y-93990904D01*
X177389342Y-93987333D01*
X177354381Y-93979353D01*
X177332125Y-93972602D01*
X177301290Y-93969565D01*
X177270572Y-93965667D01*
X177247379Y-93967296D01*
X177211518Y-93967296D01*
X177188325Y-93965667D01*
X177157606Y-93969565D01*
X177126773Y-93972602D01*
X177104517Y-93979353D01*
X177069556Y-93987333D01*
X177046590Y-93990904D01*
X177017524Y-94001534D01*
X176988121Y-94011362D01*
X176967925Y-94022896D01*
X176935621Y-94038453D01*
X176914018Y-94047048D01*
X176888031Y-94063890D01*
X176861574Y-94080001D01*
X176844456Y-94095735D01*
X176816421Y-94118093D01*
X176797268Y-94131282D01*
X176775664Y-94153500D01*
X176753467Y-94175083D01*
X176740281Y-94194230D01*
X176717917Y-94222274D01*
X176702186Y-94239387D01*
X176686087Y-94265824D01*
X176669231Y-94291832D01*
X176660632Y-94313444D01*
X176645080Y-94345738D01*
X176633543Y-94365938D01*
X176623718Y-94395332D01*
X176613086Y-94424402D01*
X176609513Y-94447375D01*
X176601533Y-94482338D01*
X176594783Y-94504591D01*
X176591747Y-94535422D01*
X176587848Y-94566143D01*
X176589477Y-94589336D01*
X176589477Y-94625196D01*
X176587848Y-94648389D01*
X176591746Y-94679107D01*
X176594783Y-94709942D01*
X176601534Y-94732198D01*
X176609513Y-94767157D01*
X176613086Y-94790130D01*
X176623718Y-94819200D01*
X176633543Y-94848594D01*
X176645080Y-94868794D01*
X176660632Y-94901088D01*
X176669231Y-94922700D01*
X176686087Y-94948708D01*
X176702186Y-94975145D01*
X176717917Y-94992258D01*
X176718726Y-94993273D01*
X174592240Y-97119761D01*
X174592235Y-97119765D01*
X169696488Y-102015513D01*
X169631960Y-101988785D01*
X169544558Y-101971400D01*
X169455442Y-101971400D01*
X169368040Y-101988785D01*
X169285708Y-102022888D01*
X169211612Y-102072398D01*
X169148598Y-102135412D01*
X169099088Y-102209508D01*
X169064985Y-102291840D01*
X169047600Y-102379242D01*
X168808757Y-102379242D01*
X174737063Y-96450937D01*
X174751050Y-96439458D01*
X174762529Y-96425471D01*
X174762532Y-96425468D01*
X174796875Y-96383621D01*
X174830926Y-96319917D01*
X174842536Y-96281642D01*
X174851894Y-96250794D01*
X174857200Y-96196920D01*
X174857200Y-96196910D01*
X174858973Y-96178908D01*
X174857200Y-96160906D01*
X174857200Y-83230799D01*
X175630800Y-82457200D01*
X175909329Y-82457200D01*
X175971490Y-82490426D01*
X176040613Y-82511394D01*
X176094487Y-82516700D01*
X176094497Y-82516700D01*
X176112499Y-82518473D01*
X176117937Y-82517937D01*
X176200000Y-82600000D01*
X177225000Y-82600000D01*
X177225000Y-82580000D01*
X177325000Y-82580000D01*
X177325000Y-82600000D01*
X178350000Y-82600000D01*
X178450000Y-82500000D01*
X178451935Y-82500000D01*
X178444212Y-82421586D01*
X178421340Y-82346186D01*
X178384197Y-82276697D01*
X178334211Y-82215789D01*
X178303621Y-82190684D01*
X178303621Y-82000000D01*
X178298748Y-81950521D01*
X178284315Y-81902943D01*
X178282742Y-81900000D01*
X178284315Y-81897057D01*
X178298748Y-81849479D01*
X178303621Y-81800000D01*
X178303621Y-81609316D01*
X178334211Y-81584211D01*
X178384197Y-81523303D01*
X178421340Y-81453814D01*
X178444212Y-81378414D01*
X178451935Y-81300000D01*
X178450000Y-81300000D01*
X178350000Y-81200000D01*
X177325000Y-81200000D01*
X177325000Y-81220000D01*
X177225000Y-81220000D01*
X177225000Y-81200000D01*
X176200000Y-81200000D01*
X176117937Y-81282063D01*
X176112499Y-81281527D01*
X176094497Y-81283300D01*
X176094487Y-81283300D01*
X176040613Y-81288606D01*
X175971490Y-81309574D01*
X175909329Y-81342800D01*
X175339094Y-81342800D01*
X175321092Y-81341027D01*
X175303090Y-81342800D01*
X175303080Y-81342800D01*
X175249206Y-81348106D01*
X175180083Y-81369074D01*
X175116379Y-81403125D01*
X175074532Y-81437468D01*
X175074529Y-81437471D01*
X175060542Y-81448950D01*
X175049063Y-81462937D01*
X173862938Y-82649063D01*
X173848950Y-82660543D01*
X173837471Y-82674530D01*
X173837468Y-82674533D01*
X173803125Y-82716379D01*
X173796199Y-82729337D01*
X173769074Y-82780084D01*
X173748106Y-82849207D01*
X173742800Y-82903081D01*
X173742800Y-82903090D01*
X173741027Y-82921092D01*
X173742800Y-82939094D01*
X173742801Y-95869199D01*
X170348780Y-99263221D01*
X170336758Y-99252170D01*
X170310309Y-99236064D01*
X170284317Y-99219219D01*
X170262706Y-99210621D01*
X170239757Y-99199569D01*
X170219572Y-99188041D01*
X170190203Y-99178224D01*
X170161102Y-99167581D01*
X170138131Y-99164009D01*
X170113304Y-99158343D01*
X170091050Y-99151592D01*
X170060219Y-99148556D01*
X170029498Y-99144657D01*
X170006305Y-99146286D01*
X169980830Y-99146286D01*
X169957637Y-99144657D01*
X169926928Y-99148555D01*
X169896088Y-99151592D01*
X169873825Y-99158345D01*
X169849006Y-99164010D01*
X169826037Y-99167582D01*
X169796953Y-99178218D01*
X169767565Y-99188041D01*
X169747373Y-99199574D01*
X169724424Y-99210625D01*
X169702822Y-99219220D01*
X169676846Y-99236054D01*
X169650381Y-99252170D01*
X169633257Y-99267910D01*
X169613345Y-99283790D01*
X169594198Y-99296975D01*
X169572614Y-99319173D01*
X169550395Y-99340778D01*
X169537206Y-99359930D01*
X169521334Y-99379832D01*
X169505597Y-99396952D01*
X169489489Y-99423404D01*
X169472640Y-99449401D01*
X169464043Y-99471009D01*
X169452993Y-99493954D01*
X169441461Y-99514145D01*
X169431641Y-99543523D01*
X169421004Y-99572606D01*
X169417431Y-99595577D01*
X169411762Y-99620417D01*
X169405012Y-99642668D01*
X169401976Y-99673494D01*
X169398077Y-99704219D01*
X169399706Y-99727412D01*
X169399706Y-99752884D01*
X169398077Y-99776077D01*
X169401976Y-99806798D01*
X169405012Y-99837629D01*
X169411763Y-99859883D01*
X169417431Y-99884716D01*
X169421003Y-99907687D01*
X169431640Y-99936770D01*
X169441461Y-99966151D01*
X169452992Y-99986341D01*
X169464043Y-100009288D01*
X169472640Y-100030896D01*
X169489486Y-100056889D01*
X169505595Y-100083342D01*
X169516641Y-100095358D01*
X161469201Y-108142800D01*
X160480773Y-108142800D01*
X160519917Y-108130926D01*
X160583621Y-108096875D01*
X160639458Y-108051050D01*
X160650942Y-108037057D01*
X173537067Y-95150933D01*
X173551049Y-95139458D01*
X173562525Y-95125475D01*
X173562532Y-95125468D01*
X173596875Y-95083621D01*
X173630926Y-95019917D01*
X173651894Y-94950794D01*
X173652982Y-94939744D01*
X173657200Y-94896920D01*
X173657200Y-94896913D01*
X173658973Y-94878908D01*
X173657200Y-94860903D01*
X173657200Y-79800000D01*
X176098065Y-79800000D01*
X176105788Y-79878414D01*
X176128660Y-79953814D01*
X176165803Y-80023303D01*
X176215789Y-80084211D01*
X176246379Y-80109316D01*
X176246379Y-80300000D01*
X176251252Y-80349479D01*
X176265685Y-80397057D01*
X176267258Y-80400000D01*
X176265685Y-80402943D01*
X176251252Y-80450521D01*
X176246379Y-80500000D01*
X176246379Y-80690684D01*
X176215789Y-80715789D01*
X176165803Y-80776697D01*
X176128660Y-80846186D01*
X176105788Y-80921586D01*
X176098065Y-81000000D01*
X176100000Y-81000000D01*
X176200000Y-81100000D01*
X177225000Y-81100000D01*
X177225000Y-81080000D01*
X177325000Y-81080000D01*
X177325000Y-81100000D01*
X178350000Y-81100000D01*
X178450000Y-81000000D01*
X178451935Y-81000000D01*
X178444212Y-80921586D01*
X178421340Y-80846186D01*
X178384197Y-80776697D01*
X178334211Y-80715789D01*
X178303621Y-80690684D01*
X178303621Y-80500000D01*
X178298748Y-80450521D01*
X178284315Y-80402943D01*
X178282742Y-80400000D01*
X178284315Y-80397057D01*
X178298748Y-80349479D01*
X178303621Y-80300000D01*
X178303621Y-80109316D01*
X178334211Y-80084211D01*
X178384197Y-80023303D01*
X178421340Y-79953814D01*
X178444212Y-79878414D01*
X178451935Y-79800000D01*
X178450000Y-79800000D01*
X178350000Y-79700000D01*
X177325000Y-79700000D01*
X177325000Y-79720000D01*
X177225000Y-79720000D01*
X177225000Y-79700000D01*
X176200000Y-79700000D01*
X176100000Y-79800000D01*
X176098065Y-79800000D01*
X173657200Y-79800000D01*
X173657200Y-79130799D01*
X174487999Y-78300000D01*
X176098065Y-78300000D01*
X176105788Y-78378414D01*
X176128660Y-78453814D01*
X176165803Y-78523303D01*
X176215789Y-78584211D01*
X176246379Y-78609316D01*
X176246379Y-78800000D01*
X176251252Y-78849479D01*
X176265685Y-78897057D01*
X176267258Y-78900000D01*
X176265685Y-78902943D01*
X176251252Y-78950521D01*
X176246379Y-79000000D01*
X176246379Y-79190684D01*
X176215789Y-79215789D01*
X176165803Y-79276697D01*
X176128660Y-79346186D01*
X176105788Y-79421586D01*
X176098065Y-79500000D01*
X176100000Y-79500000D01*
X176200000Y-79600000D01*
X177225000Y-79600000D01*
X177225000Y-79580000D01*
X177325000Y-79580000D01*
X177325000Y-79600000D01*
X178350000Y-79600000D01*
X178450000Y-79500000D01*
X178451935Y-79500000D01*
X178444212Y-79421586D01*
X178421340Y-79346186D01*
X178384197Y-79276697D01*
X178334211Y-79215789D01*
X178303621Y-79190684D01*
X178303621Y-79000000D01*
X178298748Y-78950521D01*
X178284315Y-78902943D01*
X178282742Y-78900000D01*
X178284315Y-78897057D01*
X178298748Y-78849479D01*
X178303621Y-78800000D01*
X178303621Y-78609316D01*
X178334211Y-78584211D01*
X178384197Y-78523303D01*
X178421340Y-78453814D01*
X178444212Y-78378414D01*
X178451935Y-78300000D01*
X178450000Y-78300000D01*
X178350000Y-78200000D01*
X177325000Y-78200000D01*
X177325000Y-78220000D01*
X177225000Y-78220000D01*
X177225000Y-78200000D01*
X176200000Y-78200000D01*
X176100000Y-78300000D01*
X176098065Y-78300000D01*
X174487999Y-78300000D01*
X174830800Y-77957200D01*
X175909329Y-77957200D01*
X175971490Y-77990426D01*
X176040613Y-78011394D01*
X176094487Y-78016700D01*
X176094497Y-78016700D01*
X176112499Y-78018473D01*
X176117937Y-78017937D01*
X176200000Y-78100000D01*
X177225000Y-78100000D01*
X177225000Y-78080000D01*
X177325000Y-78080000D01*
X177325000Y-78100000D01*
X178350000Y-78100000D01*
X178450000Y-78000000D01*
X178451935Y-78000000D01*
X178444212Y-77921586D01*
X178421340Y-77846186D01*
X178384197Y-77776697D01*
X178334211Y-77715789D01*
X178303621Y-77690684D01*
X178303621Y-77500000D01*
X178298748Y-77450521D01*
X178284315Y-77402943D01*
X178282742Y-77400000D01*
X178284315Y-77397057D01*
X178298748Y-77349479D01*
X178303621Y-77300000D01*
X178303621Y-77109316D01*
X178334211Y-77084211D01*
X178384197Y-77023303D01*
X178421340Y-76953814D01*
X178444212Y-76878414D01*
X178451935Y-76800000D01*
X178450000Y-76800000D01*
X178350000Y-76700000D01*
X177325000Y-76700000D01*
X177325000Y-76720000D01*
X177225000Y-76720000D01*
X177225000Y-76700000D01*
X176200000Y-76700000D01*
X176117937Y-76782063D01*
X176112499Y-76781527D01*
X176094497Y-76783300D01*
X176094487Y-76783300D01*
X176040613Y-76788606D01*
X175971490Y-76809574D01*
X175909329Y-76842800D01*
X174539093Y-76842800D01*
X174521091Y-76841027D01*
X174503089Y-76842800D01*
X174503080Y-76842800D01*
X174449206Y-76848106D01*
X174380083Y-76869074D01*
X174351442Y-76884383D01*
X174316378Y-76903125D01*
X174274532Y-76937468D01*
X174274529Y-76937471D01*
X174260542Y-76948950D01*
X174249063Y-76962937D01*
X172662938Y-78549063D01*
X172648951Y-78560542D01*
X172637472Y-78574529D01*
X172637468Y-78574533D01*
X172603125Y-78616379D01*
X172582975Y-78654078D01*
X172569075Y-78680083D01*
X172548107Y-78749206D01*
X172546794Y-78762541D01*
X172541027Y-78821092D01*
X172542801Y-78839104D01*
X172542800Y-90783036D01*
X172536500Y-90776736D01*
X172405079Y-90688923D01*
X172259051Y-90628436D01*
X172104029Y-90597600D01*
X171945971Y-90597600D01*
X171790949Y-90628436D01*
X171644921Y-90688923D01*
X171513500Y-90776736D01*
X171457212Y-90833024D01*
X171457212Y-78419409D01*
X171458916Y-78402105D01*
X171457212Y-78384801D01*
X171457212Y-78384795D01*
X171452113Y-78333024D01*
X171431962Y-78266596D01*
X171399240Y-78205376D01*
X171373804Y-78174383D01*
X171366237Y-78165162D01*
X171366232Y-78165157D01*
X171355201Y-78151716D01*
X171341761Y-78140686D01*
X170895930Y-77694856D01*
X170896730Y-77694428D01*
X170950390Y-77650390D01*
X170961429Y-77636939D01*
X170989340Y-77609028D01*
X171002791Y-77597989D01*
X171046829Y-77544329D01*
X171079551Y-77483109D01*
X171097099Y-77425261D01*
X171099702Y-77416682D01*
X171102409Y-77389195D01*
X171104801Y-77364910D01*
X171104801Y-77364904D01*
X171106505Y-77347600D01*
X171104801Y-77330296D01*
X171104801Y-72094712D01*
X171106506Y-72077401D01*
X171099702Y-72008318D01*
X171079551Y-71941891D01*
X171065170Y-71914985D01*
X171046829Y-71880671D01*
X171023668Y-71852450D01*
X171013826Y-71840457D01*
X171013821Y-71840452D01*
X171002790Y-71827011D01*
X170989350Y-71815981D01*
X170469717Y-71296348D01*
X170972600Y-71296348D01*
X170972600Y-71503652D01*
X171013043Y-71706974D01*
X171092375Y-71898498D01*
X171207548Y-72070866D01*
X171354134Y-72217452D01*
X171526502Y-72332625D01*
X171718026Y-72411957D01*
X171921348Y-72452400D01*
X172128652Y-72452400D01*
X172331974Y-72411957D01*
X172523498Y-72332625D01*
X172695866Y-72217452D01*
X172842452Y-72070866D01*
X172957625Y-71898498D01*
X173036957Y-71706974D01*
X173077400Y-71503652D01*
X173077400Y-71296348D01*
X173036957Y-71093026D01*
X172957625Y-70901502D01*
X172842452Y-70729134D01*
X172695866Y-70582548D01*
X172523498Y-70467375D01*
X172331974Y-70388043D01*
X172128652Y-70347600D01*
X171921348Y-70347600D01*
X171718026Y-70388043D01*
X171526502Y-70467375D01*
X171354134Y-70582548D01*
X171207548Y-70729134D01*
X171092375Y-70901502D01*
X171013043Y-71093026D01*
X170972600Y-71296348D01*
X170469717Y-71296348D01*
X169802429Y-70629061D01*
X169791390Y-70615610D01*
X169737730Y-70571572D01*
X169676510Y-70538850D01*
X169610082Y-70518699D01*
X169558311Y-70513600D01*
X169558304Y-70513600D01*
X169541000Y-70511896D01*
X169523696Y-70513600D01*
X168602998Y-70513600D01*
X168601905Y-70502503D01*
X168576091Y-70417407D01*
X168534172Y-70338982D01*
X168477758Y-70270242D01*
X168422631Y-70225000D01*
X175010516Y-70225000D01*
X174984096Y-70239122D01*
X174945663Y-70270663D01*
X174914122Y-70309096D01*
X174890685Y-70352943D01*
X174876252Y-70400521D01*
X174871379Y-70450000D01*
X174871379Y-71650000D01*
X174876252Y-71699479D01*
X174890685Y-71747057D01*
X174914122Y-71790904D01*
X174945663Y-71829337D01*
X174984096Y-71860878D01*
X175027943Y-71884315D01*
X175075521Y-71898748D01*
X175125000Y-71903621D01*
X176111238Y-71903621D01*
X176105788Y-71921586D01*
X176098065Y-72000000D01*
X176100000Y-72000000D01*
X176200000Y-72100000D01*
X176480353Y-72100000D01*
X176421586Y-72105788D01*
X176346186Y-72128660D01*
X176276697Y-72165803D01*
X176235028Y-72200000D01*
X176200000Y-72200000D01*
X176100000Y-72300000D01*
X176098065Y-72300000D01*
X176105788Y-72378414D01*
X176112336Y-72400000D01*
X176105788Y-72421586D01*
X176098065Y-72500000D01*
X176100000Y-72500000D01*
X176200000Y-72600000D01*
X176235028Y-72600000D01*
X176276697Y-72634197D01*
X176306262Y-72650000D01*
X176276697Y-72665803D01*
X176235028Y-72700000D01*
X176200000Y-72700000D01*
X176100000Y-72800000D01*
X176098065Y-72800000D01*
X176105788Y-72878414D01*
X176112336Y-72900000D01*
X176105788Y-72921586D01*
X176098065Y-73000000D01*
X176100000Y-73000000D01*
X176200000Y-73100000D01*
X176235028Y-73100000D01*
X176276697Y-73134197D01*
X176346186Y-73171340D01*
X176421586Y-73194212D01*
X176480353Y-73200000D01*
X176200000Y-73200000D01*
X176100000Y-73300000D01*
X176098065Y-73300000D01*
X176105788Y-73378414D01*
X176128660Y-73453814D01*
X176165803Y-73523303D01*
X176215789Y-73584211D01*
X176246379Y-73609316D01*
X176246379Y-73800000D01*
X176251252Y-73849479D01*
X176265685Y-73897057D01*
X176267258Y-73900000D01*
X176265685Y-73902943D01*
X176251252Y-73950521D01*
X176246379Y-74000000D01*
X176246379Y-74300000D01*
X176251252Y-74349479D01*
X176265685Y-74397057D01*
X176267258Y-74400000D01*
X176265685Y-74402943D01*
X176251252Y-74450521D01*
X176246379Y-74500000D01*
X176246379Y-74800000D01*
X176251252Y-74849479D01*
X176265685Y-74897057D01*
X176267258Y-74900000D01*
X176265685Y-74902943D01*
X176251252Y-74950521D01*
X176246379Y-75000000D01*
X176246379Y-75300000D01*
X176251252Y-75349479D01*
X176265685Y-75397057D01*
X176267258Y-75400000D01*
X176265685Y-75402943D01*
X176251252Y-75450521D01*
X176246379Y-75500000D01*
X176246379Y-75800000D01*
X176251252Y-75849479D01*
X176265685Y-75897057D01*
X176267258Y-75900000D01*
X176265685Y-75902943D01*
X176251252Y-75950521D01*
X176246379Y-76000000D01*
X176246379Y-76190684D01*
X176215789Y-76215789D01*
X176165803Y-76276697D01*
X176128660Y-76346186D01*
X176105788Y-76421586D01*
X176098065Y-76500000D01*
X176100000Y-76500000D01*
X176200000Y-76600000D01*
X177225000Y-76600000D01*
X177225000Y-76580000D01*
X177325000Y-76580000D01*
X177325000Y-76600000D01*
X178350000Y-76600000D01*
X178450000Y-76500000D01*
X178451935Y-76500000D01*
X178444212Y-76421586D01*
X178421340Y-76346186D01*
X178384197Y-76276697D01*
X178334211Y-76215789D01*
X178303621Y-76190684D01*
X178303621Y-76000000D01*
X178298748Y-75950521D01*
X178284315Y-75902943D01*
X178282742Y-75900000D01*
X178284315Y-75897057D01*
X178298748Y-75849479D01*
X178303621Y-75800000D01*
X178303621Y-75500000D01*
X178298748Y-75450521D01*
X178284315Y-75402943D01*
X178282742Y-75400000D01*
X178284315Y-75397057D01*
X178298748Y-75349479D01*
X178303621Y-75300000D01*
X178303621Y-75000000D01*
X178298748Y-74950521D01*
X178284315Y-74902943D01*
X178282742Y-74900000D01*
X178284315Y-74897057D01*
X178298748Y-74849479D01*
X178303621Y-74800000D01*
X178303621Y-74500000D01*
X178298748Y-74450521D01*
X178284315Y-74402943D01*
X178282742Y-74400000D01*
X178284315Y-74397057D01*
X178298748Y-74349479D01*
X178303621Y-74300000D01*
X178303621Y-74000000D01*
X178298748Y-73950521D01*
X178284315Y-73902943D01*
X178282742Y-73900000D01*
X178284315Y-73897057D01*
X178298748Y-73849479D01*
X178303621Y-73800000D01*
X178303621Y-73609316D01*
X178334211Y-73584211D01*
X178384197Y-73523303D01*
X178421340Y-73453814D01*
X178444212Y-73378414D01*
X178451935Y-73300000D01*
X178450000Y-73300000D01*
X178350000Y-73200000D01*
X178069647Y-73200000D01*
X178128414Y-73194212D01*
X178203814Y-73171340D01*
X178273303Y-73134197D01*
X178314972Y-73100000D01*
X178350000Y-73100000D01*
X178450000Y-73000000D01*
X178451935Y-73000000D01*
X178444212Y-72921586D01*
X178437664Y-72900000D01*
X178444212Y-72878414D01*
X178451935Y-72800000D01*
X178450000Y-72800000D01*
X178350000Y-72700000D01*
X178314972Y-72700000D01*
X178273303Y-72665803D01*
X178243738Y-72650000D01*
X178273303Y-72634197D01*
X178314972Y-72600000D01*
X178350000Y-72600000D01*
X178450000Y-72500000D01*
X178451935Y-72500000D01*
X178444212Y-72421586D01*
X178437664Y-72400000D01*
X178444212Y-72378414D01*
X178451935Y-72300000D01*
X178450000Y-72300000D01*
X178350000Y-72200000D01*
X178314972Y-72200000D01*
X178273303Y-72165803D01*
X178203814Y-72128660D01*
X178128414Y-72105788D01*
X178069647Y-72100000D01*
X178350000Y-72100000D01*
X178450000Y-72000000D01*
X178451935Y-72000000D01*
X178444212Y-71921586D01*
X178421340Y-71846186D01*
X178384197Y-71776697D01*
X178334211Y-71715789D01*
X178273303Y-71665803D01*
X178203814Y-71628660D01*
X178128621Y-71605851D01*
X178128621Y-70450000D01*
X178123748Y-70400521D01*
X178109315Y-70352943D01*
X178085878Y-70309096D01*
X178054337Y-70270663D01*
X178015904Y-70239122D01*
X177989484Y-70225000D01*
X179406803Y-70225000D01*
X179775001Y-70593199D01*
X179775000Y-109406802D01*
X179406803Y-109775000D01*
X125593198Y-109775000D01*
X125225000Y-109406803D01*
X125225000Y-106189752D01*
X125350000Y-106189752D01*
X125350000Y-106810248D01*
X125471052Y-107418821D01*
X125708506Y-107992085D01*
X126053235Y-108508008D01*
X126491992Y-108946765D01*
X127007915Y-109291494D01*
X127581179Y-109528948D01*
X128189752Y-109650000D01*
X128810248Y-109650000D01*
X129418821Y-109528948D01*
X129992085Y-109291494D01*
X130508008Y-108946765D01*
X130946765Y-108508008D01*
X131291494Y-107992085D01*
X131528948Y-107418821D01*
X131650000Y-106810248D01*
X131650000Y-106189752D01*
X131528948Y-105581179D01*
X131291494Y-105007915D01*
X130946765Y-104491992D01*
X130508008Y-104053235D01*
X129992085Y-103708506D01*
X129418821Y-103471052D01*
X128810248Y-103350000D01*
X128189752Y-103350000D01*
X127581179Y-103471052D01*
X127007915Y-103708506D01*
X126491992Y-104053235D01*
X126053235Y-104491992D01*
X125708506Y-105007915D01*
X125471052Y-105581179D01*
X125350000Y-106189752D01*
X125225000Y-106189752D01*
X125225000Y-92711037D01*
X125226087Y-92700000D01*
X125225000Y-92688963D01*
X125225000Y-92688953D01*
X125221744Y-92655892D01*
X125210836Y-92619935D01*
X125208878Y-92613479D01*
X125187985Y-92574392D01*
X125166910Y-92548712D01*
X125166908Y-92548710D01*
X125159868Y-92540132D01*
X125151291Y-92533093D01*
X124666912Y-92048715D01*
X124659868Y-92040132D01*
X124625608Y-92012015D01*
X124586520Y-91991122D01*
X124544108Y-91978256D01*
X124511047Y-91975000D01*
X124511037Y-91975000D01*
X124500000Y-91973913D01*
X124488963Y-91975000D01*
X113901047Y-91975000D01*
X113890000Y-91973912D01*
X113878953Y-91975000D01*
X113845892Y-91978256D01*
X113803480Y-91991122D01*
X113764392Y-92012015D01*
X113730132Y-92040132D01*
X113702015Y-92074392D01*
X113681122Y-92113480D01*
X113668256Y-92155892D01*
X113663912Y-92200000D01*
X113665000Y-92211047D01*
X113665000Y-92290608D01*
X113657913Y-92303867D01*
X113643618Y-92350993D01*
X113640000Y-92387726D01*
X113640000Y-94802990D01*
X113590000Y-94798065D01*
X113390000Y-94800000D01*
X113290000Y-94900000D01*
X113290000Y-97300000D01*
X113310000Y-97300000D01*
X113310000Y-97400000D01*
X113290000Y-97400000D01*
X113290000Y-99800000D01*
X113390000Y-99900000D01*
X113590000Y-99901935D01*
X113640001Y-99897010D01*
X113640001Y-100196446D01*
X113286448Y-100550000D01*
X107293553Y-100550000D01*
X106940000Y-100196448D01*
X106940000Y-99901451D01*
X107090000Y-99900000D01*
X107190000Y-99800000D01*
X107190000Y-97400000D01*
X107170000Y-97400000D01*
X107170000Y-97300000D01*
X107190000Y-97300000D01*
X107190000Y-94900000D01*
X107090000Y-94800000D01*
X106940000Y-94798549D01*
X106940000Y-93337725D01*
X106939914Y-93336853D01*
X106939901Y-93334983D01*
X106938714Y-93323691D01*
X106938714Y-93312340D01*
X106938349Y-93308869D01*
X106917682Y-93124617D01*
X106912973Y-93102461D01*
X106908571Y-93080228D01*
X106907538Y-93076893D01*
X106907538Y-93076891D01*
X106907536Y-93076885D01*
X106851477Y-92900163D01*
X106842551Y-92879337D01*
X106833916Y-92858387D01*
X106832256Y-92855317D01*
X106742935Y-92692842D01*
X106730114Y-92674118D01*
X106717594Y-92655273D01*
X106715374Y-92652590D01*
X106715369Y-92652583D01*
X106715363Y-92652578D01*
X106596191Y-92510554D01*
X106580032Y-92494730D01*
X106564036Y-92478622D01*
X106561331Y-92476416D01*
X106416836Y-92360240D01*
X106397908Y-92347853D01*
X106379092Y-92335162D01*
X106376009Y-92333523D01*
X106211700Y-92247624D01*
X106190674Y-92239129D01*
X106169803Y-92230355D01*
X106166461Y-92229346D01*
X105988597Y-92176998D01*
X105966367Y-92172758D01*
X105944145Y-92168196D01*
X105940670Y-92167856D01*
X105756026Y-92151052D01*
X105733368Y-92151210D01*
X105710710Y-92151052D01*
X105707246Y-92151392D01*
X105707236Y-92151392D01*
X105707227Y-92151394D01*
X105522843Y-92170774D01*
X105500638Y-92175332D01*
X105478392Y-92179575D01*
X105475054Y-92180583D01*
X105475048Y-92180584D01*
X105475042Y-92180586D01*
X105297934Y-92235410D01*
X105277035Y-92244195D01*
X105256036Y-92252679D01*
X105252963Y-92254313D01*
X105252954Y-92254317D01*
X105252947Y-92254322D01*
X105089861Y-92342502D01*
X105071137Y-92355132D01*
X105052115Y-92367579D01*
X105049410Y-92369786D01*
X104906551Y-92487970D01*
X104890591Y-92504041D01*
X104874397Y-92519900D01*
X104872172Y-92522590D01*
X104754989Y-92666270D01*
X104742458Y-92685131D01*
X104729649Y-92703838D01*
X104727989Y-92706909D01*
X104640944Y-92870615D01*
X104632309Y-92891565D01*
X104623383Y-92912391D01*
X104622352Y-92915722D01*
X104622352Y-92915724D01*
X104622351Y-92915726D01*
X104568763Y-93093220D01*
X104564367Y-93115423D01*
X104559651Y-93137609D01*
X104559286Y-93141081D01*
X104541193Y-93325604D01*
X104541193Y-93325614D01*
X104540000Y-93337726D01*
X104540000Y-94946379D01*
X104299989Y-94946379D01*
X104299989Y-90415640D01*
X104348598Y-90488388D01*
X104411612Y-90551402D01*
X104485708Y-90600912D01*
X104568040Y-90635015D01*
X104655442Y-90652400D01*
X104744558Y-90652400D01*
X104831960Y-90635015D01*
X104914292Y-90600912D01*
X104988388Y-90551402D01*
X105051402Y-90488388D01*
X105100912Y-90414292D01*
X105135015Y-90331960D01*
X105152400Y-90244558D01*
X105152400Y-90155442D01*
X105135015Y-90068040D01*
X105100912Y-89985708D01*
X105051402Y-89911612D01*
X104988388Y-89848598D01*
X104914292Y-89799088D01*
X104831960Y-89764985D01*
X104746319Y-89747950D01*
X104652400Y-89654032D01*
X104652400Y-87554856D01*
X104685708Y-87577112D01*
X104768040Y-87611215D01*
X104855442Y-87628600D01*
X104944558Y-87628600D01*
X105031960Y-87611215D01*
X105114292Y-87577112D01*
X105188388Y-87527602D01*
X105251402Y-87464588D01*
X105256339Y-87457200D01*
X107260906Y-87457200D01*
X107278908Y-87458973D01*
X107296910Y-87457200D01*
X107296920Y-87457200D01*
X107350794Y-87451894D01*
X107419917Y-87430926D01*
X107483621Y-87396875D01*
X107539458Y-87351050D01*
X107550942Y-87337057D01*
X109930800Y-84957200D01*
X110025972Y-84957200D01*
X110003785Y-84990405D01*
X109969682Y-85072737D01*
X109952297Y-85160139D01*
X109952297Y-85249255D01*
X109954030Y-85257970D01*
X108302938Y-86909063D01*
X108288950Y-86920543D01*
X108277471Y-86934530D01*
X108277468Y-86934533D01*
X108243125Y-86976379D01*
X108229830Y-87001252D01*
X108209074Y-87040084D01*
X108188106Y-87109207D01*
X108182800Y-87163081D01*
X108182800Y-87163090D01*
X108181027Y-87181092D01*
X108182800Y-87199094D01*
X108182801Y-93663606D01*
X107993438Y-93852970D01*
X107979450Y-93864450D01*
X107967971Y-93878437D01*
X107967968Y-93878440D01*
X107933625Y-93920286D01*
X107923378Y-93939457D01*
X107899574Y-93983991D01*
X107878606Y-94053114D01*
X107873300Y-94106988D01*
X107873300Y-94106997D01*
X107871527Y-94124999D01*
X107873300Y-94143001D01*
X107873300Y-94915042D01*
X107813303Y-94865803D01*
X107743814Y-94828660D01*
X107668414Y-94805788D01*
X107590000Y-94798065D01*
X107390000Y-94800000D01*
X107290000Y-94900000D01*
X107290000Y-97300000D01*
X107310000Y-97300000D01*
X107310000Y-97400000D01*
X107290000Y-97400000D01*
X107290000Y-99800000D01*
X107390000Y-99900000D01*
X107590000Y-99901935D01*
X107668414Y-99894212D01*
X107743814Y-99871340D01*
X107813303Y-99834197D01*
X107874211Y-99784211D01*
X107899316Y-99753621D01*
X108590000Y-99753621D01*
X108639479Y-99748748D01*
X108687057Y-99734315D01*
X108730904Y-99710878D01*
X108740000Y-99703413D01*
X108749096Y-99710878D01*
X108792943Y-99734315D01*
X108840521Y-99748748D01*
X108890000Y-99753621D01*
X109580684Y-99753621D01*
X109605789Y-99784211D01*
X109666697Y-99834197D01*
X109736186Y-99871340D01*
X109811586Y-99894212D01*
X109890000Y-99901935D01*
X110090000Y-99900000D01*
X110190000Y-99800000D01*
X110190000Y-97400000D01*
X110170000Y-97400000D01*
X110170000Y-97300000D01*
X110190000Y-97300000D01*
X110190000Y-94900000D01*
X110290000Y-94900000D01*
X110290000Y-97300000D01*
X110310000Y-97300000D01*
X110310000Y-97400000D01*
X110290000Y-97400000D01*
X110290000Y-99800000D01*
X110390000Y-99900000D01*
X110590000Y-99901935D01*
X110668414Y-99894212D01*
X110743814Y-99871340D01*
X110813303Y-99834197D01*
X110874211Y-99784211D01*
X110899316Y-99753621D01*
X111590000Y-99753621D01*
X111639479Y-99748748D01*
X111687057Y-99734315D01*
X111730904Y-99710878D01*
X111740000Y-99703413D01*
X111749096Y-99710878D01*
X111792943Y-99734315D01*
X111840521Y-99748748D01*
X111890000Y-99753621D01*
X112580684Y-99753621D01*
X112605789Y-99784211D01*
X112666697Y-99834197D01*
X112736186Y-99871340D01*
X112811586Y-99894212D01*
X112890000Y-99901935D01*
X113090000Y-99900000D01*
X113190000Y-99800000D01*
X113190000Y-97400000D01*
X113170000Y-97400000D01*
X113170000Y-97300000D01*
X113190000Y-97300000D01*
X113190000Y-94900000D01*
X113090000Y-94800000D01*
X112890000Y-94798065D01*
X112811586Y-94805788D01*
X112736186Y-94828660D01*
X112666697Y-94865803D01*
X112606700Y-94915041D01*
X112606700Y-94143000D01*
X112608473Y-94124998D01*
X112606700Y-94106996D01*
X112606700Y-94106987D01*
X112601394Y-94053113D01*
X112580426Y-93983990D01*
X112546376Y-93920287D01*
X112546375Y-93920285D01*
X112512032Y-93878439D01*
X112512025Y-93878432D01*
X112500549Y-93864449D01*
X112486567Y-93852974D01*
X112297200Y-93663608D01*
X112297200Y-87679094D01*
X112298973Y-87661092D01*
X112297200Y-87643090D01*
X112297200Y-87643080D01*
X112291894Y-87589206D01*
X112271361Y-87521517D01*
X112270926Y-87520082D01*
X112236875Y-87456379D01*
X112202532Y-87414532D01*
X112202525Y-87414525D01*
X112191049Y-87400542D01*
X112177067Y-87389067D01*
X111650940Y-86862941D01*
X111639458Y-86848950D01*
X111583621Y-86803125D01*
X111519917Y-86769074D01*
X111450794Y-86748106D01*
X111396920Y-86742800D01*
X111396910Y-86742800D01*
X111378908Y-86741027D01*
X111360906Y-86742800D01*
X111256339Y-86742800D01*
X111251402Y-86735412D01*
X111188388Y-86672398D01*
X111114292Y-86622888D01*
X111031960Y-86588785D01*
X110944558Y-86571400D01*
X110855442Y-86571400D01*
X110768040Y-86588785D01*
X110685708Y-86622888D01*
X110611612Y-86672398D01*
X110548598Y-86735412D01*
X110499088Y-86809508D01*
X110464985Y-86891840D01*
X110447600Y-86979242D01*
X110447600Y-87068358D01*
X110464985Y-87155760D01*
X110499088Y-87238092D01*
X110540454Y-87300000D01*
X110499088Y-87361908D01*
X110464985Y-87444240D01*
X110447600Y-87531642D01*
X110447600Y-87620758D01*
X110464985Y-87708160D01*
X110499088Y-87790492D01*
X110548598Y-87864588D01*
X110611612Y-87927602D01*
X110685708Y-87977112D01*
X110768040Y-88011215D01*
X110855442Y-88028600D01*
X110944558Y-88028600D01*
X111031960Y-88011215D01*
X111114292Y-87977112D01*
X111159143Y-87947143D01*
X111182800Y-87970800D01*
X111182801Y-93663606D01*
X110993438Y-93852970D01*
X110979450Y-93864450D01*
X110967971Y-93878437D01*
X110967968Y-93878440D01*
X110933625Y-93920286D01*
X110923378Y-93939457D01*
X110899574Y-93983991D01*
X110878606Y-94053114D01*
X110873300Y-94106988D01*
X110873300Y-94106997D01*
X110871527Y-94124999D01*
X110873300Y-94143001D01*
X110873300Y-94915042D01*
X110813303Y-94865803D01*
X110743814Y-94828660D01*
X110668414Y-94805788D01*
X110590000Y-94798065D01*
X110390000Y-94800000D01*
X110290000Y-94900000D01*
X110190000Y-94900000D01*
X110090000Y-94800000D01*
X109890000Y-94798065D01*
X109811586Y-94805788D01*
X109736186Y-94828660D01*
X109666697Y-94865803D01*
X109606700Y-94915041D01*
X109606700Y-94143000D01*
X109608473Y-94124998D01*
X109606700Y-94106996D01*
X109606700Y-94106987D01*
X109601394Y-94053113D01*
X109580426Y-93983990D01*
X109546376Y-93920287D01*
X109546375Y-93920285D01*
X109512032Y-93878439D01*
X109512025Y-93878432D01*
X109500549Y-93864449D01*
X109486567Y-93852974D01*
X109297200Y-93663608D01*
X109297200Y-87490799D01*
X110742030Y-86045970D01*
X110750745Y-86047703D01*
X110839861Y-86047703D01*
X110927263Y-86030318D01*
X111009595Y-85996215D01*
X111083691Y-85946705D01*
X111146705Y-85883691D01*
X111196215Y-85809595D01*
X111230318Y-85727263D01*
X111247703Y-85639861D01*
X111247703Y-85550745D01*
X111230318Y-85463343D01*
X111196215Y-85381011D01*
X111146705Y-85306915D01*
X111083691Y-85243901D01*
X111009595Y-85194391D01*
X110927263Y-85160288D01*
X110854237Y-85145763D01*
X110839712Y-85072737D01*
X110805609Y-84990405D01*
X110783422Y-84957200D01*
X110869201Y-84957200D01*
X115749063Y-89837063D01*
X115760542Y-89851050D01*
X115774529Y-89862529D01*
X115774532Y-89862532D01*
X115816379Y-89896875D01*
X115880083Y-89930926D01*
X115949206Y-89951894D01*
X116003080Y-89957200D01*
X116003090Y-89957200D01*
X116021092Y-89958973D01*
X116039094Y-89957200D01*
X124160906Y-89957200D01*
X124178908Y-89958973D01*
X124196910Y-89957200D01*
X124196920Y-89957200D01*
X124250794Y-89951894D01*
X124319917Y-89930926D01*
X124383621Y-89896875D01*
X124439458Y-89851050D01*
X124450942Y-89837058D01*
X124842030Y-89445970D01*
X124850745Y-89447703D01*
X124939861Y-89447703D01*
X125027263Y-89430318D01*
X125109595Y-89396215D01*
X125183691Y-89346705D01*
X125246705Y-89283691D01*
X125296215Y-89209595D01*
X125330318Y-89127263D01*
X125347703Y-89039861D01*
X125347703Y-88950745D01*
X125330318Y-88863343D01*
X125296215Y-88781011D01*
X125246705Y-88706915D01*
X125183691Y-88643901D01*
X125109595Y-88594391D01*
X125027263Y-88560288D01*
X124954237Y-88545763D01*
X124939712Y-88472737D01*
X124905609Y-88390405D01*
X124856099Y-88316309D01*
X124793085Y-88253295D01*
X124791746Y-88252400D01*
X125754032Y-88252400D01*
X139438575Y-101936944D01*
X139449610Y-101950390D01*
X139503270Y-101994428D01*
X139564490Y-102027150D01*
X139599995Y-102037920D01*
X139630916Y-102047301D01*
X139643473Y-102048538D01*
X139682689Y-102052400D01*
X139682695Y-102052400D01*
X139699999Y-102054104D01*
X139717303Y-102052400D01*
X158213106Y-102052400D01*
X158285708Y-102100912D01*
X158368040Y-102135015D01*
X158455442Y-102152400D01*
X158544558Y-102152400D01*
X158631960Y-102135015D01*
X158714292Y-102100912D01*
X158788388Y-102051402D01*
X158851402Y-101988388D01*
X158900912Y-101914292D01*
X158935015Y-101831960D01*
X158952400Y-101744558D01*
X158952400Y-101655442D01*
X158935015Y-101568040D01*
X158900912Y-101485708D01*
X158851402Y-101411612D01*
X158788388Y-101348598D01*
X158714292Y-101299088D01*
X158631960Y-101264985D01*
X158544558Y-101247600D01*
X158455442Y-101247600D01*
X158368040Y-101264985D01*
X158285708Y-101299088D01*
X158213106Y-101347600D01*
X139845969Y-101347600D01*
X126161429Y-87663061D01*
X126150390Y-87649610D01*
X126096730Y-87605572D01*
X126035510Y-87572850D01*
X125969082Y-87552699D01*
X125917311Y-87547600D01*
X125917304Y-87547600D01*
X125900000Y-87545896D01*
X125882696Y-87547600D01*
X116145968Y-87547600D01*
X111961429Y-83363061D01*
X111950390Y-83349610D01*
X111896730Y-83305572D01*
X111835510Y-83272850D01*
X111769082Y-83252699D01*
X111717311Y-83247600D01*
X111717304Y-83247600D01*
X111700000Y-83245896D01*
X111682696Y-83247600D01*
X104817311Y-83247600D01*
X104800000Y-83245895D01*
X104730917Y-83252699D01*
X104676911Y-83269082D01*
X104664490Y-83272850D01*
X104603270Y-83305572D01*
X104549610Y-83349610D01*
X104538575Y-83363056D01*
X104299989Y-83601643D01*
X104299989Y-83052863D01*
X104301694Y-83035552D01*
X104294890Y-82966469D01*
X104274739Y-82900042D01*
X104269078Y-82889450D01*
X104242017Y-82838822D01*
X104197979Y-82785162D01*
X104184533Y-82774127D01*
X100434831Y-79024426D01*
X100739991Y-78719266D01*
X100758630Y-78719266D01*
X100747600Y-78774718D01*
X100747600Y-78863834D01*
X100764985Y-78951236D01*
X100799088Y-79033568D01*
X100848598Y-79107664D01*
X100911612Y-79170678D01*
X100985708Y-79220188D01*
X101068040Y-79254291D01*
X101155442Y-79271676D01*
X101244558Y-79271676D01*
X101331960Y-79254291D01*
X101414292Y-79220188D01*
X101486894Y-79171676D01*
X109821692Y-79171676D01*
X110302427Y-79652412D01*
X104150781Y-79652412D01*
X104102050Y-79603681D01*
X104085015Y-79518040D01*
X104050912Y-79435708D01*
X104001402Y-79361612D01*
X103938388Y-79298598D01*
X103864292Y-79249088D01*
X103781960Y-79214985D01*
X103694558Y-79197600D01*
X103605442Y-79197600D01*
X103518040Y-79214985D01*
X103435708Y-79249088D01*
X103361612Y-79298598D01*
X103298598Y-79361612D01*
X103249088Y-79435708D01*
X103214985Y-79518040D01*
X103197600Y-79605442D01*
X103197600Y-79694558D01*
X103214985Y-79781960D01*
X103249088Y-79864292D01*
X103298598Y-79938388D01*
X103361612Y-80001402D01*
X103435708Y-80050912D01*
X103518040Y-80085015D01*
X103603681Y-80102050D01*
X103743386Y-80241755D01*
X103754422Y-80255202D01*
X103808082Y-80299240D01*
X103839536Y-80316052D01*
X103869302Y-80331962D01*
X103935729Y-80352113D01*
X103942008Y-80352731D01*
X103987501Y-80357212D01*
X103987508Y-80357212D01*
X104004812Y-80358916D01*
X104022116Y-80357212D01*
X111308844Y-80357212D01*
X111438575Y-80486944D01*
X111449610Y-80500390D01*
X111503270Y-80544428D01*
X111564490Y-80577150D01*
X111599995Y-80587920D01*
X111630916Y-80597301D01*
X111643473Y-80598538D01*
X111682689Y-80602400D01*
X111682695Y-80602400D01*
X111699999Y-80604104D01*
X111717303Y-80602400D01*
X151632696Y-80602400D01*
X151650000Y-80604104D01*
X151667304Y-80602400D01*
X151667311Y-80602400D01*
X151719082Y-80597301D01*
X151785510Y-80577150D01*
X151846730Y-80544428D01*
X151900390Y-80500390D01*
X151911429Y-80486939D01*
X156146318Y-76252050D01*
X156231960Y-76235015D01*
X156314292Y-76200912D01*
X156388388Y-76151402D01*
X156451402Y-76088388D01*
X156500912Y-76014292D01*
X156535015Y-75931960D01*
X156552400Y-75844558D01*
X156552400Y-75755442D01*
X156535015Y-75668040D01*
X156500912Y-75585708D01*
X156451402Y-75511612D01*
X156388388Y-75448598D01*
X156314292Y-75399088D01*
X156231960Y-75364985D01*
X156144558Y-75347600D01*
X156055442Y-75347600D01*
X155968040Y-75364985D01*
X155908877Y-75389491D01*
X157446318Y-73852050D01*
X157531960Y-73835015D01*
X157614292Y-73800912D01*
X157688388Y-73751402D01*
X157751402Y-73688388D01*
X157800912Y-73614292D01*
X157835015Y-73531960D01*
X157852400Y-73444558D01*
X157852400Y-73355442D01*
X157835015Y-73268040D01*
X157800912Y-73185708D01*
X157751402Y-73111612D01*
X157688388Y-73048598D01*
X157614292Y-72999088D01*
X157554970Y-72974516D01*
X157584917Y-72902218D01*
X157602302Y-72814816D01*
X157602302Y-72725700D01*
X157584917Y-72638298D01*
X157550920Y-72556223D01*
X157594803Y-72512340D01*
X157644313Y-72438244D01*
X157678416Y-72355912D01*
X157695801Y-72268510D01*
X157695801Y-72179394D01*
X157678416Y-72091992D01*
X157644313Y-72009660D01*
X157594803Y-71935564D01*
X157531789Y-71872550D01*
X157457693Y-71823040D01*
X157375361Y-71788937D01*
X157287959Y-71771552D01*
X157198843Y-71771552D01*
X157111441Y-71788937D01*
X157029109Y-71823040D01*
X156958797Y-71870021D01*
X156943257Y-71871552D01*
X156943248Y-71871552D01*
X156891477Y-71876651D01*
X156825049Y-71896802D01*
X156763829Y-71929524D01*
X156710169Y-71973562D01*
X156699130Y-71987013D01*
X156248800Y-72437343D01*
X156235015Y-72368040D01*
X156200912Y-72285708D01*
X156151402Y-72211612D01*
X156088388Y-72148598D01*
X156014292Y-72099088D01*
X155931960Y-72064985D01*
X155844558Y-72047600D01*
X155755442Y-72047600D01*
X155668040Y-72064985D01*
X155585708Y-72099088D01*
X155511612Y-72148598D01*
X155448598Y-72211612D01*
X155399088Y-72285708D01*
X155364985Y-72368040D01*
X155347950Y-72453681D01*
X152654032Y-75147600D01*
X151517303Y-75147600D01*
X151499999Y-75145896D01*
X151482695Y-75147600D01*
X151482689Y-75147600D01*
X151444087Y-75151402D01*
X151430916Y-75152699D01*
X151399995Y-75162080D01*
X151364490Y-75172850D01*
X151303270Y-75205572D01*
X151249610Y-75249610D01*
X151238575Y-75263056D01*
X150801621Y-75700011D01*
X147298357Y-75700011D01*
X149846319Y-73152050D01*
X149931960Y-73135015D01*
X150014292Y-73100912D01*
X150088388Y-73051402D01*
X150151402Y-72988388D01*
X150200912Y-72914292D01*
X150235015Y-72831960D01*
X150252400Y-72744558D01*
X150252400Y-72655442D01*
X150235015Y-72568040D01*
X150200912Y-72485708D01*
X150151402Y-72411612D01*
X150088388Y-72348598D01*
X150014292Y-72299088D01*
X149931960Y-72264985D01*
X149844558Y-72247600D01*
X149755442Y-72247600D01*
X149668040Y-72264985D01*
X149585708Y-72299088D01*
X149511612Y-72348598D01*
X149448598Y-72411612D01*
X149425784Y-72445755D01*
X149400912Y-72385708D01*
X149351402Y-72311612D01*
X149288388Y-72248598D01*
X149214292Y-72199088D01*
X149131960Y-72164985D01*
X149044558Y-72147600D01*
X148955442Y-72147600D01*
X148868040Y-72164985D01*
X148785708Y-72199088D01*
X148711612Y-72248598D01*
X148648598Y-72311612D01*
X148599088Y-72385708D01*
X148564985Y-72468040D01*
X148547600Y-72555442D01*
X148547600Y-72644558D01*
X148564985Y-72731960D01*
X148590621Y-72793852D01*
X146436874Y-74947600D01*
X141207115Y-74947600D01*
X141189804Y-74945895D01*
X141120721Y-74952699D01*
X141063953Y-74969920D01*
X141054294Y-74972850D01*
X140993074Y-75005572D01*
X140939414Y-75049610D01*
X140928379Y-75063056D01*
X140152400Y-75839035D01*
X140152400Y-75755442D01*
X140135015Y-75668040D01*
X140100912Y-75585708D01*
X140051402Y-75511612D01*
X139988388Y-75448598D01*
X139919599Y-75402634D01*
X140669834Y-74652400D01*
X143627785Y-74652400D01*
X143650000Y-74654588D01*
X143672214Y-74652400D01*
X143672215Y-74652400D01*
X143738686Y-74645853D01*
X143823963Y-74619985D01*
X143902556Y-74577976D01*
X143971442Y-74521442D01*
X144027976Y-74452556D01*
X144069985Y-74373963D01*
X144095853Y-74288686D01*
X144100465Y-74241858D01*
X144102400Y-74222215D01*
X144102400Y-74222214D01*
X144104588Y-74200000D01*
X144102400Y-74177785D01*
X144102400Y-74053621D01*
X144150000Y-74053621D01*
X144199479Y-74048748D01*
X144247057Y-74034315D01*
X144290904Y-74010878D01*
X144300000Y-74003413D01*
X144309096Y-74010878D01*
X144352943Y-74034315D01*
X144400521Y-74048748D01*
X144450000Y-74053621D01*
X145450000Y-74053621D01*
X145499479Y-74048748D01*
X145547057Y-74034315D01*
X145590904Y-74010878D01*
X145629337Y-73979337D01*
X145660878Y-73940904D01*
X145684315Y-73897057D01*
X145698748Y-73849479D01*
X145703621Y-73800000D01*
X145703621Y-72300000D01*
X145698748Y-72250521D01*
X145684315Y-72202943D01*
X145660878Y-72159096D01*
X145629337Y-72120663D01*
X145590904Y-72089122D01*
X145547057Y-72065685D01*
X145499479Y-72051252D01*
X145462276Y-72047588D01*
X146099220Y-72047588D01*
X146340176Y-72288544D01*
X146339096Y-72289122D01*
X146300663Y-72320663D01*
X146269122Y-72359096D01*
X146245685Y-72402943D01*
X146231252Y-72450521D01*
X146226379Y-72500000D01*
X146226379Y-73500000D01*
X146231252Y-73549479D01*
X146245685Y-73597057D01*
X146269122Y-73640904D01*
X146300663Y-73679337D01*
X146339096Y-73710878D01*
X146382943Y-73734315D01*
X146430521Y-73748748D01*
X146480000Y-73753621D01*
X147480000Y-73753621D01*
X147529479Y-73748748D01*
X147577057Y-73734315D01*
X147620904Y-73710878D01*
X147659337Y-73679337D01*
X147690878Y-73640904D01*
X147714315Y-73597057D01*
X147728748Y-73549479D01*
X147733621Y-73500000D01*
X147733621Y-72500000D01*
X147728748Y-72450521D01*
X147714315Y-72402943D01*
X147690878Y-72359096D01*
X147659337Y-72320663D01*
X147620904Y-72289122D01*
X147577057Y-72265685D01*
X147529479Y-72251252D01*
X147480000Y-72246379D01*
X147198824Y-72246379D01*
X147197301Y-72230918D01*
X147177150Y-72164490D01*
X147144428Y-72103270D01*
X147100389Y-72049610D01*
X147086943Y-72038575D01*
X146506617Y-71458249D01*
X146495578Y-71444798D01*
X146441918Y-71400760D01*
X146380698Y-71368038D01*
X146314270Y-71347887D01*
X146262499Y-71342788D01*
X146262492Y-71342788D01*
X146245188Y-71341084D01*
X146227884Y-71342788D01*
X140672115Y-71342788D01*
X140654811Y-71341084D01*
X140637507Y-71342788D01*
X140637501Y-71342788D01*
X140592635Y-71347207D01*
X140585729Y-71347887D01*
X140519302Y-71368038D01*
X140458082Y-71400760D01*
X140404422Y-71444798D01*
X140393387Y-71458244D01*
X139953682Y-71897950D01*
X139868040Y-71914985D01*
X139785708Y-71949088D01*
X139711612Y-71998598D01*
X139648598Y-72061612D01*
X139599088Y-72135708D01*
X139564985Y-72218040D01*
X139547600Y-72305442D01*
X139547600Y-72394558D01*
X139564985Y-72481960D01*
X139599088Y-72564292D01*
X139648598Y-72638388D01*
X139711612Y-72701402D01*
X139785708Y-72750912D01*
X139868040Y-72785015D01*
X139955442Y-72802400D01*
X140044558Y-72802400D01*
X140131960Y-72785015D01*
X140214292Y-72750912D01*
X140288388Y-72701402D01*
X140351402Y-72638388D01*
X140400912Y-72564292D01*
X140435015Y-72481960D01*
X140452050Y-72396318D01*
X140800781Y-72047588D01*
X141837724Y-72047588D01*
X141800521Y-72051252D01*
X141752943Y-72065685D01*
X141709096Y-72089122D01*
X141670663Y-72120663D01*
X141639122Y-72159096D01*
X141615685Y-72202943D01*
X141601252Y-72250521D01*
X141596379Y-72300000D01*
X141596379Y-73747600D01*
X140504650Y-73747600D01*
X140482443Y-73745413D01*
X140460236Y-73747600D01*
X140460229Y-73747600D01*
X140393758Y-73754147D01*
X140308481Y-73780015D01*
X140229888Y-73822024D01*
X140161002Y-73878558D01*
X140146841Y-73895813D01*
X137695055Y-76347600D01*
X129856633Y-76347600D01*
X129992085Y-76291494D01*
X130508008Y-75946765D01*
X130946765Y-75508008D01*
X131291494Y-74992085D01*
X131528948Y-74418821D01*
X131650000Y-73810248D01*
X131650000Y-73189752D01*
X131528948Y-72581179D01*
X131291494Y-72007915D01*
X130946765Y-71491992D01*
X130508008Y-71053235D01*
X130361651Y-70955442D01*
X132547600Y-70955442D01*
X132547600Y-71044558D01*
X132564985Y-71131960D01*
X132599088Y-71214292D01*
X132648598Y-71288388D01*
X132711612Y-71351402D01*
X132785708Y-71400912D01*
X132868040Y-71435015D01*
X132955442Y-71452400D01*
X133044558Y-71452400D01*
X133131960Y-71435015D01*
X133214292Y-71400912D01*
X133288388Y-71351402D01*
X133351402Y-71288388D01*
X133400912Y-71214292D01*
X133435015Y-71131960D01*
X133452400Y-71044558D01*
X133452400Y-70955442D01*
X134147600Y-70955442D01*
X134147600Y-71044558D01*
X134164985Y-71131960D01*
X134199088Y-71214292D01*
X134248598Y-71288388D01*
X134311612Y-71351402D01*
X134385708Y-71400912D01*
X134468040Y-71435015D01*
X134555442Y-71452400D01*
X134644558Y-71452400D01*
X134731960Y-71435015D01*
X134814292Y-71400912D01*
X134888388Y-71351402D01*
X134951402Y-71288388D01*
X135000912Y-71214292D01*
X135035015Y-71131960D01*
X135052400Y-71044558D01*
X135052400Y-70955442D01*
X135547600Y-70955442D01*
X135547600Y-71044558D01*
X135564985Y-71131960D01*
X135599088Y-71214292D01*
X135648598Y-71288388D01*
X135711612Y-71351402D01*
X135785708Y-71400912D01*
X135868040Y-71435015D01*
X135955442Y-71452400D01*
X136044558Y-71452400D01*
X136131960Y-71435015D01*
X136214292Y-71400912D01*
X136288388Y-71351402D01*
X136351402Y-71288388D01*
X136400912Y-71214292D01*
X136435015Y-71131960D01*
X136452400Y-71044558D01*
X136452400Y-70955442D01*
X137147600Y-70955442D01*
X137147600Y-71044558D01*
X137164985Y-71131960D01*
X137199088Y-71214292D01*
X137248598Y-71288388D01*
X137311612Y-71351402D01*
X137385708Y-71400912D01*
X137468040Y-71435015D01*
X137555442Y-71452400D01*
X137644558Y-71452400D01*
X137731960Y-71435015D01*
X137814292Y-71400912D01*
X137888388Y-71351402D01*
X137951402Y-71288388D01*
X138000912Y-71214292D01*
X138035015Y-71131960D01*
X138052400Y-71044558D01*
X138052400Y-70955442D01*
X138035015Y-70868040D01*
X138000912Y-70785708D01*
X137980689Y-70755442D01*
X142747600Y-70755442D01*
X142747600Y-70844558D01*
X142764985Y-70931960D01*
X142799088Y-71014292D01*
X142848598Y-71088388D01*
X142911612Y-71151402D01*
X142985708Y-71200912D01*
X143068040Y-71235015D01*
X143155442Y-71252400D01*
X143244558Y-71252400D01*
X143331960Y-71235015D01*
X143414292Y-71200912D01*
X143488388Y-71151402D01*
X143551402Y-71088388D01*
X143600000Y-71015657D01*
X143648598Y-71088388D01*
X143711612Y-71151402D01*
X143785708Y-71200912D01*
X143868040Y-71235015D01*
X143955442Y-71252400D01*
X144044558Y-71252400D01*
X144131960Y-71235015D01*
X144214292Y-71200912D01*
X144288388Y-71151402D01*
X144351402Y-71088388D01*
X144400912Y-71014292D01*
X144435015Y-70931960D01*
X144452400Y-70844558D01*
X144452400Y-70755442D01*
X144435015Y-70668040D01*
X144400912Y-70585708D01*
X144351402Y-70511612D01*
X144288388Y-70448598D01*
X144214292Y-70399088D01*
X144131960Y-70364985D01*
X144044558Y-70347600D01*
X143955442Y-70347600D01*
X143868040Y-70364985D01*
X143785708Y-70399088D01*
X143711612Y-70448598D01*
X143648598Y-70511612D01*
X143600000Y-70584343D01*
X143551402Y-70511612D01*
X143488388Y-70448598D01*
X143414292Y-70399088D01*
X143331960Y-70364985D01*
X143244558Y-70347600D01*
X143155442Y-70347600D01*
X143068040Y-70364985D01*
X142985708Y-70399088D01*
X142911612Y-70448598D01*
X142848598Y-70511612D01*
X142799088Y-70585708D01*
X142764985Y-70668040D01*
X142747600Y-70755442D01*
X137980689Y-70755442D01*
X137951402Y-70711612D01*
X137888388Y-70648598D01*
X137814292Y-70599088D01*
X137731960Y-70564985D01*
X137644558Y-70547600D01*
X137555442Y-70547600D01*
X137468040Y-70564985D01*
X137385708Y-70599088D01*
X137311612Y-70648598D01*
X137248598Y-70711612D01*
X137199088Y-70785708D01*
X137164985Y-70868040D01*
X137147600Y-70955442D01*
X136452400Y-70955442D01*
X136435015Y-70868040D01*
X136400912Y-70785708D01*
X136351402Y-70711612D01*
X136288388Y-70648598D01*
X136214292Y-70599088D01*
X136131960Y-70564985D01*
X136044558Y-70547600D01*
X135955442Y-70547600D01*
X135868040Y-70564985D01*
X135785708Y-70599088D01*
X135711612Y-70648598D01*
X135648598Y-70711612D01*
X135599088Y-70785708D01*
X135564985Y-70868040D01*
X135547600Y-70955442D01*
X135052400Y-70955442D01*
X135035015Y-70868040D01*
X135000912Y-70785708D01*
X134951402Y-70711612D01*
X134888388Y-70648598D01*
X134814292Y-70599088D01*
X134731960Y-70564985D01*
X134644558Y-70547600D01*
X134555442Y-70547600D01*
X134468040Y-70564985D01*
X134385708Y-70599088D01*
X134311612Y-70648598D01*
X134248598Y-70711612D01*
X134199088Y-70785708D01*
X134164985Y-70868040D01*
X134147600Y-70955442D01*
X133452400Y-70955442D01*
X133435015Y-70868040D01*
X133400912Y-70785708D01*
X133351402Y-70711612D01*
X133288388Y-70648598D01*
X133214292Y-70599088D01*
X133131960Y-70564985D01*
X133044558Y-70547600D01*
X132955442Y-70547600D01*
X132868040Y-70564985D01*
X132785708Y-70599088D01*
X132711612Y-70648598D01*
X132648598Y-70711612D01*
X132599088Y-70785708D01*
X132564985Y-70868040D01*
X132547600Y-70955442D01*
X130361651Y-70955442D01*
X129992085Y-70708506D01*
X129418821Y-70471052D01*
X128810248Y-70350000D01*
X128189752Y-70350000D01*
X127581179Y-70471052D01*
X127007915Y-70708506D01*
X126491992Y-71053235D01*
X126053235Y-71491992D01*
X125708506Y-72007915D01*
X125471052Y-72581179D01*
X125350000Y-73189752D01*
X125350000Y-73810248D01*
X125471052Y-74418821D01*
X125708506Y-74992085D01*
X126053235Y-75508008D01*
X126491992Y-75946765D01*
X127007915Y-76291494D01*
X127143367Y-76347600D01*
X115277195Y-76347600D01*
X112475412Y-73545818D01*
X112461247Y-73528558D01*
X112392361Y-73472024D01*
X112313768Y-73430015D01*
X112228491Y-73404147D01*
X112162020Y-73397600D01*
X112162012Y-73397600D01*
X112139805Y-73395413D01*
X112117598Y-73397600D01*
X101617230Y-73397600D01*
X101561660Y-73360469D01*
X101461129Y-73318828D01*
X101354407Y-73297600D01*
X101245593Y-73297600D01*
X101138871Y-73318828D01*
X101038340Y-73360469D01*
X100947865Y-73420923D01*
X100870923Y-73497865D01*
X100810469Y-73588340D01*
X100768828Y-73688871D01*
X100747600Y-73795593D01*
X100747600Y-73904407D01*
X100768828Y-74011129D01*
X100810469Y-74111660D01*
X100870923Y-74202135D01*
X100947865Y-74279077D01*
X100964766Y-74290370D01*
X100436894Y-74290370D01*
X100364292Y-74241858D01*
X100281960Y-74207755D01*
X100194558Y-74190370D01*
X100105442Y-74190370D01*
X100018040Y-74207755D01*
X99935708Y-74241858D01*
X99861612Y-74291368D01*
X99798598Y-74354382D01*
X99749088Y-74428478D01*
X99714985Y-74510810D01*
X99697600Y-74598212D01*
X99697600Y-74687328D01*
X99708630Y-74742779D01*
X98675364Y-74742779D01*
X98658053Y-74741074D01*
X98588970Y-74747878D01*
X98564036Y-74755442D01*
X98522543Y-74768029D01*
X98461323Y-74800751D01*
X98407663Y-74844789D01*
X98396628Y-74858235D01*
X96208234Y-77046630D01*
X96194788Y-77057665D01*
X96150750Y-77111325D01*
X96136699Y-77137614D01*
X96118028Y-77172545D01*
X96101547Y-77226876D01*
X96097877Y-77238973D01*
X96092778Y-77290744D01*
X96092778Y-77290750D01*
X96091074Y-77308054D01*
X96092778Y-77325358D01*
X96092780Y-79952028D01*
X95887929Y-79645447D01*
X95504553Y-79262071D01*
X95053750Y-78960854D01*
X94552846Y-78753373D01*
X94021088Y-78647600D01*
X93478912Y-78647600D01*
X92947154Y-78753373D01*
X92446250Y-78960854D01*
X91995447Y-79262071D01*
X91612071Y-79645447D01*
X91310854Y-80096250D01*
X91103373Y-80597154D01*
X90997600Y-81128912D01*
X90997600Y-81671088D01*
X91103373Y-82202846D01*
X91310854Y-82703750D01*
X91612071Y-83154553D01*
X91995447Y-83537929D01*
X92446250Y-83839146D01*
X92947154Y-84046627D01*
X93478912Y-84152400D01*
X94021088Y-84152400D01*
X94552846Y-84046627D01*
X95053750Y-83839146D01*
X95504553Y-83537929D01*
X95887929Y-83154553D01*
X96189146Y-82703750D01*
X96396627Y-82202846D01*
X96498012Y-81693148D01*
X97887600Y-83082737D01*
X97887601Y-94932105D01*
X97874211Y-94915789D01*
X97813303Y-94865803D01*
X97743814Y-94828660D01*
X97668414Y-94805788D01*
X97590000Y-94798065D01*
X97390000Y-94800000D01*
X97290000Y-94900000D01*
X97290000Y-97300000D01*
X97310000Y-97300000D01*
X97310000Y-97400000D01*
X97290000Y-97400000D01*
X97290000Y-99800000D01*
X97390000Y-99900000D01*
X97590000Y-99901935D01*
X97668414Y-99894212D01*
X97743814Y-99871340D01*
X97813303Y-99834197D01*
X97874211Y-99784211D01*
X97899316Y-99753621D01*
X98590000Y-99753621D01*
X98639479Y-99748748D01*
X98687057Y-99734315D01*
X98730904Y-99710878D01*
X98740000Y-99703413D01*
X98749096Y-99710878D01*
X98792943Y-99734315D01*
X98840521Y-99748748D01*
X98890000Y-99753621D01*
X99580684Y-99753621D01*
X99605789Y-99784211D01*
X99666697Y-99834197D01*
X99736186Y-99871340D01*
X99811586Y-99894212D01*
X99890000Y-99901935D01*
X100090000Y-99900000D01*
X100190000Y-99800000D01*
X100190000Y-97400000D01*
X100170000Y-97400000D01*
X100170000Y-97300000D01*
X100190000Y-97300000D01*
X100190000Y-94900000D01*
X100090000Y-94800000D01*
X99890000Y-94798065D01*
X99811586Y-94805788D01*
X99736186Y-94828660D01*
X99666697Y-94865803D01*
X99605789Y-94915789D01*
X99592400Y-94932104D01*
X99592400Y-90448146D01*
X99599088Y-90464292D01*
X99648598Y-90538388D01*
X99711612Y-90601402D01*
X99785708Y-90650912D01*
X99868040Y-90685015D01*
X99955442Y-90702400D01*
X100044558Y-90702400D01*
X100131960Y-90685015D01*
X100214292Y-90650912D01*
X100288388Y-90601402D01*
X100351402Y-90538388D01*
X100375000Y-90503072D01*
X100398598Y-90538388D01*
X100461612Y-90601402D01*
X100535708Y-90650912D01*
X100618040Y-90685015D01*
X100705442Y-90702400D01*
X100794558Y-90702400D01*
X100881960Y-90685015D01*
X100887600Y-90682679D01*
X100887600Y-94932104D01*
X100874211Y-94915789D01*
X100813303Y-94865803D01*
X100743814Y-94828660D01*
X100668414Y-94805788D01*
X100590000Y-94798065D01*
X100390000Y-94800000D01*
X100290000Y-94900000D01*
X100290000Y-97300000D01*
X100310000Y-97300000D01*
X100310000Y-97400000D01*
X100290000Y-97400000D01*
X100290000Y-99800000D01*
X100390000Y-99900000D01*
X100590000Y-99901935D01*
X100668414Y-99894212D01*
X100743814Y-99871340D01*
X100813303Y-99834197D01*
X100874211Y-99784211D01*
X100899316Y-99753621D01*
X101590000Y-99753621D01*
X101639479Y-99748748D01*
X101687057Y-99734315D01*
X101730904Y-99710878D01*
X101740000Y-99703413D01*
X101749096Y-99710878D01*
X101792943Y-99734315D01*
X101840521Y-99748748D01*
X101890000Y-99753621D01*
X102590000Y-99753621D01*
X102639479Y-99748748D01*
X102687057Y-99734315D01*
X102730904Y-99710878D01*
X102740000Y-99703413D01*
X102749096Y-99710878D01*
X102792943Y-99734315D01*
X102840521Y-99748748D01*
X102890000Y-99753621D01*
X103590000Y-99753621D01*
X103639479Y-99748748D01*
X103687057Y-99734315D01*
X103730904Y-99710878D01*
X103740000Y-99703413D01*
X103749096Y-99710878D01*
X103792943Y-99734315D01*
X103840521Y-99748748D01*
X103890000Y-99753621D01*
X104540001Y-99753621D01*
X104540001Y-100196446D01*
X104186448Y-100550000D01*
X94193553Y-100550000D01*
X93840000Y-100196448D01*
X93840000Y-99452400D01*
X94636379Y-99452400D01*
X94636379Y-99500000D01*
X94641252Y-99549479D01*
X94655685Y-99597057D01*
X94679122Y-99640904D01*
X94710663Y-99679337D01*
X94749096Y-99710878D01*
X94792943Y-99734315D01*
X94840521Y-99748748D01*
X94890000Y-99753621D01*
X95590000Y-99753621D01*
X95639479Y-99748748D01*
X95687057Y-99734315D01*
X95730904Y-99710878D01*
X95740000Y-99703413D01*
X95749096Y-99710878D01*
X95792943Y-99734315D01*
X95840521Y-99748748D01*
X95890000Y-99753621D01*
X96580684Y-99753621D01*
X96605789Y-99784211D01*
X96666697Y-99834197D01*
X96736186Y-99871340D01*
X96811586Y-99894212D01*
X96890000Y-99901935D01*
X97090000Y-99900000D01*
X97190000Y-99800000D01*
X97190000Y-97400000D01*
X97170000Y-97400000D01*
X97170000Y-97300000D01*
X97190000Y-97300000D01*
X97190000Y-94900000D01*
X97090000Y-94800000D01*
X96890000Y-94798065D01*
X96811586Y-94805788D01*
X96736186Y-94828660D01*
X96666697Y-94865803D01*
X96605789Y-94915789D01*
X96580684Y-94946379D01*
X96052400Y-94946379D01*
X96052400Y-90000000D01*
X96047550Y-89950759D01*
X96033187Y-89903411D01*
X96009863Y-89859774D01*
X95978474Y-89821526D01*
X95940226Y-89790137D01*
X95896589Y-89766813D01*
X95849241Y-89752450D01*
X95800000Y-89747600D01*
X93800000Y-89747600D01*
X93750759Y-89752450D01*
X93703411Y-89766813D01*
X93659774Y-89790137D01*
X93621526Y-89821526D01*
X93590137Y-89859774D01*
X93566813Y-89903411D01*
X93552450Y-89950759D01*
X93547600Y-90000000D01*
X93547600Y-91975000D01*
X90593198Y-91975000D01*
X90225000Y-91606803D01*
X90225000Y-70593197D01*
X90593198Y-70225000D01*
X165841369Y-70225000D01*
X165786242Y-70270242D01*
G37*
G04 #@! TD.AperFunction*
D21*
X171513500Y-92023264D02*
X171644921Y-92111077D01*
X171790949Y-92171564D01*
X171945971Y-92202400D01*
X172104029Y-92202400D01*
X172259051Y-92171564D01*
X172405079Y-92111077D01*
X172536500Y-92023264D01*
X172542800Y-92016964D01*
X172542800Y-94569200D01*
X163352400Y-103759601D01*
X163352400Y-103755442D01*
X163335015Y-103668040D01*
X163300912Y-103585708D01*
X163252400Y-103513106D01*
X163252400Y-103445968D01*
X171341751Y-95356617D01*
X171355202Y-95345578D01*
X171399240Y-95291918D01*
X171431962Y-95230698D01*
X171452113Y-95164270D01*
X171457212Y-95112499D01*
X171457212Y-95112490D01*
X171458916Y-95095189D01*
X171457212Y-95077888D01*
X171457212Y-91966976D01*
X171513500Y-92023264D01*
G04 #@! TA.AperFunction,Conductor*
D25*
G36*
X171513500Y-92023264D02*
G01*
X171644921Y-92111077D01*
X171790949Y-92171564D01*
X171945971Y-92202400D01*
X172104029Y-92202400D01*
X172259051Y-92171564D01*
X172405079Y-92111077D01*
X172536500Y-92023264D01*
X172542800Y-92016964D01*
X172542800Y-94569200D01*
X163352400Y-103759601D01*
X163352400Y-103755442D01*
X163335015Y-103668040D01*
X163300912Y-103585708D01*
X163252400Y-103513106D01*
X163252400Y-103445968D01*
X171341751Y-95356617D01*
X171355202Y-95345578D01*
X171399240Y-95291918D01*
X171431962Y-95230698D01*
X171452113Y-95164270D01*
X171457212Y-95112499D01*
X171457212Y-95112490D01*
X171458916Y-95095189D01*
X171457212Y-95077888D01*
X171457212Y-91966976D01*
X171513500Y-92023264D01*
G37*
G04 #@! TD.AperFunction*
D21*
X101887601Y-83490818D02*
X101887600Y-94946615D01*
X101840521Y-94951252D01*
X101792943Y-94965685D01*
X101749096Y-94989122D01*
X101740000Y-94996587D01*
X101730904Y-94989122D01*
X101687057Y-94965685D01*
X101639479Y-94951252D01*
X101592400Y-94946615D01*
X101592400Y-83195617D01*
X101887601Y-83490818D01*
G04 #@! TA.AperFunction,Conductor*
D25*
G36*
X101887601Y-83490818D02*
G01*
X101887600Y-94946615D01*
X101840521Y-94951252D01*
X101792943Y-94965685D01*
X101749096Y-94989122D01*
X101740000Y-94996587D01*
X101730904Y-94989122D01*
X101687057Y-94965685D01*
X101639479Y-94951252D01*
X101592400Y-94946615D01*
X101592400Y-83195617D01*
X101887601Y-83490818D01*
G37*
G04 #@! TD.AperFunction*
D21*
X98887601Y-83584354D02*
X98887600Y-94946615D01*
X98840521Y-94951252D01*
X98792943Y-94965685D01*
X98749096Y-94989122D01*
X98740000Y-94996587D01*
X98730904Y-94989122D01*
X98687057Y-94965685D01*
X98639479Y-94951252D01*
X98592400Y-94946615D01*
X98592400Y-83289153D01*
X98887601Y-83584354D01*
G04 #@! TA.AperFunction,Conductor*
D25*
G36*
X98887601Y-83584354D02*
G01*
X98887600Y-94946615D01*
X98840521Y-94951252D01*
X98792943Y-94965685D01*
X98749096Y-94989122D01*
X98740000Y-94996587D01*
X98730904Y-94989122D01*
X98687057Y-94965685D01*
X98639479Y-94951252D01*
X98592400Y-94946615D01*
X98592400Y-83289153D01*
X98887601Y-83584354D01*
G37*
G04 #@! TD.AperFunction*
D21*
X100397601Y-83097586D02*
X100397600Y-89963106D01*
X100375000Y-89996928D01*
X100351402Y-89961612D01*
X100288388Y-89898598D01*
X100214292Y-89849088D01*
X100131960Y-89814985D01*
X100046319Y-89797950D01*
X100002400Y-89754032D01*
X100002400Y-83217300D01*
X100004104Y-83199999D01*
X100002400Y-83182698D01*
X100002400Y-83182689D01*
X99997301Y-83130918D01*
X99977150Y-83064490D01*
X99944428Y-83003270D01*
X99900390Y-82949610D01*
X99886939Y-82938571D01*
X97559623Y-80611255D01*
X97559622Y-80259606D01*
X100397601Y-83097586D01*
G04 #@! TA.AperFunction,Conductor*
D25*
G36*
X100397601Y-83097586D02*
G01*
X100397600Y-89963106D01*
X100375000Y-89996928D01*
X100351402Y-89961612D01*
X100288388Y-89898598D01*
X100214292Y-89849088D01*
X100131960Y-89814985D01*
X100046319Y-89797950D01*
X100002400Y-89754032D01*
X100002400Y-83217300D01*
X100004104Y-83199999D01*
X100002400Y-83182698D01*
X100002400Y-83182689D01*
X99997301Y-83130918D01*
X99977150Y-83064490D01*
X99944428Y-83003270D01*
X99900390Y-82949610D01*
X99886939Y-82938571D01*
X97559623Y-80611255D01*
X97559622Y-80259606D01*
X100397601Y-83097586D01*
G37*
G04 #@! TD.AperFunction*
D21*
X109349063Y-83962937D02*
X106969201Y-86342800D01*
X105256339Y-86342800D01*
X105251402Y-86335412D01*
X105188388Y-86272398D01*
X105114292Y-86222888D01*
X105031960Y-86188785D01*
X104944558Y-86171400D01*
X104855442Y-86171400D01*
X104768040Y-86188785D01*
X104685708Y-86222888D01*
X104652400Y-86245144D01*
X104652400Y-84245968D01*
X104945969Y-83952400D01*
X109357711Y-83952400D01*
X109349063Y-83962937D01*
G04 #@! TA.AperFunction,Conductor*
D25*
G36*
X109349063Y-83962937D02*
G01*
X106969201Y-86342800D01*
X105256339Y-86342800D01*
X105251402Y-86335412D01*
X105188388Y-86272398D01*
X105114292Y-86222888D01*
X105031960Y-86188785D01*
X104944558Y-86171400D01*
X104855442Y-86171400D01*
X104768040Y-86188785D01*
X104685708Y-86222888D01*
X104652400Y-86245144D01*
X104652400Y-84245968D01*
X104945969Y-83952400D01*
X109357711Y-83952400D01*
X109349063Y-83962937D01*
G37*
G04 #@! TD.AperFunction*
D21*
X111984381Y-79514475D02*
X111961227Y-79514475D01*
X111862214Y-79415462D01*
X111851175Y-79402011D01*
X111797515Y-79357973D01*
X111736295Y-79325251D01*
X111669867Y-79305100D01*
X111618096Y-79300001D01*
X111618089Y-79300001D01*
X111600785Y-79298297D01*
X111583481Y-79300001D01*
X110946754Y-79300001D01*
X110366018Y-78719266D01*
X111189173Y-78719266D01*
X111984381Y-79514475D01*
G04 #@! TA.AperFunction,Conductor*
D25*
G36*
X111984381Y-79514475D02*
G01*
X111961227Y-79514475D01*
X111862214Y-79415462D01*
X111851175Y-79402011D01*
X111797515Y-79357973D01*
X111736295Y-79325251D01*
X111669867Y-79305100D01*
X111618096Y-79300001D01*
X111618089Y-79300001D01*
X111600785Y-79298297D01*
X111583481Y-79300001D01*
X110946754Y-79300001D01*
X110366018Y-78719266D01*
X111189173Y-78719266D01*
X111984381Y-79514475D01*
G37*
G04 #@! TD.AperFunction*
D21*
X149876488Y-78809655D02*
X140093534Y-78809655D01*
X141946319Y-76956871D01*
X142031960Y-76939836D01*
X142114292Y-76905733D01*
X142188388Y-76856223D01*
X142251402Y-76793209D01*
X142300912Y-76719113D01*
X142335015Y-76636781D01*
X142352400Y-76549379D01*
X142352400Y-76460263D01*
X142341370Y-76404811D01*
X150930285Y-76404811D01*
X150947589Y-76406515D01*
X150964893Y-76404811D01*
X150964900Y-76404811D01*
X151016671Y-76399712D01*
X151083099Y-76379561D01*
X151144319Y-76346839D01*
X151197979Y-76302801D01*
X151209018Y-76289350D01*
X151645969Y-75852400D01*
X152782696Y-75852400D01*
X152800000Y-75854104D01*
X152817304Y-75852400D01*
X152817311Y-75852400D01*
X152835538Y-75850605D01*
X149876488Y-78809655D01*
G04 #@! TA.AperFunction,Conductor*
D25*
G36*
X149876488Y-78809655D02*
G01*
X140093534Y-78809655D01*
X141946319Y-76956871D01*
X142031960Y-76939836D01*
X142114292Y-76905733D01*
X142188388Y-76856223D01*
X142251402Y-76793209D01*
X142300912Y-76719113D01*
X142335015Y-76636781D01*
X142352400Y-76549379D01*
X142352400Y-76460263D01*
X142341370Y-76404811D01*
X150930285Y-76404811D01*
X150947589Y-76406515D01*
X150964893Y-76404811D01*
X150964900Y-76404811D01*
X151016671Y-76399712D01*
X151083099Y-76379561D01*
X151144319Y-76346839D01*
X151197979Y-76302801D01*
X151209018Y-76289350D01*
X151645969Y-75852400D01*
X152782696Y-75852400D01*
X152800000Y-75854104D01*
X152817304Y-75852400D01*
X152817311Y-75852400D01*
X152835538Y-75850605D01*
X149876488Y-78809655D01*
G37*
G04 #@! TD.AperFunction*
D21*
X108937526Y-77298984D02*
X108948565Y-77312435D01*
X109002225Y-77356473D01*
X109057069Y-77385787D01*
X109063445Y-77389195D01*
X109129872Y-77409346D01*
X109198955Y-77416150D01*
X109216266Y-77414445D01*
X110881120Y-77414445D01*
X111128730Y-77662055D01*
X101815071Y-77662055D01*
X101831172Y-77623183D01*
X101852400Y-77516461D01*
X101852400Y-77407647D01*
X101831172Y-77300925D01*
X101815067Y-77262044D01*
X108900586Y-77262044D01*
X108937526Y-77298984D01*
G04 #@! TA.AperFunction,Conductor*
D25*
G36*
X108937526Y-77298984D02*
G01*
X108948565Y-77312435D01*
X109002225Y-77356473D01*
X109057069Y-77385787D01*
X109063445Y-77389195D01*
X109129872Y-77409346D01*
X109198955Y-77416150D01*
X109216266Y-77414445D01*
X110881120Y-77414445D01*
X111128730Y-77662055D01*
X101815071Y-77662055D01*
X101831172Y-77623183D01*
X101852400Y-77516461D01*
X101852400Y-77407647D01*
X101831172Y-77300925D01*
X101815067Y-77262044D01*
X108900586Y-77262044D01*
X108937526Y-77298984D01*
G37*
G04 #@! TD.AperFunction*
D21*
X114697615Y-77047600D02*
X113745969Y-77047600D01*
X111104199Y-74405831D01*
X111093160Y-74392380D01*
X111039500Y-74348342D01*
X110978280Y-74315620D01*
X110934700Y-74302400D01*
X111952416Y-74302400D01*
X114697615Y-77047600D01*
G04 #@! TA.AperFunction,Conductor*
D25*
G36*
X114697615Y-77047600D02*
G01*
X113745969Y-77047600D01*
X111104199Y-74405831D01*
X111093160Y-74392380D01*
X111039500Y-74348342D01*
X110978280Y-74315620D01*
X110934700Y-74302400D01*
X111952416Y-74302400D01*
X114697615Y-77047600D01*
G37*
G04 #@! TD.AperFunction*
D21*
X108840142Y-76204833D02*
X103975541Y-76204833D01*
X103985015Y-76181960D01*
X104002400Y-76094558D01*
X104002400Y-76005442D01*
X103985015Y-75918040D01*
X103950912Y-75835708D01*
X103927045Y-75799989D01*
X108435299Y-75799989D01*
X108840142Y-76204833D01*
G04 #@! TA.AperFunction,Conductor*
D25*
G36*
X108840142Y-76204833D02*
G01*
X103975541Y-76204833D01*
X103985015Y-76181960D01*
X104002400Y-76094558D01*
X104002400Y-76005442D01*
X103985015Y-75918040D01*
X103950912Y-75835708D01*
X103927045Y-75799989D01*
X108435299Y-75799989D01*
X108840142Y-76204833D01*
G37*
G04 #@! TD.AperFunction*
D21*
X111354044Y-75652412D02*
X109782842Y-75652412D01*
X109125600Y-74995170D01*
X110696802Y-74995170D01*
X111354044Y-75652412D01*
G04 #@! TA.AperFunction,Conductor*
D25*
G36*
X111354044Y-75652412D02*
G01*
X109782842Y-75652412D01*
X109125600Y-74995170D01*
X110696802Y-74995170D01*
X111354044Y-75652412D01*
G37*
G04 #@! TD.AperFunction*
D21*
X177325000Y-72100000D02*
X177425000Y-72100000D01*
X177325000Y-72200000D01*
X177325000Y-72600000D01*
X177375000Y-72650000D01*
X177325000Y-72700000D01*
X177325000Y-73100000D01*
X177425000Y-73200000D01*
X177325000Y-73200000D01*
X177325000Y-73220000D01*
X177225000Y-73220000D01*
X177225000Y-73200000D01*
X177125000Y-73200000D01*
X177225000Y-73100000D01*
X177225000Y-72700000D01*
X177175000Y-72650000D01*
X177225000Y-72600000D01*
X177225000Y-72200000D01*
X177125000Y-72100000D01*
X177225000Y-72100000D01*
X177225000Y-72080000D01*
X177325000Y-72080000D01*
X177325000Y-72100000D01*
G04 #@! TA.AperFunction,Conductor*
D25*
G36*
X177325000Y-72100000D02*
G01*
X177425000Y-72100000D01*
X177325000Y-72200000D01*
X177325000Y-72600000D01*
X177375000Y-72650000D01*
X177325000Y-72700000D01*
X177325000Y-73100000D01*
X177425000Y-73200000D01*
X177325000Y-73200000D01*
X177325000Y-73220000D01*
X177225000Y-73220000D01*
X177225000Y-73200000D01*
X177125000Y-73200000D01*
X177225000Y-73100000D01*
X177225000Y-72700000D01*
X177175000Y-72650000D01*
X177225000Y-72600000D01*
X177225000Y-72200000D01*
X177125000Y-72100000D01*
X177225000Y-72100000D01*
X177225000Y-72080000D01*
X177325000Y-72080000D01*
X177325000Y-72100000D01*
G37*
G04 #@! TD.AperFunction*
G04 #@! TD*
D26*
G04 #@! TO.N,+5V*
X95673000Y-95023996D02*
X95656564Y-95044023D01*
X95630620Y-95092561D01*
X95614644Y-95145228D01*
X95609249Y-95200000D01*
X95609249Y-99073000D01*
X93927000Y-99073000D01*
X93927000Y-90127000D01*
X95673000Y-90127000D01*
X95673000Y-95023996D01*
G04 #@! TA.AperFunction,Conductor*
D25*
G36*
X95673000Y-95023996D02*
G01*
X95656564Y-95044023D01*
X95630620Y-95092561D01*
X95614644Y-95145228D01*
X95609249Y-95200000D01*
X95609249Y-99073000D01*
X93927000Y-99073000D01*
X93927000Y-90127000D01*
X95673000Y-90127000D01*
X95673000Y-95023996D01*
G37*
G04 #@! TD.AperFunction*
G04 #@! TD*
D26*
G04 #@! TO.N,+3V3*
X170373001Y-72234554D02*
X170373001Y-73469249D01*
X168950000Y-73469249D01*
X168895228Y-73474644D01*
X168842561Y-73490620D01*
X168794023Y-73516564D01*
X168751479Y-73551479D01*
X168716564Y-73594023D01*
X168690620Y-73642561D01*
X168674644Y-73695228D01*
X168669249Y-73750000D01*
X168669249Y-74050000D01*
X168674644Y-74104772D01*
X168688363Y-74150000D01*
X168674644Y-74195228D01*
X168669249Y-74250000D01*
X168669249Y-74550000D01*
X168674644Y-74604772D01*
X168688363Y-74650000D01*
X168674644Y-74695228D01*
X168669249Y-74750000D01*
X168669249Y-75050000D01*
X168674644Y-75104772D01*
X168688363Y-75150000D01*
X168674644Y-75195228D01*
X168669249Y-75250000D01*
X168669249Y-75550000D01*
X168674644Y-75604772D01*
X168688363Y-75650000D01*
X168674644Y-75695228D01*
X168669249Y-75750000D01*
X168669249Y-76050000D01*
X168674644Y-76104772D01*
X168688363Y-76150000D01*
X168674644Y-76195228D01*
X168669249Y-76250000D01*
X168669249Y-76550000D01*
X168674644Y-76604772D01*
X168688363Y-76650000D01*
X168674644Y-76695228D01*
X168669249Y-76750000D01*
X168669249Y-77050000D01*
X168674644Y-77104772D01*
X168688363Y-77150000D01*
X168674644Y-77195228D01*
X168669249Y-77250000D01*
X168669249Y-77550000D01*
X168674644Y-77604772D01*
X168688363Y-77650000D01*
X168674644Y-77695228D01*
X168669249Y-77750000D01*
X168669249Y-78050000D01*
X168674644Y-78104772D01*
X168688363Y-78150000D01*
X168674644Y-78195228D01*
X168669249Y-78250000D01*
X168669249Y-78550000D01*
X168674644Y-78604772D01*
X168688363Y-78650000D01*
X168674644Y-78695228D01*
X168669249Y-78750000D01*
X168669249Y-79050000D01*
X168674644Y-79104772D01*
X168688363Y-79150000D01*
X168674644Y-79195228D01*
X168669249Y-79250000D01*
X168669249Y-79550000D01*
X168674644Y-79604772D01*
X168688363Y-79650000D01*
X168674644Y-79695228D01*
X168669249Y-79750000D01*
X168669249Y-80050000D01*
X168674644Y-80104772D01*
X168688363Y-80150000D01*
X168674644Y-80195228D01*
X168669249Y-80250000D01*
X168669249Y-80550000D01*
X168674644Y-80604772D01*
X168688363Y-80650000D01*
X168674644Y-80695228D01*
X168669249Y-80750000D01*
X168669249Y-81050000D01*
X168674644Y-81104772D01*
X168688363Y-81150000D01*
X168674644Y-81195228D01*
X168669249Y-81250000D01*
X168669249Y-81550000D01*
X168674644Y-81604772D01*
X168688363Y-81650000D01*
X168674644Y-81695228D01*
X168669249Y-81750000D01*
X168669249Y-82050000D01*
X168674644Y-82104772D01*
X168688363Y-82150000D01*
X168674644Y-82195228D01*
X168669249Y-82250000D01*
X168669249Y-82550000D01*
X168674644Y-82604772D01*
X168688363Y-82650000D01*
X168674644Y-82695228D01*
X168669249Y-82750000D01*
X168669249Y-83050000D01*
X168674644Y-83104772D01*
X168688363Y-83150000D01*
X168674644Y-83195228D01*
X168669249Y-83250000D01*
X168669249Y-83550000D01*
X168674644Y-83604772D01*
X168688363Y-83650000D01*
X168674644Y-83695228D01*
X168669249Y-83750000D01*
X168669249Y-84050000D01*
X168674644Y-84104772D01*
X168688363Y-84150000D01*
X168674644Y-84195228D01*
X168669249Y-84250000D01*
X168669249Y-84550000D01*
X168674644Y-84604772D01*
X168688363Y-84650000D01*
X168674644Y-84695228D01*
X168669249Y-84750000D01*
X168669249Y-85050000D01*
X168674644Y-85104772D01*
X168688363Y-85150000D01*
X168674644Y-85195228D01*
X168669249Y-85250000D01*
X168669249Y-85550000D01*
X168674644Y-85604772D01*
X168688363Y-85650000D01*
X168674644Y-85695228D01*
X168669249Y-85750000D01*
X168669249Y-86050000D01*
X168674644Y-86104772D01*
X168690620Y-86157439D01*
X168716564Y-86205977D01*
X168751479Y-86248521D01*
X168794023Y-86283436D01*
X168842561Y-86309380D01*
X168895228Y-86325356D01*
X168950000Y-86330751D01*
X170373002Y-86330751D01*
X170373002Y-87969249D01*
X168950000Y-87969249D01*
X168895228Y-87974644D01*
X168842561Y-87990620D01*
X168794023Y-88016564D01*
X168751479Y-88051479D01*
X168716564Y-88094023D01*
X168690620Y-88142561D01*
X168674644Y-88195228D01*
X168669249Y-88250000D01*
X168669249Y-88550000D01*
X168674644Y-88604772D01*
X168688363Y-88650000D01*
X168674644Y-88695228D01*
X168669249Y-88750000D01*
X168669249Y-89050000D01*
X168674644Y-89104772D01*
X168688363Y-89150000D01*
X168674644Y-89195228D01*
X168669249Y-89250000D01*
X168669249Y-89550000D01*
X168674644Y-89604772D01*
X168690620Y-89657439D01*
X168716564Y-89705977D01*
X168751479Y-89748521D01*
X168794023Y-89783436D01*
X168842561Y-89809380D01*
X168895228Y-89825356D01*
X168950000Y-89830751D01*
X170373002Y-89830751D01*
X170373002Y-90473000D01*
X167227000Y-90473000D01*
X167227000Y-89447240D01*
X167260164Y-89460977D01*
X167352783Y-89479400D01*
X167447217Y-89479400D01*
X167539836Y-89460977D01*
X167627081Y-89424839D01*
X167705600Y-89372375D01*
X167772375Y-89305600D01*
X167824839Y-89227081D01*
X167860977Y-89139836D01*
X167879400Y-89047217D01*
X167879400Y-88952783D01*
X167860977Y-88860164D01*
X167824839Y-88772919D01*
X167772375Y-88694400D01*
X167705600Y-88627625D01*
X167627081Y-88575161D01*
X167539836Y-88539023D01*
X167447217Y-88520600D01*
X167352783Y-88520600D01*
X167260164Y-88539023D01*
X167227000Y-88552760D01*
X167227000Y-88447240D01*
X167260164Y-88460977D01*
X167352783Y-88479400D01*
X167447217Y-88479400D01*
X167539836Y-88460977D01*
X167627081Y-88424839D01*
X167705600Y-88372375D01*
X167772375Y-88305600D01*
X167824839Y-88227081D01*
X167860977Y-88139836D01*
X167879400Y-88047217D01*
X167879400Y-87952783D01*
X167860977Y-87860164D01*
X167824839Y-87772919D01*
X167772375Y-87694400D01*
X167705600Y-87627625D01*
X167664256Y-87600000D01*
X167705600Y-87572375D01*
X167772375Y-87505600D01*
X167824839Y-87427081D01*
X167860977Y-87339836D01*
X167879400Y-87247217D01*
X167879400Y-87152783D01*
X167860977Y-87060164D01*
X167824839Y-86972919D01*
X167772375Y-86894400D01*
X167705600Y-86827625D01*
X167664256Y-86800000D01*
X167705600Y-86772375D01*
X167772375Y-86705600D01*
X167824839Y-86627081D01*
X167860977Y-86539836D01*
X167879400Y-86447217D01*
X167879400Y-86352783D01*
X167860977Y-86260164D01*
X167824839Y-86172919D01*
X167772375Y-86094400D01*
X167705600Y-86027625D01*
X167664256Y-86000000D01*
X167705600Y-85972375D01*
X167772375Y-85905600D01*
X167824839Y-85827081D01*
X167860977Y-85739836D01*
X167879400Y-85647217D01*
X167879400Y-85552783D01*
X167860977Y-85460164D01*
X167824839Y-85372919D01*
X167772375Y-85294400D01*
X167705600Y-85227625D01*
X167664256Y-85200000D01*
X167705600Y-85172375D01*
X167772375Y-85105600D01*
X167824839Y-85027081D01*
X167860977Y-84939836D01*
X167879400Y-84847217D01*
X167879400Y-84752783D01*
X167860977Y-84660164D01*
X167824839Y-84572919D01*
X167772375Y-84494400D01*
X167705600Y-84427625D01*
X167627081Y-84375161D01*
X167539836Y-84339023D01*
X167447217Y-84320600D01*
X167352783Y-84320600D01*
X167260164Y-84339023D01*
X167227000Y-84352760D01*
X167227000Y-72227000D01*
X170365447Y-72227000D01*
X170373001Y-72234554D01*
G04 #@! TA.AperFunction,Conductor*
D25*
G36*
X170373001Y-72234554D02*
G01*
X170373001Y-73469249D01*
X168950000Y-73469249D01*
X168895228Y-73474644D01*
X168842561Y-73490620D01*
X168794023Y-73516564D01*
X168751479Y-73551479D01*
X168716564Y-73594023D01*
X168690620Y-73642561D01*
X168674644Y-73695228D01*
X168669249Y-73750000D01*
X168669249Y-74050000D01*
X168674644Y-74104772D01*
X168688363Y-74150000D01*
X168674644Y-74195228D01*
X168669249Y-74250000D01*
X168669249Y-74550000D01*
X168674644Y-74604772D01*
X168688363Y-74650000D01*
X168674644Y-74695228D01*
X168669249Y-74750000D01*
X168669249Y-75050000D01*
X168674644Y-75104772D01*
X168688363Y-75150000D01*
X168674644Y-75195228D01*
X168669249Y-75250000D01*
X168669249Y-75550000D01*
X168674644Y-75604772D01*
X168688363Y-75650000D01*
X168674644Y-75695228D01*
X168669249Y-75750000D01*
X168669249Y-76050000D01*
X168674644Y-76104772D01*
X168688363Y-76150000D01*
X168674644Y-76195228D01*
X168669249Y-76250000D01*
X168669249Y-76550000D01*
X168674644Y-76604772D01*
X168688363Y-76650000D01*
X168674644Y-76695228D01*
X168669249Y-76750000D01*
X168669249Y-77050000D01*
X168674644Y-77104772D01*
X168688363Y-77150000D01*
X168674644Y-77195228D01*
X168669249Y-77250000D01*
X168669249Y-77550000D01*
X168674644Y-77604772D01*
X168688363Y-77650000D01*
X168674644Y-77695228D01*
X168669249Y-77750000D01*
X168669249Y-78050000D01*
X168674644Y-78104772D01*
X168688363Y-78150000D01*
X168674644Y-78195228D01*
X168669249Y-78250000D01*
X168669249Y-78550000D01*
X168674644Y-78604772D01*
X168688363Y-78650000D01*
X168674644Y-78695228D01*
X168669249Y-78750000D01*
X168669249Y-79050000D01*
X168674644Y-79104772D01*
X168688363Y-79150000D01*
X168674644Y-79195228D01*
X168669249Y-79250000D01*
X168669249Y-79550000D01*
X168674644Y-79604772D01*
X168688363Y-79650000D01*
X168674644Y-79695228D01*
X168669249Y-79750000D01*
X168669249Y-80050000D01*
X168674644Y-80104772D01*
X168688363Y-80150000D01*
X168674644Y-80195228D01*
X168669249Y-80250000D01*
X168669249Y-80550000D01*
X168674644Y-80604772D01*
X168688363Y-80650000D01*
X168674644Y-80695228D01*
X168669249Y-80750000D01*
X168669249Y-81050000D01*
X168674644Y-81104772D01*
X168688363Y-81150000D01*
X168674644Y-81195228D01*
X168669249Y-81250000D01*
X168669249Y-81550000D01*
X168674644Y-81604772D01*
X168688363Y-81650000D01*
X168674644Y-81695228D01*
X168669249Y-81750000D01*
X168669249Y-82050000D01*
X168674644Y-82104772D01*
X168688363Y-82150000D01*
X168674644Y-82195228D01*
X168669249Y-82250000D01*
X168669249Y-82550000D01*
X168674644Y-82604772D01*
X168688363Y-82650000D01*
X168674644Y-82695228D01*
X168669249Y-82750000D01*
X168669249Y-83050000D01*
X168674644Y-83104772D01*
X168688363Y-83150000D01*
X168674644Y-83195228D01*
X168669249Y-83250000D01*
X168669249Y-83550000D01*
X168674644Y-83604772D01*
X168688363Y-83650000D01*
X168674644Y-83695228D01*
X168669249Y-83750000D01*
X168669249Y-84050000D01*
X168674644Y-84104772D01*
X168688363Y-84150000D01*
X168674644Y-84195228D01*
X168669249Y-84250000D01*
X168669249Y-84550000D01*
X168674644Y-84604772D01*
X168688363Y-84650000D01*
X168674644Y-84695228D01*
X168669249Y-84750000D01*
X168669249Y-85050000D01*
X168674644Y-85104772D01*
X168688363Y-85150000D01*
X168674644Y-85195228D01*
X168669249Y-85250000D01*
X168669249Y-85550000D01*
X168674644Y-85604772D01*
X168688363Y-85650000D01*
X168674644Y-85695228D01*
X168669249Y-85750000D01*
X168669249Y-86050000D01*
X168674644Y-86104772D01*
X168690620Y-86157439D01*
X168716564Y-86205977D01*
X168751479Y-86248521D01*
X168794023Y-86283436D01*
X168842561Y-86309380D01*
X168895228Y-86325356D01*
X168950000Y-86330751D01*
X170373002Y-86330751D01*
X170373002Y-87969249D01*
X168950000Y-87969249D01*
X168895228Y-87974644D01*
X168842561Y-87990620D01*
X168794023Y-88016564D01*
X168751479Y-88051479D01*
X168716564Y-88094023D01*
X168690620Y-88142561D01*
X168674644Y-88195228D01*
X168669249Y-88250000D01*
X168669249Y-88550000D01*
X168674644Y-88604772D01*
X168688363Y-88650000D01*
X168674644Y-88695228D01*
X168669249Y-88750000D01*
X168669249Y-89050000D01*
X168674644Y-89104772D01*
X168688363Y-89150000D01*
X168674644Y-89195228D01*
X168669249Y-89250000D01*
X168669249Y-89550000D01*
X168674644Y-89604772D01*
X168690620Y-89657439D01*
X168716564Y-89705977D01*
X168751479Y-89748521D01*
X168794023Y-89783436D01*
X168842561Y-89809380D01*
X168895228Y-89825356D01*
X168950000Y-89830751D01*
X170373002Y-89830751D01*
X170373002Y-90473000D01*
X167227000Y-90473000D01*
X167227000Y-89447240D01*
X167260164Y-89460977D01*
X167352783Y-89479400D01*
X167447217Y-89479400D01*
X167539836Y-89460977D01*
X167627081Y-89424839D01*
X167705600Y-89372375D01*
X167772375Y-89305600D01*
X167824839Y-89227081D01*
X167860977Y-89139836D01*
X167879400Y-89047217D01*
X167879400Y-88952783D01*
X167860977Y-88860164D01*
X167824839Y-88772919D01*
X167772375Y-88694400D01*
X167705600Y-88627625D01*
X167627081Y-88575161D01*
X167539836Y-88539023D01*
X167447217Y-88520600D01*
X167352783Y-88520600D01*
X167260164Y-88539023D01*
X167227000Y-88552760D01*
X167227000Y-88447240D01*
X167260164Y-88460977D01*
X167352783Y-88479400D01*
X167447217Y-88479400D01*
X167539836Y-88460977D01*
X167627081Y-88424839D01*
X167705600Y-88372375D01*
X167772375Y-88305600D01*
X167824839Y-88227081D01*
X167860977Y-88139836D01*
X167879400Y-88047217D01*
X167879400Y-87952783D01*
X167860977Y-87860164D01*
X167824839Y-87772919D01*
X167772375Y-87694400D01*
X167705600Y-87627625D01*
X167664256Y-87600000D01*
X167705600Y-87572375D01*
X167772375Y-87505600D01*
X167824839Y-87427081D01*
X167860977Y-87339836D01*
X167879400Y-87247217D01*
X167879400Y-87152783D01*
X167860977Y-87060164D01*
X167824839Y-86972919D01*
X167772375Y-86894400D01*
X167705600Y-86827625D01*
X167664256Y-86800000D01*
X167705600Y-86772375D01*
X167772375Y-86705600D01*
X167824839Y-86627081D01*
X167860977Y-86539836D01*
X167879400Y-86447217D01*
X167879400Y-86352783D01*
X167860977Y-86260164D01*
X167824839Y-86172919D01*
X167772375Y-86094400D01*
X167705600Y-86027625D01*
X167664256Y-86000000D01*
X167705600Y-85972375D01*
X167772375Y-85905600D01*
X167824839Y-85827081D01*
X167860977Y-85739836D01*
X167879400Y-85647217D01*
X167879400Y-85552783D01*
X167860977Y-85460164D01*
X167824839Y-85372919D01*
X167772375Y-85294400D01*
X167705600Y-85227625D01*
X167664256Y-85200000D01*
X167705600Y-85172375D01*
X167772375Y-85105600D01*
X167824839Y-85027081D01*
X167860977Y-84939836D01*
X167879400Y-84847217D01*
X167879400Y-84752783D01*
X167860977Y-84660164D01*
X167824839Y-84572919D01*
X167772375Y-84494400D01*
X167705600Y-84427625D01*
X167627081Y-84375161D01*
X167539836Y-84339023D01*
X167447217Y-84320600D01*
X167352783Y-84320600D01*
X167260164Y-84339023D01*
X167227000Y-84352760D01*
X167227000Y-72227000D01*
X170365447Y-72227000D01*
X170373001Y-72234554D01*
G37*
G04 #@! TD.AperFunction*
G04 #@! TD*
D27*
X97200000Y-93300000D03*
X97200000Y-92500000D03*
X97200000Y-94100000D03*
X110250000Y-93350000D03*
X110250000Y-92500000D03*
X107250000Y-93350000D03*
X113250000Y-93350000D03*
X113250000Y-92500000D03*
X160400000Y-71800000D03*
X159200000Y-75800000D03*
X158200000Y-73600000D03*
X111000000Y-79200000D03*
X110000000Y-75200000D03*
X113200000Y-82600000D03*
X110400000Y-90600000D03*
X108000000Y-88200000D03*
X113400000Y-90400000D03*
X141400000Y-73200000D03*
X179000000Y-74000000D03*
X179000000Y-76000000D03*
X179000000Y-78000000D03*
X179000000Y-80000000D03*
X179000000Y-82000000D03*
X176000000Y-94000000D03*
X175500000Y-89000000D03*
X175500000Y-85500000D03*
X175000000Y-80000000D03*
X174000000Y-76000000D03*
X165000000Y-81500000D03*
X165000000Y-84000000D03*
X165000000Y-87000000D03*
X157000000Y-80500000D03*
X160000000Y-77000000D03*
X153000000Y-73000000D03*
X151000000Y-73000000D03*
X148800000Y-70700000D03*
X152500000Y-70700000D03*
X154400000Y-70700000D03*
X156500000Y-70700000D03*
X146400000Y-70700000D03*
X139200000Y-71800000D03*
X148000000Y-72800000D03*
X150600000Y-75500000D03*
X158100000Y-79000000D03*
X163200000Y-72900000D03*
X127000000Y-83800000D03*
X128700000Y-83800000D03*
X126400000Y-81000000D03*
X120200000Y-82400000D03*
X115200000Y-85200000D03*
X120000000Y-72200000D03*
X117500000Y-72300000D03*
X103900000Y-72100000D03*
X104300000Y-81300000D03*
X101750000Y-85100000D03*
X100220000Y-85800000D03*
X98740000Y-86600000D03*
X96300000Y-87200000D03*
X92100000Y-88700000D03*
X134400000Y-105900000D03*
X128600000Y-99300000D03*
X128300000Y-92400000D03*
X135000000Y-98600000D03*
X151000000Y-104200000D03*
X151900000Y-107200000D03*
X164200000Y-99800000D03*
X172100000Y-93700000D03*
X163500000Y-103400000D03*
X164900000Y-104200000D03*
X161500000Y-107600000D03*
X104900000Y-85100000D03*
X110500000Y-82900000D03*
X112800000Y-87800000D03*
X100200000Y-94100000D03*
X100200000Y-93300000D03*
X100200000Y-92500000D03*
X106900000Y-77550000D03*
X106700000Y-76000000D03*
X104600000Y-76000000D03*
X113700000Y-76700000D03*
X112300000Y-75200000D03*
X179100000Y-71900000D03*
X151800000Y-76200000D03*
X169300000Y-72900000D03*
X167900000Y-74000000D03*
X167900000Y-74800000D03*
X167800000Y-78500000D03*
X167800000Y-79200000D03*
X167800000Y-80000000D03*
X169500000Y-102423800D03*
X169500000Y-102976200D03*
X157995303Y-107104697D03*
X157604697Y-107495303D03*
X162900000Y-103800000D03*
X157300000Y-104100000D03*
X155876200Y-106800000D03*
X155323800Y-106800000D03*
X110404697Y-85204697D03*
X110795303Y-85595303D03*
X110900000Y-87023800D03*
X110900000Y-87576200D03*
X155800000Y-72500000D03*
X97954821Y-79018439D03*
X94200000Y-90600000D03*
X94800000Y-90600000D03*
X95400000Y-90600000D03*
X94200000Y-91200000D03*
X94800000Y-91200000D03*
X95400000Y-91200000D03*
X94200000Y-91800000D03*
X94800000Y-91800000D03*
X95400000Y-91800000D03*
X94200000Y-92400000D03*
X94800000Y-92400000D03*
X95400000Y-92400000D03*
X94200000Y-93000000D03*
X94800000Y-93000000D03*
X95400000Y-93000000D03*
X144000000Y-70800000D03*
X143200000Y-70800000D03*
X133000000Y-71000000D03*
X134600000Y-71000000D03*
X136000000Y-71000000D03*
X137600000Y-71000000D03*
X167400000Y-84800000D03*
X167400000Y-85600000D03*
X167400000Y-86400000D03*
X167400000Y-87200000D03*
X167400000Y-88000000D03*
X167400000Y-89000000D03*
X149000000Y-72600000D03*
X149800000Y-72700000D03*
X124504697Y-88604697D03*
X104900000Y-86623800D03*
X124895303Y-88995303D03*
X104900000Y-87176200D03*
X143650000Y-73050000D03*
D28*
X102800000Y-90350000D03*
X101300000Y-73850000D03*
X101300000Y-77462054D03*
D27*
X104700000Y-90200000D03*
X158500000Y-101700000D03*
D28*
X142350000Y-73050000D03*
X144950000Y-73050000D03*
D27*
X100750000Y-90250000D03*
X139700000Y-75800000D03*
X100150000Y-76252410D03*
X100150000Y-74642770D03*
X100000000Y-90250000D03*
X103550000Y-76050000D03*
X103650000Y-79650000D03*
X156100000Y-75800000D03*
X157400000Y-73400000D03*
X101200000Y-78819276D03*
X140000000Y-72350000D03*
X141900000Y-76504821D03*
X157243401Y-72223952D03*
X99412044Y-78850808D03*
X157149902Y-72770258D03*
X99936463Y-79024426D03*
D29*
X93750000Y-81400000D03*
X172025000Y-71400000D03*
X172025000Y-91400000D03*
X93750000Y-81400000D03*
X176500000Y-106500000D03*
X128500000Y-106500000D03*
X128500000Y-73500000D03*
M02*
