G04 #@! TF.GenerationSoftware,KiCad,Pcbnew,5.1.8*
G04 #@! TF.CreationDate,2020-12-18T22:11:15+01:00*
G04 #@! TF.ProjectId,atx,6174782e-6b69-4636-9164-5f7063625858,rev?*
G04 #@! TF.SameCoordinates,Original*
G04 #@! TF.FileFunction,Paste,Top*
G04 #@! TF.FilePolarity,Positive*
%FSLAX46Y46*%
G04 Gerber Fmt 4.6, Leading zero omitted, Abs format (unit mm)*
G04 Created by KiCad (PCBNEW 5.1.8) date 2020-12-18 22:11:15*
%MOMM*%
%LPD*%
G01*
G04 APERTURE LIST*
%ADD10R,0.920000X1.120000*%
%ADD11R,1.120000X0.920000*%
G04 APERTURE END LIST*
G04 #@! TO.C,U2*
G36*
G01*
X18105000Y-104537500D02*
X17945000Y-104537500D01*
G75*
G02*
X17865000Y-104457500I0J80000D01*
G01*
X17865000Y-103317500D01*
G75*
G02*
X17945000Y-103237500I80000J0D01*
G01*
X18105000Y-103237500D01*
G75*
G02*
X18185000Y-103317500I0J-80000D01*
G01*
X18185000Y-104457500D01*
G75*
G02*
X18105000Y-104537500I-80000J0D01*
G01*
G37*
G36*
G01*
X18755000Y-104537500D02*
X18595000Y-104537500D01*
G75*
G02*
X18515000Y-104457500I0J80000D01*
G01*
X18515000Y-103317500D01*
G75*
G02*
X18595000Y-103237500I80000J0D01*
G01*
X18755000Y-103237500D01*
G75*
G02*
X18835000Y-103317500I0J-80000D01*
G01*
X18835000Y-104457500D01*
G75*
G02*
X18755000Y-104537500I-80000J0D01*
G01*
G37*
G36*
G01*
X19405000Y-104537500D02*
X19245000Y-104537500D01*
G75*
G02*
X19165000Y-104457500I0J80000D01*
G01*
X19165000Y-103317500D01*
G75*
G02*
X19245000Y-103237500I80000J0D01*
G01*
X19405000Y-103237500D01*
G75*
G02*
X19485000Y-103317500I0J-80000D01*
G01*
X19485000Y-104457500D01*
G75*
G02*
X19405000Y-104537500I-80000J0D01*
G01*
G37*
G36*
G01*
X20055000Y-104537500D02*
X19895000Y-104537500D01*
G75*
G02*
X19815000Y-104457500I0J80000D01*
G01*
X19815000Y-103317500D01*
G75*
G02*
X19895000Y-103237500I80000J0D01*
G01*
X20055000Y-103237500D01*
G75*
G02*
X20135000Y-103317500I0J-80000D01*
G01*
X20135000Y-104457500D01*
G75*
G02*
X20055000Y-104537500I-80000J0D01*
G01*
G37*
G36*
G01*
X20055000Y-108762500D02*
X19895000Y-108762500D01*
G75*
G02*
X19815000Y-108682500I0J80000D01*
G01*
X19815000Y-107542500D01*
G75*
G02*
X19895000Y-107462500I80000J0D01*
G01*
X20055000Y-107462500D01*
G75*
G02*
X20135000Y-107542500I0J-80000D01*
G01*
X20135000Y-108682500D01*
G75*
G02*
X20055000Y-108762500I-80000J0D01*
G01*
G37*
G36*
G01*
X19405000Y-108762500D02*
X19245000Y-108762500D01*
G75*
G02*
X19165000Y-108682500I0J80000D01*
G01*
X19165000Y-107542500D01*
G75*
G02*
X19245000Y-107462500I80000J0D01*
G01*
X19405000Y-107462500D01*
G75*
G02*
X19485000Y-107542500I0J-80000D01*
G01*
X19485000Y-108682500D01*
G75*
G02*
X19405000Y-108762500I-80000J0D01*
G01*
G37*
G36*
G01*
X18755000Y-108762500D02*
X18595000Y-108762500D01*
G75*
G02*
X18515000Y-108682500I0J80000D01*
G01*
X18515000Y-107542500D01*
G75*
G02*
X18595000Y-107462500I80000J0D01*
G01*
X18755000Y-107462500D01*
G75*
G02*
X18835000Y-107542500I0J-80000D01*
G01*
X18835000Y-108682500D01*
G75*
G02*
X18755000Y-108762500I-80000J0D01*
G01*
G37*
G36*
G01*
X18105000Y-108762500D02*
X17945000Y-108762500D01*
G75*
G02*
X17865000Y-108682500I0J80000D01*
G01*
X17865000Y-107542500D01*
G75*
G02*
X17945000Y-107462500I80000J0D01*
G01*
X18105000Y-107462500D01*
G75*
G02*
X18185000Y-107542500I0J-80000D01*
G01*
X18185000Y-108682500D01*
G75*
G02*
X18105000Y-108762500I-80000J0D01*
G01*
G37*
G04 #@! TD*
G04 #@! TO.C,R24*
G36*
G01*
X14495000Y-93280000D02*
X14495000Y-93720000D01*
G75*
G02*
X14335000Y-93880000I-160000J0D01*
G01*
X14015000Y-93880000D01*
G75*
G02*
X13855000Y-93720000I0J160000D01*
G01*
X13855000Y-93280000D01*
G75*
G02*
X14015000Y-93120000I160000J0D01*
G01*
X14335000Y-93120000D01*
G75*
G02*
X14495000Y-93280000I0J-160000D01*
G01*
G37*
G36*
G01*
X16145000Y-93280000D02*
X16145000Y-93720000D01*
G75*
G02*
X15985000Y-93880000I-160000J0D01*
G01*
X15665000Y-93880000D01*
G75*
G02*
X15505000Y-93720000I0J160000D01*
G01*
X15505000Y-93280000D01*
G75*
G02*
X15665000Y-93120000I160000J0D01*
G01*
X15985000Y-93120000D01*
G75*
G02*
X16145000Y-93280000I0J-160000D01*
G01*
G37*
G04 #@! TD*
G04 #@! TO.C,R23*
G36*
G01*
X14495000Y-103280000D02*
X14495000Y-103720000D01*
G75*
G02*
X14335000Y-103880000I-160000J0D01*
G01*
X14015000Y-103880000D01*
G75*
G02*
X13855000Y-103720000I0J160000D01*
G01*
X13855000Y-103280000D01*
G75*
G02*
X14015000Y-103120000I160000J0D01*
G01*
X14335000Y-103120000D01*
G75*
G02*
X14495000Y-103280000I0J-160000D01*
G01*
G37*
G36*
G01*
X16145000Y-103280000D02*
X16145000Y-103720000D01*
G75*
G02*
X15985000Y-103880000I-160000J0D01*
G01*
X15665000Y-103880000D01*
G75*
G02*
X15505000Y-103720000I0J160000D01*
G01*
X15505000Y-103280000D01*
G75*
G02*
X15665000Y-103120000I160000J0D01*
G01*
X15985000Y-103120000D01*
G75*
G02*
X16145000Y-103280000I0J-160000D01*
G01*
G37*
G04 #@! TD*
G04 #@! TO.C,R22*
G36*
G01*
X15995000Y-115030000D02*
X15995000Y-115470000D01*
G75*
G02*
X15835000Y-115630000I-160000J0D01*
G01*
X15515000Y-115630000D01*
G75*
G02*
X15355000Y-115470000I0J160000D01*
G01*
X15355000Y-115030000D01*
G75*
G02*
X15515000Y-114870000I160000J0D01*
G01*
X15835000Y-114870000D01*
G75*
G02*
X15995000Y-115030000I0J-160000D01*
G01*
G37*
G36*
G01*
X17645000Y-115030000D02*
X17645000Y-115470000D01*
G75*
G02*
X17485000Y-115630000I-160000J0D01*
G01*
X17165000Y-115630000D01*
G75*
G02*
X17005000Y-115470000I0J160000D01*
G01*
X17005000Y-115030000D01*
G75*
G02*
X17165000Y-114870000I160000J0D01*
G01*
X17485000Y-114870000D01*
G75*
G02*
X17645000Y-115030000I0J-160000D01*
G01*
G37*
G04 #@! TD*
G04 #@! TO.C,R21*
G36*
G01*
X20255000Y-115470000D02*
X20255000Y-115030000D01*
G75*
G02*
X20415000Y-114870000I160000J0D01*
G01*
X20735000Y-114870000D01*
G75*
G02*
X20895000Y-115030000I0J-160000D01*
G01*
X20895000Y-115470000D01*
G75*
G02*
X20735000Y-115630000I-160000J0D01*
G01*
X20415000Y-115630000D01*
G75*
G02*
X20255000Y-115470000I0J160000D01*
G01*
G37*
G36*
G01*
X18605000Y-115470000D02*
X18605000Y-115030000D01*
G75*
G02*
X18765000Y-114870000I160000J0D01*
G01*
X19085000Y-114870000D01*
G75*
G02*
X19245000Y-115030000I0J-160000D01*
G01*
X19245000Y-115470000D01*
G75*
G02*
X19085000Y-115630000I-160000J0D01*
G01*
X18765000Y-115630000D01*
G75*
G02*
X18605000Y-115470000I0J160000D01*
G01*
G37*
G04 #@! TD*
G04 #@! TO.C,C9*
G36*
G01*
X21415000Y-111200000D02*
X21415000Y-110800000D01*
G75*
G02*
X21595000Y-110620000I180000J0D01*
G01*
X21955000Y-110620000D01*
G75*
G02*
X22135000Y-110800000I0J-180000D01*
G01*
X22135000Y-111200000D01*
G75*
G02*
X21955000Y-111380000I-180000J0D01*
G01*
X21595000Y-111380000D01*
G75*
G02*
X21415000Y-111200000I0J180000D01*
G01*
G37*
G36*
G01*
X19865000Y-111200000D02*
X19865000Y-110800000D01*
G75*
G02*
X20045000Y-110620000I180000J0D01*
G01*
X20405000Y-110620000D01*
G75*
G02*
X20585000Y-110800000I0J-180000D01*
G01*
X20585000Y-111200000D01*
G75*
G02*
X20405000Y-111380000I-180000J0D01*
G01*
X20045000Y-111380000D01*
G75*
G02*
X19865000Y-111200000I0J180000D01*
G01*
G37*
G04 #@! TD*
G04 #@! TO.C,C6*
G36*
G01*
X36715000Y-149700000D02*
X36715000Y-149300000D01*
G75*
G02*
X36895000Y-149120000I180000J0D01*
G01*
X37255000Y-149120000D01*
G75*
G02*
X37435000Y-149300000I0J-180000D01*
G01*
X37435000Y-149700000D01*
G75*
G02*
X37255000Y-149880000I-180000J0D01*
G01*
X36895000Y-149880000D01*
G75*
G02*
X36715000Y-149700000I0J180000D01*
G01*
G37*
G36*
G01*
X35165000Y-149700000D02*
X35165000Y-149300000D01*
G75*
G02*
X35345000Y-149120000I180000J0D01*
G01*
X35705000Y-149120000D01*
G75*
G02*
X35885000Y-149300000I0J-180000D01*
G01*
X35885000Y-149700000D01*
G75*
G02*
X35705000Y-149880000I-180000J0D01*
G01*
X35345000Y-149880000D01*
G75*
G02*
X35165000Y-149700000I0J180000D01*
G01*
G37*
G04 #@! TD*
G04 #@! TO.C,C7*
G36*
G01*
X35885000Y-143300000D02*
X35885000Y-143700000D01*
G75*
G02*
X35705000Y-143880000I-180000J0D01*
G01*
X35345000Y-143880000D01*
G75*
G02*
X35165000Y-143700000I0J180000D01*
G01*
X35165000Y-143300000D01*
G75*
G02*
X35345000Y-143120000I180000J0D01*
G01*
X35705000Y-143120000D01*
G75*
G02*
X35885000Y-143300000I0J-180000D01*
G01*
G37*
G36*
G01*
X37435000Y-143300000D02*
X37435000Y-143700000D01*
G75*
G02*
X37255000Y-143880000I-180000J0D01*
G01*
X36895000Y-143880000D01*
G75*
G02*
X36715000Y-143700000I0J180000D01*
G01*
X36715000Y-143300000D01*
G75*
G02*
X36895000Y-143120000I180000J0D01*
G01*
X37255000Y-143120000D01*
G75*
G02*
X37435000Y-143300000I0J-180000D01*
G01*
G37*
G04 #@! TD*
G04 #@! TO.C,U1*
G36*
G01*
X33252500Y-148390000D02*
X33252500Y-148510000D01*
G75*
G02*
X33192500Y-148570000I-60000J0D01*
G01*
X32132500Y-148570000D01*
G75*
G02*
X32072500Y-148510000I0J60000D01*
G01*
X32072500Y-148390000D01*
G75*
G02*
X32132500Y-148330000I60000J0D01*
G01*
X33192500Y-148330000D01*
G75*
G02*
X33252500Y-148390000I0J-60000D01*
G01*
G37*
G36*
G01*
X33252500Y-147890000D02*
X33252500Y-148010000D01*
G75*
G02*
X33192500Y-148070000I-60000J0D01*
G01*
X32132500Y-148070000D01*
G75*
G02*
X32072500Y-148010000I0J60000D01*
G01*
X32072500Y-147890000D01*
G75*
G02*
X32132500Y-147830000I60000J0D01*
G01*
X33192500Y-147830000D01*
G75*
G02*
X33252500Y-147890000I0J-60000D01*
G01*
G37*
G36*
G01*
X33252500Y-147390000D02*
X33252500Y-147510000D01*
G75*
G02*
X33192500Y-147570000I-60000J0D01*
G01*
X32132500Y-147570000D01*
G75*
G02*
X32072500Y-147510000I0J60000D01*
G01*
X32072500Y-147390000D01*
G75*
G02*
X32132500Y-147330000I60000J0D01*
G01*
X33192500Y-147330000D01*
G75*
G02*
X33252500Y-147390000I0J-60000D01*
G01*
G37*
G36*
G01*
X33252500Y-146890000D02*
X33252500Y-147010000D01*
G75*
G02*
X33192500Y-147070000I-60000J0D01*
G01*
X32132500Y-147070000D01*
G75*
G02*
X32072500Y-147010000I0J60000D01*
G01*
X32072500Y-146890000D01*
G75*
G02*
X32132500Y-146830000I60000J0D01*
G01*
X33192500Y-146830000D01*
G75*
G02*
X33252500Y-146890000I0J-60000D01*
G01*
G37*
G36*
G01*
X33252500Y-146390000D02*
X33252500Y-146510000D01*
G75*
G02*
X33192500Y-146570000I-60000J0D01*
G01*
X32132500Y-146570000D01*
G75*
G02*
X32072500Y-146510000I0J60000D01*
G01*
X32072500Y-146390000D01*
G75*
G02*
X32132500Y-146330000I60000J0D01*
G01*
X33192500Y-146330000D01*
G75*
G02*
X33252500Y-146390000I0J-60000D01*
G01*
G37*
G36*
G01*
X33252500Y-145890000D02*
X33252500Y-146010000D01*
G75*
G02*
X33192500Y-146070000I-60000J0D01*
G01*
X32132500Y-146070000D01*
G75*
G02*
X32072500Y-146010000I0J60000D01*
G01*
X32072500Y-145890000D01*
G75*
G02*
X32132500Y-145830000I60000J0D01*
G01*
X33192500Y-145830000D01*
G75*
G02*
X33252500Y-145890000I0J-60000D01*
G01*
G37*
G36*
G01*
X33252500Y-145390000D02*
X33252500Y-145510000D01*
G75*
G02*
X33192500Y-145570000I-60000J0D01*
G01*
X32132500Y-145570000D01*
G75*
G02*
X32072500Y-145510000I0J60000D01*
G01*
X32072500Y-145390000D01*
G75*
G02*
X32132500Y-145330000I60000J0D01*
G01*
X33192500Y-145330000D01*
G75*
G02*
X33252500Y-145390000I0J-60000D01*
G01*
G37*
G36*
G01*
X33252500Y-144890000D02*
X33252500Y-145010000D01*
G75*
G02*
X33192500Y-145070000I-60000J0D01*
G01*
X32132500Y-145070000D01*
G75*
G02*
X32072500Y-145010000I0J60000D01*
G01*
X32072500Y-144890000D01*
G75*
G02*
X32132500Y-144830000I60000J0D01*
G01*
X33192500Y-144830000D01*
G75*
G02*
X33252500Y-144890000I0J-60000D01*
G01*
G37*
G36*
G01*
X33252500Y-144390000D02*
X33252500Y-144510000D01*
G75*
G02*
X33192500Y-144570000I-60000J0D01*
G01*
X32132500Y-144570000D01*
G75*
G02*
X32072500Y-144510000I0J60000D01*
G01*
X32072500Y-144390000D01*
G75*
G02*
X32132500Y-144330000I60000J0D01*
G01*
X33192500Y-144330000D01*
G75*
G02*
X33252500Y-144390000I0J-60000D01*
G01*
G37*
G36*
G01*
X33252500Y-143890000D02*
X33252500Y-144010000D01*
G75*
G02*
X33192500Y-144070000I-60000J0D01*
G01*
X32132500Y-144070000D01*
G75*
G02*
X32072500Y-144010000I0J60000D01*
G01*
X32072500Y-143890000D01*
G75*
G02*
X32132500Y-143830000I60000J0D01*
G01*
X33192500Y-143830000D01*
G75*
G02*
X33252500Y-143890000I0J-60000D01*
G01*
G37*
G36*
G01*
X33252500Y-143390000D02*
X33252500Y-143510000D01*
G75*
G02*
X33192500Y-143570000I-60000J0D01*
G01*
X32132500Y-143570000D01*
G75*
G02*
X32072500Y-143510000I0J60000D01*
G01*
X32072500Y-143390000D01*
G75*
G02*
X32132500Y-143330000I60000J0D01*
G01*
X33192500Y-143330000D01*
G75*
G02*
X33252500Y-143390000I0J-60000D01*
G01*
G37*
G36*
G01*
X33252500Y-142890000D02*
X33252500Y-143010000D01*
G75*
G02*
X33192500Y-143070000I-60000J0D01*
G01*
X32132500Y-143070000D01*
G75*
G02*
X32072500Y-143010000I0J60000D01*
G01*
X32072500Y-142890000D01*
G75*
G02*
X32132500Y-142830000I60000J0D01*
G01*
X33192500Y-142830000D01*
G75*
G02*
X33252500Y-142890000I0J-60000D01*
G01*
G37*
G36*
G01*
X31370000Y-141007500D02*
X31370000Y-142067500D01*
G75*
G02*
X31310000Y-142127500I-60000J0D01*
G01*
X31190000Y-142127500D01*
G75*
G02*
X31130000Y-142067500I0J60000D01*
G01*
X31130000Y-141007500D01*
G75*
G02*
X31190000Y-140947500I60000J0D01*
G01*
X31310000Y-140947500D01*
G75*
G02*
X31370000Y-141007500I0J-60000D01*
G01*
G37*
G36*
G01*
X30870000Y-141007500D02*
X30870000Y-142067500D01*
G75*
G02*
X30810000Y-142127500I-60000J0D01*
G01*
X30690000Y-142127500D01*
G75*
G02*
X30630000Y-142067500I0J60000D01*
G01*
X30630000Y-141007500D01*
G75*
G02*
X30690000Y-140947500I60000J0D01*
G01*
X30810000Y-140947500D01*
G75*
G02*
X30870000Y-141007500I0J-60000D01*
G01*
G37*
G36*
G01*
X30370000Y-141007500D02*
X30370000Y-142067500D01*
G75*
G02*
X30310000Y-142127500I-60000J0D01*
G01*
X30190000Y-142127500D01*
G75*
G02*
X30130000Y-142067500I0J60000D01*
G01*
X30130000Y-141007500D01*
G75*
G02*
X30190000Y-140947500I60000J0D01*
G01*
X30310000Y-140947500D01*
G75*
G02*
X30370000Y-141007500I0J-60000D01*
G01*
G37*
G36*
G01*
X29870000Y-141007500D02*
X29870000Y-142067500D01*
G75*
G02*
X29810000Y-142127500I-60000J0D01*
G01*
X29690000Y-142127500D01*
G75*
G02*
X29630000Y-142067500I0J60000D01*
G01*
X29630000Y-141007500D01*
G75*
G02*
X29690000Y-140947500I60000J0D01*
G01*
X29810000Y-140947500D01*
G75*
G02*
X29870000Y-141007500I0J-60000D01*
G01*
G37*
G36*
G01*
X29370000Y-141007500D02*
X29370000Y-142067500D01*
G75*
G02*
X29310000Y-142127500I-60000J0D01*
G01*
X29190000Y-142127500D01*
G75*
G02*
X29130000Y-142067500I0J60000D01*
G01*
X29130000Y-141007500D01*
G75*
G02*
X29190000Y-140947500I60000J0D01*
G01*
X29310000Y-140947500D01*
G75*
G02*
X29370000Y-141007500I0J-60000D01*
G01*
G37*
G36*
G01*
X28870000Y-141007500D02*
X28870000Y-142067500D01*
G75*
G02*
X28810000Y-142127500I-60000J0D01*
G01*
X28690000Y-142127500D01*
G75*
G02*
X28630000Y-142067500I0J60000D01*
G01*
X28630000Y-141007500D01*
G75*
G02*
X28690000Y-140947500I60000J0D01*
G01*
X28810000Y-140947500D01*
G75*
G02*
X28870000Y-141007500I0J-60000D01*
G01*
G37*
G36*
G01*
X28370000Y-141007500D02*
X28370000Y-142067500D01*
G75*
G02*
X28310000Y-142127500I-60000J0D01*
G01*
X28190000Y-142127500D01*
G75*
G02*
X28130000Y-142067500I0J60000D01*
G01*
X28130000Y-141007500D01*
G75*
G02*
X28190000Y-140947500I60000J0D01*
G01*
X28310000Y-140947500D01*
G75*
G02*
X28370000Y-141007500I0J-60000D01*
G01*
G37*
G36*
G01*
X27870000Y-141007500D02*
X27870000Y-142067500D01*
G75*
G02*
X27810000Y-142127500I-60000J0D01*
G01*
X27690000Y-142127500D01*
G75*
G02*
X27630000Y-142067500I0J60000D01*
G01*
X27630000Y-141007500D01*
G75*
G02*
X27690000Y-140947500I60000J0D01*
G01*
X27810000Y-140947500D01*
G75*
G02*
X27870000Y-141007500I0J-60000D01*
G01*
G37*
G36*
G01*
X27370000Y-141007500D02*
X27370000Y-142067500D01*
G75*
G02*
X27310000Y-142127500I-60000J0D01*
G01*
X27190000Y-142127500D01*
G75*
G02*
X27130000Y-142067500I0J60000D01*
G01*
X27130000Y-141007500D01*
G75*
G02*
X27190000Y-140947500I60000J0D01*
G01*
X27310000Y-140947500D01*
G75*
G02*
X27370000Y-141007500I0J-60000D01*
G01*
G37*
G36*
G01*
X26870000Y-141007500D02*
X26870000Y-142067500D01*
G75*
G02*
X26810000Y-142127500I-60000J0D01*
G01*
X26690000Y-142127500D01*
G75*
G02*
X26630000Y-142067500I0J60000D01*
G01*
X26630000Y-141007500D01*
G75*
G02*
X26690000Y-140947500I60000J0D01*
G01*
X26810000Y-140947500D01*
G75*
G02*
X26870000Y-141007500I0J-60000D01*
G01*
G37*
G36*
G01*
X26370000Y-141007500D02*
X26370000Y-142067500D01*
G75*
G02*
X26310000Y-142127500I-60000J0D01*
G01*
X26190000Y-142127500D01*
G75*
G02*
X26130000Y-142067500I0J60000D01*
G01*
X26130000Y-141007500D01*
G75*
G02*
X26190000Y-140947500I60000J0D01*
G01*
X26310000Y-140947500D01*
G75*
G02*
X26370000Y-141007500I0J-60000D01*
G01*
G37*
G36*
G01*
X25870000Y-141007500D02*
X25870000Y-142067500D01*
G75*
G02*
X25810000Y-142127500I-60000J0D01*
G01*
X25690000Y-142127500D01*
G75*
G02*
X25630000Y-142067500I0J60000D01*
G01*
X25630000Y-141007500D01*
G75*
G02*
X25690000Y-140947500I60000J0D01*
G01*
X25810000Y-140947500D01*
G75*
G02*
X25870000Y-141007500I0J-60000D01*
G01*
G37*
G36*
G01*
X24927500Y-142890000D02*
X24927500Y-143010000D01*
G75*
G02*
X24867500Y-143070000I-60000J0D01*
G01*
X23807500Y-143070000D01*
G75*
G02*
X23747500Y-143010000I0J60000D01*
G01*
X23747500Y-142890000D01*
G75*
G02*
X23807500Y-142830000I60000J0D01*
G01*
X24867500Y-142830000D01*
G75*
G02*
X24927500Y-142890000I0J-60000D01*
G01*
G37*
G36*
G01*
X24927500Y-143390000D02*
X24927500Y-143510000D01*
G75*
G02*
X24867500Y-143570000I-60000J0D01*
G01*
X23807500Y-143570000D01*
G75*
G02*
X23747500Y-143510000I0J60000D01*
G01*
X23747500Y-143390000D01*
G75*
G02*
X23807500Y-143330000I60000J0D01*
G01*
X24867500Y-143330000D01*
G75*
G02*
X24927500Y-143390000I0J-60000D01*
G01*
G37*
G36*
G01*
X24927500Y-143890000D02*
X24927500Y-144010000D01*
G75*
G02*
X24867500Y-144070000I-60000J0D01*
G01*
X23807500Y-144070000D01*
G75*
G02*
X23747500Y-144010000I0J60000D01*
G01*
X23747500Y-143890000D01*
G75*
G02*
X23807500Y-143830000I60000J0D01*
G01*
X24867500Y-143830000D01*
G75*
G02*
X24927500Y-143890000I0J-60000D01*
G01*
G37*
G36*
G01*
X24927500Y-144390000D02*
X24927500Y-144510000D01*
G75*
G02*
X24867500Y-144570000I-60000J0D01*
G01*
X23807500Y-144570000D01*
G75*
G02*
X23747500Y-144510000I0J60000D01*
G01*
X23747500Y-144390000D01*
G75*
G02*
X23807500Y-144330000I60000J0D01*
G01*
X24867500Y-144330000D01*
G75*
G02*
X24927500Y-144390000I0J-60000D01*
G01*
G37*
G36*
G01*
X24927500Y-144890000D02*
X24927500Y-145010000D01*
G75*
G02*
X24867500Y-145070000I-60000J0D01*
G01*
X23807500Y-145070000D01*
G75*
G02*
X23747500Y-145010000I0J60000D01*
G01*
X23747500Y-144890000D01*
G75*
G02*
X23807500Y-144830000I60000J0D01*
G01*
X24867500Y-144830000D01*
G75*
G02*
X24927500Y-144890000I0J-60000D01*
G01*
G37*
G36*
G01*
X24927500Y-145390000D02*
X24927500Y-145510000D01*
G75*
G02*
X24867500Y-145570000I-60000J0D01*
G01*
X23807500Y-145570000D01*
G75*
G02*
X23747500Y-145510000I0J60000D01*
G01*
X23747500Y-145390000D01*
G75*
G02*
X23807500Y-145330000I60000J0D01*
G01*
X24867500Y-145330000D01*
G75*
G02*
X24927500Y-145390000I0J-60000D01*
G01*
G37*
G36*
G01*
X24927500Y-145890000D02*
X24927500Y-146010000D01*
G75*
G02*
X24867500Y-146070000I-60000J0D01*
G01*
X23807500Y-146070000D01*
G75*
G02*
X23747500Y-146010000I0J60000D01*
G01*
X23747500Y-145890000D01*
G75*
G02*
X23807500Y-145830000I60000J0D01*
G01*
X24867500Y-145830000D01*
G75*
G02*
X24927500Y-145890000I0J-60000D01*
G01*
G37*
G36*
G01*
X24927500Y-146390000D02*
X24927500Y-146510000D01*
G75*
G02*
X24867500Y-146570000I-60000J0D01*
G01*
X23807500Y-146570000D01*
G75*
G02*
X23747500Y-146510000I0J60000D01*
G01*
X23747500Y-146390000D01*
G75*
G02*
X23807500Y-146330000I60000J0D01*
G01*
X24867500Y-146330000D01*
G75*
G02*
X24927500Y-146390000I0J-60000D01*
G01*
G37*
G36*
G01*
X24927500Y-146890000D02*
X24927500Y-147010000D01*
G75*
G02*
X24867500Y-147070000I-60000J0D01*
G01*
X23807500Y-147070000D01*
G75*
G02*
X23747500Y-147010000I0J60000D01*
G01*
X23747500Y-146890000D01*
G75*
G02*
X23807500Y-146830000I60000J0D01*
G01*
X24867500Y-146830000D01*
G75*
G02*
X24927500Y-146890000I0J-60000D01*
G01*
G37*
G36*
G01*
X24927500Y-147390000D02*
X24927500Y-147510000D01*
G75*
G02*
X24867500Y-147570000I-60000J0D01*
G01*
X23807500Y-147570000D01*
G75*
G02*
X23747500Y-147510000I0J60000D01*
G01*
X23747500Y-147390000D01*
G75*
G02*
X23807500Y-147330000I60000J0D01*
G01*
X24867500Y-147330000D01*
G75*
G02*
X24927500Y-147390000I0J-60000D01*
G01*
G37*
G36*
G01*
X24927500Y-147890000D02*
X24927500Y-148010000D01*
G75*
G02*
X24867500Y-148070000I-60000J0D01*
G01*
X23807500Y-148070000D01*
G75*
G02*
X23747500Y-148010000I0J60000D01*
G01*
X23747500Y-147890000D01*
G75*
G02*
X23807500Y-147830000I60000J0D01*
G01*
X24867500Y-147830000D01*
G75*
G02*
X24927500Y-147890000I0J-60000D01*
G01*
G37*
G36*
G01*
X24927500Y-148390000D02*
X24927500Y-148510000D01*
G75*
G02*
X24867500Y-148570000I-60000J0D01*
G01*
X23807500Y-148570000D01*
G75*
G02*
X23747500Y-148510000I0J60000D01*
G01*
X23747500Y-148390000D01*
G75*
G02*
X23807500Y-148330000I60000J0D01*
G01*
X24867500Y-148330000D01*
G75*
G02*
X24927500Y-148390000I0J-60000D01*
G01*
G37*
G36*
G01*
X25870000Y-149332500D02*
X25870000Y-150392500D01*
G75*
G02*
X25810000Y-150452500I-60000J0D01*
G01*
X25690000Y-150452500D01*
G75*
G02*
X25630000Y-150392500I0J60000D01*
G01*
X25630000Y-149332500D01*
G75*
G02*
X25690000Y-149272500I60000J0D01*
G01*
X25810000Y-149272500D01*
G75*
G02*
X25870000Y-149332500I0J-60000D01*
G01*
G37*
G36*
G01*
X26370000Y-149332500D02*
X26370000Y-150392500D01*
G75*
G02*
X26310000Y-150452500I-60000J0D01*
G01*
X26190000Y-150452500D01*
G75*
G02*
X26130000Y-150392500I0J60000D01*
G01*
X26130000Y-149332500D01*
G75*
G02*
X26190000Y-149272500I60000J0D01*
G01*
X26310000Y-149272500D01*
G75*
G02*
X26370000Y-149332500I0J-60000D01*
G01*
G37*
G36*
G01*
X26870000Y-149332500D02*
X26870000Y-150392500D01*
G75*
G02*
X26810000Y-150452500I-60000J0D01*
G01*
X26690000Y-150452500D01*
G75*
G02*
X26630000Y-150392500I0J60000D01*
G01*
X26630000Y-149332500D01*
G75*
G02*
X26690000Y-149272500I60000J0D01*
G01*
X26810000Y-149272500D01*
G75*
G02*
X26870000Y-149332500I0J-60000D01*
G01*
G37*
G36*
G01*
X27370000Y-149332500D02*
X27370000Y-150392500D01*
G75*
G02*
X27310000Y-150452500I-60000J0D01*
G01*
X27190000Y-150452500D01*
G75*
G02*
X27130000Y-150392500I0J60000D01*
G01*
X27130000Y-149332500D01*
G75*
G02*
X27190000Y-149272500I60000J0D01*
G01*
X27310000Y-149272500D01*
G75*
G02*
X27370000Y-149332500I0J-60000D01*
G01*
G37*
G36*
G01*
X27870000Y-149332500D02*
X27870000Y-150392500D01*
G75*
G02*
X27810000Y-150452500I-60000J0D01*
G01*
X27690000Y-150452500D01*
G75*
G02*
X27630000Y-150392500I0J60000D01*
G01*
X27630000Y-149332500D01*
G75*
G02*
X27690000Y-149272500I60000J0D01*
G01*
X27810000Y-149272500D01*
G75*
G02*
X27870000Y-149332500I0J-60000D01*
G01*
G37*
G36*
G01*
X28370000Y-149332500D02*
X28370000Y-150392500D01*
G75*
G02*
X28310000Y-150452500I-60000J0D01*
G01*
X28190000Y-150452500D01*
G75*
G02*
X28130000Y-150392500I0J60000D01*
G01*
X28130000Y-149332500D01*
G75*
G02*
X28190000Y-149272500I60000J0D01*
G01*
X28310000Y-149272500D01*
G75*
G02*
X28370000Y-149332500I0J-60000D01*
G01*
G37*
G36*
G01*
X28870000Y-149332500D02*
X28870000Y-150392500D01*
G75*
G02*
X28810000Y-150452500I-60000J0D01*
G01*
X28690000Y-150452500D01*
G75*
G02*
X28630000Y-150392500I0J60000D01*
G01*
X28630000Y-149332500D01*
G75*
G02*
X28690000Y-149272500I60000J0D01*
G01*
X28810000Y-149272500D01*
G75*
G02*
X28870000Y-149332500I0J-60000D01*
G01*
G37*
G36*
G01*
X29370000Y-149332500D02*
X29370000Y-150392500D01*
G75*
G02*
X29310000Y-150452500I-60000J0D01*
G01*
X29190000Y-150452500D01*
G75*
G02*
X29130000Y-150392500I0J60000D01*
G01*
X29130000Y-149332500D01*
G75*
G02*
X29190000Y-149272500I60000J0D01*
G01*
X29310000Y-149272500D01*
G75*
G02*
X29370000Y-149332500I0J-60000D01*
G01*
G37*
G36*
G01*
X29870000Y-149332500D02*
X29870000Y-150392500D01*
G75*
G02*
X29810000Y-150452500I-60000J0D01*
G01*
X29690000Y-150452500D01*
G75*
G02*
X29630000Y-150392500I0J60000D01*
G01*
X29630000Y-149332500D01*
G75*
G02*
X29690000Y-149272500I60000J0D01*
G01*
X29810000Y-149272500D01*
G75*
G02*
X29870000Y-149332500I0J-60000D01*
G01*
G37*
G36*
G01*
X30370000Y-149332500D02*
X30370000Y-150392500D01*
G75*
G02*
X30310000Y-150452500I-60000J0D01*
G01*
X30190000Y-150452500D01*
G75*
G02*
X30130000Y-150392500I0J60000D01*
G01*
X30130000Y-149332500D01*
G75*
G02*
X30190000Y-149272500I60000J0D01*
G01*
X30310000Y-149272500D01*
G75*
G02*
X30370000Y-149332500I0J-60000D01*
G01*
G37*
G36*
G01*
X30870000Y-149332500D02*
X30870000Y-150392500D01*
G75*
G02*
X30810000Y-150452500I-60000J0D01*
G01*
X30690000Y-150452500D01*
G75*
G02*
X30630000Y-150392500I0J60000D01*
G01*
X30630000Y-149332500D01*
G75*
G02*
X30690000Y-149272500I60000J0D01*
G01*
X30810000Y-149272500D01*
G75*
G02*
X30870000Y-149332500I0J-60000D01*
G01*
G37*
G36*
G01*
X31370000Y-149332500D02*
X31370000Y-150392500D01*
G75*
G02*
X31310000Y-150452500I-60000J0D01*
G01*
X31190000Y-150452500D01*
G75*
G02*
X31130000Y-150392500I0J60000D01*
G01*
X31130000Y-149332500D01*
G75*
G02*
X31190000Y-149272500I60000J0D01*
G01*
X31310000Y-149272500D01*
G75*
G02*
X31370000Y-149332500I0J-60000D01*
G01*
G37*
G04 #@! TD*
G04 #@! TO.C,C8*
G36*
G01*
X21600000Y-151415000D02*
X22000000Y-151415000D01*
G75*
G02*
X22180000Y-151595000I0J-180000D01*
G01*
X22180000Y-151955000D01*
G75*
G02*
X22000000Y-152135000I-180000J0D01*
G01*
X21600000Y-152135000D01*
G75*
G02*
X21420000Y-151955000I0J180000D01*
G01*
X21420000Y-151595000D01*
G75*
G02*
X21600000Y-151415000I180000J0D01*
G01*
G37*
G36*
G01*
X21600000Y-149865000D02*
X22000000Y-149865000D01*
G75*
G02*
X22180000Y-150045000I0J-180000D01*
G01*
X22180000Y-150405000D01*
G75*
G02*
X22000000Y-150585000I-180000J0D01*
G01*
X21600000Y-150585000D01*
G75*
G02*
X21420000Y-150405000I0J180000D01*
G01*
X21420000Y-150045000D01*
G75*
G02*
X21600000Y-149865000I180000J0D01*
G01*
G37*
G04 #@! TD*
D10*
G04 #@! TO.C,Y2*
X35500000Y-147600000D03*
X35500000Y-145400000D03*
X37100000Y-145400000D03*
X37100000Y-147600000D03*
G04 #@! TD*
G04 #@! TO.C,R20*
G36*
G01*
X47720000Y-125495000D02*
X47280000Y-125495000D01*
G75*
G02*
X47120000Y-125335000I0J160000D01*
G01*
X47120000Y-125015000D01*
G75*
G02*
X47280000Y-124855000I160000J0D01*
G01*
X47720000Y-124855000D01*
G75*
G02*
X47880000Y-125015000I0J-160000D01*
G01*
X47880000Y-125335000D01*
G75*
G02*
X47720000Y-125495000I-160000J0D01*
G01*
G37*
G36*
G01*
X47720000Y-127145000D02*
X47280000Y-127145000D01*
G75*
G02*
X47120000Y-126985000I0J160000D01*
G01*
X47120000Y-126665000D01*
G75*
G02*
X47280000Y-126505000I160000J0D01*
G01*
X47720000Y-126505000D01*
G75*
G02*
X47880000Y-126665000I0J-160000D01*
G01*
X47880000Y-126985000D01*
G75*
G02*
X47720000Y-127145000I-160000J0D01*
G01*
G37*
G04 #@! TD*
G04 #@! TO.C,R19*
G36*
G01*
X62280000Y-126505000D02*
X62720000Y-126505000D01*
G75*
G02*
X62880000Y-126665000I0J-160000D01*
G01*
X62880000Y-126985000D01*
G75*
G02*
X62720000Y-127145000I-160000J0D01*
G01*
X62280000Y-127145000D01*
G75*
G02*
X62120000Y-126985000I0J160000D01*
G01*
X62120000Y-126665000D01*
G75*
G02*
X62280000Y-126505000I160000J0D01*
G01*
G37*
G36*
G01*
X62280000Y-124855000D02*
X62720000Y-124855000D01*
G75*
G02*
X62880000Y-125015000I0J-160000D01*
G01*
X62880000Y-125335000D01*
G75*
G02*
X62720000Y-125495000I-160000J0D01*
G01*
X62280000Y-125495000D01*
G75*
G02*
X62120000Y-125335000I0J160000D01*
G01*
X62120000Y-125015000D01*
G75*
G02*
X62280000Y-124855000I160000J0D01*
G01*
G37*
G04 #@! TD*
G04 #@! TO.C,C4*
G36*
G01*
X124415000Y-138200000D02*
X124415000Y-137800000D01*
G75*
G02*
X124595000Y-137620000I180000J0D01*
G01*
X124955000Y-137620000D01*
G75*
G02*
X125135000Y-137800000I0J-180000D01*
G01*
X125135000Y-138200000D01*
G75*
G02*
X124955000Y-138380000I-180000J0D01*
G01*
X124595000Y-138380000D01*
G75*
G02*
X124415000Y-138200000I0J180000D01*
G01*
G37*
G36*
G01*
X122865000Y-138200000D02*
X122865000Y-137800000D01*
G75*
G02*
X123045000Y-137620000I180000J0D01*
G01*
X123405000Y-137620000D01*
G75*
G02*
X123585000Y-137800000I0J-180000D01*
G01*
X123585000Y-138200000D01*
G75*
G02*
X123405000Y-138380000I-180000J0D01*
G01*
X123045000Y-138380000D01*
G75*
G02*
X122865000Y-138200000I0J180000D01*
G01*
G37*
G04 #@! TD*
G04 #@! TO.C,C3*
G36*
G01*
X120800000Y-141415000D02*
X121200000Y-141415000D01*
G75*
G02*
X121380000Y-141595000I0J-180000D01*
G01*
X121380000Y-141955000D01*
G75*
G02*
X121200000Y-142135000I-180000J0D01*
G01*
X120800000Y-142135000D01*
G75*
G02*
X120620000Y-141955000I0J180000D01*
G01*
X120620000Y-141595000D01*
G75*
G02*
X120800000Y-141415000I180000J0D01*
G01*
G37*
G36*
G01*
X120800000Y-139865000D02*
X121200000Y-139865000D01*
G75*
G02*
X121380000Y-140045000I0J-180000D01*
G01*
X121380000Y-140405000D01*
G75*
G02*
X121200000Y-140585000I-180000J0D01*
G01*
X120800000Y-140585000D01*
G75*
G02*
X120620000Y-140405000I0J180000D01*
G01*
X120620000Y-140045000D01*
G75*
G02*
X120800000Y-139865000I180000J0D01*
G01*
G37*
G04 #@! TD*
G04 #@! TO.C,U4*
G36*
G01*
X124735000Y-150477500D02*
X124735000Y-149982500D01*
G75*
G02*
X124982500Y-149735000I247500J0D01*
G01*
X125477500Y-149735000D01*
G75*
G02*
X125725000Y-149982500I0J-247500D01*
G01*
X125725000Y-150477500D01*
G75*
G02*
X125477500Y-150725000I-247500J0D01*
G01*
X124982500Y-150725000D01*
G75*
G02*
X124735000Y-150477500I0J247500D01*
G01*
G37*
G36*
G01*
X124735000Y-149247500D02*
X124735000Y-148752500D01*
G75*
G02*
X124982500Y-148505000I247500J0D01*
G01*
X125477500Y-148505000D01*
G75*
G02*
X125725000Y-148752500I0J-247500D01*
G01*
X125725000Y-149247500D01*
G75*
G02*
X125477500Y-149495000I-247500J0D01*
G01*
X124982500Y-149495000D01*
G75*
G02*
X124735000Y-149247500I0J247500D01*
G01*
G37*
G36*
G01*
X124735000Y-148017500D02*
X124735000Y-147522500D01*
G75*
G02*
X124982500Y-147275000I247500J0D01*
G01*
X125477500Y-147275000D01*
G75*
G02*
X125725000Y-147522500I0J-247500D01*
G01*
X125725000Y-148017500D01*
G75*
G02*
X125477500Y-148265000I-247500J0D01*
G01*
X124982500Y-148265000D01*
G75*
G02*
X124735000Y-148017500I0J247500D01*
G01*
G37*
G36*
G01*
X123505000Y-150477500D02*
X123505000Y-149982500D01*
G75*
G02*
X123752500Y-149735000I247500J0D01*
G01*
X124247500Y-149735000D01*
G75*
G02*
X124495000Y-149982500I0J-247500D01*
G01*
X124495000Y-150477500D01*
G75*
G02*
X124247500Y-150725000I-247500J0D01*
G01*
X123752500Y-150725000D01*
G75*
G02*
X123505000Y-150477500I0J247500D01*
G01*
G37*
G36*
G01*
X123505000Y-149247500D02*
X123505000Y-148752500D01*
G75*
G02*
X123752500Y-148505000I247500J0D01*
G01*
X124247500Y-148505000D01*
G75*
G02*
X124495000Y-148752500I0J-247500D01*
G01*
X124495000Y-149247500D01*
G75*
G02*
X124247500Y-149495000I-247500J0D01*
G01*
X123752500Y-149495000D01*
G75*
G02*
X123505000Y-149247500I0J247500D01*
G01*
G37*
G36*
G01*
X123505000Y-148017500D02*
X123505000Y-147522500D01*
G75*
G02*
X123752500Y-147275000I247500J0D01*
G01*
X124247500Y-147275000D01*
G75*
G02*
X124495000Y-147522500I0J-247500D01*
G01*
X124495000Y-148017500D01*
G75*
G02*
X124247500Y-148265000I-247500J0D01*
G01*
X123752500Y-148265000D01*
G75*
G02*
X123505000Y-148017500I0J247500D01*
G01*
G37*
G36*
G01*
X122275000Y-150477500D02*
X122275000Y-149982500D01*
G75*
G02*
X122522500Y-149735000I247500J0D01*
G01*
X123017500Y-149735000D01*
G75*
G02*
X123265000Y-149982500I0J-247500D01*
G01*
X123265000Y-150477500D01*
G75*
G02*
X123017500Y-150725000I-247500J0D01*
G01*
X122522500Y-150725000D01*
G75*
G02*
X122275000Y-150477500I0J247500D01*
G01*
G37*
G36*
G01*
X122275000Y-149247500D02*
X122275000Y-148752500D01*
G75*
G02*
X122522500Y-148505000I247500J0D01*
G01*
X123017500Y-148505000D01*
G75*
G02*
X123265000Y-148752500I0J-247500D01*
G01*
X123265000Y-149247500D01*
G75*
G02*
X123017500Y-149495000I-247500J0D01*
G01*
X122522500Y-149495000D01*
G75*
G02*
X122275000Y-149247500I0J247500D01*
G01*
G37*
G36*
G01*
X122275000Y-148017500D02*
X122275000Y-147522500D01*
G75*
G02*
X122522500Y-147275000I247500J0D01*
G01*
X123017500Y-147275000D01*
G75*
G02*
X123265000Y-147522500I0J-247500D01*
G01*
X123265000Y-148017500D01*
G75*
G02*
X123017500Y-148265000I-247500J0D01*
G01*
X122522500Y-148265000D01*
G75*
G02*
X122275000Y-148017500I0J247500D01*
G01*
G37*
G36*
G01*
X121900000Y-146342500D02*
X121900000Y-145782500D01*
G75*
G02*
X121950000Y-145732500I50000J0D01*
G01*
X122050000Y-145732500D01*
G75*
G02*
X122100000Y-145782500I0J-50000D01*
G01*
X122100000Y-146342500D01*
G75*
G02*
X122050000Y-146392500I-50000J0D01*
G01*
X121950000Y-146392500D01*
G75*
G02*
X121900000Y-146342500I0J50000D01*
G01*
G37*
G36*
G01*
X122400000Y-146342500D02*
X122400000Y-145782500D01*
G75*
G02*
X122450000Y-145732500I50000J0D01*
G01*
X122550000Y-145732500D01*
G75*
G02*
X122600000Y-145782500I0J-50000D01*
G01*
X122600000Y-146342500D01*
G75*
G02*
X122550000Y-146392500I-50000J0D01*
G01*
X122450000Y-146392500D01*
G75*
G02*
X122400000Y-146342500I0J50000D01*
G01*
G37*
G36*
G01*
X122900000Y-146342500D02*
X122900000Y-145782500D01*
G75*
G02*
X122950000Y-145732500I50000J0D01*
G01*
X123050000Y-145732500D01*
G75*
G02*
X123100000Y-145782500I0J-50000D01*
G01*
X123100000Y-146342500D01*
G75*
G02*
X123050000Y-146392500I-50000J0D01*
G01*
X122950000Y-146392500D01*
G75*
G02*
X122900000Y-146342500I0J50000D01*
G01*
G37*
G36*
G01*
X123400000Y-146342500D02*
X123400000Y-145782500D01*
G75*
G02*
X123450000Y-145732500I50000J0D01*
G01*
X123550000Y-145732500D01*
G75*
G02*
X123600000Y-145782500I0J-50000D01*
G01*
X123600000Y-146342500D01*
G75*
G02*
X123550000Y-146392500I-50000J0D01*
G01*
X123450000Y-146392500D01*
G75*
G02*
X123400000Y-146342500I0J50000D01*
G01*
G37*
G36*
G01*
X123900000Y-146342500D02*
X123900000Y-145782500D01*
G75*
G02*
X123950000Y-145732500I50000J0D01*
G01*
X124050000Y-145732500D01*
G75*
G02*
X124100000Y-145782500I0J-50000D01*
G01*
X124100000Y-146342500D01*
G75*
G02*
X124050000Y-146392500I-50000J0D01*
G01*
X123950000Y-146392500D01*
G75*
G02*
X123900000Y-146342500I0J50000D01*
G01*
G37*
G36*
G01*
X124400000Y-146342500D02*
X124400000Y-145782500D01*
G75*
G02*
X124450000Y-145732500I50000J0D01*
G01*
X124550000Y-145732500D01*
G75*
G02*
X124600000Y-145782500I0J-50000D01*
G01*
X124600000Y-146342500D01*
G75*
G02*
X124550000Y-146392500I-50000J0D01*
G01*
X124450000Y-146392500D01*
G75*
G02*
X124400000Y-146342500I0J50000D01*
G01*
G37*
G36*
G01*
X124900000Y-146342500D02*
X124900000Y-145782500D01*
G75*
G02*
X124950000Y-145732500I50000J0D01*
G01*
X125050000Y-145732500D01*
G75*
G02*
X125100000Y-145782500I0J-50000D01*
G01*
X125100000Y-146342500D01*
G75*
G02*
X125050000Y-146392500I-50000J0D01*
G01*
X124950000Y-146392500D01*
G75*
G02*
X124900000Y-146342500I0J50000D01*
G01*
G37*
G36*
G01*
X125400000Y-146342500D02*
X125400000Y-145782500D01*
G75*
G02*
X125450000Y-145732500I50000J0D01*
G01*
X125550000Y-145732500D01*
G75*
G02*
X125600000Y-145782500I0J-50000D01*
G01*
X125600000Y-146342500D01*
G75*
G02*
X125550000Y-146392500I-50000J0D01*
G01*
X125450000Y-146392500D01*
G75*
G02*
X125400000Y-146342500I0J50000D01*
G01*
G37*
G36*
G01*
X125900000Y-146342500D02*
X125900000Y-145782500D01*
G75*
G02*
X125950000Y-145732500I50000J0D01*
G01*
X126050000Y-145732500D01*
G75*
G02*
X126100000Y-145782500I0J-50000D01*
G01*
X126100000Y-146342500D01*
G75*
G02*
X126050000Y-146392500I-50000J0D01*
G01*
X125950000Y-146392500D01*
G75*
G02*
X125900000Y-146342500I0J50000D01*
G01*
G37*
G36*
G01*
X126607500Y-147050000D02*
X126607500Y-146950000D01*
G75*
G02*
X126657500Y-146900000I50000J0D01*
G01*
X127217500Y-146900000D01*
G75*
G02*
X127267500Y-146950000I0J-50000D01*
G01*
X127267500Y-147050000D01*
G75*
G02*
X127217500Y-147100000I-50000J0D01*
G01*
X126657500Y-147100000D01*
G75*
G02*
X126607500Y-147050000I0J50000D01*
G01*
G37*
G36*
G01*
X126607500Y-147550000D02*
X126607500Y-147450000D01*
G75*
G02*
X126657500Y-147400000I50000J0D01*
G01*
X127217500Y-147400000D01*
G75*
G02*
X127267500Y-147450000I0J-50000D01*
G01*
X127267500Y-147550000D01*
G75*
G02*
X127217500Y-147600000I-50000J0D01*
G01*
X126657500Y-147600000D01*
G75*
G02*
X126607500Y-147550000I0J50000D01*
G01*
G37*
G36*
G01*
X126607500Y-148050000D02*
X126607500Y-147950000D01*
G75*
G02*
X126657500Y-147900000I50000J0D01*
G01*
X127217500Y-147900000D01*
G75*
G02*
X127267500Y-147950000I0J-50000D01*
G01*
X127267500Y-148050000D01*
G75*
G02*
X127217500Y-148100000I-50000J0D01*
G01*
X126657500Y-148100000D01*
G75*
G02*
X126607500Y-148050000I0J50000D01*
G01*
G37*
G36*
G01*
X126607500Y-148550000D02*
X126607500Y-148450000D01*
G75*
G02*
X126657500Y-148400000I50000J0D01*
G01*
X127217500Y-148400000D01*
G75*
G02*
X127267500Y-148450000I0J-50000D01*
G01*
X127267500Y-148550000D01*
G75*
G02*
X127217500Y-148600000I-50000J0D01*
G01*
X126657500Y-148600000D01*
G75*
G02*
X126607500Y-148550000I0J50000D01*
G01*
G37*
G36*
G01*
X126607500Y-149050000D02*
X126607500Y-148950000D01*
G75*
G02*
X126657500Y-148900000I50000J0D01*
G01*
X127217500Y-148900000D01*
G75*
G02*
X127267500Y-148950000I0J-50000D01*
G01*
X127267500Y-149050000D01*
G75*
G02*
X127217500Y-149100000I-50000J0D01*
G01*
X126657500Y-149100000D01*
G75*
G02*
X126607500Y-149050000I0J50000D01*
G01*
G37*
G36*
G01*
X126607500Y-149550000D02*
X126607500Y-149450000D01*
G75*
G02*
X126657500Y-149400000I50000J0D01*
G01*
X127217500Y-149400000D01*
G75*
G02*
X127267500Y-149450000I0J-50000D01*
G01*
X127267500Y-149550000D01*
G75*
G02*
X127217500Y-149600000I-50000J0D01*
G01*
X126657500Y-149600000D01*
G75*
G02*
X126607500Y-149550000I0J50000D01*
G01*
G37*
G36*
G01*
X126607500Y-150050000D02*
X126607500Y-149950000D01*
G75*
G02*
X126657500Y-149900000I50000J0D01*
G01*
X127217500Y-149900000D01*
G75*
G02*
X127267500Y-149950000I0J-50000D01*
G01*
X127267500Y-150050000D01*
G75*
G02*
X127217500Y-150100000I-50000J0D01*
G01*
X126657500Y-150100000D01*
G75*
G02*
X126607500Y-150050000I0J50000D01*
G01*
G37*
G36*
G01*
X126607500Y-150550000D02*
X126607500Y-150450000D01*
G75*
G02*
X126657500Y-150400000I50000J0D01*
G01*
X127217500Y-150400000D01*
G75*
G02*
X127267500Y-150450000I0J-50000D01*
G01*
X127267500Y-150550000D01*
G75*
G02*
X127217500Y-150600000I-50000J0D01*
G01*
X126657500Y-150600000D01*
G75*
G02*
X126607500Y-150550000I0J50000D01*
G01*
G37*
G36*
G01*
X126607500Y-151050000D02*
X126607500Y-150950000D01*
G75*
G02*
X126657500Y-150900000I50000J0D01*
G01*
X127217500Y-150900000D01*
G75*
G02*
X127267500Y-150950000I0J-50000D01*
G01*
X127267500Y-151050000D01*
G75*
G02*
X127217500Y-151100000I-50000J0D01*
G01*
X126657500Y-151100000D01*
G75*
G02*
X126607500Y-151050000I0J50000D01*
G01*
G37*
G36*
G01*
X125900000Y-152217500D02*
X125900000Y-151657500D01*
G75*
G02*
X125950000Y-151607500I50000J0D01*
G01*
X126050000Y-151607500D01*
G75*
G02*
X126100000Y-151657500I0J-50000D01*
G01*
X126100000Y-152217500D01*
G75*
G02*
X126050000Y-152267500I-50000J0D01*
G01*
X125950000Y-152267500D01*
G75*
G02*
X125900000Y-152217500I0J50000D01*
G01*
G37*
G36*
G01*
X125400000Y-152217500D02*
X125400000Y-151657500D01*
G75*
G02*
X125450000Y-151607500I50000J0D01*
G01*
X125550000Y-151607500D01*
G75*
G02*
X125600000Y-151657500I0J-50000D01*
G01*
X125600000Y-152217500D01*
G75*
G02*
X125550000Y-152267500I-50000J0D01*
G01*
X125450000Y-152267500D01*
G75*
G02*
X125400000Y-152217500I0J50000D01*
G01*
G37*
G36*
G01*
X124900000Y-152217500D02*
X124900000Y-151657500D01*
G75*
G02*
X124950000Y-151607500I50000J0D01*
G01*
X125050000Y-151607500D01*
G75*
G02*
X125100000Y-151657500I0J-50000D01*
G01*
X125100000Y-152217500D01*
G75*
G02*
X125050000Y-152267500I-50000J0D01*
G01*
X124950000Y-152267500D01*
G75*
G02*
X124900000Y-152217500I0J50000D01*
G01*
G37*
G36*
G01*
X124400000Y-152217500D02*
X124400000Y-151657500D01*
G75*
G02*
X124450000Y-151607500I50000J0D01*
G01*
X124550000Y-151607500D01*
G75*
G02*
X124600000Y-151657500I0J-50000D01*
G01*
X124600000Y-152217500D01*
G75*
G02*
X124550000Y-152267500I-50000J0D01*
G01*
X124450000Y-152267500D01*
G75*
G02*
X124400000Y-152217500I0J50000D01*
G01*
G37*
G36*
G01*
X123900000Y-152217500D02*
X123900000Y-151657500D01*
G75*
G02*
X123950000Y-151607500I50000J0D01*
G01*
X124050000Y-151607500D01*
G75*
G02*
X124100000Y-151657500I0J-50000D01*
G01*
X124100000Y-152217500D01*
G75*
G02*
X124050000Y-152267500I-50000J0D01*
G01*
X123950000Y-152267500D01*
G75*
G02*
X123900000Y-152217500I0J50000D01*
G01*
G37*
G36*
G01*
X123400000Y-152217500D02*
X123400000Y-151657500D01*
G75*
G02*
X123450000Y-151607500I50000J0D01*
G01*
X123550000Y-151607500D01*
G75*
G02*
X123600000Y-151657500I0J-50000D01*
G01*
X123600000Y-152217500D01*
G75*
G02*
X123550000Y-152267500I-50000J0D01*
G01*
X123450000Y-152267500D01*
G75*
G02*
X123400000Y-152217500I0J50000D01*
G01*
G37*
G36*
G01*
X122900000Y-152217500D02*
X122900000Y-151657500D01*
G75*
G02*
X122950000Y-151607500I50000J0D01*
G01*
X123050000Y-151607500D01*
G75*
G02*
X123100000Y-151657500I0J-50000D01*
G01*
X123100000Y-152217500D01*
G75*
G02*
X123050000Y-152267500I-50000J0D01*
G01*
X122950000Y-152267500D01*
G75*
G02*
X122900000Y-152217500I0J50000D01*
G01*
G37*
G36*
G01*
X122400000Y-152217500D02*
X122400000Y-151657500D01*
G75*
G02*
X122450000Y-151607500I50000J0D01*
G01*
X122550000Y-151607500D01*
G75*
G02*
X122600000Y-151657500I0J-50000D01*
G01*
X122600000Y-152217500D01*
G75*
G02*
X122550000Y-152267500I-50000J0D01*
G01*
X122450000Y-152267500D01*
G75*
G02*
X122400000Y-152217500I0J50000D01*
G01*
G37*
G36*
G01*
X121900000Y-152217500D02*
X121900000Y-151657500D01*
G75*
G02*
X121950000Y-151607500I50000J0D01*
G01*
X122050000Y-151607500D01*
G75*
G02*
X122100000Y-151657500I0J-50000D01*
G01*
X122100000Y-152217500D01*
G75*
G02*
X122050000Y-152267500I-50000J0D01*
G01*
X121950000Y-152267500D01*
G75*
G02*
X121900000Y-152217500I0J50000D01*
G01*
G37*
G36*
G01*
X120732500Y-151050000D02*
X120732500Y-150950000D01*
G75*
G02*
X120782500Y-150900000I50000J0D01*
G01*
X121342500Y-150900000D01*
G75*
G02*
X121392500Y-150950000I0J-50000D01*
G01*
X121392500Y-151050000D01*
G75*
G02*
X121342500Y-151100000I-50000J0D01*
G01*
X120782500Y-151100000D01*
G75*
G02*
X120732500Y-151050000I0J50000D01*
G01*
G37*
G36*
G01*
X120732500Y-150550000D02*
X120732500Y-150450000D01*
G75*
G02*
X120782500Y-150400000I50000J0D01*
G01*
X121342500Y-150400000D01*
G75*
G02*
X121392500Y-150450000I0J-50000D01*
G01*
X121392500Y-150550000D01*
G75*
G02*
X121342500Y-150600000I-50000J0D01*
G01*
X120782500Y-150600000D01*
G75*
G02*
X120732500Y-150550000I0J50000D01*
G01*
G37*
G36*
G01*
X120732500Y-150050000D02*
X120732500Y-149950000D01*
G75*
G02*
X120782500Y-149900000I50000J0D01*
G01*
X121342500Y-149900000D01*
G75*
G02*
X121392500Y-149950000I0J-50000D01*
G01*
X121392500Y-150050000D01*
G75*
G02*
X121342500Y-150100000I-50000J0D01*
G01*
X120782500Y-150100000D01*
G75*
G02*
X120732500Y-150050000I0J50000D01*
G01*
G37*
G36*
G01*
X120732500Y-149550000D02*
X120732500Y-149450000D01*
G75*
G02*
X120782500Y-149400000I50000J0D01*
G01*
X121342500Y-149400000D01*
G75*
G02*
X121392500Y-149450000I0J-50000D01*
G01*
X121392500Y-149550000D01*
G75*
G02*
X121342500Y-149600000I-50000J0D01*
G01*
X120782500Y-149600000D01*
G75*
G02*
X120732500Y-149550000I0J50000D01*
G01*
G37*
G36*
G01*
X120732500Y-149050000D02*
X120732500Y-148950000D01*
G75*
G02*
X120782500Y-148900000I50000J0D01*
G01*
X121342500Y-148900000D01*
G75*
G02*
X121392500Y-148950000I0J-50000D01*
G01*
X121392500Y-149050000D01*
G75*
G02*
X121342500Y-149100000I-50000J0D01*
G01*
X120782500Y-149100000D01*
G75*
G02*
X120732500Y-149050000I0J50000D01*
G01*
G37*
G36*
G01*
X120732500Y-148550000D02*
X120732500Y-148450000D01*
G75*
G02*
X120782500Y-148400000I50000J0D01*
G01*
X121342500Y-148400000D01*
G75*
G02*
X121392500Y-148450000I0J-50000D01*
G01*
X121392500Y-148550000D01*
G75*
G02*
X121342500Y-148600000I-50000J0D01*
G01*
X120782500Y-148600000D01*
G75*
G02*
X120732500Y-148550000I0J50000D01*
G01*
G37*
G36*
G01*
X120732500Y-148050000D02*
X120732500Y-147950000D01*
G75*
G02*
X120782500Y-147900000I50000J0D01*
G01*
X121342500Y-147900000D01*
G75*
G02*
X121392500Y-147950000I0J-50000D01*
G01*
X121392500Y-148050000D01*
G75*
G02*
X121342500Y-148100000I-50000J0D01*
G01*
X120782500Y-148100000D01*
G75*
G02*
X120732500Y-148050000I0J50000D01*
G01*
G37*
G36*
G01*
X120732500Y-147550000D02*
X120732500Y-147450000D01*
G75*
G02*
X120782500Y-147400000I50000J0D01*
G01*
X121342500Y-147400000D01*
G75*
G02*
X121392500Y-147450000I0J-50000D01*
G01*
X121392500Y-147550000D01*
G75*
G02*
X121342500Y-147600000I-50000J0D01*
G01*
X120782500Y-147600000D01*
G75*
G02*
X120732500Y-147550000I0J50000D01*
G01*
G37*
G36*
G01*
X120732500Y-147050000D02*
X120732500Y-146950000D01*
G75*
G02*
X120782500Y-146900000I50000J0D01*
G01*
X121342500Y-146900000D01*
G75*
G02*
X121392500Y-146950000I0J-50000D01*
G01*
X121392500Y-147050000D01*
G75*
G02*
X121342500Y-147100000I-50000J0D01*
G01*
X120782500Y-147100000D01*
G75*
G02*
X120732500Y-147050000I0J50000D01*
G01*
G37*
G04 #@! TD*
G04 #@! TO.C,R11*
G36*
G01*
X130220000Y-148995000D02*
X129780000Y-148995000D01*
G75*
G02*
X129620000Y-148835000I0J160000D01*
G01*
X129620000Y-148515000D01*
G75*
G02*
X129780000Y-148355000I160000J0D01*
G01*
X130220000Y-148355000D01*
G75*
G02*
X130380000Y-148515000I0J-160000D01*
G01*
X130380000Y-148835000D01*
G75*
G02*
X130220000Y-148995000I-160000J0D01*
G01*
G37*
G36*
G01*
X130220000Y-150645000D02*
X129780000Y-150645000D01*
G75*
G02*
X129620000Y-150485000I0J160000D01*
G01*
X129620000Y-150165000D01*
G75*
G02*
X129780000Y-150005000I160000J0D01*
G01*
X130220000Y-150005000D01*
G75*
G02*
X130380000Y-150165000I0J-160000D01*
G01*
X130380000Y-150485000D01*
G75*
G02*
X130220000Y-150645000I-160000J0D01*
G01*
G37*
G04 #@! TD*
G04 #@! TO.C,R9*
G36*
G01*
X133470000Y-140495000D02*
X133030000Y-140495000D01*
G75*
G02*
X132870000Y-140335000I0J160000D01*
G01*
X132870000Y-140015000D01*
G75*
G02*
X133030000Y-139855000I160000J0D01*
G01*
X133470000Y-139855000D01*
G75*
G02*
X133630000Y-140015000I0J-160000D01*
G01*
X133630000Y-140335000D01*
G75*
G02*
X133470000Y-140495000I-160000J0D01*
G01*
G37*
G36*
G01*
X133470000Y-142145000D02*
X133030000Y-142145000D01*
G75*
G02*
X132870000Y-141985000I0J160000D01*
G01*
X132870000Y-141665000D01*
G75*
G02*
X133030000Y-141505000I160000J0D01*
G01*
X133470000Y-141505000D01*
G75*
G02*
X133630000Y-141665000I0J-160000D01*
G01*
X133630000Y-141985000D01*
G75*
G02*
X133470000Y-142145000I-160000J0D01*
G01*
G37*
G04 #@! TD*
G04 #@! TO.C,R15*
G36*
G01*
X63780000Y-126505000D02*
X64220000Y-126505000D01*
G75*
G02*
X64380000Y-126665000I0J-160000D01*
G01*
X64380000Y-126985000D01*
G75*
G02*
X64220000Y-127145000I-160000J0D01*
G01*
X63780000Y-127145000D01*
G75*
G02*
X63620000Y-126985000I0J160000D01*
G01*
X63620000Y-126665000D01*
G75*
G02*
X63780000Y-126505000I160000J0D01*
G01*
G37*
G36*
G01*
X63780000Y-124855000D02*
X64220000Y-124855000D01*
G75*
G02*
X64380000Y-125015000I0J-160000D01*
G01*
X64380000Y-125335000D01*
G75*
G02*
X64220000Y-125495000I-160000J0D01*
G01*
X63780000Y-125495000D01*
G75*
G02*
X63620000Y-125335000I0J160000D01*
G01*
X63620000Y-125015000D01*
G75*
G02*
X63780000Y-124855000I160000J0D01*
G01*
G37*
G04 #@! TD*
G04 #@! TO.C,R10*
G36*
G01*
X130220000Y-145995000D02*
X129780000Y-145995000D01*
G75*
G02*
X129620000Y-145835000I0J160000D01*
G01*
X129620000Y-145515000D01*
G75*
G02*
X129780000Y-145355000I160000J0D01*
G01*
X130220000Y-145355000D01*
G75*
G02*
X130380000Y-145515000I0J-160000D01*
G01*
X130380000Y-145835000D01*
G75*
G02*
X130220000Y-145995000I-160000J0D01*
G01*
G37*
G36*
G01*
X130220000Y-147645000D02*
X129780000Y-147645000D01*
G75*
G02*
X129620000Y-147485000I0J160000D01*
G01*
X129620000Y-147165000D01*
G75*
G02*
X129780000Y-147005000I160000J0D01*
G01*
X130220000Y-147005000D01*
G75*
G02*
X130380000Y-147165000I0J-160000D01*
G01*
X130380000Y-147485000D01*
G75*
G02*
X130220000Y-147645000I-160000J0D01*
G01*
G37*
G04 #@! TD*
D11*
G04 #@! TO.C,Y1*
X122900000Y-141800000D03*
X125100000Y-141800000D03*
X125100000Y-140200000D03*
X122900000Y-140200000D03*
G04 #@! TD*
G04 #@! TO.C,R5*
G36*
G01*
X118220000Y-140495000D02*
X117780000Y-140495000D01*
G75*
G02*
X117620000Y-140335000I0J160000D01*
G01*
X117620000Y-140015000D01*
G75*
G02*
X117780000Y-139855000I160000J0D01*
G01*
X118220000Y-139855000D01*
G75*
G02*
X118380000Y-140015000I0J-160000D01*
G01*
X118380000Y-140335000D01*
G75*
G02*
X118220000Y-140495000I-160000J0D01*
G01*
G37*
G36*
G01*
X118220000Y-142145000D02*
X117780000Y-142145000D01*
G75*
G02*
X117620000Y-141985000I0J160000D01*
G01*
X117620000Y-141665000D01*
G75*
G02*
X117780000Y-141505000I160000J0D01*
G01*
X118220000Y-141505000D01*
G75*
G02*
X118380000Y-141665000I0J-160000D01*
G01*
X118380000Y-141985000D01*
G75*
G02*
X118220000Y-142145000I-160000J0D01*
G01*
G37*
G04 #@! TD*
G04 #@! TO.C,R2*
G36*
G01*
X99980000Y-126505000D02*
X100420000Y-126505000D01*
G75*
G02*
X100580000Y-126665000I0J-160000D01*
G01*
X100580000Y-126985000D01*
G75*
G02*
X100420000Y-127145000I-160000J0D01*
G01*
X99980000Y-127145000D01*
G75*
G02*
X99820000Y-126985000I0J160000D01*
G01*
X99820000Y-126665000D01*
G75*
G02*
X99980000Y-126505000I160000J0D01*
G01*
G37*
G36*
G01*
X99980000Y-124855000D02*
X100420000Y-124855000D01*
G75*
G02*
X100580000Y-125015000I0J-160000D01*
G01*
X100580000Y-125335000D01*
G75*
G02*
X100420000Y-125495000I-160000J0D01*
G01*
X99980000Y-125495000D01*
G75*
G02*
X99820000Y-125335000I0J160000D01*
G01*
X99820000Y-125015000D01*
G75*
G02*
X99980000Y-124855000I160000J0D01*
G01*
G37*
G04 #@! TD*
G04 #@! TO.C,R4*
G36*
G01*
X98380000Y-126505000D02*
X98820000Y-126505000D01*
G75*
G02*
X98980000Y-126665000I0J-160000D01*
G01*
X98980000Y-126985000D01*
G75*
G02*
X98820000Y-127145000I-160000J0D01*
G01*
X98380000Y-127145000D01*
G75*
G02*
X98220000Y-126985000I0J160000D01*
G01*
X98220000Y-126665000D01*
G75*
G02*
X98380000Y-126505000I160000J0D01*
G01*
G37*
G36*
G01*
X98380000Y-124855000D02*
X98820000Y-124855000D01*
G75*
G02*
X98980000Y-125015000I0J-160000D01*
G01*
X98980000Y-125335000D01*
G75*
G02*
X98820000Y-125495000I-160000J0D01*
G01*
X98380000Y-125495000D01*
G75*
G02*
X98220000Y-125335000I0J160000D01*
G01*
X98220000Y-125015000D01*
G75*
G02*
X98380000Y-124855000I160000J0D01*
G01*
G37*
G04 #@! TD*
G04 #@! TO.C,R14*
G36*
G01*
X50780000Y-126505000D02*
X51220000Y-126505000D01*
G75*
G02*
X51380000Y-126665000I0J-160000D01*
G01*
X51380000Y-126985000D01*
G75*
G02*
X51220000Y-127145000I-160000J0D01*
G01*
X50780000Y-127145000D01*
G75*
G02*
X50620000Y-126985000I0J160000D01*
G01*
X50620000Y-126665000D01*
G75*
G02*
X50780000Y-126505000I160000J0D01*
G01*
G37*
G36*
G01*
X50780000Y-124855000D02*
X51220000Y-124855000D01*
G75*
G02*
X51380000Y-125015000I0J-160000D01*
G01*
X51380000Y-125335000D01*
G75*
G02*
X51220000Y-125495000I-160000J0D01*
G01*
X50780000Y-125495000D01*
G75*
G02*
X50620000Y-125335000I0J160000D01*
G01*
X50620000Y-125015000D01*
G75*
G02*
X50780000Y-124855000I160000J0D01*
G01*
G37*
G04 #@! TD*
G04 #@! TO.C,R1*
G36*
G01*
X82980000Y-126505000D02*
X83420000Y-126505000D01*
G75*
G02*
X83580000Y-126665000I0J-160000D01*
G01*
X83580000Y-126985000D01*
G75*
G02*
X83420000Y-127145000I-160000J0D01*
G01*
X82980000Y-127145000D01*
G75*
G02*
X82820000Y-126985000I0J160000D01*
G01*
X82820000Y-126665000D01*
G75*
G02*
X82980000Y-126505000I160000J0D01*
G01*
G37*
G36*
G01*
X82980000Y-124855000D02*
X83420000Y-124855000D01*
G75*
G02*
X83580000Y-125015000I0J-160000D01*
G01*
X83580000Y-125335000D01*
G75*
G02*
X83420000Y-125495000I-160000J0D01*
G01*
X82980000Y-125495000D01*
G75*
G02*
X82820000Y-125335000I0J160000D01*
G01*
X82820000Y-125015000D01*
G75*
G02*
X82980000Y-124855000I160000J0D01*
G01*
G37*
G04 #@! TD*
G04 #@! TO.C,R12*
G36*
G01*
X130470000Y-140495000D02*
X130030000Y-140495000D01*
G75*
G02*
X129870000Y-140335000I0J160000D01*
G01*
X129870000Y-140015000D01*
G75*
G02*
X130030000Y-139855000I160000J0D01*
G01*
X130470000Y-139855000D01*
G75*
G02*
X130630000Y-140015000I0J-160000D01*
G01*
X130630000Y-140335000D01*
G75*
G02*
X130470000Y-140495000I-160000J0D01*
G01*
G37*
G36*
G01*
X130470000Y-142145000D02*
X130030000Y-142145000D01*
G75*
G02*
X129870000Y-141985000I0J160000D01*
G01*
X129870000Y-141665000D01*
G75*
G02*
X130030000Y-141505000I160000J0D01*
G01*
X130470000Y-141505000D01*
G75*
G02*
X130630000Y-141665000I0J-160000D01*
G01*
X130630000Y-141985000D01*
G75*
G02*
X130470000Y-142145000I-160000J0D01*
G01*
G37*
G04 #@! TD*
G04 #@! TO.C,R13*
G36*
G01*
X131280000Y-150005000D02*
X131720000Y-150005000D01*
G75*
G02*
X131880000Y-150165000I0J-160000D01*
G01*
X131880000Y-150485000D01*
G75*
G02*
X131720000Y-150645000I-160000J0D01*
G01*
X131280000Y-150645000D01*
G75*
G02*
X131120000Y-150485000I0J160000D01*
G01*
X131120000Y-150165000D01*
G75*
G02*
X131280000Y-150005000I160000J0D01*
G01*
G37*
G36*
G01*
X131280000Y-148355000D02*
X131720000Y-148355000D01*
G75*
G02*
X131880000Y-148515000I0J-160000D01*
G01*
X131880000Y-148835000D01*
G75*
G02*
X131720000Y-148995000I-160000J0D01*
G01*
X131280000Y-148995000D01*
G75*
G02*
X131120000Y-148835000I0J160000D01*
G01*
X131120000Y-148515000D01*
G75*
G02*
X131280000Y-148355000I160000J0D01*
G01*
G37*
G04 #@! TD*
G04 #@! TO.C,R6*
G36*
G01*
X48980000Y-126505000D02*
X49420000Y-126505000D01*
G75*
G02*
X49580000Y-126665000I0J-160000D01*
G01*
X49580000Y-126985000D01*
G75*
G02*
X49420000Y-127145000I-160000J0D01*
G01*
X48980000Y-127145000D01*
G75*
G02*
X48820000Y-126985000I0J160000D01*
G01*
X48820000Y-126665000D01*
G75*
G02*
X48980000Y-126505000I160000J0D01*
G01*
G37*
G36*
G01*
X48980000Y-124855000D02*
X49420000Y-124855000D01*
G75*
G02*
X49580000Y-125015000I0J-160000D01*
G01*
X49580000Y-125335000D01*
G75*
G02*
X49420000Y-125495000I-160000J0D01*
G01*
X48980000Y-125495000D01*
G75*
G02*
X48820000Y-125335000I0J160000D01*
G01*
X48820000Y-125015000D01*
G75*
G02*
X48980000Y-124855000I160000J0D01*
G01*
G37*
G04 #@! TD*
G04 #@! TO.C,C1*
G36*
G01*
X119300000Y-141415000D02*
X119700000Y-141415000D01*
G75*
G02*
X119880000Y-141595000I0J-180000D01*
G01*
X119880000Y-141955000D01*
G75*
G02*
X119700000Y-142135000I-180000J0D01*
G01*
X119300000Y-142135000D01*
G75*
G02*
X119120000Y-141955000I0J180000D01*
G01*
X119120000Y-141595000D01*
G75*
G02*
X119300000Y-141415000I180000J0D01*
G01*
G37*
G36*
G01*
X119300000Y-139865000D02*
X119700000Y-139865000D01*
G75*
G02*
X119880000Y-140045000I0J-180000D01*
G01*
X119880000Y-140405000D01*
G75*
G02*
X119700000Y-140585000I-180000J0D01*
G01*
X119300000Y-140585000D01*
G75*
G02*
X119120000Y-140405000I0J180000D01*
G01*
X119120000Y-140045000D01*
G75*
G02*
X119300000Y-139865000I180000J0D01*
G01*
G37*
G04 #@! TD*
G04 #@! TO.C,R8*
G36*
G01*
X131970000Y-140495000D02*
X131530000Y-140495000D01*
G75*
G02*
X131370000Y-140335000I0J160000D01*
G01*
X131370000Y-140015000D01*
G75*
G02*
X131530000Y-139855000I160000J0D01*
G01*
X131970000Y-139855000D01*
G75*
G02*
X132130000Y-140015000I0J-160000D01*
G01*
X132130000Y-140335000D01*
G75*
G02*
X131970000Y-140495000I-160000J0D01*
G01*
G37*
G36*
G01*
X131970000Y-142145000D02*
X131530000Y-142145000D01*
G75*
G02*
X131370000Y-141985000I0J160000D01*
G01*
X131370000Y-141665000D01*
G75*
G02*
X131530000Y-141505000I160000J0D01*
G01*
X131970000Y-141505000D01*
G75*
G02*
X132130000Y-141665000I0J-160000D01*
G01*
X132130000Y-141985000D01*
G75*
G02*
X131970000Y-142145000I-160000J0D01*
G01*
G37*
G04 #@! TD*
G04 #@! TO.C,R7*
G36*
G01*
X65780000Y-126505000D02*
X66220000Y-126505000D01*
G75*
G02*
X66380000Y-126665000I0J-160000D01*
G01*
X66380000Y-126985000D01*
G75*
G02*
X66220000Y-127145000I-160000J0D01*
G01*
X65780000Y-127145000D01*
G75*
G02*
X65620000Y-126985000I0J160000D01*
G01*
X65620000Y-126665000D01*
G75*
G02*
X65780000Y-126505000I160000J0D01*
G01*
G37*
G36*
G01*
X65780000Y-124855000D02*
X66220000Y-124855000D01*
G75*
G02*
X66380000Y-125015000I0J-160000D01*
G01*
X66380000Y-125335000D01*
G75*
G02*
X66220000Y-125495000I-160000J0D01*
G01*
X65780000Y-125495000D01*
G75*
G02*
X65620000Y-125335000I0J160000D01*
G01*
X65620000Y-125015000D01*
G75*
G02*
X65780000Y-124855000I160000J0D01*
G01*
G37*
G04 #@! TD*
G04 #@! TO.C,C2*
G36*
G01*
X124085000Y-154300000D02*
X124085000Y-154700000D01*
G75*
G02*
X123905000Y-154880000I-180000J0D01*
G01*
X123545000Y-154880000D01*
G75*
G02*
X123365000Y-154700000I0J180000D01*
G01*
X123365000Y-154300000D01*
G75*
G02*
X123545000Y-154120000I180000J0D01*
G01*
X123905000Y-154120000D01*
G75*
G02*
X124085000Y-154300000I0J-180000D01*
G01*
G37*
G36*
G01*
X125635000Y-154300000D02*
X125635000Y-154700000D01*
G75*
G02*
X125455000Y-154880000I-180000J0D01*
G01*
X125095000Y-154880000D01*
G75*
G02*
X124915000Y-154700000I0J180000D01*
G01*
X124915000Y-154300000D01*
G75*
G02*
X125095000Y-154120000I180000J0D01*
G01*
X125455000Y-154120000D01*
G75*
G02*
X125635000Y-154300000I0J-180000D01*
G01*
G37*
G04 #@! TD*
G04 #@! TO.C,R3*
G36*
G01*
X84780000Y-126505000D02*
X85220000Y-126505000D01*
G75*
G02*
X85380000Y-126665000I0J-160000D01*
G01*
X85380000Y-126985000D01*
G75*
G02*
X85220000Y-127145000I-160000J0D01*
G01*
X84780000Y-127145000D01*
G75*
G02*
X84620000Y-126985000I0J160000D01*
G01*
X84620000Y-126665000D01*
G75*
G02*
X84780000Y-126505000I160000J0D01*
G01*
G37*
G36*
G01*
X84780000Y-124855000D02*
X85220000Y-124855000D01*
G75*
G02*
X85380000Y-125015000I0J-160000D01*
G01*
X85380000Y-125335000D01*
G75*
G02*
X85220000Y-125495000I-160000J0D01*
G01*
X84780000Y-125495000D01*
G75*
G02*
X84620000Y-125335000I0J160000D01*
G01*
X84620000Y-125015000D01*
G75*
G02*
X84780000Y-124855000I160000J0D01*
G01*
G37*
G04 #@! TD*
G04 #@! TO.C,D1*
G36*
G01*
X140795000Y-74437500D02*
X141205000Y-74437500D01*
G75*
G02*
X141380000Y-74612500I0J-175000D01*
G01*
X141380000Y-74962500D01*
G75*
G02*
X141205000Y-75137500I-175000J0D01*
G01*
X140795000Y-75137500D01*
G75*
G02*
X140620000Y-74962500I0J175000D01*
G01*
X140620000Y-74612500D01*
G75*
G02*
X140795000Y-74437500I175000J0D01*
G01*
G37*
G36*
G01*
X140795000Y-72862500D02*
X141205000Y-72862500D01*
G75*
G02*
X141380000Y-73037500I0J-175000D01*
G01*
X141380000Y-73387500D01*
G75*
G02*
X141205000Y-73562500I-175000J0D01*
G01*
X140795000Y-73562500D01*
G75*
G02*
X140620000Y-73387500I0J175000D01*
G01*
X140620000Y-73037500D01*
G75*
G02*
X140795000Y-72862500I175000J0D01*
G01*
G37*
G04 #@! TD*
G04 #@! TO.C,R16*
G36*
G01*
X138780000Y-74505000D02*
X139220000Y-74505000D01*
G75*
G02*
X139380000Y-74665000I0J-160000D01*
G01*
X139380000Y-74985000D01*
G75*
G02*
X139220000Y-75145000I-160000J0D01*
G01*
X138780000Y-75145000D01*
G75*
G02*
X138620000Y-74985000I0J160000D01*
G01*
X138620000Y-74665000D01*
G75*
G02*
X138780000Y-74505000I160000J0D01*
G01*
G37*
G36*
G01*
X138780000Y-72855000D02*
X139220000Y-72855000D01*
G75*
G02*
X139380000Y-73015000I0J-160000D01*
G01*
X139380000Y-73335000D01*
G75*
G02*
X139220000Y-73495000I-160000J0D01*
G01*
X138780000Y-73495000D01*
G75*
G02*
X138620000Y-73335000I0J160000D01*
G01*
X138620000Y-73015000D01*
G75*
G02*
X138780000Y-72855000I160000J0D01*
G01*
G37*
G04 #@! TD*
G04 #@! TO.C,D2*
G36*
G01*
X141205000Y-62562500D02*
X140795000Y-62562500D01*
G75*
G02*
X140620000Y-62387500I0J175000D01*
G01*
X140620000Y-62037500D01*
G75*
G02*
X140795000Y-61862500I175000J0D01*
G01*
X141205000Y-61862500D01*
G75*
G02*
X141380000Y-62037500I0J-175000D01*
G01*
X141380000Y-62387500D01*
G75*
G02*
X141205000Y-62562500I-175000J0D01*
G01*
G37*
G36*
G01*
X141205000Y-64137500D02*
X140795000Y-64137500D01*
G75*
G02*
X140620000Y-63962500I0J175000D01*
G01*
X140620000Y-63612500D01*
G75*
G02*
X140795000Y-63437500I175000J0D01*
G01*
X141205000Y-63437500D01*
G75*
G02*
X141380000Y-63612500I0J-175000D01*
G01*
X141380000Y-63962500D01*
G75*
G02*
X141205000Y-64137500I-175000J0D01*
G01*
G37*
G04 #@! TD*
G04 #@! TO.C,D3*
G36*
G01*
X165795000Y-74437500D02*
X166205000Y-74437500D01*
G75*
G02*
X166380000Y-74612500I0J-175000D01*
G01*
X166380000Y-74962500D01*
G75*
G02*
X166205000Y-75137500I-175000J0D01*
G01*
X165795000Y-75137500D01*
G75*
G02*
X165620000Y-74962500I0J175000D01*
G01*
X165620000Y-74612500D01*
G75*
G02*
X165795000Y-74437500I175000J0D01*
G01*
G37*
G36*
G01*
X165795000Y-72862500D02*
X166205000Y-72862500D01*
G75*
G02*
X166380000Y-73037500I0J-175000D01*
G01*
X166380000Y-73387500D01*
G75*
G02*
X166205000Y-73562500I-175000J0D01*
G01*
X165795000Y-73562500D01*
G75*
G02*
X165620000Y-73387500I0J175000D01*
G01*
X165620000Y-73037500D01*
G75*
G02*
X165795000Y-72862500I175000J0D01*
G01*
G37*
G04 #@! TD*
G04 #@! TO.C,R17*
G36*
G01*
X139220000Y-62495000D02*
X138780000Y-62495000D01*
G75*
G02*
X138620000Y-62335000I0J160000D01*
G01*
X138620000Y-62015000D01*
G75*
G02*
X138780000Y-61855000I160000J0D01*
G01*
X139220000Y-61855000D01*
G75*
G02*
X139380000Y-62015000I0J-160000D01*
G01*
X139380000Y-62335000D01*
G75*
G02*
X139220000Y-62495000I-160000J0D01*
G01*
G37*
G36*
G01*
X139220000Y-64145000D02*
X138780000Y-64145000D01*
G75*
G02*
X138620000Y-63985000I0J160000D01*
G01*
X138620000Y-63665000D01*
G75*
G02*
X138780000Y-63505000I160000J0D01*
G01*
X139220000Y-63505000D01*
G75*
G02*
X139380000Y-63665000I0J-160000D01*
G01*
X139380000Y-63985000D01*
G75*
G02*
X139220000Y-64145000I-160000J0D01*
G01*
G37*
G04 #@! TD*
G04 #@! TO.C,R18*
G36*
G01*
X167780000Y-74505000D02*
X168220000Y-74505000D01*
G75*
G02*
X168380000Y-74665000I0J-160000D01*
G01*
X168380000Y-74985000D01*
G75*
G02*
X168220000Y-75145000I-160000J0D01*
G01*
X167780000Y-75145000D01*
G75*
G02*
X167620000Y-74985000I0J160000D01*
G01*
X167620000Y-74665000D01*
G75*
G02*
X167780000Y-74505000I160000J0D01*
G01*
G37*
G36*
G01*
X167780000Y-72855000D02*
X168220000Y-72855000D01*
G75*
G02*
X168380000Y-73015000I0J-160000D01*
G01*
X168380000Y-73335000D01*
G75*
G02*
X168220000Y-73495000I-160000J0D01*
G01*
X167780000Y-73495000D01*
G75*
G02*
X167620000Y-73335000I0J160000D01*
G01*
X167620000Y-73015000D01*
G75*
G02*
X167780000Y-72855000I160000J0D01*
G01*
G37*
G04 #@! TD*
G04 #@! TO.C,C5*
G36*
G01*
X119200000Y-144835000D02*
X118800000Y-144835000D01*
G75*
G02*
X118620000Y-144655000I0J180000D01*
G01*
X118620000Y-144295000D01*
G75*
G02*
X118800000Y-144115000I180000J0D01*
G01*
X119200000Y-144115000D01*
G75*
G02*
X119380000Y-144295000I0J-180000D01*
G01*
X119380000Y-144655000D01*
G75*
G02*
X119200000Y-144835000I-180000J0D01*
G01*
G37*
G36*
G01*
X119200000Y-146385000D02*
X118800000Y-146385000D01*
G75*
G02*
X118620000Y-146205000I0J180000D01*
G01*
X118620000Y-145845000D01*
G75*
G02*
X118800000Y-145665000I180000J0D01*
G01*
X119200000Y-145665000D01*
G75*
G02*
X119380000Y-145845000I0J-180000D01*
G01*
X119380000Y-146205000D01*
G75*
G02*
X119200000Y-146385000I-180000J0D01*
G01*
G37*
G04 #@! TD*
M02*
