G04 #@! TF.GenerationSoftware,KiCad,Pcbnew,5.1.8*
G04 #@! TF.CreationDate,2020-12-18T22:11:15+01:00*
G04 #@! TF.ProjectId,atx,6174782e-6b69-4636-9164-5f7063625858,rev?*
G04 #@! TF.SameCoordinates,Original*
G04 #@! TF.FileFunction,Soldermask,Bot*
G04 #@! TF.FilePolarity,Negative*
%FSLAX46Y46*%
G04 Gerber Fmt 4.6, Leading zero omitted, Abs format (unit mm)*
G04 Created by KiCad (PCBNEW 5.1.8) date 2020-12-18 22:11:15*
%MOMM*%
%LPD*%
G01*
G04 APERTURE LIST*
%ADD10C,1.100000*%
%ADD11O,1.730000X2.030000*%
%ADD12R,1.730000X2.030000*%
%ADD13O,1.700000X1.700000*%
%ADD14R,1.700000X1.700000*%
%ADD15C,2.374900*%
%ADD16C,0.990600*%
%ADD17C,1.428000*%
%ADD18R,1.428000X1.428000*%
%ADD19C,3.316000*%
%ADD20C,5.664200*%
%ADD21C,1.120000*%
%ADD22C,2.350000*%
%ADD23C,3.000000*%
%ADD24O,3.300000X2.700000*%
%ADD25C,0.800000*%
%ADD26C,6.400000*%
%ADD27C,1.524000*%
%ADD28C,3.251200*%
%ADD29C,2.362200*%
%ADD30C,1.714500*%
%ADD31C,1.600200*%
G04 APERTURE END LIST*
D10*
G04 #@! TO.C,M2*
X19080000Y-86340000D03*
D11*
X21620000Y-88500000D03*
X19080000Y-88500000D03*
X16540000Y-88500000D03*
D12*
X14000000Y-88500000D03*
G04 #@! TD*
D10*
G04 #@! TO.C,M1*
X19080000Y-95840000D03*
D11*
X21620000Y-98000000D03*
X19080000Y-98000000D03*
X16540000Y-98000000D03*
D12*
X14000000Y-98000000D03*
G04 #@! TD*
D13*
G04 #@! TO.C,J4*
X24170000Y-131940000D03*
X24170000Y-129400000D03*
X26710000Y-131940000D03*
X26710000Y-129400000D03*
X29250000Y-131940000D03*
D14*
X29250000Y-129400000D03*
G04 #@! TD*
D15*
G04 #@! TO.C,J6*
X12440000Y-142260000D03*
X12440000Y-147340000D03*
X9265000Y-147340000D03*
X9265000Y-142260000D03*
D16*
X7360000Y-145816000D03*
X7360000Y-143784000D03*
X12440000Y-144800000D03*
G04 #@! TD*
D17*
G04 #@! TO.C,J7*
X77000000Y-11500000D03*
D18*
X74500000Y-11500000D03*
D17*
X77000000Y-9500000D03*
X74500000Y-9500000D03*
D19*
X81770000Y-6790000D03*
X69730000Y-6790000D03*
G04 #@! TD*
D17*
G04 #@! TO.C,J5*
X58000000Y-11500000D03*
D18*
X55500000Y-11500000D03*
D17*
X58000000Y-9500000D03*
X55500000Y-9500000D03*
D19*
X62770000Y-6790000D03*
X50730000Y-6790000D03*
G04 #@! TD*
D20*
G04 #@! TO.C,TP4*
X159000000Y-62000000D03*
G04 #@! TD*
G04 #@! TO.C,TP3*
X148000000Y-62000000D03*
G04 #@! TD*
G04 #@! TO.C,TP2*
X159000000Y-75000000D03*
G04 #@! TD*
G04 #@! TO.C,TP1*
X148000000Y-75000000D03*
G04 #@! TD*
D21*
G04 #@! TO.C,W1*
X104750000Y-127000000D03*
X104750000Y-123000000D03*
X104750000Y-121000000D03*
X104750000Y-119000000D03*
X104750000Y-117000000D03*
X106750000Y-118000000D03*
X106750000Y-120000000D03*
X106750000Y-122000000D03*
X106750000Y-136000000D03*
X106750000Y-128000000D03*
X106750000Y-126000000D03*
X109250000Y-126000000D03*
X109250000Y-118000000D03*
X109250000Y-120000000D03*
X109250000Y-122000000D03*
X109250000Y-136000000D03*
X109250000Y-128000000D03*
X111250000Y-127000000D03*
X111250000Y-123000000D03*
X111250000Y-121000000D03*
X111250000Y-119000000D03*
X111250000Y-117000000D03*
X104750000Y-129000000D03*
X104750000Y-131000000D03*
X104750000Y-133000000D03*
X104750000Y-135000000D03*
X106750000Y-134000000D03*
X106750000Y-132000000D03*
X106750000Y-130000000D03*
X109250000Y-130000000D03*
X109250000Y-132000000D03*
X109250000Y-134000000D03*
X111250000Y-129000000D03*
X111250000Y-131000000D03*
X111250000Y-133000000D03*
X111250000Y-135000000D03*
D22*
X108000000Y-124350000D03*
X108000000Y-115200000D03*
G04 #@! TD*
D21*
G04 #@! TO.C,W2*
X87750000Y-127000000D03*
X87750000Y-123000000D03*
X87750000Y-121000000D03*
X87750000Y-119000000D03*
X87750000Y-117000000D03*
X89750000Y-118000000D03*
X89750000Y-120000000D03*
X89750000Y-122000000D03*
X89750000Y-136000000D03*
X89750000Y-128000000D03*
X89750000Y-126000000D03*
X92250000Y-126000000D03*
X92250000Y-118000000D03*
X92250000Y-120000000D03*
X92250000Y-122000000D03*
X92250000Y-136000000D03*
X92250000Y-128000000D03*
X94250000Y-127000000D03*
X94250000Y-123000000D03*
X94250000Y-121000000D03*
X94250000Y-119000000D03*
X94250000Y-117000000D03*
X87750000Y-129000000D03*
X87750000Y-131000000D03*
X87750000Y-133000000D03*
X87750000Y-135000000D03*
X89750000Y-134000000D03*
X89750000Y-132000000D03*
X89750000Y-130000000D03*
X92250000Y-130000000D03*
X92250000Y-132000000D03*
X92250000Y-134000000D03*
X94250000Y-129000000D03*
X94250000Y-131000000D03*
X94250000Y-133000000D03*
X94250000Y-135000000D03*
D22*
X91000000Y-124350000D03*
X91000000Y-115200000D03*
G04 #@! TD*
D13*
G04 #@! TO.C,J1*
X57740000Y-158540000D03*
X57740000Y-156000000D03*
X60280000Y-158540000D03*
X60280000Y-156000000D03*
X62820000Y-158540000D03*
X62820000Y-156000000D03*
X65360000Y-158540000D03*
X65360000Y-156000000D03*
X67900000Y-158540000D03*
X67900000Y-156000000D03*
X70440000Y-158540000D03*
X70440000Y-156000000D03*
X72980000Y-158540000D03*
X72980000Y-156000000D03*
X75520000Y-158540000D03*
X75520000Y-156000000D03*
X78060000Y-158540000D03*
X78060000Y-156000000D03*
X80600000Y-158540000D03*
X80600000Y-156000000D03*
X83140000Y-158540000D03*
X83140000Y-156000000D03*
X85680000Y-158540000D03*
X85680000Y-156000000D03*
X88220000Y-158540000D03*
X88220000Y-156000000D03*
X90760000Y-158540000D03*
X90760000Y-156000000D03*
X93300000Y-158540000D03*
X93300000Y-156000000D03*
X95840000Y-158540000D03*
X95840000Y-156000000D03*
X98380000Y-158540000D03*
X98380000Y-156000000D03*
X100920000Y-158540000D03*
X100920000Y-156000000D03*
X103460000Y-158540000D03*
X103460000Y-156000000D03*
X106000000Y-158540000D03*
D14*
X106000000Y-156000000D03*
G04 #@! TD*
D23*
G04 #@! TO.C,J3*
X163040000Y-98100000D03*
X163040000Y-153700000D03*
D24*
X163500000Y-102800000D03*
X163500000Y-107000000D03*
X163500000Y-111200000D03*
X163500000Y-115400000D03*
X163500000Y-119600000D03*
X163500000Y-123800000D03*
X163500000Y-128000000D03*
X163500000Y-132200000D03*
X163500000Y-136400000D03*
X163500000Y-140600000D03*
X163500000Y-144800000D03*
X163500000Y-149000000D03*
X158000000Y-102800000D03*
X158000000Y-107000000D03*
X158000000Y-111200000D03*
X158000000Y-115400000D03*
X158000000Y-119600000D03*
X158000000Y-123800000D03*
X158000000Y-128000000D03*
X158000000Y-132200000D03*
X158000000Y-136400000D03*
X158000000Y-140600000D03*
X158000000Y-144800000D03*
G36*
G01*
X159399999Y-150350000D02*
X156600001Y-150350000D01*
G75*
G02*
X156350000Y-150099999I0J250001D01*
G01*
X156350000Y-147900001D01*
G75*
G02*
X156600001Y-147650000I250001J0D01*
G01*
X159399999Y-147650000D01*
G75*
G02*
X159650000Y-147900001I0J-250001D01*
G01*
X159650000Y-150099999D01*
G75*
G02*
X159399999Y-150350000I-250001J0D01*
G01*
G37*
G04 #@! TD*
D25*
G04 #@! TO.C,H3*
X165187056Y-163242944D03*
X163490000Y-162540000D03*
X161792944Y-163242944D03*
X161090000Y-164940000D03*
X161792944Y-166637056D03*
X163490000Y-167340000D03*
X165187056Y-166637056D03*
X165890000Y-164940000D03*
D26*
X163490000Y-164940000D03*
G04 #@! TD*
D25*
G04 #@! TO.C,H1*
X7707056Y-8302944D03*
X6010000Y-7600000D03*
X4312944Y-8302944D03*
X3610000Y-10000000D03*
X4312944Y-11697056D03*
X6010000Y-12400000D03*
X7707056Y-11697056D03*
X8410000Y-10000000D03*
D26*
X6010000Y-10000000D03*
G04 #@! TD*
D25*
G04 #@! TO.C,H4*
X7697056Y-163302944D03*
X6000000Y-162600000D03*
X4302944Y-163302944D03*
X3600000Y-165000000D03*
X4302944Y-166697056D03*
X6000000Y-167400000D03*
X7697056Y-166697056D03*
X8400000Y-165000000D03*
D26*
X6000000Y-165000000D03*
G04 #@! TD*
D25*
G04 #@! TO.C,H2*
X165187056Y-31162944D03*
X163490000Y-30460000D03*
X161792944Y-31162944D03*
X161090000Y-32860000D03*
X161792944Y-34557056D03*
X163490000Y-35260000D03*
X165187056Y-34557056D03*
X165890000Y-32860000D03*
D26*
X163490000Y-32860000D03*
G04 #@! TD*
D27*
G04 #@! TO.C,J2*
X146897000Y-20959000D03*
X142833000Y-20959000D03*
X148167000Y-19689000D03*
X141563000Y-19689000D03*
X146897000Y-18419000D03*
X142833000Y-18419000D03*
X148167000Y-17149000D03*
X141563000Y-17149000D03*
X146897000Y-15879000D03*
X142833000Y-15879000D03*
X148167000Y-14609000D03*
X141563000Y-14609000D03*
X146897000Y-13339000D03*
X142833000Y-13339000D03*
X148167000Y-12069000D03*
X141563000Y-12069000D03*
D28*
X150580000Y-7370000D03*
X97240000Y-7370000D03*
D29*
X94446000Y-18800000D03*
X153374000Y-2798000D03*
X153374000Y-22864000D03*
X94446000Y-2798000D03*
X137880000Y-24642000D03*
D27*
X132927000Y-20959000D03*
X128863000Y-20959000D03*
X134197000Y-19689000D03*
X127593000Y-19689000D03*
X132927000Y-18419000D03*
X128863000Y-18419000D03*
X134197000Y-17149000D03*
X127593000Y-17149000D03*
X132927000Y-15879000D03*
X128863000Y-15879000D03*
X134197000Y-14609000D03*
X127593000Y-14609000D03*
X132927000Y-13339000D03*
X128863000Y-13339000D03*
X134197000Y-12069000D03*
X127593000Y-12069000D03*
D29*
X123910000Y-24642000D03*
X109940000Y-24642000D03*
D27*
X118957000Y-20959000D03*
X114893000Y-20959000D03*
X120227000Y-19689000D03*
X113623000Y-19689000D03*
X118957000Y-18419000D03*
X114893000Y-18419000D03*
X120227000Y-17149000D03*
X113623000Y-17149000D03*
X118957000Y-15879000D03*
X114893000Y-15879000D03*
X120227000Y-14609000D03*
X113623000Y-14609000D03*
X118957000Y-13339000D03*
X114893000Y-13339000D03*
X120227000Y-12069000D03*
X113623000Y-12069000D03*
X104987000Y-20959000D03*
X100923000Y-20959000D03*
X106257000Y-19689000D03*
X99653000Y-19689000D03*
X104987000Y-18419000D03*
X100923000Y-18419000D03*
X106257000Y-17149000D03*
X99653000Y-17149000D03*
X104987000Y-15879000D03*
X100923000Y-15879000D03*
X106257000Y-14609000D03*
X99653000Y-14609000D03*
X104987000Y-13339000D03*
X100923000Y-13339000D03*
X106257000Y-12069000D03*
X99653000Y-12069000D03*
D30*
X151850000Y-19155600D03*
X151850000Y-12805600D03*
D31*
X151850000Y-4474400D03*
D30*
X149310000Y-4474400D03*
X140978800Y-6938200D03*
X138438800Y-6938200D03*
X137346600Y-9478200D03*
X134806600Y-9478200D03*
X137880000Y-12805600D03*
X137880000Y-15345600D03*
X137880000Y-17885600D03*
X137880000Y-20425600D03*
X127008800Y-6938200D03*
X124468800Y-6938200D03*
X123376600Y-9478200D03*
X120836600Y-9478200D03*
X113038800Y-6938200D03*
X110498800Y-6938200D03*
X109406600Y-9478200D03*
X106866600Y-9478200D03*
X123910000Y-12805600D03*
X123910000Y-15345600D03*
X123910000Y-17885600D03*
X123910000Y-20425600D03*
X109940000Y-12805600D03*
X109940000Y-15345600D03*
X109940000Y-17885600D03*
X109940000Y-20425600D03*
X95970000Y-12805600D03*
X95970000Y-15345600D03*
X98510000Y-4474400D03*
D31*
X95970000Y-4474400D03*
G04 #@! TD*
D21*
G04 #@! TO.C,W4*
X53750000Y-127000000D03*
X53750000Y-123000000D03*
X53750000Y-121000000D03*
X53750000Y-119000000D03*
X53750000Y-117000000D03*
X55750000Y-118000000D03*
X55750000Y-120000000D03*
X55750000Y-122000000D03*
X55750000Y-136000000D03*
X55750000Y-128000000D03*
X55750000Y-126000000D03*
X58250000Y-126000000D03*
X58250000Y-118000000D03*
X58250000Y-120000000D03*
X58250000Y-122000000D03*
X58250000Y-136000000D03*
X58250000Y-128000000D03*
X60250000Y-127000000D03*
X60250000Y-123000000D03*
X60250000Y-121000000D03*
X60250000Y-119000000D03*
X60250000Y-117000000D03*
X53750000Y-129000000D03*
X53750000Y-131000000D03*
X53750000Y-133000000D03*
X53750000Y-135000000D03*
X55750000Y-134000000D03*
X55750000Y-132000000D03*
X55750000Y-130000000D03*
X58250000Y-130000000D03*
X58250000Y-132000000D03*
X58250000Y-134000000D03*
X60250000Y-129000000D03*
X60250000Y-131000000D03*
X60250000Y-133000000D03*
X60250000Y-135000000D03*
D22*
X57000000Y-124350000D03*
X57000000Y-115200000D03*
G04 #@! TD*
D21*
G04 #@! TO.C,W3*
X70750000Y-127000000D03*
X70750000Y-123000000D03*
X70750000Y-121000000D03*
X70750000Y-119000000D03*
X70750000Y-117000000D03*
X72750000Y-118000000D03*
X72750000Y-120000000D03*
X72750000Y-122000000D03*
X72750000Y-136000000D03*
X72750000Y-128000000D03*
X72750000Y-126000000D03*
X75250000Y-126000000D03*
X75250000Y-118000000D03*
X75250000Y-120000000D03*
X75250000Y-122000000D03*
X75250000Y-136000000D03*
X75250000Y-128000000D03*
X77250000Y-127000000D03*
X77250000Y-123000000D03*
X77250000Y-121000000D03*
X77250000Y-119000000D03*
X77250000Y-117000000D03*
X70750000Y-129000000D03*
X70750000Y-131000000D03*
X70750000Y-133000000D03*
X70750000Y-135000000D03*
X72750000Y-134000000D03*
X72750000Y-132000000D03*
X72750000Y-130000000D03*
X75250000Y-130000000D03*
X75250000Y-132000000D03*
X75250000Y-134000000D03*
X77250000Y-129000000D03*
X77250000Y-131000000D03*
X77250000Y-133000000D03*
X77250000Y-135000000D03*
D22*
X74000000Y-124350000D03*
X74000000Y-115200000D03*
G04 #@! TD*
M02*
