G04 #@! TF.GenerationSoftware,KiCad,Pcbnew,5.1.8*
G04 #@! TF.CreationDate,2020-12-18T22:11:15+01:00*
G04 #@! TF.ProjectId,atx,6174782e-6b69-4636-9164-5f7063625858,rev?*
G04 #@! TF.SameCoordinates,Original*
G04 #@! TF.FileFunction,Soldermask,Top*
G04 #@! TF.FilePolarity,Negative*
%FSLAX46Y46*%
G04 Gerber Fmt 4.6, Leading zero omitted, Abs format (unit mm)*
G04 Created by KiCad (PCBNEW 5.1.8) date 2020-12-18 22:11:15*
%MOMM*%
%LPD*%
G01*
G04 APERTURE LIST*
%ADD10C,1.100000*%
%ADD11O,1.730000X2.030000*%
%ADD12R,1.730000X2.030000*%
%ADD13O,1.700000X1.700000*%
%ADD14R,1.700000X1.700000*%
%ADD15C,2.374900*%
%ADD16C,0.990600*%
%ADD17C,0.787400*%
%ADD18R,1.150000X1.400000*%
%ADD19C,1.428000*%
%ADD20R,1.428000X1.428000*%
%ADD21C,3.316000*%
%ADD22C,5.664200*%
%ADD23C,1.120000*%
%ADD24C,2.350000*%
%ADD25R,3.700000X3.700000*%
%ADD26R,1.400000X1.150000*%
%ADD27C,3.000000*%
%ADD28O,3.300000X2.700000*%
%ADD29C,0.800000*%
%ADD30C,6.400000*%
%ADD31C,1.524000*%
%ADD32C,3.251200*%
%ADD33C,2.362200*%
%ADD34C,1.714500*%
%ADD35C,1.600200*%
G04 APERTURE END LIST*
G04 #@! TO.C,U2*
G36*
G01*
X18125000Y-104700000D02*
X17925000Y-104700000D01*
G75*
G02*
X17825000Y-104600000I0J100000D01*
G01*
X17825000Y-103175000D01*
G75*
G02*
X17925000Y-103075000I100000J0D01*
G01*
X18125000Y-103075000D01*
G75*
G02*
X18225000Y-103175000I0J-100000D01*
G01*
X18225000Y-104600000D01*
G75*
G02*
X18125000Y-104700000I-100000J0D01*
G01*
G37*
G36*
G01*
X18775000Y-104700000D02*
X18575000Y-104700000D01*
G75*
G02*
X18475000Y-104600000I0J100000D01*
G01*
X18475000Y-103175000D01*
G75*
G02*
X18575000Y-103075000I100000J0D01*
G01*
X18775000Y-103075000D01*
G75*
G02*
X18875000Y-103175000I0J-100000D01*
G01*
X18875000Y-104600000D01*
G75*
G02*
X18775000Y-104700000I-100000J0D01*
G01*
G37*
G36*
G01*
X19425000Y-104700000D02*
X19225000Y-104700000D01*
G75*
G02*
X19125000Y-104600000I0J100000D01*
G01*
X19125000Y-103175000D01*
G75*
G02*
X19225000Y-103075000I100000J0D01*
G01*
X19425000Y-103075000D01*
G75*
G02*
X19525000Y-103175000I0J-100000D01*
G01*
X19525000Y-104600000D01*
G75*
G02*
X19425000Y-104700000I-100000J0D01*
G01*
G37*
G36*
G01*
X20075000Y-104700000D02*
X19875000Y-104700000D01*
G75*
G02*
X19775000Y-104600000I0J100000D01*
G01*
X19775000Y-103175000D01*
G75*
G02*
X19875000Y-103075000I100000J0D01*
G01*
X20075000Y-103075000D01*
G75*
G02*
X20175000Y-103175000I0J-100000D01*
G01*
X20175000Y-104600000D01*
G75*
G02*
X20075000Y-104700000I-100000J0D01*
G01*
G37*
G36*
G01*
X20075000Y-108925000D02*
X19875000Y-108925000D01*
G75*
G02*
X19775000Y-108825000I0J100000D01*
G01*
X19775000Y-107400000D01*
G75*
G02*
X19875000Y-107300000I100000J0D01*
G01*
X20075000Y-107300000D01*
G75*
G02*
X20175000Y-107400000I0J-100000D01*
G01*
X20175000Y-108825000D01*
G75*
G02*
X20075000Y-108925000I-100000J0D01*
G01*
G37*
G36*
G01*
X19425000Y-108925000D02*
X19225000Y-108925000D01*
G75*
G02*
X19125000Y-108825000I0J100000D01*
G01*
X19125000Y-107400000D01*
G75*
G02*
X19225000Y-107300000I100000J0D01*
G01*
X19425000Y-107300000D01*
G75*
G02*
X19525000Y-107400000I0J-100000D01*
G01*
X19525000Y-108825000D01*
G75*
G02*
X19425000Y-108925000I-100000J0D01*
G01*
G37*
G36*
G01*
X18775000Y-108925000D02*
X18575000Y-108925000D01*
G75*
G02*
X18475000Y-108825000I0J100000D01*
G01*
X18475000Y-107400000D01*
G75*
G02*
X18575000Y-107300000I100000J0D01*
G01*
X18775000Y-107300000D01*
G75*
G02*
X18875000Y-107400000I0J-100000D01*
G01*
X18875000Y-108825000D01*
G75*
G02*
X18775000Y-108925000I-100000J0D01*
G01*
G37*
G36*
G01*
X18125000Y-108925000D02*
X17925000Y-108925000D01*
G75*
G02*
X17825000Y-108825000I0J100000D01*
G01*
X17825000Y-107400000D01*
G75*
G02*
X17925000Y-107300000I100000J0D01*
G01*
X18125000Y-107300000D01*
G75*
G02*
X18225000Y-107400000I0J-100000D01*
G01*
X18225000Y-108825000D01*
G75*
G02*
X18125000Y-108925000I-100000J0D01*
G01*
G37*
G04 #@! TD*
G04 #@! TO.C,R24*
G36*
G01*
X14575000Y-93225000D02*
X14575000Y-93775000D01*
G75*
G02*
X14375000Y-93975000I-200000J0D01*
G01*
X13975000Y-93975000D01*
G75*
G02*
X13775000Y-93775000I0J200000D01*
G01*
X13775000Y-93225000D01*
G75*
G02*
X13975000Y-93025000I200000J0D01*
G01*
X14375000Y-93025000D01*
G75*
G02*
X14575000Y-93225000I0J-200000D01*
G01*
G37*
G36*
G01*
X16225000Y-93225000D02*
X16225000Y-93775000D01*
G75*
G02*
X16025000Y-93975000I-200000J0D01*
G01*
X15625000Y-93975000D01*
G75*
G02*
X15425000Y-93775000I0J200000D01*
G01*
X15425000Y-93225000D01*
G75*
G02*
X15625000Y-93025000I200000J0D01*
G01*
X16025000Y-93025000D01*
G75*
G02*
X16225000Y-93225000I0J-200000D01*
G01*
G37*
G04 #@! TD*
G04 #@! TO.C,R23*
G36*
G01*
X14575000Y-103225000D02*
X14575000Y-103775000D01*
G75*
G02*
X14375000Y-103975000I-200000J0D01*
G01*
X13975000Y-103975000D01*
G75*
G02*
X13775000Y-103775000I0J200000D01*
G01*
X13775000Y-103225000D01*
G75*
G02*
X13975000Y-103025000I200000J0D01*
G01*
X14375000Y-103025000D01*
G75*
G02*
X14575000Y-103225000I0J-200000D01*
G01*
G37*
G36*
G01*
X16225000Y-103225000D02*
X16225000Y-103775000D01*
G75*
G02*
X16025000Y-103975000I-200000J0D01*
G01*
X15625000Y-103975000D01*
G75*
G02*
X15425000Y-103775000I0J200000D01*
G01*
X15425000Y-103225000D01*
G75*
G02*
X15625000Y-103025000I200000J0D01*
G01*
X16025000Y-103025000D01*
G75*
G02*
X16225000Y-103225000I0J-200000D01*
G01*
G37*
G04 #@! TD*
G04 #@! TO.C,R22*
G36*
G01*
X16075000Y-114975000D02*
X16075000Y-115525000D01*
G75*
G02*
X15875000Y-115725000I-200000J0D01*
G01*
X15475000Y-115725000D01*
G75*
G02*
X15275000Y-115525000I0J200000D01*
G01*
X15275000Y-114975000D01*
G75*
G02*
X15475000Y-114775000I200000J0D01*
G01*
X15875000Y-114775000D01*
G75*
G02*
X16075000Y-114975000I0J-200000D01*
G01*
G37*
G36*
G01*
X17725000Y-114975000D02*
X17725000Y-115525000D01*
G75*
G02*
X17525000Y-115725000I-200000J0D01*
G01*
X17125000Y-115725000D01*
G75*
G02*
X16925000Y-115525000I0J200000D01*
G01*
X16925000Y-114975000D01*
G75*
G02*
X17125000Y-114775000I200000J0D01*
G01*
X17525000Y-114775000D01*
G75*
G02*
X17725000Y-114975000I0J-200000D01*
G01*
G37*
G04 #@! TD*
G04 #@! TO.C,R21*
G36*
G01*
X20175000Y-115525000D02*
X20175000Y-114975000D01*
G75*
G02*
X20375000Y-114775000I200000J0D01*
G01*
X20775000Y-114775000D01*
G75*
G02*
X20975000Y-114975000I0J-200000D01*
G01*
X20975000Y-115525000D01*
G75*
G02*
X20775000Y-115725000I-200000J0D01*
G01*
X20375000Y-115725000D01*
G75*
G02*
X20175000Y-115525000I0J200000D01*
G01*
G37*
G36*
G01*
X18525000Y-115525000D02*
X18525000Y-114975000D01*
G75*
G02*
X18725000Y-114775000I200000J0D01*
G01*
X19125000Y-114775000D01*
G75*
G02*
X19325000Y-114975000I0J-200000D01*
G01*
X19325000Y-115525000D01*
G75*
G02*
X19125000Y-115725000I-200000J0D01*
G01*
X18725000Y-115725000D01*
G75*
G02*
X18525000Y-115525000I0J200000D01*
G01*
G37*
G04 #@! TD*
D10*
G04 #@! TO.C,M2*
X19080000Y-86340000D03*
D11*
X21620000Y-88500000D03*
X19080000Y-88500000D03*
X16540000Y-88500000D03*
D12*
X14000000Y-88500000D03*
G04 #@! TD*
D10*
G04 #@! TO.C,M1*
X19080000Y-95840000D03*
D11*
X21620000Y-98000000D03*
X19080000Y-98000000D03*
X16540000Y-98000000D03*
D12*
X14000000Y-98000000D03*
G04 #@! TD*
G04 #@! TO.C,C9*
G36*
G01*
X21325000Y-111250000D02*
X21325000Y-110750000D01*
G75*
G02*
X21550000Y-110525000I225000J0D01*
G01*
X22000000Y-110525000D01*
G75*
G02*
X22225000Y-110750000I0J-225000D01*
G01*
X22225000Y-111250000D01*
G75*
G02*
X22000000Y-111475000I-225000J0D01*
G01*
X21550000Y-111475000D01*
G75*
G02*
X21325000Y-111250000I0J225000D01*
G01*
G37*
G36*
G01*
X19775000Y-111250000D02*
X19775000Y-110750000D01*
G75*
G02*
X20000000Y-110525000I225000J0D01*
G01*
X20450000Y-110525000D01*
G75*
G02*
X20675000Y-110750000I0J-225000D01*
G01*
X20675000Y-111250000D01*
G75*
G02*
X20450000Y-111475000I-225000J0D01*
G01*
X20000000Y-111475000D01*
G75*
G02*
X19775000Y-111250000I0J225000D01*
G01*
G37*
G04 #@! TD*
D13*
G04 #@! TO.C,J4*
X24170000Y-131940000D03*
X24170000Y-129400000D03*
X26710000Y-131940000D03*
X26710000Y-129400000D03*
X29250000Y-131940000D03*
D14*
X29250000Y-129400000D03*
G04 #@! TD*
G04 #@! TO.C,C6*
G36*
G01*
X36625000Y-149750000D02*
X36625000Y-149250000D01*
G75*
G02*
X36850000Y-149025000I225000J0D01*
G01*
X37300000Y-149025000D01*
G75*
G02*
X37525000Y-149250000I0J-225000D01*
G01*
X37525000Y-149750000D01*
G75*
G02*
X37300000Y-149975000I-225000J0D01*
G01*
X36850000Y-149975000D01*
G75*
G02*
X36625000Y-149750000I0J225000D01*
G01*
G37*
G36*
G01*
X35075000Y-149750000D02*
X35075000Y-149250000D01*
G75*
G02*
X35300000Y-149025000I225000J0D01*
G01*
X35750000Y-149025000D01*
G75*
G02*
X35975000Y-149250000I0J-225000D01*
G01*
X35975000Y-149750000D01*
G75*
G02*
X35750000Y-149975000I-225000J0D01*
G01*
X35300000Y-149975000D01*
G75*
G02*
X35075000Y-149750000I0J225000D01*
G01*
G37*
G04 #@! TD*
G04 #@! TO.C,C7*
G36*
G01*
X35975000Y-143250000D02*
X35975000Y-143750000D01*
G75*
G02*
X35750000Y-143975000I-225000J0D01*
G01*
X35300000Y-143975000D01*
G75*
G02*
X35075000Y-143750000I0J225000D01*
G01*
X35075000Y-143250000D01*
G75*
G02*
X35300000Y-143025000I225000J0D01*
G01*
X35750000Y-143025000D01*
G75*
G02*
X35975000Y-143250000I0J-225000D01*
G01*
G37*
G36*
G01*
X37525000Y-143250000D02*
X37525000Y-143750000D01*
G75*
G02*
X37300000Y-143975000I-225000J0D01*
G01*
X36850000Y-143975000D01*
G75*
G02*
X36625000Y-143750000I0J225000D01*
G01*
X36625000Y-143250000D01*
G75*
G02*
X36850000Y-143025000I225000J0D01*
G01*
X37300000Y-143025000D01*
G75*
G02*
X37525000Y-143250000I0J-225000D01*
G01*
G37*
G04 #@! TD*
G04 #@! TO.C,U1*
G36*
G01*
X33400000Y-148375000D02*
X33400000Y-148525000D01*
G75*
G02*
X33325000Y-148600000I-75000J0D01*
G01*
X32000000Y-148600000D01*
G75*
G02*
X31925000Y-148525000I0J75000D01*
G01*
X31925000Y-148375000D01*
G75*
G02*
X32000000Y-148300000I75000J0D01*
G01*
X33325000Y-148300000D01*
G75*
G02*
X33400000Y-148375000I0J-75000D01*
G01*
G37*
G36*
G01*
X33400000Y-147875000D02*
X33400000Y-148025000D01*
G75*
G02*
X33325000Y-148100000I-75000J0D01*
G01*
X32000000Y-148100000D01*
G75*
G02*
X31925000Y-148025000I0J75000D01*
G01*
X31925000Y-147875000D01*
G75*
G02*
X32000000Y-147800000I75000J0D01*
G01*
X33325000Y-147800000D01*
G75*
G02*
X33400000Y-147875000I0J-75000D01*
G01*
G37*
G36*
G01*
X33400000Y-147375000D02*
X33400000Y-147525000D01*
G75*
G02*
X33325000Y-147600000I-75000J0D01*
G01*
X32000000Y-147600000D01*
G75*
G02*
X31925000Y-147525000I0J75000D01*
G01*
X31925000Y-147375000D01*
G75*
G02*
X32000000Y-147300000I75000J0D01*
G01*
X33325000Y-147300000D01*
G75*
G02*
X33400000Y-147375000I0J-75000D01*
G01*
G37*
G36*
G01*
X33400000Y-146875000D02*
X33400000Y-147025000D01*
G75*
G02*
X33325000Y-147100000I-75000J0D01*
G01*
X32000000Y-147100000D01*
G75*
G02*
X31925000Y-147025000I0J75000D01*
G01*
X31925000Y-146875000D01*
G75*
G02*
X32000000Y-146800000I75000J0D01*
G01*
X33325000Y-146800000D01*
G75*
G02*
X33400000Y-146875000I0J-75000D01*
G01*
G37*
G36*
G01*
X33400000Y-146375000D02*
X33400000Y-146525000D01*
G75*
G02*
X33325000Y-146600000I-75000J0D01*
G01*
X32000000Y-146600000D01*
G75*
G02*
X31925000Y-146525000I0J75000D01*
G01*
X31925000Y-146375000D01*
G75*
G02*
X32000000Y-146300000I75000J0D01*
G01*
X33325000Y-146300000D01*
G75*
G02*
X33400000Y-146375000I0J-75000D01*
G01*
G37*
G36*
G01*
X33400000Y-145875000D02*
X33400000Y-146025000D01*
G75*
G02*
X33325000Y-146100000I-75000J0D01*
G01*
X32000000Y-146100000D01*
G75*
G02*
X31925000Y-146025000I0J75000D01*
G01*
X31925000Y-145875000D01*
G75*
G02*
X32000000Y-145800000I75000J0D01*
G01*
X33325000Y-145800000D01*
G75*
G02*
X33400000Y-145875000I0J-75000D01*
G01*
G37*
G36*
G01*
X33400000Y-145375000D02*
X33400000Y-145525000D01*
G75*
G02*
X33325000Y-145600000I-75000J0D01*
G01*
X32000000Y-145600000D01*
G75*
G02*
X31925000Y-145525000I0J75000D01*
G01*
X31925000Y-145375000D01*
G75*
G02*
X32000000Y-145300000I75000J0D01*
G01*
X33325000Y-145300000D01*
G75*
G02*
X33400000Y-145375000I0J-75000D01*
G01*
G37*
G36*
G01*
X33400000Y-144875000D02*
X33400000Y-145025000D01*
G75*
G02*
X33325000Y-145100000I-75000J0D01*
G01*
X32000000Y-145100000D01*
G75*
G02*
X31925000Y-145025000I0J75000D01*
G01*
X31925000Y-144875000D01*
G75*
G02*
X32000000Y-144800000I75000J0D01*
G01*
X33325000Y-144800000D01*
G75*
G02*
X33400000Y-144875000I0J-75000D01*
G01*
G37*
G36*
G01*
X33400000Y-144375000D02*
X33400000Y-144525000D01*
G75*
G02*
X33325000Y-144600000I-75000J0D01*
G01*
X32000000Y-144600000D01*
G75*
G02*
X31925000Y-144525000I0J75000D01*
G01*
X31925000Y-144375000D01*
G75*
G02*
X32000000Y-144300000I75000J0D01*
G01*
X33325000Y-144300000D01*
G75*
G02*
X33400000Y-144375000I0J-75000D01*
G01*
G37*
G36*
G01*
X33400000Y-143875000D02*
X33400000Y-144025000D01*
G75*
G02*
X33325000Y-144100000I-75000J0D01*
G01*
X32000000Y-144100000D01*
G75*
G02*
X31925000Y-144025000I0J75000D01*
G01*
X31925000Y-143875000D01*
G75*
G02*
X32000000Y-143800000I75000J0D01*
G01*
X33325000Y-143800000D01*
G75*
G02*
X33400000Y-143875000I0J-75000D01*
G01*
G37*
G36*
G01*
X33400000Y-143375000D02*
X33400000Y-143525000D01*
G75*
G02*
X33325000Y-143600000I-75000J0D01*
G01*
X32000000Y-143600000D01*
G75*
G02*
X31925000Y-143525000I0J75000D01*
G01*
X31925000Y-143375000D01*
G75*
G02*
X32000000Y-143300000I75000J0D01*
G01*
X33325000Y-143300000D01*
G75*
G02*
X33400000Y-143375000I0J-75000D01*
G01*
G37*
G36*
G01*
X33400000Y-142875000D02*
X33400000Y-143025000D01*
G75*
G02*
X33325000Y-143100000I-75000J0D01*
G01*
X32000000Y-143100000D01*
G75*
G02*
X31925000Y-143025000I0J75000D01*
G01*
X31925000Y-142875000D01*
G75*
G02*
X32000000Y-142800000I75000J0D01*
G01*
X33325000Y-142800000D01*
G75*
G02*
X33400000Y-142875000I0J-75000D01*
G01*
G37*
G36*
G01*
X31400000Y-140875000D02*
X31400000Y-142200000D01*
G75*
G02*
X31325000Y-142275000I-75000J0D01*
G01*
X31175000Y-142275000D01*
G75*
G02*
X31100000Y-142200000I0J75000D01*
G01*
X31100000Y-140875000D01*
G75*
G02*
X31175000Y-140800000I75000J0D01*
G01*
X31325000Y-140800000D01*
G75*
G02*
X31400000Y-140875000I0J-75000D01*
G01*
G37*
G36*
G01*
X30900000Y-140875000D02*
X30900000Y-142200000D01*
G75*
G02*
X30825000Y-142275000I-75000J0D01*
G01*
X30675000Y-142275000D01*
G75*
G02*
X30600000Y-142200000I0J75000D01*
G01*
X30600000Y-140875000D01*
G75*
G02*
X30675000Y-140800000I75000J0D01*
G01*
X30825000Y-140800000D01*
G75*
G02*
X30900000Y-140875000I0J-75000D01*
G01*
G37*
G36*
G01*
X30400000Y-140875000D02*
X30400000Y-142200000D01*
G75*
G02*
X30325000Y-142275000I-75000J0D01*
G01*
X30175000Y-142275000D01*
G75*
G02*
X30100000Y-142200000I0J75000D01*
G01*
X30100000Y-140875000D01*
G75*
G02*
X30175000Y-140800000I75000J0D01*
G01*
X30325000Y-140800000D01*
G75*
G02*
X30400000Y-140875000I0J-75000D01*
G01*
G37*
G36*
G01*
X29900000Y-140875000D02*
X29900000Y-142200000D01*
G75*
G02*
X29825000Y-142275000I-75000J0D01*
G01*
X29675000Y-142275000D01*
G75*
G02*
X29600000Y-142200000I0J75000D01*
G01*
X29600000Y-140875000D01*
G75*
G02*
X29675000Y-140800000I75000J0D01*
G01*
X29825000Y-140800000D01*
G75*
G02*
X29900000Y-140875000I0J-75000D01*
G01*
G37*
G36*
G01*
X29400000Y-140875000D02*
X29400000Y-142200000D01*
G75*
G02*
X29325000Y-142275000I-75000J0D01*
G01*
X29175000Y-142275000D01*
G75*
G02*
X29100000Y-142200000I0J75000D01*
G01*
X29100000Y-140875000D01*
G75*
G02*
X29175000Y-140800000I75000J0D01*
G01*
X29325000Y-140800000D01*
G75*
G02*
X29400000Y-140875000I0J-75000D01*
G01*
G37*
G36*
G01*
X28900000Y-140875000D02*
X28900000Y-142200000D01*
G75*
G02*
X28825000Y-142275000I-75000J0D01*
G01*
X28675000Y-142275000D01*
G75*
G02*
X28600000Y-142200000I0J75000D01*
G01*
X28600000Y-140875000D01*
G75*
G02*
X28675000Y-140800000I75000J0D01*
G01*
X28825000Y-140800000D01*
G75*
G02*
X28900000Y-140875000I0J-75000D01*
G01*
G37*
G36*
G01*
X28400000Y-140875000D02*
X28400000Y-142200000D01*
G75*
G02*
X28325000Y-142275000I-75000J0D01*
G01*
X28175000Y-142275000D01*
G75*
G02*
X28100000Y-142200000I0J75000D01*
G01*
X28100000Y-140875000D01*
G75*
G02*
X28175000Y-140800000I75000J0D01*
G01*
X28325000Y-140800000D01*
G75*
G02*
X28400000Y-140875000I0J-75000D01*
G01*
G37*
G36*
G01*
X27900000Y-140875000D02*
X27900000Y-142200000D01*
G75*
G02*
X27825000Y-142275000I-75000J0D01*
G01*
X27675000Y-142275000D01*
G75*
G02*
X27600000Y-142200000I0J75000D01*
G01*
X27600000Y-140875000D01*
G75*
G02*
X27675000Y-140800000I75000J0D01*
G01*
X27825000Y-140800000D01*
G75*
G02*
X27900000Y-140875000I0J-75000D01*
G01*
G37*
G36*
G01*
X27400000Y-140875000D02*
X27400000Y-142200000D01*
G75*
G02*
X27325000Y-142275000I-75000J0D01*
G01*
X27175000Y-142275000D01*
G75*
G02*
X27100000Y-142200000I0J75000D01*
G01*
X27100000Y-140875000D01*
G75*
G02*
X27175000Y-140800000I75000J0D01*
G01*
X27325000Y-140800000D01*
G75*
G02*
X27400000Y-140875000I0J-75000D01*
G01*
G37*
G36*
G01*
X26900000Y-140875000D02*
X26900000Y-142200000D01*
G75*
G02*
X26825000Y-142275000I-75000J0D01*
G01*
X26675000Y-142275000D01*
G75*
G02*
X26600000Y-142200000I0J75000D01*
G01*
X26600000Y-140875000D01*
G75*
G02*
X26675000Y-140800000I75000J0D01*
G01*
X26825000Y-140800000D01*
G75*
G02*
X26900000Y-140875000I0J-75000D01*
G01*
G37*
G36*
G01*
X26400000Y-140875000D02*
X26400000Y-142200000D01*
G75*
G02*
X26325000Y-142275000I-75000J0D01*
G01*
X26175000Y-142275000D01*
G75*
G02*
X26100000Y-142200000I0J75000D01*
G01*
X26100000Y-140875000D01*
G75*
G02*
X26175000Y-140800000I75000J0D01*
G01*
X26325000Y-140800000D01*
G75*
G02*
X26400000Y-140875000I0J-75000D01*
G01*
G37*
G36*
G01*
X25900000Y-140875000D02*
X25900000Y-142200000D01*
G75*
G02*
X25825000Y-142275000I-75000J0D01*
G01*
X25675000Y-142275000D01*
G75*
G02*
X25600000Y-142200000I0J75000D01*
G01*
X25600000Y-140875000D01*
G75*
G02*
X25675000Y-140800000I75000J0D01*
G01*
X25825000Y-140800000D01*
G75*
G02*
X25900000Y-140875000I0J-75000D01*
G01*
G37*
G36*
G01*
X25075000Y-142875000D02*
X25075000Y-143025000D01*
G75*
G02*
X25000000Y-143100000I-75000J0D01*
G01*
X23675000Y-143100000D01*
G75*
G02*
X23600000Y-143025000I0J75000D01*
G01*
X23600000Y-142875000D01*
G75*
G02*
X23675000Y-142800000I75000J0D01*
G01*
X25000000Y-142800000D01*
G75*
G02*
X25075000Y-142875000I0J-75000D01*
G01*
G37*
G36*
G01*
X25075000Y-143375000D02*
X25075000Y-143525000D01*
G75*
G02*
X25000000Y-143600000I-75000J0D01*
G01*
X23675000Y-143600000D01*
G75*
G02*
X23600000Y-143525000I0J75000D01*
G01*
X23600000Y-143375000D01*
G75*
G02*
X23675000Y-143300000I75000J0D01*
G01*
X25000000Y-143300000D01*
G75*
G02*
X25075000Y-143375000I0J-75000D01*
G01*
G37*
G36*
G01*
X25075000Y-143875000D02*
X25075000Y-144025000D01*
G75*
G02*
X25000000Y-144100000I-75000J0D01*
G01*
X23675000Y-144100000D01*
G75*
G02*
X23600000Y-144025000I0J75000D01*
G01*
X23600000Y-143875000D01*
G75*
G02*
X23675000Y-143800000I75000J0D01*
G01*
X25000000Y-143800000D01*
G75*
G02*
X25075000Y-143875000I0J-75000D01*
G01*
G37*
G36*
G01*
X25075000Y-144375000D02*
X25075000Y-144525000D01*
G75*
G02*
X25000000Y-144600000I-75000J0D01*
G01*
X23675000Y-144600000D01*
G75*
G02*
X23600000Y-144525000I0J75000D01*
G01*
X23600000Y-144375000D01*
G75*
G02*
X23675000Y-144300000I75000J0D01*
G01*
X25000000Y-144300000D01*
G75*
G02*
X25075000Y-144375000I0J-75000D01*
G01*
G37*
G36*
G01*
X25075000Y-144875000D02*
X25075000Y-145025000D01*
G75*
G02*
X25000000Y-145100000I-75000J0D01*
G01*
X23675000Y-145100000D01*
G75*
G02*
X23600000Y-145025000I0J75000D01*
G01*
X23600000Y-144875000D01*
G75*
G02*
X23675000Y-144800000I75000J0D01*
G01*
X25000000Y-144800000D01*
G75*
G02*
X25075000Y-144875000I0J-75000D01*
G01*
G37*
G36*
G01*
X25075000Y-145375000D02*
X25075000Y-145525000D01*
G75*
G02*
X25000000Y-145600000I-75000J0D01*
G01*
X23675000Y-145600000D01*
G75*
G02*
X23600000Y-145525000I0J75000D01*
G01*
X23600000Y-145375000D01*
G75*
G02*
X23675000Y-145300000I75000J0D01*
G01*
X25000000Y-145300000D01*
G75*
G02*
X25075000Y-145375000I0J-75000D01*
G01*
G37*
G36*
G01*
X25075000Y-145875000D02*
X25075000Y-146025000D01*
G75*
G02*
X25000000Y-146100000I-75000J0D01*
G01*
X23675000Y-146100000D01*
G75*
G02*
X23600000Y-146025000I0J75000D01*
G01*
X23600000Y-145875000D01*
G75*
G02*
X23675000Y-145800000I75000J0D01*
G01*
X25000000Y-145800000D01*
G75*
G02*
X25075000Y-145875000I0J-75000D01*
G01*
G37*
G36*
G01*
X25075000Y-146375000D02*
X25075000Y-146525000D01*
G75*
G02*
X25000000Y-146600000I-75000J0D01*
G01*
X23675000Y-146600000D01*
G75*
G02*
X23600000Y-146525000I0J75000D01*
G01*
X23600000Y-146375000D01*
G75*
G02*
X23675000Y-146300000I75000J0D01*
G01*
X25000000Y-146300000D01*
G75*
G02*
X25075000Y-146375000I0J-75000D01*
G01*
G37*
G36*
G01*
X25075000Y-146875000D02*
X25075000Y-147025000D01*
G75*
G02*
X25000000Y-147100000I-75000J0D01*
G01*
X23675000Y-147100000D01*
G75*
G02*
X23600000Y-147025000I0J75000D01*
G01*
X23600000Y-146875000D01*
G75*
G02*
X23675000Y-146800000I75000J0D01*
G01*
X25000000Y-146800000D01*
G75*
G02*
X25075000Y-146875000I0J-75000D01*
G01*
G37*
G36*
G01*
X25075000Y-147375000D02*
X25075000Y-147525000D01*
G75*
G02*
X25000000Y-147600000I-75000J0D01*
G01*
X23675000Y-147600000D01*
G75*
G02*
X23600000Y-147525000I0J75000D01*
G01*
X23600000Y-147375000D01*
G75*
G02*
X23675000Y-147300000I75000J0D01*
G01*
X25000000Y-147300000D01*
G75*
G02*
X25075000Y-147375000I0J-75000D01*
G01*
G37*
G36*
G01*
X25075000Y-147875000D02*
X25075000Y-148025000D01*
G75*
G02*
X25000000Y-148100000I-75000J0D01*
G01*
X23675000Y-148100000D01*
G75*
G02*
X23600000Y-148025000I0J75000D01*
G01*
X23600000Y-147875000D01*
G75*
G02*
X23675000Y-147800000I75000J0D01*
G01*
X25000000Y-147800000D01*
G75*
G02*
X25075000Y-147875000I0J-75000D01*
G01*
G37*
G36*
G01*
X25075000Y-148375000D02*
X25075000Y-148525000D01*
G75*
G02*
X25000000Y-148600000I-75000J0D01*
G01*
X23675000Y-148600000D01*
G75*
G02*
X23600000Y-148525000I0J75000D01*
G01*
X23600000Y-148375000D01*
G75*
G02*
X23675000Y-148300000I75000J0D01*
G01*
X25000000Y-148300000D01*
G75*
G02*
X25075000Y-148375000I0J-75000D01*
G01*
G37*
G36*
G01*
X25900000Y-149200000D02*
X25900000Y-150525000D01*
G75*
G02*
X25825000Y-150600000I-75000J0D01*
G01*
X25675000Y-150600000D01*
G75*
G02*
X25600000Y-150525000I0J75000D01*
G01*
X25600000Y-149200000D01*
G75*
G02*
X25675000Y-149125000I75000J0D01*
G01*
X25825000Y-149125000D01*
G75*
G02*
X25900000Y-149200000I0J-75000D01*
G01*
G37*
G36*
G01*
X26400000Y-149200000D02*
X26400000Y-150525000D01*
G75*
G02*
X26325000Y-150600000I-75000J0D01*
G01*
X26175000Y-150600000D01*
G75*
G02*
X26100000Y-150525000I0J75000D01*
G01*
X26100000Y-149200000D01*
G75*
G02*
X26175000Y-149125000I75000J0D01*
G01*
X26325000Y-149125000D01*
G75*
G02*
X26400000Y-149200000I0J-75000D01*
G01*
G37*
G36*
G01*
X26900000Y-149200000D02*
X26900000Y-150525000D01*
G75*
G02*
X26825000Y-150600000I-75000J0D01*
G01*
X26675000Y-150600000D01*
G75*
G02*
X26600000Y-150525000I0J75000D01*
G01*
X26600000Y-149200000D01*
G75*
G02*
X26675000Y-149125000I75000J0D01*
G01*
X26825000Y-149125000D01*
G75*
G02*
X26900000Y-149200000I0J-75000D01*
G01*
G37*
G36*
G01*
X27400000Y-149200000D02*
X27400000Y-150525000D01*
G75*
G02*
X27325000Y-150600000I-75000J0D01*
G01*
X27175000Y-150600000D01*
G75*
G02*
X27100000Y-150525000I0J75000D01*
G01*
X27100000Y-149200000D01*
G75*
G02*
X27175000Y-149125000I75000J0D01*
G01*
X27325000Y-149125000D01*
G75*
G02*
X27400000Y-149200000I0J-75000D01*
G01*
G37*
G36*
G01*
X27900000Y-149200000D02*
X27900000Y-150525000D01*
G75*
G02*
X27825000Y-150600000I-75000J0D01*
G01*
X27675000Y-150600000D01*
G75*
G02*
X27600000Y-150525000I0J75000D01*
G01*
X27600000Y-149200000D01*
G75*
G02*
X27675000Y-149125000I75000J0D01*
G01*
X27825000Y-149125000D01*
G75*
G02*
X27900000Y-149200000I0J-75000D01*
G01*
G37*
G36*
G01*
X28400000Y-149200000D02*
X28400000Y-150525000D01*
G75*
G02*
X28325000Y-150600000I-75000J0D01*
G01*
X28175000Y-150600000D01*
G75*
G02*
X28100000Y-150525000I0J75000D01*
G01*
X28100000Y-149200000D01*
G75*
G02*
X28175000Y-149125000I75000J0D01*
G01*
X28325000Y-149125000D01*
G75*
G02*
X28400000Y-149200000I0J-75000D01*
G01*
G37*
G36*
G01*
X28900000Y-149200000D02*
X28900000Y-150525000D01*
G75*
G02*
X28825000Y-150600000I-75000J0D01*
G01*
X28675000Y-150600000D01*
G75*
G02*
X28600000Y-150525000I0J75000D01*
G01*
X28600000Y-149200000D01*
G75*
G02*
X28675000Y-149125000I75000J0D01*
G01*
X28825000Y-149125000D01*
G75*
G02*
X28900000Y-149200000I0J-75000D01*
G01*
G37*
G36*
G01*
X29400000Y-149200000D02*
X29400000Y-150525000D01*
G75*
G02*
X29325000Y-150600000I-75000J0D01*
G01*
X29175000Y-150600000D01*
G75*
G02*
X29100000Y-150525000I0J75000D01*
G01*
X29100000Y-149200000D01*
G75*
G02*
X29175000Y-149125000I75000J0D01*
G01*
X29325000Y-149125000D01*
G75*
G02*
X29400000Y-149200000I0J-75000D01*
G01*
G37*
G36*
G01*
X29900000Y-149200000D02*
X29900000Y-150525000D01*
G75*
G02*
X29825000Y-150600000I-75000J0D01*
G01*
X29675000Y-150600000D01*
G75*
G02*
X29600000Y-150525000I0J75000D01*
G01*
X29600000Y-149200000D01*
G75*
G02*
X29675000Y-149125000I75000J0D01*
G01*
X29825000Y-149125000D01*
G75*
G02*
X29900000Y-149200000I0J-75000D01*
G01*
G37*
G36*
G01*
X30400000Y-149200000D02*
X30400000Y-150525000D01*
G75*
G02*
X30325000Y-150600000I-75000J0D01*
G01*
X30175000Y-150600000D01*
G75*
G02*
X30100000Y-150525000I0J75000D01*
G01*
X30100000Y-149200000D01*
G75*
G02*
X30175000Y-149125000I75000J0D01*
G01*
X30325000Y-149125000D01*
G75*
G02*
X30400000Y-149200000I0J-75000D01*
G01*
G37*
G36*
G01*
X30900000Y-149200000D02*
X30900000Y-150525000D01*
G75*
G02*
X30825000Y-150600000I-75000J0D01*
G01*
X30675000Y-150600000D01*
G75*
G02*
X30600000Y-150525000I0J75000D01*
G01*
X30600000Y-149200000D01*
G75*
G02*
X30675000Y-149125000I75000J0D01*
G01*
X30825000Y-149125000D01*
G75*
G02*
X30900000Y-149200000I0J-75000D01*
G01*
G37*
G36*
G01*
X31400000Y-149200000D02*
X31400000Y-150525000D01*
G75*
G02*
X31325000Y-150600000I-75000J0D01*
G01*
X31175000Y-150600000D01*
G75*
G02*
X31100000Y-150525000I0J75000D01*
G01*
X31100000Y-149200000D01*
G75*
G02*
X31175000Y-149125000I75000J0D01*
G01*
X31325000Y-149125000D01*
G75*
G02*
X31400000Y-149200000I0J-75000D01*
G01*
G37*
G04 #@! TD*
D15*
G04 #@! TO.C,J6*
X12440000Y-142260000D03*
X12440000Y-147340000D03*
X9265000Y-147340000D03*
X9265000Y-142260000D03*
D16*
X7360000Y-145816000D03*
X7360000Y-143784000D03*
X12440000Y-144800000D03*
D17*
X11170000Y-144165000D03*
X11170000Y-145435000D03*
X9900000Y-144165000D03*
X9900000Y-145435000D03*
X8630000Y-144165000D03*
X8630000Y-145435000D03*
G04 #@! TD*
G04 #@! TO.C,C8*
G36*
G01*
X21550000Y-151325000D02*
X22050000Y-151325000D01*
G75*
G02*
X22275000Y-151550000I0J-225000D01*
G01*
X22275000Y-152000000D01*
G75*
G02*
X22050000Y-152225000I-225000J0D01*
G01*
X21550000Y-152225000D01*
G75*
G02*
X21325000Y-152000000I0J225000D01*
G01*
X21325000Y-151550000D01*
G75*
G02*
X21550000Y-151325000I225000J0D01*
G01*
G37*
G36*
G01*
X21550000Y-149775000D02*
X22050000Y-149775000D01*
G75*
G02*
X22275000Y-150000000I0J-225000D01*
G01*
X22275000Y-150450000D01*
G75*
G02*
X22050000Y-150675000I-225000J0D01*
G01*
X21550000Y-150675000D01*
G75*
G02*
X21325000Y-150450000I0J225000D01*
G01*
X21325000Y-150000000D01*
G75*
G02*
X21550000Y-149775000I225000J0D01*
G01*
G37*
G04 #@! TD*
D18*
G04 #@! TO.C,Y2*
X35500000Y-147600000D03*
X35500000Y-145400000D03*
X37100000Y-145400000D03*
X37100000Y-147600000D03*
G04 #@! TD*
D19*
G04 #@! TO.C,J7*
X77000000Y-11500000D03*
D20*
X74500000Y-11500000D03*
D19*
X77000000Y-9500000D03*
X74500000Y-9500000D03*
D21*
X81770000Y-6790000D03*
X69730000Y-6790000D03*
G04 #@! TD*
D19*
G04 #@! TO.C,J5*
X58000000Y-11500000D03*
D20*
X55500000Y-11500000D03*
D19*
X58000000Y-9500000D03*
X55500000Y-9500000D03*
D21*
X62770000Y-6790000D03*
X50730000Y-6790000D03*
G04 #@! TD*
G04 #@! TO.C,R20*
G36*
G01*
X47775000Y-125575000D02*
X47225000Y-125575000D01*
G75*
G02*
X47025000Y-125375000I0J200000D01*
G01*
X47025000Y-124975000D01*
G75*
G02*
X47225000Y-124775000I200000J0D01*
G01*
X47775000Y-124775000D01*
G75*
G02*
X47975000Y-124975000I0J-200000D01*
G01*
X47975000Y-125375000D01*
G75*
G02*
X47775000Y-125575000I-200000J0D01*
G01*
G37*
G36*
G01*
X47775000Y-127225000D02*
X47225000Y-127225000D01*
G75*
G02*
X47025000Y-127025000I0J200000D01*
G01*
X47025000Y-126625000D01*
G75*
G02*
X47225000Y-126425000I200000J0D01*
G01*
X47775000Y-126425000D01*
G75*
G02*
X47975000Y-126625000I0J-200000D01*
G01*
X47975000Y-127025000D01*
G75*
G02*
X47775000Y-127225000I-200000J0D01*
G01*
G37*
G04 #@! TD*
G04 #@! TO.C,R19*
G36*
G01*
X62225000Y-126425000D02*
X62775000Y-126425000D01*
G75*
G02*
X62975000Y-126625000I0J-200000D01*
G01*
X62975000Y-127025000D01*
G75*
G02*
X62775000Y-127225000I-200000J0D01*
G01*
X62225000Y-127225000D01*
G75*
G02*
X62025000Y-127025000I0J200000D01*
G01*
X62025000Y-126625000D01*
G75*
G02*
X62225000Y-126425000I200000J0D01*
G01*
G37*
G36*
G01*
X62225000Y-124775000D02*
X62775000Y-124775000D01*
G75*
G02*
X62975000Y-124975000I0J-200000D01*
G01*
X62975000Y-125375000D01*
G75*
G02*
X62775000Y-125575000I-200000J0D01*
G01*
X62225000Y-125575000D01*
G75*
G02*
X62025000Y-125375000I0J200000D01*
G01*
X62025000Y-124975000D01*
G75*
G02*
X62225000Y-124775000I200000J0D01*
G01*
G37*
G04 #@! TD*
D22*
G04 #@! TO.C,TP4*
X159000000Y-62000000D03*
G04 #@! TD*
G04 #@! TO.C,TP3*
X148000000Y-62000000D03*
G04 #@! TD*
G04 #@! TO.C,TP2*
X159000000Y-75000000D03*
G04 #@! TD*
G04 #@! TO.C,TP1*
X148000000Y-75000000D03*
G04 #@! TD*
D23*
G04 #@! TO.C,W1*
X104750000Y-127000000D03*
X104750000Y-123000000D03*
X104750000Y-121000000D03*
X104750000Y-119000000D03*
X104750000Y-117000000D03*
X106750000Y-118000000D03*
X106750000Y-120000000D03*
X106750000Y-122000000D03*
X106750000Y-136000000D03*
X106750000Y-128000000D03*
X106750000Y-126000000D03*
X109250000Y-126000000D03*
X109250000Y-118000000D03*
X109250000Y-120000000D03*
X109250000Y-122000000D03*
X109250000Y-136000000D03*
X109250000Y-128000000D03*
X111250000Y-127000000D03*
X111250000Y-123000000D03*
X111250000Y-121000000D03*
X111250000Y-119000000D03*
X111250000Y-117000000D03*
X104750000Y-129000000D03*
X104750000Y-131000000D03*
X104750000Y-133000000D03*
X104750000Y-135000000D03*
X106750000Y-134000000D03*
X106750000Y-132000000D03*
X106750000Y-130000000D03*
X109250000Y-130000000D03*
X109250000Y-132000000D03*
X109250000Y-134000000D03*
X111250000Y-129000000D03*
X111250000Y-131000000D03*
X111250000Y-133000000D03*
X111250000Y-135000000D03*
D24*
X108000000Y-124350000D03*
X108000000Y-115200000D03*
G04 #@! TD*
D23*
G04 #@! TO.C,W2*
X87750000Y-127000000D03*
X87750000Y-123000000D03*
X87750000Y-121000000D03*
X87750000Y-119000000D03*
X87750000Y-117000000D03*
X89750000Y-118000000D03*
X89750000Y-120000000D03*
X89750000Y-122000000D03*
X89750000Y-136000000D03*
X89750000Y-128000000D03*
X89750000Y-126000000D03*
X92250000Y-126000000D03*
X92250000Y-118000000D03*
X92250000Y-120000000D03*
X92250000Y-122000000D03*
X92250000Y-136000000D03*
X92250000Y-128000000D03*
X94250000Y-127000000D03*
X94250000Y-123000000D03*
X94250000Y-121000000D03*
X94250000Y-119000000D03*
X94250000Y-117000000D03*
X87750000Y-129000000D03*
X87750000Y-131000000D03*
X87750000Y-133000000D03*
X87750000Y-135000000D03*
X89750000Y-134000000D03*
X89750000Y-132000000D03*
X89750000Y-130000000D03*
X92250000Y-130000000D03*
X92250000Y-132000000D03*
X92250000Y-134000000D03*
X94250000Y-129000000D03*
X94250000Y-131000000D03*
X94250000Y-133000000D03*
X94250000Y-135000000D03*
D24*
X91000000Y-124350000D03*
X91000000Y-115200000D03*
G04 #@! TD*
G04 #@! TO.C,C4*
G36*
G01*
X124325000Y-138250000D02*
X124325000Y-137750000D01*
G75*
G02*
X124550000Y-137525000I225000J0D01*
G01*
X125000000Y-137525000D01*
G75*
G02*
X125225000Y-137750000I0J-225000D01*
G01*
X125225000Y-138250000D01*
G75*
G02*
X125000000Y-138475000I-225000J0D01*
G01*
X124550000Y-138475000D01*
G75*
G02*
X124325000Y-138250000I0J225000D01*
G01*
G37*
G36*
G01*
X122775000Y-138250000D02*
X122775000Y-137750000D01*
G75*
G02*
X123000000Y-137525000I225000J0D01*
G01*
X123450000Y-137525000D01*
G75*
G02*
X123675000Y-137750000I0J-225000D01*
G01*
X123675000Y-138250000D01*
G75*
G02*
X123450000Y-138475000I-225000J0D01*
G01*
X123000000Y-138475000D01*
G75*
G02*
X122775000Y-138250000I0J225000D01*
G01*
G37*
G04 #@! TD*
G04 #@! TO.C,C3*
G36*
G01*
X120750000Y-141325000D02*
X121250000Y-141325000D01*
G75*
G02*
X121475000Y-141550000I0J-225000D01*
G01*
X121475000Y-142000000D01*
G75*
G02*
X121250000Y-142225000I-225000J0D01*
G01*
X120750000Y-142225000D01*
G75*
G02*
X120525000Y-142000000I0J225000D01*
G01*
X120525000Y-141550000D01*
G75*
G02*
X120750000Y-141325000I225000J0D01*
G01*
G37*
G36*
G01*
X120750000Y-139775000D02*
X121250000Y-139775000D01*
G75*
G02*
X121475000Y-140000000I0J-225000D01*
G01*
X121475000Y-140450000D01*
G75*
G02*
X121250000Y-140675000I-225000J0D01*
G01*
X120750000Y-140675000D01*
G75*
G02*
X120525000Y-140450000I0J225000D01*
G01*
X120525000Y-140000000D01*
G75*
G02*
X120750000Y-139775000I225000J0D01*
G01*
G37*
G04 #@! TD*
D25*
G04 #@! TO.C,U4*
X124000000Y-149000000D03*
G36*
G01*
X121875000Y-146412500D02*
X121875000Y-145712500D01*
G75*
G02*
X121937500Y-145650000I62500J0D01*
G01*
X122062500Y-145650000D01*
G75*
G02*
X122125000Y-145712500I0J-62500D01*
G01*
X122125000Y-146412500D01*
G75*
G02*
X122062500Y-146475000I-62500J0D01*
G01*
X121937500Y-146475000D01*
G75*
G02*
X121875000Y-146412500I0J62500D01*
G01*
G37*
G36*
G01*
X122375000Y-146412500D02*
X122375000Y-145712500D01*
G75*
G02*
X122437500Y-145650000I62500J0D01*
G01*
X122562500Y-145650000D01*
G75*
G02*
X122625000Y-145712500I0J-62500D01*
G01*
X122625000Y-146412500D01*
G75*
G02*
X122562500Y-146475000I-62500J0D01*
G01*
X122437500Y-146475000D01*
G75*
G02*
X122375000Y-146412500I0J62500D01*
G01*
G37*
G36*
G01*
X122875000Y-146412500D02*
X122875000Y-145712500D01*
G75*
G02*
X122937500Y-145650000I62500J0D01*
G01*
X123062500Y-145650000D01*
G75*
G02*
X123125000Y-145712500I0J-62500D01*
G01*
X123125000Y-146412500D01*
G75*
G02*
X123062500Y-146475000I-62500J0D01*
G01*
X122937500Y-146475000D01*
G75*
G02*
X122875000Y-146412500I0J62500D01*
G01*
G37*
G36*
G01*
X123375000Y-146412500D02*
X123375000Y-145712500D01*
G75*
G02*
X123437500Y-145650000I62500J0D01*
G01*
X123562500Y-145650000D01*
G75*
G02*
X123625000Y-145712500I0J-62500D01*
G01*
X123625000Y-146412500D01*
G75*
G02*
X123562500Y-146475000I-62500J0D01*
G01*
X123437500Y-146475000D01*
G75*
G02*
X123375000Y-146412500I0J62500D01*
G01*
G37*
G36*
G01*
X123875000Y-146412500D02*
X123875000Y-145712500D01*
G75*
G02*
X123937500Y-145650000I62500J0D01*
G01*
X124062500Y-145650000D01*
G75*
G02*
X124125000Y-145712500I0J-62500D01*
G01*
X124125000Y-146412500D01*
G75*
G02*
X124062500Y-146475000I-62500J0D01*
G01*
X123937500Y-146475000D01*
G75*
G02*
X123875000Y-146412500I0J62500D01*
G01*
G37*
G36*
G01*
X124375000Y-146412500D02*
X124375000Y-145712500D01*
G75*
G02*
X124437500Y-145650000I62500J0D01*
G01*
X124562500Y-145650000D01*
G75*
G02*
X124625000Y-145712500I0J-62500D01*
G01*
X124625000Y-146412500D01*
G75*
G02*
X124562500Y-146475000I-62500J0D01*
G01*
X124437500Y-146475000D01*
G75*
G02*
X124375000Y-146412500I0J62500D01*
G01*
G37*
G36*
G01*
X124875000Y-146412500D02*
X124875000Y-145712500D01*
G75*
G02*
X124937500Y-145650000I62500J0D01*
G01*
X125062500Y-145650000D01*
G75*
G02*
X125125000Y-145712500I0J-62500D01*
G01*
X125125000Y-146412500D01*
G75*
G02*
X125062500Y-146475000I-62500J0D01*
G01*
X124937500Y-146475000D01*
G75*
G02*
X124875000Y-146412500I0J62500D01*
G01*
G37*
G36*
G01*
X125375000Y-146412500D02*
X125375000Y-145712500D01*
G75*
G02*
X125437500Y-145650000I62500J0D01*
G01*
X125562500Y-145650000D01*
G75*
G02*
X125625000Y-145712500I0J-62500D01*
G01*
X125625000Y-146412500D01*
G75*
G02*
X125562500Y-146475000I-62500J0D01*
G01*
X125437500Y-146475000D01*
G75*
G02*
X125375000Y-146412500I0J62500D01*
G01*
G37*
G36*
G01*
X125875000Y-146412500D02*
X125875000Y-145712500D01*
G75*
G02*
X125937500Y-145650000I62500J0D01*
G01*
X126062500Y-145650000D01*
G75*
G02*
X126125000Y-145712500I0J-62500D01*
G01*
X126125000Y-146412500D01*
G75*
G02*
X126062500Y-146475000I-62500J0D01*
G01*
X125937500Y-146475000D01*
G75*
G02*
X125875000Y-146412500I0J62500D01*
G01*
G37*
G36*
G01*
X126525000Y-147062500D02*
X126525000Y-146937500D01*
G75*
G02*
X126587500Y-146875000I62500J0D01*
G01*
X127287500Y-146875000D01*
G75*
G02*
X127350000Y-146937500I0J-62500D01*
G01*
X127350000Y-147062500D01*
G75*
G02*
X127287500Y-147125000I-62500J0D01*
G01*
X126587500Y-147125000D01*
G75*
G02*
X126525000Y-147062500I0J62500D01*
G01*
G37*
G36*
G01*
X126525000Y-147562500D02*
X126525000Y-147437500D01*
G75*
G02*
X126587500Y-147375000I62500J0D01*
G01*
X127287500Y-147375000D01*
G75*
G02*
X127350000Y-147437500I0J-62500D01*
G01*
X127350000Y-147562500D01*
G75*
G02*
X127287500Y-147625000I-62500J0D01*
G01*
X126587500Y-147625000D01*
G75*
G02*
X126525000Y-147562500I0J62500D01*
G01*
G37*
G36*
G01*
X126525000Y-148062500D02*
X126525000Y-147937500D01*
G75*
G02*
X126587500Y-147875000I62500J0D01*
G01*
X127287500Y-147875000D01*
G75*
G02*
X127350000Y-147937500I0J-62500D01*
G01*
X127350000Y-148062500D01*
G75*
G02*
X127287500Y-148125000I-62500J0D01*
G01*
X126587500Y-148125000D01*
G75*
G02*
X126525000Y-148062500I0J62500D01*
G01*
G37*
G36*
G01*
X126525000Y-148562500D02*
X126525000Y-148437500D01*
G75*
G02*
X126587500Y-148375000I62500J0D01*
G01*
X127287500Y-148375000D01*
G75*
G02*
X127350000Y-148437500I0J-62500D01*
G01*
X127350000Y-148562500D01*
G75*
G02*
X127287500Y-148625000I-62500J0D01*
G01*
X126587500Y-148625000D01*
G75*
G02*
X126525000Y-148562500I0J62500D01*
G01*
G37*
G36*
G01*
X126525000Y-149062500D02*
X126525000Y-148937500D01*
G75*
G02*
X126587500Y-148875000I62500J0D01*
G01*
X127287500Y-148875000D01*
G75*
G02*
X127350000Y-148937500I0J-62500D01*
G01*
X127350000Y-149062500D01*
G75*
G02*
X127287500Y-149125000I-62500J0D01*
G01*
X126587500Y-149125000D01*
G75*
G02*
X126525000Y-149062500I0J62500D01*
G01*
G37*
G36*
G01*
X126525000Y-149562500D02*
X126525000Y-149437500D01*
G75*
G02*
X126587500Y-149375000I62500J0D01*
G01*
X127287500Y-149375000D01*
G75*
G02*
X127350000Y-149437500I0J-62500D01*
G01*
X127350000Y-149562500D01*
G75*
G02*
X127287500Y-149625000I-62500J0D01*
G01*
X126587500Y-149625000D01*
G75*
G02*
X126525000Y-149562500I0J62500D01*
G01*
G37*
G36*
G01*
X126525000Y-150062500D02*
X126525000Y-149937500D01*
G75*
G02*
X126587500Y-149875000I62500J0D01*
G01*
X127287500Y-149875000D01*
G75*
G02*
X127350000Y-149937500I0J-62500D01*
G01*
X127350000Y-150062500D01*
G75*
G02*
X127287500Y-150125000I-62500J0D01*
G01*
X126587500Y-150125000D01*
G75*
G02*
X126525000Y-150062500I0J62500D01*
G01*
G37*
G36*
G01*
X126525000Y-150562500D02*
X126525000Y-150437500D01*
G75*
G02*
X126587500Y-150375000I62500J0D01*
G01*
X127287500Y-150375000D01*
G75*
G02*
X127350000Y-150437500I0J-62500D01*
G01*
X127350000Y-150562500D01*
G75*
G02*
X127287500Y-150625000I-62500J0D01*
G01*
X126587500Y-150625000D01*
G75*
G02*
X126525000Y-150562500I0J62500D01*
G01*
G37*
G36*
G01*
X126525000Y-151062500D02*
X126525000Y-150937500D01*
G75*
G02*
X126587500Y-150875000I62500J0D01*
G01*
X127287500Y-150875000D01*
G75*
G02*
X127350000Y-150937500I0J-62500D01*
G01*
X127350000Y-151062500D01*
G75*
G02*
X127287500Y-151125000I-62500J0D01*
G01*
X126587500Y-151125000D01*
G75*
G02*
X126525000Y-151062500I0J62500D01*
G01*
G37*
G36*
G01*
X125875000Y-152287500D02*
X125875000Y-151587500D01*
G75*
G02*
X125937500Y-151525000I62500J0D01*
G01*
X126062500Y-151525000D01*
G75*
G02*
X126125000Y-151587500I0J-62500D01*
G01*
X126125000Y-152287500D01*
G75*
G02*
X126062500Y-152350000I-62500J0D01*
G01*
X125937500Y-152350000D01*
G75*
G02*
X125875000Y-152287500I0J62500D01*
G01*
G37*
G36*
G01*
X125375000Y-152287500D02*
X125375000Y-151587500D01*
G75*
G02*
X125437500Y-151525000I62500J0D01*
G01*
X125562500Y-151525000D01*
G75*
G02*
X125625000Y-151587500I0J-62500D01*
G01*
X125625000Y-152287500D01*
G75*
G02*
X125562500Y-152350000I-62500J0D01*
G01*
X125437500Y-152350000D01*
G75*
G02*
X125375000Y-152287500I0J62500D01*
G01*
G37*
G36*
G01*
X124875000Y-152287500D02*
X124875000Y-151587500D01*
G75*
G02*
X124937500Y-151525000I62500J0D01*
G01*
X125062500Y-151525000D01*
G75*
G02*
X125125000Y-151587500I0J-62500D01*
G01*
X125125000Y-152287500D01*
G75*
G02*
X125062500Y-152350000I-62500J0D01*
G01*
X124937500Y-152350000D01*
G75*
G02*
X124875000Y-152287500I0J62500D01*
G01*
G37*
G36*
G01*
X124375000Y-152287500D02*
X124375000Y-151587500D01*
G75*
G02*
X124437500Y-151525000I62500J0D01*
G01*
X124562500Y-151525000D01*
G75*
G02*
X124625000Y-151587500I0J-62500D01*
G01*
X124625000Y-152287500D01*
G75*
G02*
X124562500Y-152350000I-62500J0D01*
G01*
X124437500Y-152350000D01*
G75*
G02*
X124375000Y-152287500I0J62500D01*
G01*
G37*
G36*
G01*
X123875000Y-152287500D02*
X123875000Y-151587500D01*
G75*
G02*
X123937500Y-151525000I62500J0D01*
G01*
X124062500Y-151525000D01*
G75*
G02*
X124125000Y-151587500I0J-62500D01*
G01*
X124125000Y-152287500D01*
G75*
G02*
X124062500Y-152350000I-62500J0D01*
G01*
X123937500Y-152350000D01*
G75*
G02*
X123875000Y-152287500I0J62500D01*
G01*
G37*
G36*
G01*
X123375000Y-152287500D02*
X123375000Y-151587500D01*
G75*
G02*
X123437500Y-151525000I62500J0D01*
G01*
X123562500Y-151525000D01*
G75*
G02*
X123625000Y-151587500I0J-62500D01*
G01*
X123625000Y-152287500D01*
G75*
G02*
X123562500Y-152350000I-62500J0D01*
G01*
X123437500Y-152350000D01*
G75*
G02*
X123375000Y-152287500I0J62500D01*
G01*
G37*
G36*
G01*
X122875000Y-152287500D02*
X122875000Y-151587500D01*
G75*
G02*
X122937500Y-151525000I62500J0D01*
G01*
X123062500Y-151525000D01*
G75*
G02*
X123125000Y-151587500I0J-62500D01*
G01*
X123125000Y-152287500D01*
G75*
G02*
X123062500Y-152350000I-62500J0D01*
G01*
X122937500Y-152350000D01*
G75*
G02*
X122875000Y-152287500I0J62500D01*
G01*
G37*
G36*
G01*
X122375000Y-152287500D02*
X122375000Y-151587500D01*
G75*
G02*
X122437500Y-151525000I62500J0D01*
G01*
X122562500Y-151525000D01*
G75*
G02*
X122625000Y-151587500I0J-62500D01*
G01*
X122625000Y-152287500D01*
G75*
G02*
X122562500Y-152350000I-62500J0D01*
G01*
X122437500Y-152350000D01*
G75*
G02*
X122375000Y-152287500I0J62500D01*
G01*
G37*
G36*
G01*
X121875000Y-152287500D02*
X121875000Y-151587500D01*
G75*
G02*
X121937500Y-151525000I62500J0D01*
G01*
X122062500Y-151525000D01*
G75*
G02*
X122125000Y-151587500I0J-62500D01*
G01*
X122125000Y-152287500D01*
G75*
G02*
X122062500Y-152350000I-62500J0D01*
G01*
X121937500Y-152350000D01*
G75*
G02*
X121875000Y-152287500I0J62500D01*
G01*
G37*
G36*
G01*
X120650000Y-151062500D02*
X120650000Y-150937500D01*
G75*
G02*
X120712500Y-150875000I62500J0D01*
G01*
X121412500Y-150875000D01*
G75*
G02*
X121475000Y-150937500I0J-62500D01*
G01*
X121475000Y-151062500D01*
G75*
G02*
X121412500Y-151125000I-62500J0D01*
G01*
X120712500Y-151125000D01*
G75*
G02*
X120650000Y-151062500I0J62500D01*
G01*
G37*
G36*
G01*
X120650000Y-150562500D02*
X120650000Y-150437500D01*
G75*
G02*
X120712500Y-150375000I62500J0D01*
G01*
X121412500Y-150375000D01*
G75*
G02*
X121475000Y-150437500I0J-62500D01*
G01*
X121475000Y-150562500D01*
G75*
G02*
X121412500Y-150625000I-62500J0D01*
G01*
X120712500Y-150625000D01*
G75*
G02*
X120650000Y-150562500I0J62500D01*
G01*
G37*
G36*
G01*
X120650000Y-150062500D02*
X120650000Y-149937500D01*
G75*
G02*
X120712500Y-149875000I62500J0D01*
G01*
X121412500Y-149875000D01*
G75*
G02*
X121475000Y-149937500I0J-62500D01*
G01*
X121475000Y-150062500D01*
G75*
G02*
X121412500Y-150125000I-62500J0D01*
G01*
X120712500Y-150125000D01*
G75*
G02*
X120650000Y-150062500I0J62500D01*
G01*
G37*
G36*
G01*
X120650000Y-149562500D02*
X120650000Y-149437500D01*
G75*
G02*
X120712500Y-149375000I62500J0D01*
G01*
X121412500Y-149375000D01*
G75*
G02*
X121475000Y-149437500I0J-62500D01*
G01*
X121475000Y-149562500D01*
G75*
G02*
X121412500Y-149625000I-62500J0D01*
G01*
X120712500Y-149625000D01*
G75*
G02*
X120650000Y-149562500I0J62500D01*
G01*
G37*
G36*
G01*
X120650000Y-149062500D02*
X120650000Y-148937500D01*
G75*
G02*
X120712500Y-148875000I62500J0D01*
G01*
X121412500Y-148875000D01*
G75*
G02*
X121475000Y-148937500I0J-62500D01*
G01*
X121475000Y-149062500D01*
G75*
G02*
X121412500Y-149125000I-62500J0D01*
G01*
X120712500Y-149125000D01*
G75*
G02*
X120650000Y-149062500I0J62500D01*
G01*
G37*
G36*
G01*
X120650000Y-148562500D02*
X120650000Y-148437500D01*
G75*
G02*
X120712500Y-148375000I62500J0D01*
G01*
X121412500Y-148375000D01*
G75*
G02*
X121475000Y-148437500I0J-62500D01*
G01*
X121475000Y-148562500D01*
G75*
G02*
X121412500Y-148625000I-62500J0D01*
G01*
X120712500Y-148625000D01*
G75*
G02*
X120650000Y-148562500I0J62500D01*
G01*
G37*
G36*
G01*
X120650000Y-148062500D02*
X120650000Y-147937500D01*
G75*
G02*
X120712500Y-147875000I62500J0D01*
G01*
X121412500Y-147875000D01*
G75*
G02*
X121475000Y-147937500I0J-62500D01*
G01*
X121475000Y-148062500D01*
G75*
G02*
X121412500Y-148125000I-62500J0D01*
G01*
X120712500Y-148125000D01*
G75*
G02*
X120650000Y-148062500I0J62500D01*
G01*
G37*
G36*
G01*
X120650000Y-147562500D02*
X120650000Y-147437500D01*
G75*
G02*
X120712500Y-147375000I62500J0D01*
G01*
X121412500Y-147375000D01*
G75*
G02*
X121475000Y-147437500I0J-62500D01*
G01*
X121475000Y-147562500D01*
G75*
G02*
X121412500Y-147625000I-62500J0D01*
G01*
X120712500Y-147625000D01*
G75*
G02*
X120650000Y-147562500I0J62500D01*
G01*
G37*
G36*
G01*
X120650000Y-147062500D02*
X120650000Y-146937500D01*
G75*
G02*
X120712500Y-146875000I62500J0D01*
G01*
X121412500Y-146875000D01*
G75*
G02*
X121475000Y-146937500I0J-62500D01*
G01*
X121475000Y-147062500D01*
G75*
G02*
X121412500Y-147125000I-62500J0D01*
G01*
X120712500Y-147125000D01*
G75*
G02*
X120650000Y-147062500I0J62500D01*
G01*
G37*
G04 #@! TD*
G04 #@! TO.C,R11*
G36*
G01*
X130275000Y-149075000D02*
X129725000Y-149075000D01*
G75*
G02*
X129525000Y-148875000I0J200000D01*
G01*
X129525000Y-148475000D01*
G75*
G02*
X129725000Y-148275000I200000J0D01*
G01*
X130275000Y-148275000D01*
G75*
G02*
X130475000Y-148475000I0J-200000D01*
G01*
X130475000Y-148875000D01*
G75*
G02*
X130275000Y-149075000I-200000J0D01*
G01*
G37*
G36*
G01*
X130275000Y-150725000D02*
X129725000Y-150725000D01*
G75*
G02*
X129525000Y-150525000I0J200000D01*
G01*
X129525000Y-150125000D01*
G75*
G02*
X129725000Y-149925000I200000J0D01*
G01*
X130275000Y-149925000D01*
G75*
G02*
X130475000Y-150125000I0J-200000D01*
G01*
X130475000Y-150525000D01*
G75*
G02*
X130275000Y-150725000I-200000J0D01*
G01*
G37*
G04 #@! TD*
G04 #@! TO.C,R9*
G36*
G01*
X133525000Y-140575000D02*
X132975000Y-140575000D01*
G75*
G02*
X132775000Y-140375000I0J200000D01*
G01*
X132775000Y-139975000D01*
G75*
G02*
X132975000Y-139775000I200000J0D01*
G01*
X133525000Y-139775000D01*
G75*
G02*
X133725000Y-139975000I0J-200000D01*
G01*
X133725000Y-140375000D01*
G75*
G02*
X133525000Y-140575000I-200000J0D01*
G01*
G37*
G36*
G01*
X133525000Y-142225000D02*
X132975000Y-142225000D01*
G75*
G02*
X132775000Y-142025000I0J200000D01*
G01*
X132775000Y-141625000D01*
G75*
G02*
X132975000Y-141425000I200000J0D01*
G01*
X133525000Y-141425000D01*
G75*
G02*
X133725000Y-141625000I0J-200000D01*
G01*
X133725000Y-142025000D01*
G75*
G02*
X133525000Y-142225000I-200000J0D01*
G01*
G37*
G04 #@! TD*
G04 #@! TO.C,R15*
G36*
G01*
X63725000Y-126425000D02*
X64275000Y-126425000D01*
G75*
G02*
X64475000Y-126625000I0J-200000D01*
G01*
X64475000Y-127025000D01*
G75*
G02*
X64275000Y-127225000I-200000J0D01*
G01*
X63725000Y-127225000D01*
G75*
G02*
X63525000Y-127025000I0J200000D01*
G01*
X63525000Y-126625000D01*
G75*
G02*
X63725000Y-126425000I200000J0D01*
G01*
G37*
G36*
G01*
X63725000Y-124775000D02*
X64275000Y-124775000D01*
G75*
G02*
X64475000Y-124975000I0J-200000D01*
G01*
X64475000Y-125375000D01*
G75*
G02*
X64275000Y-125575000I-200000J0D01*
G01*
X63725000Y-125575000D01*
G75*
G02*
X63525000Y-125375000I0J200000D01*
G01*
X63525000Y-124975000D01*
G75*
G02*
X63725000Y-124775000I200000J0D01*
G01*
G37*
G04 #@! TD*
G04 #@! TO.C,R10*
G36*
G01*
X130275000Y-146075000D02*
X129725000Y-146075000D01*
G75*
G02*
X129525000Y-145875000I0J200000D01*
G01*
X129525000Y-145475000D01*
G75*
G02*
X129725000Y-145275000I200000J0D01*
G01*
X130275000Y-145275000D01*
G75*
G02*
X130475000Y-145475000I0J-200000D01*
G01*
X130475000Y-145875000D01*
G75*
G02*
X130275000Y-146075000I-200000J0D01*
G01*
G37*
G36*
G01*
X130275000Y-147725000D02*
X129725000Y-147725000D01*
G75*
G02*
X129525000Y-147525000I0J200000D01*
G01*
X129525000Y-147125000D01*
G75*
G02*
X129725000Y-146925000I200000J0D01*
G01*
X130275000Y-146925000D01*
G75*
G02*
X130475000Y-147125000I0J-200000D01*
G01*
X130475000Y-147525000D01*
G75*
G02*
X130275000Y-147725000I-200000J0D01*
G01*
G37*
G04 #@! TD*
D13*
G04 #@! TO.C,J1*
X57740000Y-158540000D03*
X57740000Y-156000000D03*
X60280000Y-158540000D03*
X60280000Y-156000000D03*
X62820000Y-158540000D03*
X62820000Y-156000000D03*
X65360000Y-158540000D03*
X65360000Y-156000000D03*
X67900000Y-158540000D03*
X67900000Y-156000000D03*
X70440000Y-158540000D03*
X70440000Y-156000000D03*
X72980000Y-158540000D03*
X72980000Y-156000000D03*
X75520000Y-158540000D03*
X75520000Y-156000000D03*
X78060000Y-158540000D03*
X78060000Y-156000000D03*
X80600000Y-158540000D03*
X80600000Y-156000000D03*
X83140000Y-158540000D03*
X83140000Y-156000000D03*
X85680000Y-158540000D03*
X85680000Y-156000000D03*
X88220000Y-158540000D03*
X88220000Y-156000000D03*
X90760000Y-158540000D03*
X90760000Y-156000000D03*
X93300000Y-158540000D03*
X93300000Y-156000000D03*
X95840000Y-158540000D03*
X95840000Y-156000000D03*
X98380000Y-158540000D03*
X98380000Y-156000000D03*
X100920000Y-158540000D03*
X100920000Y-156000000D03*
X103460000Y-158540000D03*
X103460000Y-156000000D03*
X106000000Y-158540000D03*
D14*
X106000000Y-156000000D03*
G04 #@! TD*
D26*
G04 #@! TO.C,Y1*
X122900000Y-141800000D03*
X125100000Y-141800000D03*
X125100000Y-140200000D03*
X122900000Y-140200000D03*
G04 #@! TD*
G04 #@! TO.C,R5*
G36*
G01*
X118275000Y-140575000D02*
X117725000Y-140575000D01*
G75*
G02*
X117525000Y-140375000I0J200000D01*
G01*
X117525000Y-139975000D01*
G75*
G02*
X117725000Y-139775000I200000J0D01*
G01*
X118275000Y-139775000D01*
G75*
G02*
X118475000Y-139975000I0J-200000D01*
G01*
X118475000Y-140375000D01*
G75*
G02*
X118275000Y-140575000I-200000J0D01*
G01*
G37*
G36*
G01*
X118275000Y-142225000D02*
X117725000Y-142225000D01*
G75*
G02*
X117525000Y-142025000I0J200000D01*
G01*
X117525000Y-141625000D01*
G75*
G02*
X117725000Y-141425000I200000J0D01*
G01*
X118275000Y-141425000D01*
G75*
G02*
X118475000Y-141625000I0J-200000D01*
G01*
X118475000Y-142025000D01*
G75*
G02*
X118275000Y-142225000I-200000J0D01*
G01*
G37*
G04 #@! TD*
G04 #@! TO.C,R2*
G36*
G01*
X99925000Y-126425000D02*
X100475000Y-126425000D01*
G75*
G02*
X100675000Y-126625000I0J-200000D01*
G01*
X100675000Y-127025000D01*
G75*
G02*
X100475000Y-127225000I-200000J0D01*
G01*
X99925000Y-127225000D01*
G75*
G02*
X99725000Y-127025000I0J200000D01*
G01*
X99725000Y-126625000D01*
G75*
G02*
X99925000Y-126425000I200000J0D01*
G01*
G37*
G36*
G01*
X99925000Y-124775000D02*
X100475000Y-124775000D01*
G75*
G02*
X100675000Y-124975000I0J-200000D01*
G01*
X100675000Y-125375000D01*
G75*
G02*
X100475000Y-125575000I-200000J0D01*
G01*
X99925000Y-125575000D01*
G75*
G02*
X99725000Y-125375000I0J200000D01*
G01*
X99725000Y-124975000D01*
G75*
G02*
X99925000Y-124775000I200000J0D01*
G01*
G37*
G04 #@! TD*
D27*
G04 #@! TO.C,J3*
X163040000Y-98100000D03*
X163040000Y-153700000D03*
D28*
X163500000Y-102800000D03*
X163500000Y-107000000D03*
X163500000Y-111200000D03*
X163500000Y-115400000D03*
X163500000Y-119600000D03*
X163500000Y-123800000D03*
X163500000Y-128000000D03*
X163500000Y-132200000D03*
X163500000Y-136400000D03*
X163500000Y-140600000D03*
X163500000Y-144800000D03*
X163500000Y-149000000D03*
X158000000Y-102800000D03*
X158000000Y-107000000D03*
X158000000Y-111200000D03*
X158000000Y-115400000D03*
X158000000Y-119600000D03*
X158000000Y-123800000D03*
X158000000Y-128000000D03*
X158000000Y-132200000D03*
X158000000Y-136400000D03*
X158000000Y-140600000D03*
X158000000Y-144800000D03*
G36*
G01*
X159399999Y-150350000D02*
X156600001Y-150350000D01*
G75*
G02*
X156350000Y-150099999I0J250001D01*
G01*
X156350000Y-147900001D01*
G75*
G02*
X156600001Y-147650000I250001J0D01*
G01*
X159399999Y-147650000D01*
G75*
G02*
X159650000Y-147900001I0J-250001D01*
G01*
X159650000Y-150099999D01*
G75*
G02*
X159399999Y-150350000I-250001J0D01*
G01*
G37*
G04 #@! TD*
G04 #@! TO.C,R4*
G36*
G01*
X98325000Y-126425000D02*
X98875000Y-126425000D01*
G75*
G02*
X99075000Y-126625000I0J-200000D01*
G01*
X99075000Y-127025000D01*
G75*
G02*
X98875000Y-127225000I-200000J0D01*
G01*
X98325000Y-127225000D01*
G75*
G02*
X98125000Y-127025000I0J200000D01*
G01*
X98125000Y-126625000D01*
G75*
G02*
X98325000Y-126425000I200000J0D01*
G01*
G37*
G36*
G01*
X98325000Y-124775000D02*
X98875000Y-124775000D01*
G75*
G02*
X99075000Y-124975000I0J-200000D01*
G01*
X99075000Y-125375000D01*
G75*
G02*
X98875000Y-125575000I-200000J0D01*
G01*
X98325000Y-125575000D01*
G75*
G02*
X98125000Y-125375000I0J200000D01*
G01*
X98125000Y-124975000D01*
G75*
G02*
X98325000Y-124775000I200000J0D01*
G01*
G37*
G04 #@! TD*
G04 #@! TO.C,R14*
G36*
G01*
X50725000Y-126425000D02*
X51275000Y-126425000D01*
G75*
G02*
X51475000Y-126625000I0J-200000D01*
G01*
X51475000Y-127025000D01*
G75*
G02*
X51275000Y-127225000I-200000J0D01*
G01*
X50725000Y-127225000D01*
G75*
G02*
X50525000Y-127025000I0J200000D01*
G01*
X50525000Y-126625000D01*
G75*
G02*
X50725000Y-126425000I200000J0D01*
G01*
G37*
G36*
G01*
X50725000Y-124775000D02*
X51275000Y-124775000D01*
G75*
G02*
X51475000Y-124975000I0J-200000D01*
G01*
X51475000Y-125375000D01*
G75*
G02*
X51275000Y-125575000I-200000J0D01*
G01*
X50725000Y-125575000D01*
G75*
G02*
X50525000Y-125375000I0J200000D01*
G01*
X50525000Y-124975000D01*
G75*
G02*
X50725000Y-124775000I200000J0D01*
G01*
G37*
G04 #@! TD*
G04 #@! TO.C,R1*
G36*
G01*
X82925000Y-126425000D02*
X83475000Y-126425000D01*
G75*
G02*
X83675000Y-126625000I0J-200000D01*
G01*
X83675000Y-127025000D01*
G75*
G02*
X83475000Y-127225000I-200000J0D01*
G01*
X82925000Y-127225000D01*
G75*
G02*
X82725000Y-127025000I0J200000D01*
G01*
X82725000Y-126625000D01*
G75*
G02*
X82925000Y-126425000I200000J0D01*
G01*
G37*
G36*
G01*
X82925000Y-124775000D02*
X83475000Y-124775000D01*
G75*
G02*
X83675000Y-124975000I0J-200000D01*
G01*
X83675000Y-125375000D01*
G75*
G02*
X83475000Y-125575000I-200000J0D01*
G01*
X82925000Y-125575000D01*
G75*
G02*
X82725000Y-125375000I0J200000D01*
G01*
X82725000Y-124975000D01*
G75*
G02*
X82925000Y-124775000I200000J0D01*
G01*
G37*
G04 #@! TD*
G04 #@! TO.C,R12*
G36*
G01*
X130525000Y-140575000D02*
X129975000Y-140575000D01*
G75*
G02*
X129775000Y-140375000I0J200000D01*
G01*
X129775000Y-139975000D01*
G75*
G02*
X129975000Y-139775000I200000J0D01*
G01*
X130525000Y-139775000D01*
G75*
G02*
X130725000Y-139975000I0J-200000D01*
G01*
X130725000Y-140375000D01*
G75*
G02*
X130525000Y-140575000I-200000J0D01*
G01*
G37*
G36*
G01*
X130525000Y-142225000D02*
X129975000Y-142225000D01*
G75*
G02*
X129775000Y-142025000I0J200000D01*
G01*
X129775000Y-141625000D01*
G75*
G02*
X129975000Y-141425000I200000J0D01*
G01*
X130525000Y-141425000D01*
G75*
G02*
X130725000Y-141625000I0J-200000D01*
G01*
X130725000Y-142025000D01*
G75*
G02*
X130525000Y-142225000I-200000J0D01*
G01*
G37*
G04 #@! TD*
G04 #@! TO.C,R13*
G36*
G01*
X131225000Y-149925000D02*
X131775000Y-149925000D01*
G75*
G02*
X131975000Y-150125000I0J-200000D01*
G01*
X131975000Y-150525000D01*
G75*
G02*
X131775000Y-150725000I-200000J0D01*
G01*
X131225000Y-150725000D01*
G75*
G02*
X131025000Y-150525000I0J200000D01*
G01*
X131025000Y-150125000D01*
G75*
G02*
X131225000Y-149925000I200000J0D01*
G01*
G37*
G36*
G01*
X131225000Y-148275000D02*
X131775000Y-148275000D01*
G75*
G02*
X131975000Y-148475000I0J-200000D01*
G01*
X131975000Y-148875000D01*
G75*
G02*
X131775000Y-149075000I-200000J0D01*
G01*
X131225000Y-149075000D01*
G75*
G02*
X131025000Y-148875000I0J200000D01*
G01*
X131025000Y-148475000D01*
G75*
G02*
X131225000Y-148275000I200000J0D01*
G01*
G37*
G04 #@! TD*
D29*
G04 #@! TO.C,H3*
X165187056Y-163242944D03*
X163490000Y-162540000D03*
X161792944Y-163242944D03*
X161090000Y-164940000D03*
X161792944Y-166637056D03*
X163490000Y-167340000D03*
X165187056Y-166637056D03*
X165890000Y-164940000D03*
D30*
X163490000Y-164940000D03*
G04 #@! TD*
G04 #@! TO.C,R6*
G36*
G01*
X48925000Y-126425000D02*
X49475000Y-126425000D01*
G75*
G02*
X49675000Y-126625000I0J-200000D01*
G01*
X49675000Y-127025000D01*
G75*
G02*
X49475000Y-127225000I-200000J0D01*
G01*
X48925000Y-127225000D01*
G75*
G02*
X48725000Y-127025000I0J200000D01*
G01*
X48725000Y-126625000D01*
G75*
G02*
X48925000Y-126425000I200000J0D01*
G01*
G37*
G36*
G01*
X48925000Y-124775000D02*
X49475000Y-124775000D01*
G75*
G02*
X49675000Y-124975000I0J-200000D01*
G01*
X49675000Y-125375000D01*
G75*
G02*
X49475000Y-125575000I-200000J0D01*
G01*
X48925000Y-125575000D01*
G75*
G02*
X48725000Y-125375000I0J200000D01*
G01*
X48725000Y-124975000D01*
G75*
G02*
X48925000Y-124775000I200000J0D01*
G01*
G37*
G04 #@! TD*
G04 #@! TO.C,C1*
G36*
G01*
X119250000Y-141325000D02*
X119750000Y-141325000D01*
G75*
G02*
X119975000Y-141550000I0J-225000D01*
G01*
X119975000Y-142000000D01*
G75*
G02*
X119750000Y-142225000I-225000J0D01*
G01*
X119250000Y-142225000D01*
G75*
G02*
X119025000Y-142000000I0J225000D01*
G01*
X119025000Y-141550000D01*
G75*
G02*
X119250000Y-141325000I225000J0D01*
G01*
G37*
G36*
G01*
X119250000Y-139775000D02*
X119750000Y-139775000D01*
G75*
G02*
X119975000Y-140000000I0J-225000D01*
G01*
X119975000Y-140450000D01*
G75*
G02*
X119750000Y-140675000I-225000J0D01*
G01*
X119250000Y-140675000D01*
G75*
G02*
X119025000Y-140450000I0J225000D01*
G01*
X119025000Y-140000000D01*
G75*
G02*
X119250000Y-139775000I225000J0D01*
G01*
G37*
G04 #@! TD*
G04 #@! TO.C,R8*
G36*
G01*
X132025000Y-140575000D02*
X131475000Y-140575000D01*
G75*
G02*
X131275000Y-140375000I0J200000D01*
G01*
X131275000Y-139975000D01*
G75*
G02*
X131475000Y-139775000I200000J0D01*
G01*
X132025000Y-139775000D01*
G75*
G02*
X132225000Y-139975000I0J-200000D01*
G01*
X132225000Y-140375000D01*
G75*
G02*
X132025000Y-140575000I-200000J0D01*
G01*
G37*
G36*
G01*
X132025000Y-142225000D02*
X131475000Y-142225000D01*
G75*
G02*
X131275000Y-142025000I0J200000D01*
G01*
X131275000Y-141625000D01*
G75*
G02*
X131475000Y-141425000I200000J0D01*
G01*
X132025000Y-141425000D01*
G75*
G02*
X132225000Y-141625000I0J-200000D01*
G01*
X132225000Y-142025000D01*
G75*
G02*
X132025000Y-142225000I-200000J0D01*
G01*
G37*
G04 #@! TD*
G04 #@! TO.C,R7*
G36*
G01*
X65725000Y-126425000D02*
X66275000Y-126425000D01*
G75*
G02*
X66475000Y-126625000I0J-200000D01*
G01*
X66475000Y-127025000D01*
G75*
G02*
X66275000Y-127225000I-200000J0D01*
G01*
X65725000Y-127225000D01*
G75*
G02*
X65525000Y-127025000I0J200000D01*
G01*
X65525000Y-126625000D01*
G75*
G02*
X65725000Y-126425000I200000J0D01*
G01*
G37*
G36*
G01*
X65725000Y-124775000D02*
X66275000Y-124775000D01*
G75*
G02*
X66475000Y-124975000I0J-200000D01*
G01*
X66475000Y-125375000D01*
G75*
G02*
X66275000Y-125575000I-200000J0D01*
G01*
X65725000Y-125575000D01*
G75*
G02*
X65525000Y-125375000I0J200000D01*
G01*
X65525000Y-124975000D01*
G75*
G02*
X65725000Y-124775000I200000J0D01*
G01*
G37*
G04 #@! TD*
D29*
G04 #@! TO.C,H1*
X7707056Y-8302944D03*
X6010000Y-7600000D03*
X4312944Y-8302944D03*
X3610000Y-10000000D03*
X4312944Y-11697056D03*
X6010000Y-12400000D03*
X7707056Y-11697056D03*
X8410000Y-10000000D03*
D30*
X6010000Y-10000000D03*
G04 #@! TD*
G04 #@! TO.C,C2*
G36*
G01*
X124175000Y-154250000D02*
X124175000Y-154750000D01*
G75*
G02*
X123950000Y-154975000I-225000J0D01*
G01*
X123500000Y-154975000D01*
G75*
G02*
X123275000Y-154750000I0J225000D01*
G01*
X123275000Y-154250000D01*
G75*
G02*
X123500000Y-154025000I225000J0D01*
G01*
X123950000Y-154025000D01*
G75*
G02*
X124175000Y-154250000I0J-225000D01*
G01*
G37*
G36*
G01*
X125725000Y-154250000D02*
X125725000Y-154750000D01*
G75*
G02*
X125500000Y-154975000I-225000J0D01*
G01*
X125050000Y-154975000D01*
G75*
G02*
X124825000Y-154750000I0J225000D01*
G01*
X124825000Y-154250000D01*
G75*
G02*
X125050000Y-154025000I225000J0D01*
G01*
X125500000Y-154025000D01*
G75*
G02*
X125725000Y-154250000I0J-225000D01*
G01*
G37*
G04 #@! TD*
D29*
G04 #@! TO.C,H4*
X7697056Y-163302944D03*
X6000000Y-162600000D03*
X4302944Y-163302944D03*
X3600000Y-165000000D03*
X4302944Y-166697056D03*
X6000000Y-167400000D03*
X7697056Y-166697056D03*
X8400000Y-165000000D03*
D30*
X6000000Y-165000000D03*
G04 #@! TD*
G04 #@! TO.C,R3*
G36*
G01*
X84725000Y-126425000D02*
X85275000Y-126425000D01*
G75*
G02*
X85475000Y-126625000I0J-200000D01*
G01*
X85475000Y-127025000D01*
G75*
G02*
X85275000Y-127225000I-200000J0D01*
G01*
X84725000Y-127225000D01*
G75*
G02*
X84525000Y-127025000I0J200000D01*
G01*
X84525000Y-126625000D01*
G75*
G02*
X84725000Y-126425000I200000J0D01*
G01*
G37*
G36*
G01*
X84725000Y-124775000D02*
X85275000Y-124775000D01*
G75*
G02*
X85475000Y-124975000I0J-200000D01*
G01*
X85475000Y-125375000D01*
G75*
G02*
X85275000Y-125575000I-200000J0D01*
G01*
X84725000Y-125575000D01*
G75*
G02*
X84525000Y-125375000I0J200000D01*
G01*
X84525000Y-124975000D01*
G75*
G02*
X84725000Y-124775000I200000J0D01*
G01*
G37*
G04 #@! TD*
D29*
G04 #@! TO.C,H2*
X165187056Y-31162944D03*
X163490000Y-30460000D03*
X161792944Y-31162944D03*
X161090000Y-32860000D03*
X161792944Y-34557056D03*
X163490000Y-35260000D03*
X165187056Y-34557056D03*
X165890000Y-32860000D03*
D30*
X163490000Y-32860000D03*
G04 #@! TD*
D31*
G04 #@! TO.C,J2*
X146897000Y-20959000D03*
X142833000Y-20959000D03*
X148167000Y-19689000D03*
X141563000Y-19689000D03*
X146897000Y-18419000D03*
X142833000Y-18419000D03*
X148167000Y-17149000D03*
X141563000Y-17149000D03*
X146897000Y-15879000D03*
X142833000Y-15879000D03*
X148167000Y-14609000D03*
X141563000Y-14609000D03*
X146897000Y-13339000D03*
X142833000Y-13339000D03*
X148167000Y-12069000D03*
X141563000Y-12069000D03*
D32*
X150580000Y-7370000D03*
X97240000Y-7370000D03*
D33*
X94446000Y-18800000D03*
X153374000Y-2798000D03*
X153374000Y-22864000D03*
X94446000Y-2798000D03*
X137880000Y-24642000D03*
D31*
X132927000Y-20959000D03*
X128863000Y-20959000D03*
X134197000Y-19689000D03*
X127593000Y-19689000D03*
X132927000Y-18419000D03*
X128863000Y-18419000D03*
X134197000Y-17149000D03*
X127593000Y-17149000D03*
X132927000Y-15879000D03*
X128863000Y-15879000D03*
X134197000Y-14609000D03*
X127593000Y-14609000D03*
X132927000Y-13339000D03*
X128863000Y-13339000D03*
X134197000Y-12069000D03*
X127593000Y-12069000D03*
D33*
X123910000Y-24642000D03*
X109940000Y-24642000D03*
D31*
X118957000Y-20959000D03*
X114893000Y-20959000D03*
X120227000Y-19689000D03*
X113623000Y-19689000D03*
X118957000Y-18419000D03*
X114893000Y-18419000D03*
X120227000Y-17149000D03*
X113623000Y-17149000D03*
X118957000Y-15879000D03*
X114893000Y-15879000D03*
X120227000Y-14609000D03*
X113623000Y-14609000D03*
X118957000Y-13339000D03*
X114893000Y-13339000D03*
X120227000Y-12069000D03*
X113623000Y-12069000D03*
X104987000Y-20959000D03*
X100923000Y-20959000D03*
X106257000Y-19689000D03*
X99653000Y-19689000D03*
X104987000Y-18419000D03*
X100923000Y-18419000D03*
X106257000Y-17149000D03*
X99653000Y-17149000D03*
X104987000Y-15879000D03*
X100923000Y-15879000D03*
X106257000Y-14609000D03*
X99653000Y-14609000D03*
X104987000Y-13339000D03*
X100923000Y-13339000D03*
X106257000Y-12069000D03*
X99653000Y-12069000D03*
D34*
X151850000Y-19155600D03*
X151850000Y-12805600D03*
D35*
X151850000Y-4474400D03*
D34*
X149310000Y-4474400D03*
X140978800Y-6938200D03*
X138438800Y-6938200D03*
X137346600Y-9478200D03*
X134806600Y-9478200D03*
X137880000Y-12805600D03*
X137880000Y-15345600D03*
X137880000Y-17885600D03*
X137880000Y-20425600D03*
X127008800Y-6938200D03*
X124468800Y-6938200D03*
X123376600Y-9478200D03*
X120836600Y-9478200D03*
X113038800Y-6938200D03*
X110498800Y-6938200D03*
X109406600Y-9478200D03*
X106866600Y-9478200D03*
X123910000Y-12805600D03*
X123910000Y-15345600D03*
X123910000Y-17885600D03*
X123910000Y-20425600D03*
X109940000Y-12805600D03*
X109940000Y-15345600D03*
X109940000Y-17885600D03*
X109940000Y-20425600D03*
X95970000Y-12805600D03*
X95970000Y-15345600D03*
X98510000Y-4474400D03*
D35*
X95970000Y-4474400D03*
G04 #@! TD*
D23*
G04 #@! TO.C,W4*
X53750000Y-127000000D03*
X53750000Y-123000000D03*
X53750000Y-121000000D03*
X53750000Y-119000000D03*
X53750000Y-117000000D03*
X55750000Y-118000000D03*
X55750000Y-120000000D03*
X55750000Y-122000000D03*
X55750000Y-136000000D03*
X55750000Y-128000000D03*
X55750000Y-126000000D03*
X58250000Y-126000000D03*
X58250000Y-118000000D03*
X58250000Y-120000000D03*
X58250000Y-122000000D03*
X58250000Y-136000000D03*
X58250000Y-128000000D03*
X60250000Y-127000000D03*
X60250000Y-123000000D03*
X60250000Y-121000000D03*
X60250000Y-119000000D03*
X60250000Y-117000000D03*
X53750000Y-129000000D03*
X53750000Y-131000000D03*
X53750000Y-133000000D03*
X53750000Y-135000000D03*
X55750000Y-134000000D03*
X55750000Y-132000000D03*
X55750000Y-130000000D03*
X58250000Y-130000000D03*
X58250000Y-132000000D03*
X58250000Y-134000000D03*
X60250000Y-129000000D03*
X60250000Y-131000000D03*
X60250000Y-133000000D03*
X60250000Y-135000000D03*
D24*
X57000000Y-124350000D03*
X57000000Y-115200000D03*
G04 #@! TD*
D23*
G04 #@! TO.C,W3*
X70750000Y-127000000D03*
X70750000Y-123000000D03*
X70750000Y-121000000D03*
X70750000Y-119000000D03*
X70750000Y-117000000D03*
X72750000Y-118000000D03*
X72750000Y-120000000D03*
X72750000Y-122000000D03*
X72750000Y-136000000D03*
X72750000Y-128000000D03*
X72750000Y-126000000D03*
X75250000Y-126000000D03*
X75250000Y-118000000D03*
X75250000Y-120000000D03*
X75250000Y-122000000D03*
X75250000Y-136000000D03*
X75250000Y-128000000D03*
X77250000Y-127000000D03*
X77250000Y-123000000D03*
X77250000Y-121000000D03*
X77250000Y-119000000D03*
X77250000Y-117000000D03*
X70750000Y-129000000D03*
X70750000Y-131000000D03*
X70750000Y-133000000D03*
X70750000Y-135000000D03*
X72750000Y-134000000D03*
X72750000Y-132000000D03*
X72750000Y-130000000D03*
X75250000Y-130000000D03*
X75250000Y-132000000D03*
X75250000Y-134000000D03*
X77250000Y-129000000D03*
X77250000Y-131000000D03*
X77250000Y-133000000D03*
X77250000Y-135000000D03*
D24*
X74000000Y-124350000D03*
X74000000Y-115200000D03*
G04 #@! TD*
G04 #@! TO.C,D1*
G36*
G01*
X140743750Y-74350000D02*
X141256250Y-74350000D01*
G75*
G02*
X141475000Y-74568750I0J-218750D01*
G01*
X141475000Y-75006250D01*
G75*
G02*
X141256250Y-75225000I-218750J0D01*
G01*
X140743750Y-75225000D01*
G75*
G02*
X140525000Y-75006250I0J218750D01*
G01*
X140525000Y-74568750D01*
G75*
G02*
X140743750Y-74350000I218750J0D01*
G01*
G37*
G36*
G01*
X140743750Y-72775000D02*
X141256250Y-72775000D01*
G75*
G02*
X141475000Y-72993750I0J-218750D01*
G01*
X141475000Y-73431250D01*
G75*
G02*
X141256250Y-73650000I-218750J0D01*
G01*
X140743750Y-73650000D01*
G75*
G02*
X140525000Y-73431250I0J218750D01*
G01*
X140525000Y-72993750D01*
G75*
G02*
X140743750Y-72775000I218750J0D01*
G01*
G37*
G04 #@! TD*
G04 #@! TO.C,R16*
G36*
G01*
X138725000Y-74425000D02*
X139275000Y-74425000D01*
G75*
G02*
X139475000Y-74625000I0J-200000D01*
G01*
X139475000Y-75025000D01*
G75*
G02*
X139275000Y-75225000I-200000J0D01*
G01*
X138725000Y-75225000D01*
G75*
G02*
X138525000Y-75025000I0J200000D01*
G01*
X138525000Y-74625000D01*
G75*
G02*
X138725000Y-74425000I200000J0D01*
G01*
G37*
G36*
G01*
X138725000Y-72775000D02*
X139275000Y-72775000D01*
G75*
G02*
X139475000Y-72975000I0J-200000D01*
G01*
X139475000Y-73375000D01*
G75*
G02*
X139275000Y-73575000I-200000J0D01*
G01*
X138725000Y-73575000D01*
G75*
G02*
X138525000Y-73375000I0J200000D01*
G01*
X138525000Y-72975000D01*
G75*
G02*
X138725000Y-72775000I200000J0D01*
G01*
G37*
G04 #@! TD*
G04 #@! TO.C,D2*
G36*
G01*
X141256250Y-62650000D02*
X140743750Y-62650000D01*
G75*
G02*
X140525000Y-62431250I0J218750D01*
G01*
X140525000Y-61993750D01*
G75*
G02*
X140743750Y-61775000I218750J0D01*
G01*
X141256250Y-61775000D01*
G75*
G02*
X141475000Y-61993750I0J-218750D01*
G01*
X141475000Y-62431250D01*
G75*
G02*
X141256250Y-62650000I-218750J0D01*
G01*
G37*
G36*
G01*
X141256250Y-64225000D02*
X140743750Y-64225000D01*
G75*
G02*
X140525000Y-64006250I0J218750D01*
G01*
X140525000Y-63568750D01*
G75*
G02*
X140743750Y-63350000I218750J0D01*
G01*
X141256250Y-63350000D01*
G75*
G02*
X141475000Y-63568750I0J-218750D01*
G01*
X141475000Y-64006250D01*
G75*
G02*
X141256250Y-64225000I-218750J0D01*
G01*
G37*
G04 #@! TD*
G04 #@! TO.C,D3*
G36*
G01*
X165743750Y-74350000D02*
X166256250Y-74350000D01*
G75*
G02*
X166475000Y-74568750I0J-218750D01*
G01*
X166475000Y-75006250D01*
G75*
G02*
X166256250Y-75225000I-218750J0D01*
G01*
X165743750Y-75225000D01*
G75*
G02*
X165525000Y-75006250I0J218750D01*
G01*
X165525000Y-74568750D01*
G75*
G02*
X165743750Y-74350000I218750J0D01*
G01*
G37*
G36*
G01*
X165743750Y-72775000D02*
X166256250Y-72775000D01*
G75*
G02*
X166475000Y-72993750I0J-218750D01*
G01*
X166475000Y-73431250D01*
G75*
G02*
X166256250Y-73650000I-218750J0D01*
G01*
X165743750Y-73650000D01*
G75*
G02*
X165525000Y-73431250I0J218750D01*
G01*
X165525000Y-72993750D01*
G75*
G02*
X165743750Y-72775000I218750J0D01*
G01*
G37*
G04 #@! TD*
G04 #@! TO.C,R17*
G36*
G01*
X139275000Y-62575000D02*
X138725000Y-62575000D01*
G75*
G02*
X138525000Y-62375000I0J200000D01*
G01*
X138525000Y-61975000D01*
G75*
G02*
X138725000Y-61775000I200000J0D01*
G01*
X139275000Y-61775000D01*
G75*
G02*
X139475000Y-61975000I0J-200000D01*
G01*
X139475000Y-62375000D01*
G75*
G02*
X139275000Y-62575000I-200000J0D01*
G01*
G37*
G36*
G01*
X139275000Y-64225000D02*
X138725000Y-64225000D01*
G75*
G02*
X138525000Y-64025000I0J200000D01*
G01*
X138525000Y-63625000D01*
G75*
G02*
X138725000Y-63425000I200000J0D01*
G01*
X139275000Y-63425000D01*
G75*
G02*
X139475000Y-63625000I0J-200000D01*
G01*
X139475000Y-64025000D01*
G75*
G02*
X139275000Y-64225000I-200000J0D01*
G01*
G37*
G04 #@! TD*
G04 #@! TO.C,R18*
G36*
G01*
X167725000Y-74425000D02*
X168275000Y-74425000D01*
G75*
G02*
X168475000Y-74625000I0J-200000D01*
G01*
X168475000Y-75025000D01*
G75*
G02*
X168275000Y-75225000I-200000J0D01*
G01*
X167725000Y-75225000D01*
G75*
G02*
X167525000Y-75025000I0J200000D01*
G01*
X167525000Y-74625000D01*
G75*
G02*
X167725000Y-74425000I200000J0D01*
G01*
G37*
G36*
G01*
X167725000Y-72775000D02*
X168275000Y-72775000D01*
G75*
G02*
X168475000Y-72975000I0J-200000D01*
G01*
X168475000Y-73375000D01*
G75*
G02*
X168275000Y-73575000I-200000J0D01*
G01*
X167725000Y-73575000D01*
G75*
G02*
X167525000Y-73375000I0J200000D01*
G01*
X167525000Y-72975000D01*
G75*
G02*
X167725000Y-72775000I200000J0D01*
G01*
G37*
G04 #@! TD*
G04 #@! TO.C,C5*
G36*
G01*
X119250000Y-144925000D02*
X118750000Y-144925000D01*
G75*
G02*
X118525000Y-144700000I0J225000D01*
G01*
X118525000Y-144250000D01*
G75*
G02*
X118750000Y-144025000I225000J0D01*
G01*
X119250000Y-144025000D01*
G75*
G02*
X119475000Y-144250000I0J-225000D01*
G01*
X119475000Y-144700000D01*
G75*
G02*
X119250000Y-144925000I-225000J0D01*
G01*
G37*
G36*
G01*
X119250000Y-146475000D02*
X118750000Y-146475000D01*
G75*
G02*
X118525000Y-146250000I0J225000D01*
G01*
X118525000Y-145800000D01*
G75*
G02*
X118750000Y-145575000I225000J0D01*
G01*
X119250000Y-145575000D01*
G75*
G02*
X119475000Y-145800000I0J-225000D01*
G01*
X119475000Y-146250000D01*
G75*
G02*
X119250000Y-146475000I-225000J0D01*
G01*
G37*
G04 #@! TD*
M02*
