G04 #@! TF.GenerationSoftware,KiCad,Pcbnew,5.1.8*
G04 #@! TF.CreationDate,2020-12-18T22:11:15+01:00*
G04 #@! TF.ProjectId,atx,6174782e-6b69-4636-9164-5f7063625858,rev?*
G04 #@! TF.SameCoordinates,Original*
G04 #@! TF.FileFunction,Legend,Top*
G04 #@! TF.FilePolarity,Positive*
%FSLAX46Y46*%
G04 Gerber Fmt 4.6, Leading zero omitted, Abs format (unit mm)*
G04 Created by KiCad (PCBNEW 5.1.8) date 2020-12-18 22:11:15*
%MOMM*%
%LPD*%
G01*
G04 APERTURE LIST*
%ADD10C,0.150000*%
%ADD11C,0.120000*%
%ADD12C,0.127000*%
%ADD13C,0.200000*%
%ADD14C,0.015000*%
%ADD15C,1.100000*%
%ADD16O,1.730000X2.030000*%
%ADD17R,1.730000X2.030000*%
%ADD18O,1.700000X1.700000*%
%ADD19R,1.700000X1.700000*%
%ADD20C,2.374900*%
%ADD21C,0.990600*%
%ADD22C,0.787400*%
%ADD23R,1.150000X1.400000*%
%ADD24C,1.428000*%
%ADD25R,1.428000X1.428000*%
%ADD26C,3.316000*%
%ADD27C,5.664200*%
%ADD28C,1.120000*%
%ADD29C,2.350000*%
%ADD30R,3.700000X3.700000*%
%ADD31R,1.400000X1.150000*%
%ADD32C,3.000000*%
%ADD33O,3.300000X2.700000*%
%ADD34C,0.800000*%
%ADD35C,6.400000*%
%ADD36C,1.524000*%
%ADD37C,3.251200*%
%ADD38C,2.362200*%
%ADD39C,1.714500*%
%ADD40C,1.600200*%
G04 APERTURE END LIST*
D10*
X28552380Y-136538095D02*
X28552380Y-135919047D01*
X28933333Y-136252380D01*
X28933333Y-136109523D01*
X28980952Y-136014285D01*
X29028571Y-135966666D01*
X29123809Y-135919047D01*
X29361904Y-135919047D01*
X29457142Y-135966666D01*
X29504761Y-136014285D01*
X29552380Y-136109523D01*
X29552380Y-136395238D01*
X29504761Y-136490476D01*
X29457142Y-136538095D01*
X28552380Y-135633333D02*
X29552380Y-135300000D01*
X28552380Y-134966666D01*
X28552380Y-134728571D02*
X28552380Y-134109523D01*
X28933333Y-134442857D01*
X28933333Y-134300000D01*
X28980952Y-134204761D01*
X29028571Y-134157142D01*
X29123809Y-134109523D01*
X29361904Y-134109523D01*
X29457142Y-134157142D01*
X29504761Y-134204761D01*
X29552380Y-134300000D01*
X29552380Y-134585714D01*
X29504761Y-134680952D01*
X29457142Y-134728571D01*
D11*
X32500000Y-149500000D02*
X33700000Y-150700000D01*
D10*
X23600000Y-136261904D02*
X23552380Y-136357142D01*
X23552380Y-136500000D01*
X23600000Y-136642857D01*
X23695238Y-136738095D01*
X23790476Y-136785714D01*
X23980952Y-136833333D01*
X24123809Y-136833333D01*
X24314285Y-136785714D01*
X24409523Y-136738095D01*
X24504761Y-136642857D01*
X24552380Y-136500000D01*
X24552380Y-136404761D01*
X24504761Y-136261904D01*
X24457142Y-136214285D01*
X24123809Y-136214285D01*
X24123809Y-136404761D01*
X24552380Y-135785714D02*
X23552380Y-135785714D01*
X24552380Y-135214285D01*
X23552380Y-135214285D01*
X24552380Y-134738095D02*
X23552380Y-134738095D01*
X23552380Y-134500000D01*
X23600000Y-134357142D01*
X23695238Y-134261904D01*
X23790476Y-134214285D01*
X23980952Y-134166666D01*
X24123809Y-134166666D01*
X24314285Y-134214285D01*
X24409523Y-134261904D01*
X24504761Y-134357142D01*
X24552380Y-134500000D01*
X24552380Y-134738095D01*
X23400000Y-125461904D02*
X23352380Y-125557142D01*
X23352380Y-125700000D01*
X23400000Y-125842857D01*
X23495238Y-125938095D01*
X23590476Y-125985714D01*
X23780952Y-126033333D01*
X23923809Y-126033333D01*
X24114285Y-125985714D01*
X24209523Y-125938095D01*
X24304761Y-125842857D01*
X24352380Y-125700000D01*
X24352380Y-125604761D01*
X24304761Y-125461904D01*
X24257142Y-125414285D01*
X23923809Y-125414285D01*
X23923809Y-125604761D01*
X24352380Y-124985714D02*
X23352380Y-124985714D01*
X24352380Y-124414285D01*
X23352380Y-124414285D01*
X24352380Y-123938095D02*
X23352380Y-123938095D01*
X23352380Y-123700000D01*
X23400000Y-123557142D01*
X23495238Y-123461904D01*
X23590476Y-123414285D01*
X23780952Y-123366666D01*
X23923809Y-123366666D01*
X24114285Y-123414285D01*
X24209523Y-123461904D01*
X24304761Y-123557142D01*
X24352380Y-123700000D01*
X24352380Y-123938095D01*
X29704761Y-125390476D02*
X29752380Y-125485714D01*
X29752380Y-125676190D01*
X29704761Y-125771428D01*
X29657142Y-125819047D01*
X29561904Y-125866666D01*
X29276190Y-125866666D01*
X29180952Y-125819047D01*
X29133333Y-125771428D01*
X29085714Y-125676190D01*
X29085714Y-125485714D01*
X29133333Y-125390476D01*
X29085714Y-124533333D02*
X29752380Y-124533333D01*
X28704761Y-124771428D02*
X29419047Y-125009523D01*
X29419047Y-124390476D01*
X29847619Y-124247619D02*
X29847619Y-123485714D01*
X29085714Y-122819047D02*
X29895238Y-122819047D01*
X29990476Y-122866666D01*
X30038095Y-122914285D01*
X30085714Y-123009523D01*
X30085714Y-123152380D01*
X30038095Y-123247619D01*
X29704761Y-122819047D02*
X29752380Y-122914285D01*
X29752380Y-123104761D01*
X29704761Y-123200000D01*
X29657142Y-123247619D01*
X29561904Y-123295238D01*
X29276190Y-123295238D01*
X29180952Y-123247619D01*
X29133333Y-123200000D01*
X29085714Y-123104761D01*
X29085714Y-122914285D01*
X29133333Y-122819047D01*
X29085714Y-122342857D02*
X30085714Y-122342857D01*
X29133333Y-122342857D02*
X29085714Y-122247619D01*
X29085714Y-122057142D01*
X29133333Y-121961904D01*
X29180952Y-121914285D01*
X29276190Y-121866666D01*
X29561904Y-121866666D01*
X29657142Y-121914285D01*
X29704761Y-121961904D01*
X29752380Y-122057142D01*
X29752380Y-122247619D01*
X29704761Y-122342857D01*
X29752380Y-121438095D02*
X29085714Y-121438095D01*
X28752380Y-121438095D02*
X28800000Y-121485714D01*
X28847619Y-121438095D01*
X28800000Y-121390476D01*
X28752380Y-121438095D01*
X28847619Y-121438095D01*
X29752380Y-120819047D02*
X29704761Y-120914285D01*
X29657142Y-120961904D01*
X29561904Y-121009523D01*
X29276190Y-121009523D01*
X29180952Y-120961904D01*
X29133333Y-120914285D01*
X29085714Y-120819047D01*
X29085714Y-120676190D01*
X29133333Y-120580952D01*
X29180952Y-120533333D01*
X29276190Y-120485714D01*
X29561904Y-120485714D01*
X29657142Y-120533333D01*
X29704761Y-120580952D01*
X29752380Y-120676190D01*
X29752380Y-120819047D01*
X29752380Y-119533333D02*
X29752380Y-120104761D01*
X29752380Y-119819047D02*
X28752380Y-119819047D01*
X28895238Y-119914285D01*
X28990476Y-120009523D01*
X29038095Y-120104761D01*
X27152380Y-137980952D02*
X26152380Y-137980952D01*
X26533333Y-137980952D02*
X26485714Y-137885714D01*
X26485714Y-137695238D01*
X26533333Y-137600000D01*
X26580952Y-137552380D01*
X26676190Y-137504761D01*
X26961904Y-137504761D01*
X27057142Y-137552380D01*
X27104761Y-137600000D01*
X27152380Y-137695238D01*
X27152380Y-137885714D01*
X27104761Y-137980952D01*
X27152380Y-136933333D02*
X27104761Y-137028571D01*
X27057142Y-137076190D01*
X26961904Y-137123809D01*
X26676190Y-137123809D01*
X26580952Y-137076190D01*
X26533333Y-137028571D01*
X26485714Y-136933333D01*
X26485714Y-136790476D01*
X26533333Y-136695238D01*
X26580952Y-136647619D01*
X26676190Y-136600000D01*
X26961904Y-136600000D01*
X27057142Y-136647619D01*
X27104761Y-136695238D01*
X27152380Y-136790476D01*
X27152380Y-136933333D01*
X27152380Y-136028571D02*
X27104761Y-136123809D01*
X27057142Y-136171428D01*
X26961904Y-136219047D01*
X26676190Y-136219047D01*
X26580952Y-136171428D01*
X26533333Y-136123809D01*
X26485714Y-136028571D01*
X26485714Y-135885714D01*
X26533333Y-135790476D01*
X26580952Y-135742857D01*
X26676190Y-135695238D01*
X26961904Y-135695238D01*
X27057142Y-135742857D01*
X27104761Y-135790476D01*
X27152380Y-135885714D01*
X27152380Y-136028571D01*
X26485714Y-135409523D02*
X26485714Y-135028571D01*
X26152380Y-135266666D02*
X27009523Y-135266666D01*
X27104761Y-135219047D01*
X27152380Y-135123809D01*
X27152380Y-135028571D01*
X26152380Y-134504761D02*
X26152380Y-134409523D01*
X26200000Y-134314285D01*
X26247619Y-134266666D01*
X26342857Y-134219047D01*
X26533333Y-134171428D01*
X26771428Y-134171428D01*
X26961904Y-134219047D01*
X27057142Y-134266666D01*
X27104761Y-134314285D01*
X27152380Y-134409523D01*
X27152380Y-134504761D01*
X27104761Y-134600000D01*
X27057142Y-134647619D01*
X26961904Y-134695238D01*
X26771428Y-134742857D01*
X26533333Y-134742857D01*
X26342857Y-134695238D01*
X26247619Y-134647619D01*
X26200000Y-134600000D01*
X26152380Y-134504761D01*
D11*
X32500000Y-149900000D02*
X32900000Y-149500000D01*
X32700000Y-149300000D02*
X32700000Y-150100000D01*
D10*
X27152380Y-125919047D02*
X26485714Y-125919047D01*
X26676190Y-125919047D02*
X26580952Y-125871428D01*
X26533333Y-125823809D01*
X26485714Y-125728571D01*
X26485714Y-125633333D01*
X27104761Y-124919047D02*
X27152380Y-125014285D01*
X27152380Y-125204761D01*
X27104761Y-125300000D01*
X27009523Y-125347619D01*
X26628571Y-125347619D01*
X26533333Y-125300000D01*
X26485714Y-125204761D01*
X26485714Y-125014285D01*
X26533333Y-124919047D01*
X26628571Y-124871428D01*
X26723809Y-124871428D01*
X26819047Y-125347619D01*
X27104761Y-124490476D02*
X27152380Y-124395238D01*
X27152380Y-124204761D01*
X27104761Y-124109523D01*
X27009523Y-124061904D01*
X26961904Y-124061904D01*
X26866666Y-124109523D01*
X26819047Y-124204761D01*
X26819047Y-124347619D01*
X26771428Y-124442857D01*
X26676190Y-124490476D01*
X26628571Y-124490476D01*
X26533333Y-124442857D01*
X26485714Y-124347619D01*
X26485714Y-124204761D01*
X26533333Y-124109523D01*
X27104761Y-123252380D02*
X27152380Y-123347619D01*
X27152380Y-123538095D01*
X27104761Y-123633333D01*
X27009523Y-123680952D01*
X26628571Y-123680952D01*
X26533333Y-123633333D01*
X26485714Y-123538095D01*
X26485714Y-123347619D01*
X26533333Y-123252380D01*
X26628571Y-123204761D01*
X26723809Y-123204761D01*
X26819047Y-123680952D01*
X26485714Y-122919047D02*
X26485714Y-122538095D01*
X26152380Y-122776190D02*
X27009523Y-122776190D01*
X27104761Y-122728571D01*
X27152380Y-122633333D01*
X27152380Y-122538095D01*
D11*
X32300000Y-149700000D02*
X33100000Y-149700000D01*
D10*
X99004761Y-165135595D02*
X99052380Y-165230833D01*
X99052380Y-165421309D01*
X99004761Y-165516547D01*
X98957142Y-165564166D01*
X98861904Y-165611785D01*
X98576190Y-165611785D01*
X98480952Y-165564166D01*
X98433333Y-165516547D01*
X98385714Y-165421309D01*
X98385714Y-165230833D01*
X98433333Y-165135595D01*
X99052380Y-164183214D02*
X99052380Y-164754642D01*
X99052380Y-164468928D02*
X98052380Y-164468928D01*
X98195238Y-164564166D01*
X98290476Y-164659404D01*
X98338095Y-164754642D01*
X99147619Y-163992738D02*
X99147619Y-163230833D01*
X99052380Y-162564166D02*
X98528571Y-162564166D01*
X98433333Y-162611785D01*
X98385714Y-162707023D01*
X98385714Y-162897500D01*
X98433333Y-162992738D01*
X99004761Y-162564166D02*
X99052380Y-162659404D01*
X99052380Y-162897500D01*
X99004761Y-162992738D01*
X98909523Y-163040357D01*
X98814285Y-163040357D01*
X98719047Y-162992738D01*
X98671428Y-162897500D01*
X98671428Y-162659404D01*
X98623809Y-162564166D01*
X99004761Y-161659404D02*
X99052380Y-161754642D01*
X99052380Y-161945119D01*
X99004761Y-162040357D01*
X98957142Y-162087976D01*
X98861904Y-162135595D01*
X98576190Y-162135595D01*
X98480952Y-162087976D01*
X98433333Y-162040357D01*
X98385714Y-161945119D01*
X98385714Y-161754642D01*
X98433333Y-161659404D01*
X98385714Y-161373690D02*
X98385714Y-160992738D01*
X98052380Y-161230833D02*
X98909523Y-161230833D01*
X99004761Y-161183214D01*
X99052380Y-161087976D01*
X99052380Y-160992738D01*
X105500000Y-163183214D02*
X105452380Y-163278452D01*
X105452380Y-163421309D01*
X105500000Y-163564166D01*
X105595238Y-163659404D01*
X105690476Y-163707023D01*
X105880952Y-163754642D01*
X106023809Y-163754642D01*
X106214285Y-163707023D01*
X106309523Y-163659404D01*
X106404761Y-163564166D01*
X106452380Y-163421309D01*
X106452380Y-163326071D01*
X106404761Y-163183214D01*
X106357142Y-163135595D01*
X106023809Y-163135595D01*
X106023809Y-163326071D01*
X106452380Y-162707023D02*
X105452380Y-162707023D01*
X106452380Y-162135595D01*
X105452380Y-162135595D01*
X106452380Y-161659404D02*
X105452380Y-161659404D01*
X105452380Y-161421309D01*
X105500000Y-161278452D01*
X105595238Y-161183214D01*
X105690476Y-161135595D01*
X105880952Y-161087976D01*
X106023809Y-161087976D01*
X106214285Y-161135595D01*
X106309523Y-161183214D01*
X106404761Y-161278452D01*
X106452380Y-161421309D01*
X106452380Y-161659404D01*
X101404761Y-164230833D02*
X101452380Y-164326071D01*
X101452380Y-164516547D01*
X101404761Y-164611785D01*
X101357142Y-164659404D01*
X101261904Y-164707023D01*
X100976190Y-164707023D01*
X100880952Y-164659404D01*
X100833333Y-164611785D01*
X100785714Y-164516547D01*
X100785714Y-164326071D01*
X100833333Y-164230833D01*
X101452380Y-163278452D02*
X101452380Y-163849880D01*
X101452380Y-163564166D02*
X100452380Y-163564166D01*
X100595238Y-163659404D01*
X100690476Y-163754642D01*
X100738095Y-163849880D01*
X101547619Y-163087976D02*
X101547619Y-162326071D01*
X101452380Y-162087976D02*
X100785714Y-162087976D01*
X100976190Y-162087976D02*
X100880952Y-162040357D01*
X100833333Y-161992738D01*
X100785714Y-161897500D01*
X100785714Y-161802261D01*
X101452380Y-161564166D02*
X100785714Y-161040357D01*
X100785714Y-161564166D02*
X101452380Y-161040357D01*
X96204761Y-166516547D02*
X96252380Y-166611785D01*
X96252380Y-166802261D01*
X96204761Y-166897500D01*
X96157142Y-166945119D01*
X96061904Y-166992738D01*
X95776190Y-166992738D01*
X95680952Y-166945119D01*
X95633333Y-166897500D01*
X95585714Y-166802261D01*
X95585714Y-166611785D01*
X95633333Y-166516547D01*
X96252380Y-165564166D02*
X96252380Y-166135595D01*
X96252380Y-165849880D02*
X95252380Y-165849880D01*
X95395238Y-165945119D01*
X95490476Y-166040357D01*
X95538095Y-166135595D01*
X96347619Y-165373690D02*
X96347619Y-164611785D01*
X96252380Y-164373690D02*
X95585714Y-164373690D01*
X95776190Y-164373690D02*
X95680952Y-164326071D01*
X95633333Y-164278452D01*
X95585714Y-164183214D01*
X95585714Y-164087976D01*
X96204761Y-163373690D02*
X96252380Y-163468928D01*
X96252380Y-163659404D01*
X96204761Y-163754642D01*
X96109523Y-163802261D01*
X95728571Y-163802261D01*
X95633333Y-163754642D01*
X95585714Y-163659404D01*
X95585714Y-163468928D01*
X95633333Y-163373690D01*
X95728571Y-163326071D01*
X95823809Y-163326071D01*
X95919047Y-163802261D01*
X96204761Y-162945119D02*
X96252380Y-162849880D01*
X96252380Y-162659404D01*
X96204761Y-162564166D01*
X96109523Y-162516547D01*
X96061904Y-162516547D01*
X95966666Y-162564166D01*
X95919047Y-162659404D01*
X95919047Y-162802261D01*
X95871428Y-162897500D01*
X95776190Y-162945119D01*
X95728571Y-162945119D01*
X95633333Y-162897500D01*
X95585714Y-162802261D01*
X95585714Y-162659404D01*
X95633333Y-162564166D01*
X96204761Y-161707023D02*
X96252380Y-161802261D01*
X96252380Y-161992738D01*
X96204761Y-162087976D01*
X96109523Y-162135595D01*
X95728571Y-162135595D01*
X95633333Y-162087976D01*
X95585714Y-161992738D01*
X95585714Y-161802261D01*
X95633333Y-161707023D01*
X95728571Y-161659404D01*
X95823809Y-161659404D01*
X95919047Y-162135595D01*
X95585714Y-161373690D02*
X95585714Y-160992738D01*
X95252380Y-161230833D02*
X96109523Y-161230833D01*
X96204761Y-161183214D01*
X96252380Y-161087976D01*
X96252380Y-160992738D01*
X104004761Y-164183214D02*
X104052380Y-164278452D01*
X104052380Y-164468928D01*
X104004761Y-164564166D01*
X103957142Y-164611785D01*
X103861904Y-164659404D01*
X103576190Y-164659404D01*
X103480952Y-164611785D01*
X103433333Y-164564166D01*
X103385714Y-164468928D01*
X103385714Y-164278452D01*
X103433333Y-164183214D01*
X104052380Y-163230833D02*
X104052380Y-163802261D01*
X104052380Y-163516547D02*
X103052380Y-163516547D01*
X103195238Y-163611785D01*
X103290476Y-163707023D01*
X103338095Y-163802261D01*
X104147619Y-163040357D02*
X104147619Y-162278452D01*
X103385714Y-162183214D02*
X103385714Y-161802261D01*
X103052380Y-162040357D02*
X103909523Y-162040357D01*
X104004761Y-161992738D01*
X104052380Y-161897500D01*
X104052380Y-161802261D01*
X104052380Y-161564166D02*
X103385714Y-161040357D01*
X103385714Y-161564166D02*
X104052380Y-161040357D01*
X86204761Y-164935595D02*
X86252380Y-165030833D01*
X86252380Y-165221309D01*
X86204761Y-165316547D01*
X86157142Y-165364166D01*
X86061904Y-165411785D01*
X85776190Y-165411785D01*
X85680952Y-165364166D01*
X85633333Y-165316547D01*
X85585714Y-165221309D01*
X85585714Y-165030833D01*
X85633333Y-164935595D01*
X85347619Y-164554642D02*
X85300000Y-164507023D01*
X85252380Y-164411785D01*
X85252380Y-164173690D01*
X85300000Y-164078452D01*
X85347619Y-164030833D01*
X85442857Y-163983214D01*
X85538095Y-163983214D01*
X85680952Y-164030833D01*
X86252380Y-164602261D01*
X86252380Y-163983214D01*
X86347619Y-163792738D02*
X86347619Y-163030833D01*
X86252380Y-162364166D02*
X85728571Y-162364166D01*
X85633333Y-162411785D01*
X85585714Y-162507023D01*
X85585714Y-162697500D01*
X85633333Y-162792738D01*
X86204761Y-162364166D02*
X86252380Y-162459404D01*
X86252380Y-162697500D01*
X86204761Y-162792738D01*
X86109523Y-162840357D01*
X86014285Y-162840357D01*
X85919047Y-162792738D01*
X85871428Y-162697500D01*
X85871428Y-162459404D01*
X85823809Y-162364166D01*
X86204761Y-161459404D02*
X86252380Y-161554642D01*
X86252380Y-161745119D01*
X86204761Y-161840357D01*
X86157142Y-161887976D01*
X86061904Y-161935595D01*
X85776190Y-161935595D01*
X85680952Y-161887976D01*
X85633333Y-161840357D01*
X85585714Y-161745119D01*
X85585714Y-161554642D01*
X85633333Y-161459404D01*
X85585714Y-161173690D02*
X85585714Y-160792738D01*
X85252380Y-161030833D02*
X86109523Y-161030833D01*
X86204761Y-160983214D01*
X86252380Y-160887976D01*
X86252380Y-160792738D01*
X92700000Y-162983214D02*
X92652380Y-163078452D01*
X92652380Y-163221309D01*
X92700000Y-163364166D01*
X92795238Y-163459404D01*
X92890476Y-163507023D01*
X93080952Y-163554642D01*
X93223809Y-163554642D01*
X93414285Y-163507023D01*
X93509523Y-163459404D01*
X93604761Y-163364166D01*
X93652380Y-163221309D01*
X93652380Y-163126071D01*
X93604761Y-162983214D01*
X93557142Y-162935595D01*
X93223809Y-162935595D01*
X93223809Y-163126071D01*
X93652380Y-162507023D02*
X92652380Y-162507023D01*
X93652380Y-161935595D01*
X92652380Y-161935595D01*
X93652380Y-161459404D02*
X92652380Y-161459404D01*
X92652380Y-161221309D01*
X92700000Y-161078452D01*
X92795238Y-160983214D01*
X92890476Y-160935595D01*
X93080952Y-160887976D01*
X93223809Y-160887976D01*
X93414285Y-160935595D01*
X93509523Y-160983214D01*
X93604761Y-161078452D01*
X93652380Y-161221309D01*
X93652380Y-161459404D01*
X88604761Y-164030833D02*
X88652380Y-164126071D01*
X88652380Y-164316547D01*
X88604761Y-164411785D01*
X88557142Y-164459404D01*
X88461904Y-164507023D01*
X88176190Y-164507023D01*
X88080952Y-164459404D01*
X88033333Y-164411785D01*
X87985714Y-164316547D01*
X87985714Y-164126071D01*
X88033333Y-164030833D01*
X87747619Y-163649880D02*
X87700000Y-163602261D01*
X87652380Y-163507023D01*
X87652380Y-163268928D01*
X87700000Y-163173690D01*
X87747619Y-163126071D01*
X87842857Y-163078452D01*
X87938095Y-163078452D01*
X88080952Y-163126071D01*
X88652380Y-163697500D01*
X88652380Y-163078452D01*
X88747619Y-162887976D02*
X88747619Y-162126071D01*
X88652380Y-161887976D02*
X87985714Y-161887976D01*
X88176190Y-161887976D02*
X88080952Y-161840357D01*
X88033333Y-161792738D01*
X87985714Y-161697500D01*
X87985714Y-161602261D01*
X88652380Y-161364166D02*
X87985714Y-160840357D01*
X87985714Y-161364166D02*
X88652380Y-160840357D01*
X83404761Y-166316547D02*
X83452380Y-166411785D01*
X83452380Y-166602261D01*
X83404761Y-166697500D01*
X83357142Y-166745119D01*
X83261904Y-166792738D01*
X82976190Y-166792738D01*
X82880952Y-166745119D01*
X82833333Y-166697500D01*
X82785714Y-166602261D01*
X82785714Y-166411785D01*
X82833333Y-166316547D01*
X82547619Y-165935595D02*
X82500000Y-165887976D01*
X82452380Y-165792738D01*
X82452380Y-165554642D01*
X82500000Y-165459404D01*
X82547619Y-165411785D01*
X82642857Y-165364166D01*
X82738095Y-165364166D01*
X82880952Y-165411785D01*
X83452380Y-165983214D01*
X83452380Y-165364166D01*
X83547619Y-165173690D02*
X83547619Y-164411785D01*
X83452380Y-164173690D02*
X82785714Y-164173690D01*
X82976190Y-164173690D02*
X82880952Y-164126071D01*
X82833333Y-164078452D01*
X82785714Y-163983214D01*
X82785714Y-163887976D01*
X83404761Y-163173690D02*
X83452380Y-163268928D01*
X83452380Y-163459404D01*
X83404761Y-163554642D01*
X83309523Y-163602261D01*
X82928571Y-163602261D01*
X82833333Y-163554642D01*
X82785714Y-163459404D01*
X82785714Y-163268928D01*
X82833333Y-163173690D01*
X82928571Y-163126071D01*
X83023809Y-163126071D01*
X83119047Y-163602261D01*
X83404761Y-162745119D02*
X83452380Y-162649880D01*
X83452380Y-162459404D01*
X83404761Y-162364166D01*
X83309523Y-162316547D01*
X83261904Y-162316547D01*
X83166666Y-162364166D01*
X83119047Y-162459404D01*
X83119047Y-162602261D01*
X83071428Y-162697500D01*
X82976190Y-162745119D01*
X82928571Y-162745119D01*
X82833333Y-162697500D01*
X82785714Y-162602261D01*
X82785714Y-162459404D01*
X82833333Y-162364166D01*
X83404761Y-161507023D02*
X83452380Y-161602261D01*
X83452380Y-161792738D01*
X83404761Y-161887976D01*
X83309523Y-161935595D01*
X82928571Y-161935595D01*
X82833333Y-161887976D01*
X82785714Y-161792738D01*
X82785714Y-161602261D01*
X82833333Y-161507023D01*
X82928571Y-161459404D01*
X83023809Y-161459404D01*
X83119047Y-161935595D01*
X82785714Y-161173690D02*
X82785714Y-160792738D01*
X82452380Y-161030833D02*
X83309523Y-161030833D01*
X83404761Y-160983214D01*
X83452380Y-160887976D01*
X83452380Y-160792738D01*
X91204761Y-163983214D02*
X91252380Y-164078452D01*
X91252380Y-164268928D01*
X91204761Y-164364166D01*
X91157142Y-164411785D01*
X91061904Y-164459404D01*
X90776190Y-164459404D01*
X90680952Y-164411785D01*
X90633333Y-164364166D01*
X90585714Y-164268928D01*
X90585714Y-164078452D01*
X90633333Y-163983214D01*
X90347619Y-163602261D02*
X90300000Y-163554642D01*
X90252380Y-163459404D01*
X90252380Y-163221309D01*
X90300000Y-163126071D01*
X90347619Y-163078452D01*
X90442857Y-163030833D01*
X90538095Y-163030833D01*
X90680952Y-163078452D01*
X91252380Y-163649880D01*
X91252380Y-163030833D01*
X91347619Y-162840357D02*
X91347619Y-162078452D01*
X90585714Y-161983214D02*
X90585714Y-161602261D01*
X90252380Y-161840357D02*
X91109523Y-161840357D01*
X91204761Y-161792738D01*
X91252380Y-161697500D01*
X91252380Y-161602261D01*
X91252380Y-161364166D02*
X90585714Y-160840357D01*
X90585714Y-161364166D02*
X91252380Y-160840357D01*
X73604761Y-164935595D02*
X73652380Y-165030833D01*
X73652380Y-165221309D01*
X73604761Y-165316547D01*
X73557142Y-165364166D01*
X73461904Y-165411785D01*
X73176190Y-165411785D01*
X73080952Y-165364166D01*
X73033333Y-165316547D01*
X72985714Y-165221309D01*
X72985714Y-165030833D01*
X73033333Y-164935595D01*
X72652380Y-164602261D02*
X72652380Y-163983214D01*
X73033333Y-164316547D01*
X73033333Y-164173690D01*
X73080952Y-164078452D01*
X73128571Y-164030833D01*
X73223809Y-163983214D01*
X73461904Y-163983214D01*
X73557142Y-164030833D01*
X73604761Y-164078452D01*
X73652380Y-164173690D01*
X73652380Y-164459404D01*
X73604761Y-164554642D01*
X73557142Y-164602261D01*
X73747619Y-163792738D02*
X73747619Y-163030833D01*
X73652380Y-162364166D02*
X73128571Y-162364166D01*
X73033333Y-162411785D01*
X72985714Y-162507023D01*
X72985714Y-162697500D01*
X73033333Y-162792738D01*
X73604761Y-162364166D02*
X73652380Y-162459404D01*
X73652380Y-162697500D01*
X73604761Y-162792738D01*
X73509523Y-162840357D01*
X73414285Y-162840357D01*
X73319047Y-162792738D01*
X73271428Y-162697500D01*
X73271428Y-162459404D01*
X73223809Y-162364166D01*
X73604761Y-161459404D02*
X73652380Y-161554642D01*
X73652380Y-161745119D01*
X73604761Y-161840357D01*
X73557142Y-161887976D01*
X73461904Y-161935595D01*
X73176190Y-161935595D01*
X73080952Y-161887976D01*
X73033333Y-161840357D01*
X72985714Y-161745119D01*
X72985714Y-161554642D01*
X73033333Y-161459404D01*
X72985714Y-161173690D02*
X72985714Y-160792738D01*
X72652380Y-161030833D02*
X73509523Y-161030833D01*
X73604761Y-160983214D01*
X73652380Y-160887976D01*
X73652380Y-160792738D01*
X80100000Y-162983214D02*
X80052380Y-163078452D01*
X80052380Y-163221309D01*
X80100000Y-163364166D01*
X80195238Y-163459404D01*
X80290476Y-163507023D01*
X80480952Y-163554642D01*
X80623809Y-163554642D01*
X80814285Y-163507023D01*
X80909523Y-163459404D01*
X81004761Y-163364166D01*
X81052380Y-163221309D01*
X81052380Y-163126071D01*
X81004761Y-162983214D01*
X80957142Y-162935595D01*
X80623809Y-162935595D01*
X80623809Y-163126071D01*
X81052380Y-162507023D02*
X80052380Y-162507023D01*
X81052380Y-161935595D01*
X80052380Y-161935595D01*
X81052380Y-161459404D02*
X80052380Y-161459404D01*
X80052380Y-161221309D01*
X80100000Y-161078452D01*
X80195238Y-160983214D01*
X80290476Y-160935595D01*
X80480952Y-160887976D01*
X80623809Y-160887976D01*
X80814285Y-160935595D01*
X80909523Y-160983214D01*
X81004761Y-161078452D01*
X81052380Y-161221309D01*
X81052380Y-161459404D01*
X76004761Y-164030833D02*
X76052380Y-164126071D01*
X76052380Y-164316547D01*
X76004761Y-164411785D01*
X75957142Y-164459404D01*
X75861904Y-164507023D01*
X75576190Y-164507023D01*
X75480952Y-164459404D01*
X75433333Y-164411785D01*
X75385714Y-164316547D01*
X75385714Y-164126071D01*
X75433333Y-164030833D01*
X75052380Y-163697500D02*
X75052380Y-163078452D01*
X75433333Y-163411785D01*
X75433333Y-163268928D01*
X75480952Y-163173690D01*
X75528571Y-163126071D01*
X75623809Y-163078452D01*
X75861904Y-163078452D01*
X75957142Y-163126071D01*
X76004761Y-163173690D01*
X76052380Y-163268928D01*
X76052380Y-163554642D01*
X76004761Y-163649880D01*
X75957142Y-163697500D01*
X76147619Y-162887976D02*
X76147619Y-162126071D01*
X76052380Y-161887976D02*
X75385714Y-161887976D01*
X75576190Y-161887976D02*
X75480952Y-161840357D01*
X75433333Y-161792738D01*
X75385714Y-161697500D01*
X75385714Y-161602261D01*
X76052380Y-161364166D02*
X75385714Y-160840357D01*
X75385714Y-161364166D02*
X76052380Y-160840357D01*
X70804761Y-166316547D02*
X70852380Y-166411785D01*
X70852380Y-166602261D01*
X70804761Y-166697500D01*
X70757142Y-166745119D01*
X70661904Y-166792738D01*
X70376190Y-166792738D01*
X70280952Y-166745119D01*
X70233333Y-166697500D01*
X70185714Y-166602261D01*
X70185714Y-166411785D01*
X70233333Y-166316547D01*
X69852380Y-165983214D02*
X69852380Y-165364166D01*
X70233333Y-165697500D01*
X70233333Y-165554642D01*
X70280952Y-165459404D01*
X70328571Y-165411785D01*
X70423809Y-165364166D01*
X70661904Y-165364166D01*
X70757142Y-165411785D01*
X70804761Y-165459404D01*
X70852380Y-165554642D01*
X70852380Y-165840357D01*
X70804761Y-165935595D01*
X70757142Y-165983214D01*
X70947619Y-165173690D02*
X70947619Y-164411785D01*
X70852380Y-164173690D02*
X70185714Y-164173690D01*
X70376190Y-164173690D02*
X70280952Y-164126071D01*
X70233333Y-164078452D01*
X70185714Y-163983214D01*
X70185714Y-163887976D01*
X70804761Y-163173690D02*
X70852380Y-163268928D01*
X70852380Y-163459404D01*
X70804761Y-163554642D01*
X70709523Y-163602261D01*
X70328571Y-163602261D01*
X70233333Y-163554642D01*
X70185714Y-163459404D01*
X70185714Y-163268928D01*
X70233333Y-163173690D01*
X70328571Y-163126071D01*
X70423809Y-163126071D01*
X70519047Y-163602261D01*
X70804761Y-162745119D02*
X70852380Y-162649880D01*
X70852380Y-162459404D01*
X70804761Y-162364166D01*
X70709523Y-162316547D01*
X70661904Y-162316547D01*
X70566666Y-162364166D01*
X70519047Y-162459404D01*
X70519047Y-162602261D01*
X70471428Y-162697500D01*
X70376190Y-162745119D01*
X70328571Y-162745119D01*
X70233333Y-162697500D01*
X70185714Y-162602261D01*
X70185714Y-162459404D01*
X70233333Y-162364166D01*
X70804761Y-161507023D02*
X70852380Y-161602261D01*
X70852380Y-161792738D01*
X70804761Y-161887976D01*
X70709523Y-161935595D01*
X70328571Y-161935595D01*
X70233333Y-161887976D01*
X70185714Y-161792738D01*
X70185714Y-161602261D01*
X70233333Y-161507023D01*
X70328571Y-161459404D01*
X70423809Y-161459404D01*
X70519047Y-161935595D01*
X70185714Y-161173690D02*
X70185714Y-160792738D01*
X69852380Y-161030833D02*
X70709523Y-161030833D01*
X70804761Y-160983214D01*
X70852380Y-160887976D01*
X70852380Y-160792738D01*
X78604761Y-163983214D02*
X78652380Y-164078452D01*
X78652380Y-164268928D01*
X78604761Y-164364166D01*
X78557142Y-164411785D01*
X78461904Y-164459404D01*
X78176190Y-164459404D01*
X78080952Y-164411785D01*
X78033333Y-164364166D01*
X77985714Y-164268928D01*
X77985714Y-164078452D01*
X78033333Y-163983214D01*
X77652380Y-163649880D02*
X77652380Y-163030833D01*
X78033333Y-163364166D01*
X78033333Y-163221309D01*
X78080952Y-163126071D01*
X78128571Y-163078452D01*
X78223809Y-163030833D01*
X78461904Y-163030833D01*
X78557142Y-163078452D01*
X78604761Y-163126071D01*
X78652380Y-163221309D01*
X78652380Y-163507023D01*
X78604761Y-163602261D01*
X78557142Y-163649880D01*
X78747619Y-162840357D02*
X78747619Y-162078452D01*
X77985714Y-161983214D02*
X77985714Y-161602261D01*
X77652380Y-161840357D02*
X78509523Y-161840357D01*
X78604761Y-161792738D01*
X78652380Y-161697500D01*
X78652380Y-161602261D01*
X78652380Y-161364166D02*
X77985714Y-160840357D01*
X77985714Y-161364166D02*
X78652380Y-160840357D01*
X58204761Y-166316547D02*
X58252380Y-166411785D01*
X58252380Y-166602261D01*
X58204761Y-166697500D01*
X58157142Y-166745119D01*
X58061904Y-166792738D01*
X57776190Y-166792738D01*
X57680952Y-166745119D01*
X57633333Y-166697500D01*
X57585714Y-166602261D01*
X57585714Y-166411785D01*
X57633333Y-166316547D01*
X57585714Y-165459404D02*
X58252380Y-165459404D01*
X57204761Y-165697500D02*
X57919047Y-165935595D01*
X57919047Y-165316547D01*
X58347619Y-165173690D02*
X58347619Y-164411785D01*
X58252380Y-164173690D02*
X57585714Y-164173690D01*
X57776190Y-164173690D02*
X57680952Y-164126071D01*
X57633333Y-164078452D01*
X57585714Y-163983214D01*
X57585714Y-163887976D01*
X58204761Y-163173690D02*
X58252380Y-163268928D01*
X58252380Y-163459404D01*
X58204761Y-163554642D01*
X58109523Y-163602261D01*
X57728571Y-163602261D01*
X57633333Y-163554642D01*
X57585714Y-163459404D01*
X57585714Y-163268928D01*
X57633333Y-163173690D01*
X57728571Y-163126071D01*
X57823809Y-163126071D01*
X57919047Y-163602261D01*
X58204761Y-162745119D02*
X58252380Y-162649880D01*
X58252380Y-162459404D01*
X58204761Y-162364166D01*
X58109523Y-162316547D01*
X58061904Y-162316547D01*
X57966666Y-162364166D01*
X57919047Y-162459404D01*
X57919047Y-162602261D01*
X57871428Y-162697500D01*
X57776190Y-162745119D01*
X57728571Y-162745119D01*
X57633333Y-162697500D01*
X57585714Y-162602261D01*
X57585714Y-162459404D01*
X57633333Y-162364166D01*
X58204761Y-161507023D02*
X58252380Y-161602261D01*
X58252380Y-161792738D01*
X58204761Y-161887976D01*
X58109523Y-161935595D01*
X57728571Y-161935595D01*
X57633333Y-161887976D01*
X57585714Y-161792738D01*
X57585714Y-161602261D01*
X57633333Y-161507023D01*
X57728571Y-161459404D01*
X57823809Y-161459404D01*
X57919047Y-161935595D01*
X57585714Y-161173690D02*
X57585714Y-160792738D01*
X57252380Y-161030833D02*
X58109523Y-161030833D01*
X58204761Y-160983214D01*
X58252380Y-160887976D01*
X58252380Y-160792738D01*
X66004761Y-163983214D02*
X66052380Y-164078452D01*
X66052380Y-164268928D01*
X66004761Y-164364166D01*
X65957142Y-164411785D01*
X65861904Y-164459404D01*
X65576190Y-164459404D01*
X65480952Y-164411785D01*
X65433333Y-164364166D01*
X65385714Y-164268928D01*
X65385714Y-164078452D01*
X65433333Y-163983214D01*
X65385714Y-163126071D02*
X66052380Y-163126071D01*
X65004761Y-163364166D02*
X65719047Y-163602261D01*
X65719047Y-162983214D01*
X66147619Y-162840357D02*
X66147619Y-162078452D01*
X65385714Y-161983214D02*
X65385714Y-161602261D01*
X65052380Y-161840357D02*
X65909523Y-161840357D01*
X66004761Y-161792738D01*
X66052380Y-161697500D01*
X66052380Y-161602261D01*
X66052380Y-161364166D02*
X65385714Y-160840357D01*
X65385714Y-161364166D02*
X66052380Y-160840357D01*
X67500000Y-162983214D02*
X67452380Y-163078452D01*
X67452380Y-163221309D01*
X67500000Y-163364166D01*
X67595238Y-163459404D01*
X67690476Y-163507023D01*
X67880952Y-163554642D01*
X68023809Y-163554642D01*
X68214285Y-163507023D01*
X68309523Y-163459404D01*
X68404761Y-163364166D01*
X68452380Y-163221309D01*
X68452380Y-163126071D01*
X68404761Y-162983214D01*
X68357142Y-162935595D01*
X68023809Y-162935595D01*
X68023809Y-163126071D01*
X68452380Y-162507023D02*
X67452380Y-162507023D01*
X68452380Y-161935595D01*
X67452380Y-161935595D01*
X68452380Y-161459404D02*
X67452380Y-161459404D01*
X67452380Y-161221309D01*
X67500000Y-161078452D01*
X67595238Y-160983214D01*
X67690476Y-160935595D01*
X67880952Y-160887976D01*
X68023809Y-160887976D01*
X68214285Y-160935595D01*
X68309523Y-160983214D01*
X68404761Y-161078452D01*
X68452380Y-161221309D01*
X68452380Y-161459404D01*
X63404761Y-164030833D02*
X63452380Y-164126071D01*
X63452380Y-164316547D01*
X63404761Y-164411785D01*
X63357142Y-164459404D01*
X63261904Y-164507023D01*
X62976190Y-164507023D01*
X62880952Y-164459404D01*
X62833333Y-164411785D01*
X62785714Y-164316547D01*
X62785714Y-164126071D01*
X62833333Y-164030833D01*
X62785714Y-163173690D02*
X63452380Y-163173690D01*
X62404761Y-163411785D02*
X63119047Y-163649880D01*
X63119047Y-163030833D01*
X63547619Y-162887976D02*
X63547619Y-162126071D01*
X63452380Y-161887976D02*
X62785714Y-161887976D01*
X62976190Y-161887976D02*
X62880952Y-161840357D01*
X62833333Y-161792738D01*
X62785714Y-161697500D01*
X62785714Y-161602261D01*
X63452380Y-161364166D02*
X62785714Y-160840357D01*
X62785714Y-161364166D02*
X63452380Y-160840357D01*
X98604761Y-153435833D02*
X98652380Y-153531071D01*
X98652380Y-153721547D01*
X98604761Y-153816785D01*
X98557142Y-153864404D01*
X98461904Y-153912023D01*
X98176190Y-153912023D01*
X98080952Y-153864404D01*
X98033333Y-153816785D01*
X97985714Y-153721547D01*
X97985714Y-153531071D01*
X98033333Y-153435833D01*
X98652380Y-152483452D02*
X98652380Y-153054880D01*
X98652380Y-152769166D02*
X97652380Y-152769166D01*
X97795238Y-152864404D01*
X97890476Y-152959642D01*
X97938095Y-153054880D01*
X98747619Y-152292976D02*
X98747619Y-151531071D01*
X98652380Y-151292976D02*
X97652380Y-151292976D01*
X98033333Y-151292976D02*
X97985714Y-151197738D01*
X97985714Y-151007261D01*
X98033333Y-150912023D01*
X98080952Y-150864404D01*
X98176190Y-150816785D01*
X98461904Y-150816785D01*
X98557142Y-150864404D01*
X98604761Y-150912023D01*
X98652380Y-151007261D01*
X98652380Y-151197738D01*
X98604761Y-151292976D01*
X98652380Y-150245357D02*
X98604761Y-150340595D01*
X98557142Y-150388214D01*
X98461904Y-150435833D01*
X98176190Y-150435833D01*
X98080952Y-150388214D01*
X98033333Y-150340595D01*
X97985714Y-150245357D01*
X97985714Y-150102500D01*
X98033333Y-150007261D01*
X98080952Y-149959642D01*
X98176190Y-149912023D01*
X98461904Y-149912023D01*
X98557142Y-149959642D01*
X98604761Y-150007261D01*
X98652380Y-150102500D01*
X98652380Y-150245357D01*
X98652380Y-149340595D02*
X98604761Y-149435833D01*
X98557142Y-149483452D01*
X98461904Y-149531071D01*
X98176190Y-149531071D01*
X98080952Y-149483452D01*
X98033333Y-149435833D01*
X97985714Y-149340595D01*
X97985714Y-149197738D01*
X98033333Y-149102500D01*
X98080952Y-149054880D01*
X98176190Y-149007261D01*
X98461904Y-149007261D01*
X98557142Y-149054880D01*
X98604761Y-149102500D01*
X98652380Y-149197738D01*
X98652380Y-149340595D01*
X97985714Y-148721547D02*
X97985714Y-148340595D01*
X97652380Y-148578690D02*
X98509523Y-148578690D01*
X98604761Y-148531071D01*
X98652380Y-148435833D01*
X98652380Y-148340595D01*
X103604761Y-153435833D02*
X103652380Y-153531071D01*
X103652380Y-153721547D01*
X103604761Y-153816785D01*
X103557142Y-153864404D01*
X103461904Y-153912023D01*
X103176190Y-153912023D01*
X103080952Y-153864404D01*
X103033333Y-153816785D01*
X102985714Y-153721547D01*
X102985714Y-153531071D01*
X103033333Y-153435833D01*
X103652380Y-152483452D02*
X103652380Y-153054880D01*
X103652380Y-152769166D02*
X102652380Y-152769166D01*
X102795238Y-152864404D01*
X102890476Y-152959642D01*
X102938095Y-153054880D01*
X103747619Y-152292976D02*
X103747619Y-151531071D01*
X102985714Y-151388214D02*
X103652380Y-151150119D01*
X102985714Y-150912023D01*
X103652380Y-150531071D02*
X102985714Y-150531071D01*
X103176190Y-150531071D02*
X103080952Y-150483452D01*
X103033333Y-150435833D01*
X102985714Y-150340595D01*
X102985714Y-150245357D01*
X103604761Y-149531071D02*
X103652380Y-149626309D01*
X103652380Y-149816785D01*
X103604761Y-149912023D01*
X103509523Y-149959642D01*
X103128571Y-149959642D01*
X103033333Y-149912023D01*
X102985714Y-149816785D01*
X102985714Y-149626309D01*
X103033333Y-149531071D01*
X103128571Y-149483452D01*
X103223809Y-149483452D01*
X103319047Y-149959642D01*
X102985714Y-149197738D02*
X102985714Y-148816785D01*
X103652380Y-149054880D02*
X102795238Y-149054880D01*
X102700000Y-149007261D01*
X102652380Y-148912023D01*
X102652380Y-148816785D01*
X105100000Y-153340595D02*
X105052380Y-153435833D01*
X105052380Y-153578690D01*
X105100000Y-153721547D01*
X105195238Y-153816785D01*
X105290476Y-153864404D01*
X105480952Y-153912023D01*
X105623809Y-153912023D01*
X105814285Y-153864404D01*
X105909523Y-153816785D01*
X106004761Y-153721547D01*
X106052380Y-153578690D01*
X106052380Y-153483452D01*
X106004761Y-153340595D01*
X105957142Y-153292976D01*
X105623809Y-153292976D01*
X105623809Y-153483452D01*
X106052380Y-152864404D02*
X105052380Y-152864404D01*
X106052380Y-152292976D01*
X105052380Y-152292976D01*
X106052380Y-151816785D02*
X105052380Y-151816785D01*
X105052380Y-151578690D01*
X105100000Y-151435833D01*
X105195238Y-151340595D01*
X105290476Y-151292976D01*
X105480952Y-151245357D01*
X105623809Y-151245357D01*
X105814285Y-151292976D01*
X105909523Y-151340595D01*
X106004761Y-151435833D01*
X106052380Y-151578690D01*
X106052380Y-151816785D01*
X101204761Y-153435833D02*
X101252380Y-153531071D01*
X101252380Y-153721547D01*
X101204761Y-153816785D01*
X101157142Y-153864404D01*
X101061904Y-153912023D01*
X100776190Y-153912023D01*
X100680952Y-153864404D01*
X100633333Y-153816785D01*
X100585714Y-153721547D01*
X100585714Y-153531071D01*
X100633333Y-153435833D01*
X101252380Y-152483452D02*
X101252380Y-153054880D01*
X101252380Y-152769166D02*
X100252380Y-152769166D01*
X100395238Y-152864404D01*
X100490476Y-152959642D01*
X100538095Y-153054880D01*
X101347619Y-152292976D02*
X101347619Y-151531071D01*
X100585714Y-151388214D02*
X101252380Y-151197738D01*
X100776190Y-151007261D01*
X101252380Y-150816785D01*
X100585714Y-150626309D01*
X100585714Y-150245357D02*
X101585714Y-150245357D01*
X100633333Y-150245357D02*
X100585714Y-150150119D01*
X100585714Y-149959642D01*
X100633333Y-149864404D01*
X100680952Y-149816785D01*
X100776190Y-149769166D01*
X101061904Y-149769166D01*
X101157142Y-149816785D01*
X101204761Y-149864404D01*
X101252380Y-149959642D01*
X101252380Y-150150119D01*
X101204761Y-150245357D01*
X86004761Y-153435833D02*
X86052380Y-153531071D01*
X86052380Y-153721547D01*
X86004761Y-153816785D01*
X85957142Y-153864404D01*
X85861904Y-153912023D01*
X85576190Y-153912023D01*
X85480952Y-153864404D01*
X85433333Y-153816785D01*
X85385714Y-153721547D01*
X85385714Y-153531071D01*
X85433333Y-153435833D01*
X85147619Y-153054880D02*
X85100000Y-153007261D01*
X85052380Y-152912023D01*
X85052380Y-152673928D01*
X85100000Y-152578690D01*
X85147619Y-152531071D01*
X85242857Y-152483452D01*
X85338095Y-152483452D01*
X85480952Y-152531071D01*
X86052380Y-153102500D01*
X86052380Y-152483452D01*
X86147619Y-152292976D02*
X86147619Y-151531071D01*
X86052380Y-151292976D02*
X85052380Y-151292976D01*
X85433333Y-151292976D02*
X85385714Y-151197738D01*
X85385714Y-151007261D01*
X85433333Y-150912023D01*
X85480952Y-150864404D01*
X85576190Y-150816785D01*
X85861904Y-150816785D01*
X85957142Y-150864404D01*
X86004761Y-150912023D01*
X86052380Y-151007261D01*
X86052380Y-151197738D01*
X86004761Y-151292976D01*
X86052380Y-150245357D02*
X86004761Y-150340595D01*
X85957142Y-150388214D01*
X85861904Y-150435833D01*
X85576190Y-150435833D01*
X85480952Y-150388214D01*
X85433333Y-150340595D01*
X85385714Y-150245357D01*
X85385714Y-150102500D01*
X85433333Y-150007261D01*
X85480952Y-149959642D01*
X85576190Y-149912023D01*
X85861904Y-149912023D01*
X85957142Y-149959642D01*
X86004761Y-150007261D01*
X86052380Y-150102500D01*
X86052380Y-150245357D01*
X86052380Y-149340595D02*
X86004761Y-149435833D01*
X85957142Y-149483452D01*
X85861904Y-149531071D01*
X85576190Y-149531071D01*
X85480952Y-149483452D01*
X85433333Y-149435833D01*
X85385714Y-149340595D01*
X85385714Y-149197738D01*
X85433333Y-149102500D01*
X85480952Y-149054880D01*
X85576190Y-149007261D01*
X85861904Y-149007261D01*
X85957142Y-149054880D01*
X86004761Y-149102500D01*
X86052380Y-149197738D01*
X86052380Y-149340595D01*
X85385714Y-148721547D02*
X85385714Y-148340595D01*
X85052380Y-148578690D02*
X85909523Y-148578690D01*
X86004761Y-148531071D01*
X86052380Y-148435833D01*
X86052380Y-148340595D01*
X91004761Y-153435833D02*
X91052380Y-153531071D01*
X91052380Y-153721547D01*
X91004761Y-153816785D01*
X90957142Y-153864404D01*
X90861904Y-153912023D01*
X90576190Y-153912023D01*
X90480952Y-153864404D01*
X90433333Y-153816785D01*
X90385714Y-153721547D01*
X90385714Y-153531071D01*
X90433333Y-153435833D01*
X90147619Y-153054880D02*
X90100000Y-153007261D01*
X90052380Y-152912023D01*
X90052380Y-152673928D01*
X90100000Y-152578690D01*
X90147619Y-152531071D01*
X90242857Y-152483452D01*
X90338095Y-152483452D01*
X90480952Y-152531071D01*
X91052380Y-153102500D01*
X91052380Y-152483452D01*
X91147619Y-152292976D02*
X91147619Y-151531071D01*
X90385714Y-151388214D02*
X91052380Y-151150119D01*
X90385714Y-150912023D01*
X91052380Y-150531071D02*
X90385714Y-150531071D01*
X90576190Y-150531071D02*
X90480952Y-150483452D01*
X90433333Y-150435833D01*
X90385714Y-150340595D01*
X90385714Y-150245357D01*
X91004761Y-149531071D02*
X91052380Y-149626309D01*
X91052380Y-149816785D01*
X91004761Y-149912023D01*
X90909523Y-149959642D01*
X90528571Y-149959642D01*
X90433333Y-149912023D01*
X90385714Y-149816785D01*
X90385714Y-149626309D01*
X90433333Y-149531071D01*
X90528571Y-149483452D01*
X90623809Y-149483452D01*
X90719047Y-149959642D01*
X90385714Y-149197738D02*
X90385714Y-148816785D01*
X91052380Y-149054880D02*
X90195238Y-149054880D01*
X90100000Y-149007261D01*
X90052380Y-148912023D01*
X90052380Y-148816785D01*
X92500000Y-153340595D02*
X92452380Y-153435833D01*
X92452380Y-153578690D01*
X92500000Y-153721547D01*
X92595238Y-153816785D01*
X92690476Y-153864404D01*
X92880952Y-153912023D01*
X93023809Y-153912023D01*
X93214285Y-153864404D01*
X93309523Y-153816785D01*
X93404761Y-153721547D01*
X93452380Y-153578690D01*
X93452380Y-153483452D01*
X93404761Y-153340595D01*
X93357142Y-153292976D01*
X93023809Y-153292976D01*
X93023809Y-153483452D01*
X93452380Y-152864404D02*
X92452380Y-152864404D01*
X93452380Y-152292976D01*
X92452380Y-152292976D01*
X93452380Y-151816785D02*
X92452380Y-151816785D01*
X92452380Y-151578690D01*
X92500000Y-151435833D01*
X92595238Y-151340595D01*
X92690476Y-151292976D01*
X92880952Y-151245357D01*
X93023809Y-151245357D01*
X93214285Y-151292976D01*
X93309523Y-151340595D01*
X93404761Y-151435833D01*
X93452380Y-151578690D01*
X93452380Y-151816785D01*
X88604761Y-153435833D02*
X88652380Y-153531071D01*
X88652380Y-153721547D01*
X88604761Y-153816785D01*
X88557142Y-153864404D01*
X88461904Y-153912023D01*
X88176190Y-153912023D01*
X88080952Y-153864404D01*
X88033333Y-153816785D01*
X87985714Y-153721547D01*
X87985714Y-153531071D01*
X88033333Y-153435833D01*
X87747619Y-153054880D02*
X87700000Y-153007261D01*
X87652380Y-152912023D01*
X87652380Y-152673928D01*
X87700000Y-152578690D01*
X87747619Y-152531071D01*
X87842857Y-152483452D01*
X87938095Y-152483452D01*
X88080952Y-152531071D01*
X88652380Y-153102500D01*
X88652380Y-152483452D01*
X88747619Y-152292976D02*
X88747619Y-151531071D01*
X87985714Y-151388214D02*
X88652380Y-151197738D01*
X88176190Y-151007261D01*
X88652380Y-150816785D01*
X87985714Y-150626309D01*
X87985714Y-150245357D02*
X88985714Y-150245357D01*
X88033333Y-150245357D02*
X87985714Y-150150119D01*
X87985714Y-149959642D01*
X88033333Y-149864404D01*
X88080952Y-149816785D01*
X88176190Y-149769166D01*
X88461904Y-149769166D01*
X88557142Y-149816785D01*
X88604761Y-149864404D01*
X88652380Y-149959642D01*
X88652380Y-150150119D01*
X88604761Y-150245357D01*
X73204761Y-153435833D02*
X73252380Y-153531071D01*
X73252380Y-153721547D01*
X73204761Y-153816785D01*
X73157142Y-153864404D01*
X73061904Y-153912023D01*
X72776190Y-153912023D01*
X72680952Y-153864404D01*
X72633333Y-153816785D01*
X72585714Y-153721547D01*
X72585714Y-153531071D01*
X72633333Y-153435833D01*
X72252380Y-153102500D02*
X72252380Y-152483452D01*
X72633333Y-152816785D01*
X72633333Y-152673928D01*
X72680952Y-152578690D01*
X72728571Y-152531071D01*
X72823809Y-152483452D01*
X73061904Y-152483452D01*
X73157142Y-152531071D01*
X73204761Y-152578690D01*
X73252380Y-152673928D01*
X73252380Y-152959642D01*
X73204761Y-153054880D01*
X73157142Y-153102500D01*
X73347619Y-152292976D02*
X73347619Y-151531071D01*
X73252380Y-151292976D02*
X72252380Y-151292976D01*
X72633333Y-151292976D02*
X72585714Y-151197738D01*
X72585714Y-151007261D01*
X72633333Y-150912023D01*
X72680952Y-150864404D01*
X72776190Y-150816785D01*
X73061904Y-150816785D01*
X73157142Y-150864404D01*
X73204761Y-150912023D01*
X73252380Y-151007261D01*
X73252380Y-151197738D01*
X73204761Y-151292976D01*
X73252380Y-150245357D02*
X73204761Y-150340595D01*
X73157142Y-150388214D01*
X73061904Y-150435833D01*
X72776190Y-150435833D01*
X72680952Y-150388214D01*
X72633333Y-150340595D01*
X72585714Y-150245357D01*
X72585714Y-150102500D01*
X72633333Y-150007261D01*
X72680952Y-149959642D01*
X72776190Y-149912023D01*
X73061904Y-149912023D01*
X73157142Y-149959642D01*
X73204761Y-150007261D01*
X73252380Y-150102500D01*
X73252380Y-150245357D01*
X73252380Y-149340595D02*
X73204761Y-149435833D01*
X73157142Y-149483452D01*
X73061904Y-149531071D01*
X72776190Y-149531071D01*
X72680952Y-149483452D01*
X72633333Y-149435833D01*
X72585714Y-149340595D01*
X72585714Y-149197738D01*
X72633333Y-149102500D01*
X72680952Y-149054880D01*
X72776190Y-149007261D01*
X73061904Y-149007261D01*
X73157142Y-149054880D01*
X73204761Y-149102500D01*
X73252380Y-149197738D01*
X73252380Y-149340595D01*
X72585714Y-148721547D02*
X72585714Y-148340595D01*
X72252380Y-148578690D02*
X73109523Y-148578690D01*
X73204761Y-148531071D01*
X73252380Y-148435833D01*
X73252380Y-148340595D01*
X78204761Y-153435833D02*
X78252380Y-153531071D01*
X78252380Y-153721547D01*
X78204761Y-153816785D01*
X78157142Y-153864404D01*
X78061904Y-153912023D01*
X77776190Y-153912023D01*
X77680952Y-153864404D01*
X77633333Y-153816785D01*
X77585714Y-153721547D01*
X77585714Y-153531071D01*
X77633333Y-153435833D01*
X77252380Y-153102500D02*
X77252380Y-152483452D01*
X77633333Y-152816785D01*
X77633333Y-152673928D01*
X77680952Y-152578690D01*
X77728571Y-152531071D01*
X77823809Y-152483452D01*
X78061904Y-152483452D01*
X78157142Y-152531071D01*
X78204761Y-152578690D01*
X78252380Y-152673928D01*
X78252380Y-152959642D01*
X78204761Y-153054880D01*
X78157142Y-153102500D01*
X78347619Y-152292976D02*
X78347619Y-151531071D01*
X77585714Y-151388214D02*
X78252380Y-151150119D01*
X77585714Y-150912023D01*
X78252380Y-150531071D02*
X77585714Y-150531071D01*
X77776190Y-150531071D02*
X77680952Y-150483452D01*
X77633333Y-150435833D01*
X77585714Y-150340595D01*
X77585714Y-150245357D01*
X78204761Y-149531071D02*
X78252380Y-149626309D01*
X78252380Y-149816785D01*
X78204761Y-149912023D01*
X78109523Y-149959642D01*
X77728571Y-149959642D01*
X77633333Y-149912023D01*
X77585714Y-149816785D01*
X77585714Y-149626309D01*
X77633333Y-149531071D01*
X77728571Y-149483452D01*
X77823809Y-149483452D01*
X77919047Y-149959642D01*
X77585714Y-149197738D02*
X77585714Y-148816785D01*
X78252380Y-149054880D02*
X77395238Y-149054880D01*
X77300000Y-149007261D01*
X77252380Y-148912023D01*
X77252380Y-148816785D01*
X79700000Y-153340595D02*
X79652380Y-153435833D01*
X79652380Y-153578690D01*
X79700000Y-153721547D01*
X79795238Y-153816785D01*
X79890476Y-153864404D01*
X80080952Y-153912023D01*
X80223809Y-153912023D01*
X80414285Y-153864404D01*
X80509523Y-153816785D01*
X80604761Y-153721547D01*
X80652380Y-153578690D01*
X80652380Y-153483452D01*
X80604761Y-153340595D01*
X80557142Y-153292976D01*
X80223809Y-153292976D01*
X80223809Y-153483452D01*
X80652380Y-152864404D02*
X79652380Y-152864404D01*
X80652380Y-152292976D01*
X79652380Y-152292976D01*
X80652380Y-151816785D02*
X79652380Y-151816785D01*
X79652380Y-151578690D01*
X79700000Y-151435833D01*
X79795238Y-151340595D01*
X79890476Y-151292976D01*
X80080952Y-151245357D01*
X80223809Y-151245357D01*
X80414285Y-151292976D01*
X80509523Y-151340595D01*
X80604761Y-151435833D01*
X80652380Y-151578690D01*
X80652380Y-151816785D01*
X75804761Y-153435833D02*
X75852380Y-153531071D01*
X75852380Y-153721547D01*
X75804761Y-153816785D01*
X75757142Y-153864404D01*
X75661904Y-153912023D01*
X75376190Y-153912023D01*
X75280952Y-153864404D01*
X75233333Y-153816785D01*
X75185714Y-153721547D01*
X75185714Y-153531071D01*
X75233333Y-153435833D01*
X74852380Y-153102500D02*
X74852380Y-152483452D01*
X75233333Y-152816785D01*
X75233333Y-152673928D01*
X75280952Y-152578690D01*
X75328571Y-152531071D01*
X75423809Y-152483452D01*
X75661904Y-152483452D01*
X75757142Y-152531071D01*
X75804761Y-152578690D01*
X75852380Y-152673928D01*
X75852380Y-152959642D01*
X75804761Y-153054880D01*
X75757142Y-153102500D01*
X75947619Y-152292976D02*
X75947619Y-151531071D01*
X75185714Y-151388214D02*
X75852380Y-151197738D01*
X75376190Y-151007261D01*
X75852380Y-150816785D01*
X75185714Y-150626309D01*
X75185714Y-150245357D02*
X76185714Y-150245357D01*
X75233333Y-150245357D02*
X75185714Y-150150119D01*
X75185714Y-149959642D01*
X75233333Y-149864404D01*
X75280952Y-149816785D01*
X75376190Y-149769166D01*
X75661904Y-149769166D01*
X75757142Y-149816785D01*
X75804761Y-149864404D01*
X75852380Y-149959642D01*
X75852380Y-150150119D01*
X75804761Y-150245357D01*
X67100000Y-153340595D02*
X67052380Y-153435833D01*
X67052380Y-153578690D01*
X67100000Y-153721547D01*
X67195238Y-153816785D01*
X67290476Y-153864404D01*
X67480952Y-153912023D01*
X67623809Y-153912023D01*
X67814285Y-153864404D01*
X67909523Y-153816785D01*
X68004761Y-153721547D01*
X68052380Y-153578690D01*
X68052380Y-153483452D01*
X68004761Y-153340595D01*
X67957142Y-153292976D01*
X67623809Y-153292976D01*
X67623809Y-153483452D01*
X68052380Y-152864404D02*
X67052380Y-152864404D01*
X68052380Y-152292976D01*
X67052380Y-152292976D01*
X68052380Y-151816785D02*
X67052380Y-151816785D01*
X67052380Y-151578690D01*
X67100000Y-151435833D01*
X67195238Y-151340595D01*
X67290476Y-151292976D01*
X67480952Y-151245357D01*
X67623809Y-151245357D01*
X67814285Y-151292976D01*
X67909523Y-151340595D01*
X68004761Y-151435833D01*
X68052380Y-151578690D01*
X68052380Y-151816785D01*
X65604761Y-153435833D02*
X65652380Y-153531071D01*
X65652380Y-153721547D01*
X65604761Y-153816785D01*
X65557142Y-153864404D01*
X65461904Y-153912023D01*
X65176190Y-153912023D01*
X65080952Y-153864404D01*
X65033333Y-153816785D01*
X64985714Y-153721547D01*
X64985714Y-153531071D01*
X65033333Y-153435833D01*
X64985714Y-152578690D02*
X65652380Y-152578690D01*
X64604761Y-152816785D02*
X65319047Y-153054880D01*
X65319047Y-152435833D01*
X65747619Y-152292976D02*
X65747619Y-151531071D01*
X64985714Y-151388214D02*
X65652380Y-151150119D01*
X64985714Y-150912023D01*
X65652380Y-150531071D02*
X64985714Y-150531071D01*
X65176190Y-150531071D02*
X65080952Y-150483452D01*
X65033333Y-150435833D01*
X64985714Y-150340595D01*
X64985714Y-150245357D01*
X65604761Y-149531071D02*
X65652380Y-149626309D01*
X65652380Y-149816785D01*
X65604761Y-149912023D01*
X65509523Y-149959642D01*
X65128571Y-149959642D01*
X65033333Y-149912023D01*
X64985714Y-149816785D01*
X64985714Y-149626309D01*
X65033333Y-149531071D01*
X65128571Y-149483452D01*
X65223809Y-149483452D01*
X65319047Y-149959642D01*
X64985714Y-149197738D02*
X64985714Y-148816785D01*
X65652380Y-149054880D02*
X64795238Y-149054880D01*
X64700000Y-149007261D01*
X64652380Y-148912023D01*
X64652380Y-148816785D01*
D11*
G04 #@! TO.C,U2*
X17390000Y-106000000D02*
X17390000Y-108925000D01*
X17390000Y-106000000D02*
X17390000Y-104500000D01*
X20610000Y-106000000D02*
X20610000Y-107500000D01*
X20610000Y-106000000D02*
X20610000Y-104500000D01*
G04 #@! TO.C,R24*
X15237258Y-92977500D02*
X14762742Y-92977500D01*
X15237258Y-94022500D02*
X14762742Y-94022500D01*
G04 #@! TO.C,R23*
X15237258Y-102977500D02*
X14762742Y-102977500D01*
X15237258Y-104022500D02*
X14762742Y-104022500D01*
G04 #@! TO.C,R22*
X16737258Y-114727500D02*
X16262742Y-114727500D01*
X16737258Y-115772500D02*
X16262742Y-115772500D01*
G04 #@! TO.C,R21*
X19512742Y-115772500D02*
X19987258Y-115772500D01*
X19512742Y-114727500D02*
X19987258Y-114727500D01*
G04 #@! TO.C,M2*
X19080000Y-90790000D02*
X19080000Y-91800000D01*
X14000000Y-90790000D02*
X19080000Y-90790000D01*
X14000000Y-91800000D02*
X14000000Y-90790000D01*
X12650000Y-91900000D02*
X12650000Y-85900000D01*
X22950000Y-91900000D02*
X12650000Y-91900000D01*
X22950000Y-85950000D02*
X22950000Y-91900000D01*
X19750000Y-85950000D02*
X22950000Y-85950000D01*
X12650000Y-85900000D02*
X18400000Y-85900000D01*
G04 #@! TO.C,M1*
X19080000Y-100290000D02*
X19080000Y-101300000D01*
X14000000Y-100290000D02*
X19080000Y-100290000D01*
X14000000Y-101300000D02*
X14000000Y-100290000D01*
X12650000Y-101400000D02*
X12650000Y-95400000D01*
X22950000Y-101400000D02*
X12650000Y-101400000D01*
X22950000Y-95450000D02*
X22950000Y-101400000D01*
X19750000Y-95450000D02*
X22950000Y-95450000D01*
X12650000Y-95400000D02*
X18400000Y-95400000D01*
G04 #@! TO.C,C9*
X20859420Y-111510000D02*
X21140580Y-111510000D01*
X20859420Y-110490000D02*
X21140580Y-110490000D01*
G04 #@! TO.C,J4*
X30580000Y-128070000D02*
X30580000Y-129400000D01*
X29250000Y-128070000D02*
X30580000Y-128070000D01*
X30580000Y-130670000D02*
X30580000Y-133270000D01*
X27980000Y-130670000D02*
X30580000Y-130670000D01*
X27980000Y-128070000D02*
X27980000Y-130670000D01*
X30580000Y-133270000D02*
X22840000Y-133270000D01*
X27980000Y-128070000D02*
X22840000Y-128070000D01*
X22840000Y-128070000D02*
X22840000Y-133270000D01*
G04 #@! TO.C,C6*
X36159420Y-150010000D02*
X36440580Y-150010000D01*
X36159420Y-148990000D02*
X36440580Y-148990000D01*
G04 #@! TO.C,C7*
X36440580Y-142990000D02*
X36159420Y-142990000D01*
X36440580Y-144010000D02*
X36159420Y-144010000D01*
G04 #@! TO.C,U1*
X32110000Y-148860000D02*
X33400000Y-148860000D01*
X32110000Y-149310000D02*
X32110000Y-148860000D01*
X31660000Y-149310000D02*
X32110000Y-149310000D01*
X24890000Y-149310000D02*
X24890000Y-148860000D01*
X25340000Y-149310000D02*
X24890000Y-149310000D01*
X32110000Y-142090000D02*
X32110000Y-142540000D01*
X31660000Y-142090000D02*
X32110000Y-142090000D01*
X24890000Y-142090000D02*
X24890000Y-142540000D01*
X25340000Y-142090000D02*
X24890000Y-142090000D01*
G04 #@! TO.C,J6*
X11805000Y-143530000D02*
X11805000Y-144165000D01*
X11170000Y-143530000D02*
X11805000Y-143530000D01*
G04 #@! TO.C,C8*
X21290000Y-150859420D02*
X21290000Y-151140580D01*
X22310000Y-150859420D02*
X22310000Y-151140580D01*
G04 #@! TO.C,Y2*
X37875000Y-148500000D02*
X37875000Y-144500000D01*
X34725000Y-148500000D02*
X37875000Y-148500000D01*
D12*
G04 #@! TO.C,J7*
X81850000Y-8760000D02*
X81850000Y-13130000D01*
X81850000Y-13130000D02*
X69650000Y-13130000D01*
X69650000Y-13130000D02*
X69650000Y-8760000D01*
X81850000Y-4890000D02*
X81850000Y3370000D01*
X81850000Y3370000D02*
X69650000Y3370000D01*
X69650000Y3370000D02*
X69650000Y-4890000D01*
D13*
X69200000Y-11500000D02*
G75*
G03*
X69200000Y-11500000I-200000J0D01*
G01*
D12*
G04 #@! TO.C,J5*
X62850000Y-8760000D02*
X62850000Y-13130000D01*
X62850000Y-13130000D02*
X50650000Y-13130000D01*
X50650000Y-13130000D02*
X50650000Y-8760000D01*
X62850000Y-4890000D02*
X62850000Y3370000D01*
X62850000Y3370000D02*
X50650000Y3370000D01*
X50650000Y3370000D02*
X50650000Y-4890000D01*
D13*
X50200000Y-11500000D02*
G75*
G03*
X50200000Y-11500000I-200000J0D01*
G01*
D11*
G04 #@! TO.C,R20*
X48022500Y-126237258D02*
X48022500Y-125762742D01*
X46977500Y-126237258D02*
X46977500Y-125762742D01*
G04 #@! TO.C,R19*
X61977500Y-125762742D02*
X61977500Y-126237258D01*
X63022500Y-125762742D02*
X63022500Y-126237258D01*
D12*
G04 #@! TO.C,TP4*
X161839720Y-62000000D02*
G75*
G03*
X161839720Y-62000000I-2839720J0D01*
G01*
G04 #@! TO.C,TP3*
X150839720Y-62000000D02*
G75*
G03*
X150839720Y-62000000I-2839720J0D01*
G01*
G04 #@! TO.C,TP2*
X161839720Y-75000000D02*
G75*
G03*
X161839720Y-75000000I-2839720J0D01*
G01*
G04 #@! TO.C,TP1*
X150839720Y-75000000D02*
G75*
G03*
X150839720Y-75000000I-2839720J0D01*
G01*
D11*
G04 #@! TO.C,C4*
X123859420Y-137490000D02*
X124140580Y-137490000D01*
X123859420Y-138510000D02*
X124140580Y-138510000D01*
G04 #@! TO.C,C3*
X121510000Y-140859420D02*
X121510000Y-141140580D01*
X120490000Y-140859420D02*
X120490000Y-141140580D01*
G04 #@! TO.C,U4*
X126385000Y-145890000D02*
X127110000Y-145890000D01*
X127110000Y-145890000D02*
X127110000Y-146615000D01*
X121615000Y-152110000D02*
X120890000Y-152110000D01*
X120890000Y-152110000D02*
X120890000Y-151385000D01*
X126385000Y-152110000D02*
X127110000Y-152110000D01*
X127110000Y-152110000D02*
X127110000Y-151385000D01*
X121615000Y-145890000D02*
X120890000Y-145890000D01*
G04 #@! TO.C,R11*
X129477500Y-149737258D02*
X129477500Y-149262742D01*
X130522500Y-149737258D02*
X130522500Y-149262742D01*
G04 #@! TO.C,R9*
X132727500Y-141237258D02*
X132727500Y-140762742D01*
X133772500Y-141237258D02*
X133772500Y-140762742D01*
G04 #@! TO.C,R15*
X64522500Y-125762742D02*
X64522500Y-126237258D01*
X63477500Y-125762742D02*
X63477500Y-126237258D01*
G04 #@! TO.C,R10*
X129477500Y-146737258D02*
X129477500Y-146262742D01*
X130522500Y-146737258D02*
X130522500Y-146262742D01*
G04 #@! TO.C,J1*
X56410000Y-154670000D02*
X56410000Y-159870000D01*
X104730000Y-154670000D02*
X56410000Y-154670000D01*
X107330000Y-159870000D02*
X56410000Y-159870000D01*
X104730000Y-154670000D02*
X104730000Y-157270000D01*
X104730000Y-157270000D02*
X107330000Y-157270000D01*
X107330000Y-157270000D02*
X107330000Y-159870000D01*
X106000000Y-154670000D02*
X107330000Y-154670000D01*
X107330000Y-154670000D02*
X107330000Y-156000000D01*
G04 #@! TO.C,Y1*
X122000000Y-142575000D02*
X126000000Y-142575000D01*
X122000000Y-139425000D02*
X122000000Y-142575000D01*
G04 #@! TO.C,R5*
X117477500Y-141237258D02*
X117477500Y-140762742D01*
X118522500Y-141237258D02*
X118522500Y-140762742D01*
G04 #@! TO.C,R2*
X100722500Y-125762742D02*
X100722500Y-126237258D01*
X99677500Y-125762742D02*
X99677500Y-126237258D01*
G04 #@! TO.C,J3*
X161280000Y-153700000D02*
X161280000Y-151810000D01*
X164800000Y-153700000D02*
X164800000Y-151810000D01*
X161280000Y-98100000D02*
X161280000Y-99990000D01*
X164800000Y-98100000D02*
X164800000Y-99990000D01*
X155640000Y-125900000D02*
X155640000Y-151810000D01*
X155640000Y-151810000D02*
X165460000Y-151810000D01*
X165460000Y-151810000D02*
X165460000Y-127710000D01*
X165460000Y-127710000D02*
X166860000Y-127710000D01*
X166860000Y-127710000D02*
X166860000Y-125900000D01*
X155640000Y-125900000D02*
X155640000Y-99990000D01*
X155640000Y-99990000D02*
X165460000Y-99990000D01*
X165460000Y-99990000D02*
X165460000Y-124090000D01*
X165460000Y-124090000D02*
X166860000Y-124090000D01*
X166860000Y-124090000D02*
X166860000Y-125900000D01*
X155400000Y-149200000D02*
X155400000Y-152050000D01*
X155400000Y-152050000D02*
X158250000Y-152050000D01*
X164800000Y-98100000D02*
G75*
G03*
X161280000Y-98100000I-1760000J0D01*
G01*
X161280000Y-153700000D02*
G75*
G03*
X164800000Y-153700000I1760000J0D01*
G01*
G04 #@! TO.C,R4*
X99122500Y-125762742D02*
X99122500Y-126237258D01*
X98077500Y-125762742D02*
X98077500Y-126237258D01*
G04 #@! TO.C,R14*
X51522500Y-125762742D02*
X51522500Y-126237258D01*
X50477500Y-125762742D02*
X50477500Y-126237258D01*
G04 #@! TO.C,R1*
X83722500Y-125762742D02*
X83722500Y-126237258D01*
X82677500Y-125762742D02*
X82677500Y-126237258D01*
G04 #@! TO.C,R12*
X129727500Y-141237258D02*
X129727500Y-140762742D01*
X130772500Y-141237258D02*
X130772500Y-140762742D01*
G04 #@! TO.C,R13*
X132022500Y-149262742D02*
X132022500Y-149737258D01*
X130977500Y-149262742D02*
X130977500Y-149737258D01*
G04 #@! TO.C,R6*
X49722500Y-125762742D02*
X49722500Y-126237258D01*
X48677500Y-125762742D02*
X48677500Y-126237258D01*
G04 #@! TO.C,C1*
X120010000Y-140859420D02*
X120010000Y-141140580D01*
X118990000Y-140859420D02*
X118990000Y-141140580D01*
G04 #@! TO.C,R8*
X131227500Y-141237258D02*
X131227500Y-140762742D01*
X132272500Y-141237258D02*
X132272500Y-140762742D01*
G04 #@! TO.C,R7*
X66522500Y-125762742D02*
X66522500Y-126237258D01*
X65477500Y-125762742D02*
X65477500Y-126237258D01*
G04 #@! TO.C,C2*
X124640580Y-155010000D02*
X124359420Y-155010000D01*
X124640580Y-153990000D02*
X124359420Y-153990000D01*
G04 #@! TO.C,R3*
X85522500Y-125762742D02*
X85522500Y-126237258D01*
X84477500Y-125762742D02*
X84477500Y-126237258D01*
D12*
G04 #@! TO.C,J2*
X108162000Y-25327800D02*
X94369800Y-25327800D01*
X122132000Y-25327800D02*
X111718000Y-25327800D01*
X135848000Y-25327800D02*
X125815000Y-25327800D01*
X153450200Y-24562000D02*
X153450200Y-25327800D01*
X94369800Y-20480000D02*
X94369800Y-25327800D01*
X94369800Y-17022000D02*
X94369800Y-4499800D01*
X139404000Y-25327800D02*
X153450200Y-25327800D01*
X153450200Y-21086000D02*
X153450200Y-4626800D01*
D13*
X154635000Y-11960000D02*
G75*
G03*
X154635000Y-11960000I-100000J0D01*
G01*
D11*
G04 #@! TO.C,D1*
X141735000Y-74800000D02*
X141735000Y-72515000D01*
X141735000Y-72515000D02*
X140265000Y-72515000D01*
X140265000Y-72515000D02*
X140265000Y-74800000D01*
G04 #@! TO.C,R16*
X139522500Y-73762742D02*
X139522500Y-74237258D01*
X138477500Y-73762742D02*
X138477500Y-74237258D01*
G04 #@! TO.C,D2*
X140265000Y-62200000D02*
X140265000Y-64485000D01*
X140265000Y-64485000D02*
X141735000Y-64485000D01*
X141735000Y-64485000D02*
X141735000Y-62200000D01*
G04 #@! TO.C,D3*
X166735000Y-74800000D02*
X166735000Y-72515000D01*
X166735000Y-72515000D02*
X165265000Y-72515000D01*
X165265000Y-72515000D02*
X165265000Y-74800000D01*
G04 #@! TO.C,R17*
X138477500Y-63237258D02*
X138477500Y-62762742D01*
X139522500Y-63237258D02*
X139522500Y-62762742D01*
G04 #@! TO.C,R18*
X168522500Y-73762742D02*
X168522500Y-74237258D01*
X167477500Y-73762742D02*
X167477500Y-74237258D01*
G04 #@! TO.C,C5*
X118490000Y-145390580D02*
X118490000Y-145109420D01*
X119510000Y-145390580D02*
X119510000Y-145109420D01*
G04 #@! TO.C,U2*
D10*
X16002380Y-106761904D02*
X16811904Y-106761904D01*
X16907142Y-106714285D01*
X16954761Y-106666666D01*
X17002380Y-106571428D01*
X17002380Y-106380952D01*
X16954761Y-106285714D01*
X16907142Y-106238095D01*
X16811904Y-106190476D01*
X16002380Y-106190476D01*
X16097619Y-105761904D02*
X16050000Y-105714285D01*
X16002380Y-105619047D01*
X16002380Y-105380952D01*
X16050000Y-105285714D01*
X16097619Y-105238095D01*
X16192857Y-105190476D01*
X16288095Y-105190476D01*
X16430952Y-105238095D01*
X17002380Y-105809523D01*
X17002380Y-105190476D01*
G04 #@! TO.C,R24*
X14357142Y-95382380D02*
X14023809Y-94906190D01*
X13785714Y-95382380D02*
X13785714Y-94382380D01*
X14166666Y-94382380D01*
X14261904Y-94430000D01*
X14309523Y-94477619D01*
X14357142Y-94572857D01*
X14357142Y-94715714D01*
X14309523Y-94810952D01*
X14261904Y-94858571D01*
X14166666Y-94906190D01*
X13785714Y-94906190D01*
X14738095Y-94477619D02*
X14785714Y-94430000D01*
X14880952Y-94382380D01*
X15119047Y-94382380D01*
X15214285Y-94430000D01*
X15261904Y-94477619D01*
X15309523Y-94572857D01*
X15309523Y-94668095D01*
X15261904Y-94810952D01*
X14690476Y-95382380D01*
X15309523Y-95382380D01*
X16166666Y-94715714D02*
X16166666Y-95382380D01*
X15928571Y-94334761D02*
X15690476Y-95049047D01*
X16309523Y-95049047D01*
G04 #@! TO.C,R23*
X14357142Y-105382380D02*
X14023809Y-104906190D01*
X13785714Y-105382380D02*
X13785714Y-104382380D01*
X14166666Y-104382380D01*
X14261904Y-104430000D01*
X14309523Y-104477619D01*
X14357142Y-104572857D01*
X14357142Y-104715714D01*
X14309523Y-104810952D01*
X14261904Y-104858571D01*
X14166666Y-104906190D01*
X13785714Y-104906190D01*
X14738095Y-104477619D02*
X14785714Y-104430000D01*
X14880952Y-104382380D01*
X15119047Y-104382380D01*
X15214285Y-104430000D01*
X15261904Y-104477619D01*
X15309523Y-104572857D01*
X15309523Y-104668095D01*
X15261904Y-104810952D01*
X14690476Y-105382380D01*
X15309523Y-105382380D01*
X15642857Y-104382380D02*
X16261904Y-104382380D01*
X15928571Y-104763333D01*
X16071428Y-104763333D01*
X16166666Y-104810952D01*
X16214285Y-104858571D01*
X16261904Y-104953809D01*
X16261904Y-105191904D01*
X16214285Y-105287142D01*
X16166666Y-105334761D01*
X16071428Y-105382380D01*
X15785714Y-105382380D01*
X15690476Y-105334761D01*
X15642857Y-105287142D01*
G04 #@! TO.C,R22*
X15857142Y-117132380D02*
X15523809Y-116656190D01*
X15285714Y-117132380D02*
X15285714Y-116132380D01*
X15666666Y-116132380D01*
X15761904Y-116180000D01*
X15809523Y-116227619D01*
X15857142Y-116322857D01*
X15857142Y-116465714D01*
X15809523Y-116560952D01*
X15761904Y-116608571D01*
X15666666Y-116656190D01*
X15285714Y-116656190D01*
X16238095Y-116227619D02*
X16285714Y-116180000D01*
X16380952Y-116132380D01*
X16619047Y-116132380D01*
X16714285Y-116180000D01*
X16761904Y-116227619D01*
X16809523Y-116322857D01*
X16809523Y-116418095D01*
X16761904Y-116560952D01*
X16190476Y-117132380D01*
X16809523Y-117132380D01*
X17190476Y-116227619D02*
X17238095Y-116180000D01*
X17333333Y-116132380D01*
X17571428Y-116132380D01*
X17666666Y-116180000D01*
X17714285Y-116227619D01*
X17761904Y-116322857D01*
X17761904Y-116418095D01*
X17714285Y-116560952D01*
X17142857Y-117132380D01*
X17761904Y-117132380D01*
G04 #@! TO.C,R21*
X19107142Y-114272380D02*
X18773809Y-113796190D01*
X18535714Y-114272380D02*
X18535714Y-113272380D01*
X18916666Y-113272380D01*
X19011904Y-113320000D01*
X19059523Y-113367619D01*
X19107142Y-113462857D01*
X19107142Y-113605714D01*
X19059523Y-113700952D01*
X19011904Y-113748571D01*
X18916666Y-113796190D01*
X18535714Y-113796190D01*
X19488095Y-113367619D02*
X19535714Y-113320000D01*
X19630952Y-113272380D01*
X19869047Y-113272380D01*
X19964285Y-113320000D01*
X20011904Y-113367619D01*
X20059523Y-113462857D01*
X20059523Y-113558095D01*
X20011904Y-113700952D01*
X19440476Y-114272380D01*
X20059523Y-114272380D01*
X21011904Y-114272380D02*
X20440476Y-114272380D01*
X20726190Y-114272380D02*
X20726190Y-113272380D01*
X20630952Y-113415238D01*
X20535714Y-113510476D01*
X20440476Y-113558095D01*
G04 #@! TO.C,M2*
X17190476Y-85402380D02*
X17190476Y-84402380D01*
X17523809Y-85116666D01*
X17857142Y-84402380D01*
X17857142Y-85402380D01*
X18285714Y-84497619D02*
X18333333Y-84450000D01*
X18428571Y-84402380D01*
X18666666Y-84402380D01*
X18761904Y-84450000D01*
X18809523Y-84497619D01*
X18857142Y-84592857D01*
X18857142Y-84688095D01*
X18809523Y-84830952D01*
X18238095Y-85402380D01*
X18857142Y-85402380D01*
G04 #@! TO.C,M1*
X17190476Y-94902380D02*
X17190476Y-93902380D01*
X17523809Y-94616666D01*
X17857142Y-93902380D01*
X17857142Y-94902380D01*
X18857142Y-94902380D02*
X18285714Y-94902380D01*
X18571428Y-94902380D02*
X18571428Y-93902380D01*
X18476190Y-94045238D01*
X18380952Y-94140476D01*
X18285714Y-94188095D01*
G04 #@! TO.C,C9*
X20833333Y-109927142D02*
X20785714Y-109974761D01*
X20642857Y-110022380D01*
X20547619Y-110022380D01*
X20404761Y-109974761D01*
X20309523Y-109879523D01*
X20261904Y-109784285D01*
X20214285Y-109593809D01*
X20214285Y-109450952D01*
X20261904Y-109260476D01*
X20309523Y-109165238D01*
X20404761Y-109070000D01*
X20547619Y-109022380D01*
X20642857Y-109022380D01*
X20785714Y-109070000D01*
X20833333Y-109117619D01*
X21309523Y-110022380D02*
X21500000Y-110022380D01*
X21595238Y-109974761D01*
X21642857Y-109927142D01*
X21738095Y-109784285D01*
X21785714Y-109593809D01*
X21785714Y-109212857D01*
X21738095Y-109117619D01*
X21690476Y-109070000D01*
X21595238Y-109022380D01*
X21404761Y-109022380D01*
X21309523Y-109070000D01*
X21261904Y-109117619D01*
X21214285Y-109212857D01*
X21214285Y-109450952D01*
X21261904Y-109546190D01*
X21309523Y-109593809D01*
X21404761Y-109641428D01*
X21595238Y-109641428D01*
X21690476Y-109593809D01*
X21738095Y-109546190D01*
X21785714Y-109450952D01*
G04 #@! TO.C,J4*
X31752380Y-131003333D02*
X32466666Y-131003333D01*
X32609523Y-131050952D01*
X32704761Y-131146190D01*
X32752380Y-131289047D01*
X32752380Y-131384285D01*
X32085714Y-130098571D02*
X32752380Y-130098571D01*
X31704761Y-130336666D02*
X32419047Y-130574761D01*
X32419047Y-129955714D01*
G04 #@! TO.C,C6*
X36133333Y-148427142D02*
X36085714Y-148474761D01*
X35942857Y-148522380D01*
X35847619Y-148522380D01*
X35704761Y-148474761D01*
X35609523Y-148379523D01*
X35561904Y-148284285D01*
X35514285Y-148093809D01*
X35514285Y-147950952D01*
X35561904Y-147760476D01*
X35609523Y-147665238D01*
X35704761Y-147570000D01*
X35847619Y-147522380D01*
X35942857Y-147522380D01*
X36085714Y-147570000D01*
X36133333Y-147617619D01*
X36990476Y-147522380D02*
X36800000Y-147522380D01*
X36704761Y-147570000D01*
X36657142Y-147617619D01*
X36561904Y-147760476D01*
X36514285Y-147950952D01*
X36514285Y-148331904D01*
X36561904Y-148427142D01*
X36609523Y-148474761D01*
X36704761Y-148522380D01*
X36895238Y-148522380D01*
X36990476Y-148474761D01*
X37038095Y-148427142D01*
X37085714Y-148331904D01*
X37085714Y-148093809D01*
X37038095Y-147998571D01*
X36990476Y-147950952D01*
X36895238Y-147903333D01*
X36704761Y-147903333D01*
X36609523Y-147950952D01*
X36561904Y-147998571D01*
X36514285Y-148093809D01*
G04 #@! TO.C,C7*
X36133333Y-145287142D02*
X36085714Y-145334761D01*
X35942857Y-145382380D01*
X35847619Y-145382380D01*
X35704761Y-145334761D01*
X35609523Y-145239523D01*
X35561904Y-145144285D01*
X35514285Y-144953809D01*
X35514285Y-144810952D01*
X35561904Y-144620476D01*
X35609523Y-144525238D01*
X35704761Y-144430000D01*
X35847619Y-144382380D01*
X35942857Y-144382380D01*
X36085714Y-144430000D01*
X36133333Y-144477619D01*
X36466666Y-144382380D02*
X37133333Y-144382380D01*
X36704761Y-145382380D01*
G04 #@! TO.C,U1*
X27738095Y-151002380D02*
X27738095Y-151811904D01*
X27785714Y-151907142D01*
X27833333Y-151954761D01*
X27928571Y-152002380D01*
X28119047Y-152002380D01*
X28214285Y-151954761D01*
X28261904Y-151907142D01*
X28309523Y-151811904D01*
X28309523Y-151002380D01*
X29309523Y-152002380D02*
X28738095Y-152002380D01*
X29023809Y-152002380D02*
X29023809Y-151002380D01*
X28928571Y-151145238D01*
X28833333Y-151240476D01*
X28738095Y-151288095D01*
G04 #@! TO.C,J6*
X9566666Y-139252380D02*
X9566666Y-139966666D01*
X9519047Y-140109523D01*
X9423809Y-140204761D01*
X9280952Y-140252380D01*
X9185714Y-140252380D01*
X10471428Y-139252380D02*
X10280952Y-139252380D01*
X10185714Y-139300000D01*
X10138095Y-139347619D01*
X10042857Y-139490476D01*
X9995238Y-139680952D01*
X9995238Y-140061904D01*
X10042857Y-140157142D01*
X10090476Y-140204761D01*
X10185714Y-140252380D01*
X10376190Y-140252380D01*
X10471428Y-140204761D01*
X10519047Y-140157142D01*
X10566666Y-140061904D01*
X10566666Y-139823809D01*
X10519047Y-139728571D01*
X10471428Y-139680952D01*
X10376190Y-139633333D01*
X10185714Y-139633333D01*
X10090476Y-139680952D01*
X10042857Y-139728571D01*
X9995238Y-139823809D01*
G04 #@! TO.C,C8*
X23587142Y-151166666D02*
X23634761Y-151214285D01*
X23682380Y-151357142D01*
X23682380Y-151452380D01*
X23634761Y-151595238D01*
X23539523Y-151690476D01*
X23444285Y-151738095D01*
X23253809Y-151785714D01*
X23110952Y-151785714D01*
X22920476Y-151738095D01*
X22825238Y-151690476D01*
X22730000Y-151595238D01*
X22682380Y-151452380D01*
X22682380Y-151357142D01*
X22730000Y-151214285D01*
X22777619Y-151166666D01*
X23110952Y-150595238D02*
X23063333Y-150690476D01*
X23015714Y-150738095D01*
X22920476Y-150785714D01*
X22872857Y-150785714D01*
X22777619Y-150738095D01*
X22730000Y-150690476D01*
X22682380Y-150595238D01*
X22682380Y-150404761D01*
X22730000Y-150309523D01*
X22777619Y-150261904D01*
X22872857Y-150214285D01*
X22920476Y-150214285D01*
X23015714Y-150261904D01*
X23063333Y-150309523D01*
X23110952Y-150404761D01*
X23110952Y-150595238D01*
X23158571Y-150690476D01*
X23206190Y-150738095D01*
X23301428Y-150785714D01*
X23491904Y-150785714D01*
X23587142Y-150738095D01*
X23634761Y-150690476D01*
X23682380Y-150595238D01*
X23682380Y-150404761D01*
X23634761Y-150309523D01*
X23587142Y-150261904D01*
X23491904Y-150214285D01*
X23301428Y-150214285D01*
X23206190Y-150261904D01*
X23158571Y-150309523D01*
X23110952Y-150404761D01*
G04 #@! TO.C,Y2*
X33826190Y-146976190D02*
X34302380Y-146976190D01*
X33302380Y-147309523D02*
X33826190Y-146976190D01*
X33302380Y-146642857D01*
X33397619Y-146357142D02*
X33350000Y-146309523D01*
X33302380Y-146214285D01*
X33302380Y-145976190D01*
X33350000Y-145880952D01*
X33397619Y-145833333D01*
X33492857Y-145785714D01*
X33588095Y-145785714D01*
X33730952Y-145833333D01*
X34302380Y-146404761D01*
X34302380Y-145785714D01*
G04 #@! TO.C,J7*
D14*
X78343977Y-13468563D02*
X78343977Y-14183276D01*
X78296329Y-14326218D01*
X78201034Y-14421513D01*
X78058092Y-14469161D01*
X77962797Y-14469161D01*
X78725157Y-13468563D02*
X79392222Y-13468563D01*
X78963395Y-14469161D01*
G04 #@! TO.C,J5*
X59343977Y-13468563D02*
X59343977Y-14183276D01*
X59296329Y-14326218D01*
X59201034Y-14421513D01*
X59058092Y-14469161D01*
X58962797Y-14469161D01*
X60296927Y-13468563D02*
X59820452Y-13468563D01*
X59772805Y-13945038D01*
X59820452Y-13897391D01*
X59915747Y-13849743D01*
X60153985Y-13849743D01*
X60249280Y-13897391D01*
X60296927Y-13945038D01*
X60344575Y-14040333D01*
X60344575Y-14278571D01*
X60296927Y-14373866D01*
X60249280Y-14421513D01*
X60153985Y-14469161D01*
X59915747Y-14469161D01*
X59820452Y-14421513D01*
X59772805Y-14373866D01*
G04 #@! TO.C,R20*
D10*
X47952380Y-123342857D02*
X47476190Y-123676190D01*
X47952380Y-123914285D02*
X46952380Y-123914285D01*
X46952380Y-123533333D01*
X47000000Y-123438095D01*
X47047619Y-123390476D01*
X47142857Y-123342857D01*
X47285714Y-123342857D01*
X47380952Y-123390476D01*
X47428571Y-123438095D01*
X47476190Y-123533333D01*
X47476190Y-123914285D01*
X47047619Y-122961904D02*
X47000000Y-122914285D01*
X46952380Y-122819047D01*
X46952380Y-122580952D01*
X47000000Y-122485714D01*
X47047619Y-122438095D01*
X47142857Y-122390476D01*
X47238095Y-122390476D01*
X47380952Y-122438095D01*
X47952380Y-123009523D01*
X47952380Y-122390476D01*
X46952380Y-121771428D02*
X46952380Y-121676190D01*
X47000000Y-121580952D01*
X47047619Y-121533333D01*
X47142857Y-121485714D01*
X47333333Y-121438095D01*
X47571428Y-121438095D01*
X47761904Y-121485714D01*
X47857142Y-121533333D01*
X47904761Y-121580952D01*
X47952380Y-121676190D01*
X47952380Y-121771428D01*
X47904761Y-121866666D01*
X47857142Y-121914285D01*
X47761904Y-121961904D01*
X47571428Y-122009523D01*
X47333333Y-122009523D01*
X47142857Y-121961904D01*
X47047619Y-121914285D01*
X47000000Y-121866666D01*
X46952380Y-121771428D01*
G04 #@! TO.C,R19*
X62952380Y-123092976D02*
X62476190Y-123426309D01*
X62952380Y-123664404D02*
X61952380Y-123664404D01*
X61952380Y-123283452D01*
X62000000Y-123188214D01*
X62047619Y-123140595D01*
X62142857Y-123092976D01*
X62285714Y-123092976D01*
X62380952Y-123140595D01*
X62428571Y-123188214D01*
X62476190Y-123283452D01*
X62476190Y-123664404D01*
X62952380Y-122140595D02*
X62952380Y-122712023D01*
X62952380Y-122426309D02*
X61952380Y-122426309D01*
X62095238Y-122521547D01*
X62190476Y-122616785D01*
X62238095Y-122712023D01*
X62952380Y-121664404D02*
X62952380Y-121473928D01*
X62904761Y-121378690D01*
X62857142Y-121331071D01*
X62714285Y-121235833D01*
X62523809Y-121188214D01*
X62142857Y-121188214D01*
X62047619Y-121235833D01*
X62000000Y-121283452D01*
X61952380Y-121378690D01*
X61952380Y-121569166D01*
X62000000Y-121664404D01*
X62047619Y-121712023D01*
X62142857Y-121759642D01*
X62380952Y-121759642D01*
X62476190Y-121712023D01*
X62523809Y-121664404D01*
X62571428Y-121569166D01*
X62571428Y-121378690D01*
X62523809Y-121283452D01*
X62476190Y-121235833D01*
X62380952Y-121188214D01*
G04 #@! TO.C,W1*
X107095238Y-140452380D02*
X107333333Y-141452380D01*
X107523809Y-140738095D01*
X107714285Y-141452380D01*
X107952380Y-140452380D01*
X108857142Y-141452380D02*
X108285714Y-141452380D01*
X108571428Y-141452380D02*
X108571428Y-140452380D01*
X108476190Y-140595238D01*
X108380952Y-140690476D01*
X108285714Y-140738095D01*
G04 #@! TO.C,W2*
X90095238Y-140452380D02*
X90333333Y-141452380D01*
X90523809Y-140738095D01*
X90714285Y-141452380D01*
X90952380Y-140452380D01*
X91285714Y-140547619D02*
X91333333Y-140500000D01*
X91428571Y-140452380D01*
X91666666Y-140452380D01*
X91761904Y-140500000D01*
X91809523Y-140547619D01*
X91857142Y-140642857D01*
X91857142Y-140738095D01*
X91809523Y-140880952D01*
X91238095Y-141452380D01*
X91857142Y-141452380D01*
G04 #@! TO.C,C4*
X126333333Y-138357142D02*
X126285714Y-138404761D01*
X126142857Y-138452380D01*
X126047619Y-138452380D01*
X125904761Y-138404761D01*
X125809523Y-138309523D01*
X125761904Y-138214285D01*
X125714285Y-138023809D01*
X125714285Y-137880952D01*
X125761904Y-137690476D01*
X125809523Y-137595238D01*
X125904761Y-137500000D01*
X126047619Y-137452380D01*
X126142857Y-137452380D01*
X126285714Y-137500000D01*
X126333333Y-137547619D01*
X127190476Y-137785714D02*
X127190476Y-138452380D01*
X126952380Y-137404761D02*
X126714285Y-138119047D01*
X127333333Y-138119047D01*
G04 #@! TO.C,C3*
X122787142Y-141166666D02*
X122834761Y-141214285D01*
X122882380Y-141357142D01*
X122882380Y-141452380D01*
X122834761Y-141595238D01*
X122739523Y-141690476D01*
X122644285Y-141738095D01*
X122453809Y-141785714D01*
X122310952Y-141785714D01*
X122120476Y-141738095D01*
X122025238Y-141690476D01*
X121930000Y-141595238D01*
X121882380Y-141452380D01*
X121882380Y-141357142D01*
X121930000Y-141214285D01*
X121977619Y-141166666D01*
X121882380Y-140833333D02*
X121882380Y-140214285D01*
X122263333Y-140547619D01*
X122263333Y-140404761D01*
X122310952Y-140309523D01*
X122358571Y-140261904D01*
X122453809Y-140214285D01*
X122691904Y-140214285D01*
X122787142Y-140261904D01*
X122834761Y-140309523D01*
X122882380Y-140404761D01*
X122882380Y-140690476D01*
X122834761Y-140785714D01*
X122787142Y-140833333D01*
G04 #@! TO.C,U4*
X120452380Y-139011904D02*
X121261904Y-139011904D01*
X121357142Y-138964285D01*
X121404761Y-138916666D01*
X121452380Y-138821428D01*
X121452380Y-138630952D01*
X121404761Y-138535714D01*
X121357142Y-138488095D01*
X121261904Y-138440476D01*
X120452380Y-138440476D01*
X120785714Y-137535714D02*
X121452380Y-137535714D01*
X120404761Y-137773809D02*
X121119047Y-138011904D01*
X121119047Y-137392857D01*
G04 #@! TO.C,R11*
X129022380Y-150142857D02*
X128546190Y-150476190D01*
X129022380Y-150714285D02*
X128022380Y-150714285D01*
X128022380Y-150333333D01*
X128070000Y-150238095D01*
X128117619Y-150190476D01*
X128212857Y-150142857D01*
X128355714Y-150142857D01*
X128450952Y-150190476D01*
X128498571Y-150238095D01*
X128546190Y-150333333D01*
X128546190Y-150714285D01*
X129022380Y-149190476D02*
X129022380Y-149761904D01*
X129022380Y-149476190D02*
X128022380Y-149476190D01*
X128165238Y-149571428D01*
X128260476Y-149666666D01*
X128308095Y-149761904D01*
X129022380Y-148238095D02*
X129022380Y-148809523D01*
X129022380Y-148523809D02*
X128022380Y-148523809D01*
X128165238Y-148619047D01*
X128260476Y-148714285D01*
X128308095Y-148809523D01*
G04 #@! TO.C,R9*
X133702380Y-138666666D02*
X133226190Y-139000000D01*
X133702380Y-139238095D02*
X132702380Y-139238095D01*
X132702380Y-138857142D01*
X132750000Y-138761904D01*
X132797619Y-138714285D01*
X132892857Y-138666666D01*
X133035714Y-138666666D01*
X133130952Y-138714285D01*
X133178571Y-138761904D01*
X133226190Y-138857142D01*
X133226190Y-139238095D01*
X133702380Y-138190476D02*
X133702380Y-138000000D01*
X133654761Y-137904761D01*
X133607142Y-137857142D01*
X133464285Y-137761904D01*
X133273809Y-137714285D01*
X132892857Y-137714285D01*
X132797619Y-137761904D01*
X132750000Y-137809523D01*
X132702380Y-137904761D01*
X132702380Y-138095238D01*
X132750000Y-138190476D01*
X132797619Y-138238095D01*
X132892857Y-138285714D01*
X133130952Y-138285714D01*
X133226190Y-138238095D01*
X133273809Y-138190476D01*
X133321428Y-138095238D01*
X133321428Y-137904761D01*
X133273809Y-137809523D01*
X133226190Y-137761904D01*
X133130952Y-137714285D01*
G04 #@! TO.C,R15*
X64452380Y-123092976D02*
X63976190Y-123426309D01*
X64452380Y-123664404D02*
X63452380Y-123664404D01*
X63452380Y-123283452D01*
X63500000Y-123188214D01*
X63547619Y-123140595D01*
X63642857Y-123092976D01*
X63785714Y-123092976D01*
X63880952Y-123140595D01*
X63928571Y-123188214D01*
X63976190Y-123283452D01*
X63976190Y-123664404D01*
X64452380Y-122140595D02*
X64452380Y-122712023D01*
X64452380Y-122426309D02*
X63452380Y-122426309D01*
X63595238Y-122521547D01*
X63690476Y-122616785D01*
X63738095Y-122712023D01*
X63452380Y-121235833D02*
X63452380Y-121712023D01*
X63928571Y-121759642D01*
X63880952Y-121712023D01*
X63833333Y-121616785D01*
X63833333Y-121378690D01*
X63880952Y-121283452D01*
X63928571Y-121235833D01*
X64023809Y-121188214D01*
X64261904Y-121188214D01*
X64357142Y-121235833D01*
X64404761Y-121283452D01*
X64452380Y-121378690D01*
X64452380Y-121616785D01*
X64404761Y-121712023D01*
X64357142Y-121759642D01*
G04 #@! TO.C,R10*
X129022380Y-147142857D02*
X128546190Y-147476190D01*
X129022380Y-147714285D02*
X128022380Y-147714285D01*
X128022380Y-147333333D01*
X128070000Y-147238095D01*
X128117619Y-147190476D01*
X128212857Y-147142857D01*
X128355714Y-147142857D01*
X128450952Y-147190476D01*
X128498571Y-147238095D01*
X128546190Y-147333333D01*
X128546190Y-147714285D01*
X129022380Y-146190476D02*
X129022380Y-146761904D01*
X129022380Y-146476190D02*
X128022380Y-146476190D01*
X128165238Y-146571428D01*
X128260476Y-146666666D01*
X128308095Y-146761904D01*
X128022380Y-145571428D02*
X128022380Y-145476190D01*
X128070000Y-145380952D01*
X128117619Y-145333333D01*
X128212857Y-145285714D01*
X128403333Y-145238095D01*
X128641428Y-145238095D01*
X128831904Y-145285714D01*
X128927142Y-145333333D01*
X128974761Y-145380952D01*
X129022380Y-145476190D01*
X129022380Y-145571428D01*
X128974761Y-145666666D01*
X128927142Y-145714285D01*
X128831904Y-145761904D01*
X128641428Y-145809523D01*
X128403333Y-145809523D01*
X128212857Y-145761904D01*
X128117619Y-145714285D01*
X128070000Y-145666666D01*
X128022380Y-145571428D01*
G04 #@! TO.C,J1*
X107782380Y-157603333D02*
X108496666Y-157603333D01*
X108639523Y-157650952D01*
X108734761Y-157746190D01*
X108782380Y-157889047D01*
X108782380Y-157984285D01*
X108782380Y-156603333D02*
X108782380Y-157174761D01*
X108782380Y-156889047D02*
X107782380Y-156889047D01*
X107925238Y-156984285D01*
X108020476Y-157079523D01*
X108068095Y-157174761D01*
G04 #@! TO.C,Y1*
X126523809Y-140976190D02*
X126523809Y-141452380D01*
X126190476Y-140452380D02*
X126523809Y-140976190D01*
X126857142Y-140452380D01*
X127714285Y-141452380D02*
X127142857Y-141452380D01*
X127428571Y-141452380D02*
X127428571Y-140452380D01*
X127333333Y-140595238D01*
X127238095Y-140690476D01*
X127142857Y-140738095D01*
G04 #@! TO.C,R5*
X117022380Y-141166666D02*
X116546190Y-141500000D01*
X117022380Y-141738095D02*
X116022380Y-141738095D01*
X116022380Y-141357142D01*
X116070000Y-141261904D01*
X116117619Y-141214285D01*
X116212857Y-141166666D01*
X116355714Y-141166666D01*
X116450952Y-141214285D01*
X116498571Y-141261904D01*
X116546190Y-141357142D01*
X116546190Y-141738095D01*
X116022380Y-140261904D02*
X116022380Y-140738095D01*
X116498571Y-140785714D01*
X116450952Y-140738095D01*
X116403333Y-140642857D01*
X116403333Y-140404761D01*
X116450952Y-140309523D01*
X116498571Y-140261904D01*
X116593809Y-140214285D01*
X116831904Y-140214285D01*
X116927142Y-140261904D01*
X116974761Y-140309523D01*
X117022380Y-140404761D01*
X117022380Y-140642857D01*
X116974761Y-140738095D01*
X116927142Y-140785714D01*
G04 #@! TO.C,R2*
X100652380Y-123292976D02*
X100176190Y-123626309D01*
X100652380Y-123864404D02*
X99652380Y-123864404D01*
X99652380Y-123483452D01*
X99700000Y-123388214D01*
X99747619Y-123340595D01*
X99842857Y-123292976D01*
X99985714Y-123292976D01*
X100080952Y-123340595D01*
X100128571Y-123388214D01*
X100176190Y-123483452D01*
X100176190Y-123864404D01*
X99747619Y-122912023D02*
X99700000Y-122864404D01*
X99652380Y-122769166D01*
X99652380Y-122531071D01*
X99700000Y-122435833D01*
X99747619Y-122388214D01*
X99842857Y-122340595D01*
X99938095Y-122340595D01*
X100080952Y-122388214D01*
X100652380Y-122959642D01*
X100652380Y-122340595D01*
G04 #@! TO.C,J3*
X154002380Y-126233333D02*
X154716666Y-126233333D01*
X154859523Y-126280952D01*
X154954761Y-126376190D01*
X155002380Y-126519047D01*
X155002380Y-126614285D01*
X154002380Y-125852380D02*
X154002380Y-125233333D01*
X154383333Y-125566666D01*
X154383333Y-125423809D01*
X154430952Y-125328571D01*
X154478571Y-125280952D01*
X154573809Y-125233333D01*
X154811904Y-125233333D01*
X154907142Y-125280952D01*
X154954761Y-125328571D01*
X155002380Y-125423809D01*
X155002380Y-125709523D01*
X154954761Y-125804761D01*
X154907142Y-125852380D01*
G04 #@! TO.C,R4*
X99052380Y-123292976D02*
X98576190Y-123626309D01*
X99052380Y-123864404D02*
X98052380Y-123864404D01*
X98052380Y-123483452D01*
X98100000Y-123388214D01*
X98147619Y-123340595D01*
X98242857Y-123292976D01*
X98385714Y-123292976D01*
X98480952Y-123340595D01*
X98528571Y-123388214D01*
X98576190Y-123483452D01*
X98576190Y-123864404D01*
X98385714Y-122435833D02*
X99052380Y-122435833D01*
X98004761Y-122673928D02*
X98719047Y-122912023D01*
X98719047Y-122292976D01*
G04 #@! TO.C,R14*
X51452380Y-123292976D02*
X50976190Y-123626309D01*
X51452380Y-123864404D02*
X50452380Y-123864404D01*
X50452380Y-123483452D01*
X50500000Y-123388214D01*
X50547619Y-123340595D01*
X50642857Y-123292976D01*
X50785714Y-123292976D01*
X50880952Y-123340595D01*
X50928571Y-123388214D01*
X50976190Y-123483452D01*
X50976190Y-123864404D01*
X51452380Y-122340595D02*
X51452380Y-122912023D01*
X51452380Y-122626309D02*
X50452380Y-122626309D01*
X50595238Y-122721547D01*
X50690476Y-122816785D01*
X50738095Y-122912023D01*
X50785714Y-121483452D02*
X51452380Y-121483452D01*
X50404761Y-121721547D02*
X51119047Y-121959642D01*
X51119047Y-121340595D01*
G04 #@! TO.C,R1*
X83652380Y-123292976D02*
X83176190Y-123626309D01*
X83652380Y-123864404D02*
X82652380Y-123864404D01*
X82652380Y-123483452D01*
X82700000Y-123388214D01*
X82747619Y-123340595D01*
X82842857Y-123292976D01*
X82985714Y-123292976D01*
X83080952Y-123340595D01*
X83128571Y-123388214D01*
X83176190Y-123483452D01*
X83176190Y-123864404D01*
X83652380Y-122340595D02*
X83652380Y-122912023D01*
X83652380Y-122626309D02*
X82652380Y-122626309D01*
X82795238Y-122721547D01*
X82890476Y-122816785D01*
X82938095Y-122912023D01*
G04 #@! TO.C,R12*
X130702380Y-138642857D02*
X130226190Y-138976190D01*
X130702380Y-139214285D02*
X129702380Y-139214285D01*
X129702380Y-138833333D01*
X129750000Y-138738095D01*
X129797619Y-138690476D01*
X129892857Y-138642857D01*
X130035714Y-138642857D01*
X130130952Y-138690476D01*
X130178571Y-138738095D01*
X130226190Y-138833333D01*
X130226190Y-139214285D01*
X130702380Y-137690476D02*
X130702380Y-138261904D01*
X130702380Y-137976190D02*
X129702380Y-137976190D01*
X129845238Y-138071428D01*
X129940476Y-138166666D01*
X129988095Y-138261904D01*
X129797619Y-137309523D02*
X129750000Y-137261904D01*
X129702380Y-137166666D01*
X129702380Y-136928571D01*
X129750000Y-136833333D01*
X129797619Y-136785714D01*
X129892857Y-136738095D01*
X129988095Y-136738095D01*
X130130952Y-136785714D01*
X130702380Y-137357142D01*
X130702380Y-136738095D01*
G04 #@! TO.C,R13*
X133382380Y-150142857D02*
X132906190Y-150476190D01*
X133382380Y-150714285D02*
X132382380Y-150714285D01*
X132382380Y-150333333D01*
X132430000Y-150238095D01*
X132477619Y-150190476D01*
X132572857Y-150142857D01*
X132715714Y-150142857D01*
X132810952Y-150190476D01*
X132858571Y-150238095D01*
X132906190Y-150333333D01*
X132906190Y-150714285D01*
X133382380Y-149190476D02*
X133382380Y-149761904D01*
X133382380Y-149476190D02*
X132382380Y-149476190D01*
X132525238Y-149571428D01*
X132620476Y-149666666D01*
X132668095Y-149761904D01*
X132382380Y-148857142D02*
X132382380Y-148238095D01*
X132763333Y-148571428D01*
X132763333Y-148428571D01*
X132810952Y-148333333D01*
X132858571Y-148285714D01*
X132953809Y-148238095D01*
X133191904Y-148238095D01*
X133287142Y-148285714D01*
X133334761Y-148333333D01*
X133382380Y-148428571D01*
X133382380Y-148714285D01*
X133334761Y-148809523D01*
X133287142Y-148857142D01*
G04 #@! TO.C,H3*
X162728095Y-161192380D02*
X162728095Y-160192380D01*
X162728095Y-160668571D02*
X163299523Y-160668571D01*
X163299523Y-161192380D02*
X163299523Y-160192380D01*
X163680476Y-160192380D02*
X164299523Y-160192380D01*
X163966190Y-160573333D01*
X164109047Y-160573333D01*
X164204285Y-160620952D01*
X164251904Y-160668571D01*
X164299523Y-160763809D01*
X164299523Y-161001904D01*
X164251904Y-161097142D01*
X164204285Y-161144761D01*
X164109047Y-161192380D01*
X163823333Y-161192380D01*
X163728095Y-161144761D01*
X163680476Y-161097142D01*
G04 #@! TO.C,R6*
X49852380Y-123292976D02*
X49376190Y-123626309D01*
X49852380Y-123864404D02*
X48852380Y-123864404D01*
X48852380Y-123483452D01*
X48900000Y-123388214D01*
X48947619Y-123340595D01*
X49042857Y-123292976D01*
X49185714Y-123292976D01*
X49280952Y-123340595D01*
X49328571Y-123388214D01*
X49376190Y-123483452D01*
X49376190Y-123864404D01*
X48852380Y-122435833D02*
X48852380Y-122626309D01*
X48900000Y-122721547D01*
X48947619Y-122769166D01*
X49090476Y-122864404D01*
X49280952Y-122912023D01*
X49661904Y-122912023D01*
X49757142Y-122864404D01*
X49804761Y-122816785D01*
X49852380Y-122721547D01*
X49852380Y-122531071D01*
X49804761Y-122435833D01*
X49757142Y-122388214D01*
X49661904Y-122340595D01*
X49423809Y-122340595D01*
X49328571Y-122388214D01*
X49280952Y-122435833D01*
X49233333Y-122531071D01*
X49233333Y-122721547D01*
X49280952Y-122816785D01*
X49328571Y-122864404D01*
X49423809Y-122912023D01*
G04 #@! TO.C,C1*
X119857142Y-138416666D02*
X119904761Y-138464285D01*
X119952380Y-138607142D01*
X119952380Y-138702380D01*
X119904761Y-138845238D01*
X119809523Y-138940476D01*
X119714285Y-138988095D01*
X119523809Y-139035714D01*
X119380952Y-139035714D01*
X119190476Y-138988095D01*
X119095238Y-138940476D01*
X119000000Y-138845238D01*
X118952380Y-138702380D01*
X118952380Y-138607142D01*
X119000000Y-138464285D01*
X119047619Y-138416666D01*
X119952380Y-137464285D02*
X119952380Y-138035714D01*
X119952380Y-137750000D02*
X118952380Y-137750000D01*
X119095238Y-137845238D01*
X119190476Y-137940476D01*
X119238095Y-138035714D01*
G04 #@! TO.C,R8*
X132202380Y-138666666D02*
X131726190Y-139000000D01*
X132202380Y-139238095D02*
X131202380Y-139238095D01*
X131202380Y-138857142D01*
X131250000Y-138761904D01*
X131297619Y-138714285D01*
X131392857Y-138666666D01*
X131535714Y-138666666D01*
X131630952Y-138714285D01*
X131678571Y-138761904D01*
X131726190Y-138857142D01*
X131726190Y-139238095D01*
X131630952Y-138095238D02*
X131583333Y-138190476D01*
X131535714Y-138238095D01*
X131440476Y-138285714D01*
X131392857Y-138285714D01*
X131297619Y-138238095D01*
X131250000Y-138190476D01*
X131202380Y-138095238D01*
X131202380Y-137904761D01*
X131250000Y-137809523D01*
X131297619Y-137761904D01*
X131392857Y-137714285D01*
X131440476Y-137714285D01*
X131535714Y-137761904D01*
X131583333Y-137809523D01*
X131630952Y-137904761D01*
X131630952Y-138095238D01*
X131678571Y-138190476D01*
X131726190Y-138238095D01*
X131821428Y-138285714D01*
X132011904Y-138285714D01*
X132107142Y-138238095D01*
X132154761Y-138190476D01*
X132202380Y-138095238D01*
X132202380Y-137904761D01*
X132154761Y-137809523D01*
X132107142Y-137761904D01*
X132011904Y-137714285D01*
X131821428Y-137714285D01*
X131726190Y-137761904D01*
X131678571Y-137809523D01*
X131630952Y-137904761D01*
G04 #@! TO.C,R7*
X66652380Y-123092976D02*
X66176190Y-123426309D01*
X66652380Y-123664404D02*
X65652380Y-123664404D01*
X65652380Y-123283452D01*
X65700000Y-123188214D01*
X65747619Y-123140595D01*
X65842857Y-123092976D01*
X65985714Y-123092976D01*
X66080952Y-123140595D01*
X66128571Y-123188214D01*
X66176190Y-123283452D01*
X66176190Y-123664404D01*
X65652380Y-122759642D02*
X65652380Y-122092976D01*
X66652380Y-122521547D01*
G04 #@! TO.C,H1*
X5248095Y-6252380D02*
X5248095Y-5252380D01*
X5248095Y-5728571D02*
X5819523Y-5728571D01*
X5819523Y-6252380D02*
X5819523Y-5252380D01*
X6819523Y-6252380D02*
X6248095Y-6252380D01*
X6533809Y-6252380D02*
X6533809Y-5252380D01*
X6438571Y-5395238D01*
X6343333Y-5490476D01*
X6248095Y-5538095D01*
G04 #@! TO.C,C2*
X124333333Y-156287142D02*
X124285714Y-156334761D01*
X124142857Y-156382380D01*
X124047619Y-156382380D01*
X123904761Y-156334761D01*
X123809523Y-156239523D01*
X123761904Y-156144285D01*
X123714285Y-155953809D01*
X123714285Y-155810952D01*
X123761904Y-155620476D01*
X123809523Y-155525238D01*
X123904761Y-155430000D01*
X124047619Y-155382380D01*
X124142857Y-155382380D01*
X124285714Y-155430000D01*
X124333333Y-155477619D01*
X124714285Y-155477619D02*
X124761904Y-155430000D01*
X124857142Y-155382380D01*
X125095238Y-155382380D01*
X125190476Y-155430000D01*
X125238095Y-155477619D01*
X125285714Y-155572857D01*
X125285714Y-155668095D01*
X125238095Y-155810952D01*
X124666666Y-156382380D01*
X125285714Y-156382380D01*
G04 #@! TO.C,H4*
X5238095Y-161252380D02*
X5238095Y-160252380D01*
X5238095Y-160728571D02*
X5809523Y-160728571D01*
X5809523Y-161252380D02*
X5809523Y-160252380D01*
X6714285Y-160585714D02*
X6714285Y-161252380D01*
X6476190Y-160204761D02*
X6238095Y-160919047D01*
X6857142Y-160919047D01*
G04 #@! TO.C,R3*
X85452380Y-123292976D02*
X84976190Y-123626309D01*
X85452380Y-123864404D02*
X84452380Y-123864404D01*
X84452380Y-123483452D01*
X84500000Y-123388214D01*
X84547619Y-123340595D01*
X84642857Y-123292976D01*
X84785714Y-123292976D01*
X84880952Y-123340595D01*
X84928571Y-123388214D01*
X84976190Y-123483452D01*
X84976190Y-123864404D01*
X84452380Y-122959642D02*
X84452380Y-122340595D01*
X84833333Y-122673928D01*
X84833333Y-122531071D01*
X84880952Y-122435833D01*
X84928571Y-122388214D01*
X85023809Y-122340595D01*
X85261904Y-122340595D01*
X85357142Y-122388214D01*
X85404761Y-122435833D01*
X85452380Y-122531071D01*
X85452380Y-122816785D01*
X85404761Y-122912023D01*
X85357142Y-122959642D01*
G04 #@! TO.C,H2*
X162728095Y-29112380D02*
X162728095Y-28112380D01*
X162728095Y-28588571D02*
X163299523Y-28588571D01*
X163299523Y-29112380D02*
X163299523Y-28112380D01*
X163728095Y-28207619D02*
X163775714Y-28160000D01*
X163870952Y-28112380D01*
X164109047Y-28112380D01*
X164204285Y-28160000D01*
X164251904Y-28207619D01*
X164299523Y-28302857D01*
X164299523Y-28398095D01*
X164251904Y-28540952D01*
X163680476Y-29112380D01*
X164299523Y-29112380D01*
G04 #@! TO.C,J2*
D14*
X150226666Y-30697380D02*
X150226666Y-31411666D01*
X150179047Y-31554523D01*
X150083809Y-31649761D01*
X149940952Y-31697380D01*
X149845714Y-31697380D01*
X150655238Y-30792619D02*
X150702857Y-30745000D01*
X150798095Y-30697380D01*
X151036190Y-30697380D01*
X151131428Y-30745000D01*
X151179047Y-30792619D01*
X151226666Y-30887857D01*
X151226666Y-30983095D01*
X151179047Y-31125952D01*
X150607619Y-31697380D01*
X151226666Y-31697380D01*
G04 #@! TO.C,W4*
D10*
X56095238Y-140452380D02*
X56333333Y-141452380D01*
X56523809Y-140738095D01*
X56714285Y-141452380D01*
X56952380Y-140452380D01*
X57761904Y-140785714D02*
X57761904Y-141452380D01*
X57523809Y-140404761D02*
X57285714Y-141119047D01*
X57904761Y-141119047D01*
G04 #@! TO.C,W3*
X73095238Y-140452380D02*
X73333333Y-141452380D01*
X73523809Y-140738095D01*
X73714285Y-141452380D01*
X73952380Y-140452380D01*
X74238095Y-140452380D02*
X74857142Y-140452380D01*
X74523809Y-140833333D01*
X74666666Y-140833333D01*
X74761904Y-140880952D01*
X74809523Y-140928571D01*
X74857142Y-141023809D01*
X74857142Y-141261904D01*
X74809523Y-141357142D01*
X74761904Y-141404761D01*
X74666666Y-141452380D01*
X74380952Y-141452380D01*
X74285714Y-141404761D01*
X74238095Y-141357142D01*
G04 #@! TO.C,D1*
X141452380Y-71664404D02*
X140452380Y-71664404D01*
X140452380Y-71426309D01*
X140500000Y-71283452D01*
X140595238Y-71188214D01*
X140690476Y-71140595D01*
X140880952Y-71092976D01*
X141023809Y-71092976D01*
X141214285Y-71140595D01*
X141309523Y-71188214D01*
X141404761Y-71283452D01*
X141452380Y-71426309D01*
X141452380Y-71664404D01*
X141452380Y-70140595D02*
X141452380Y-70712023D01*
X141452380Y-70426309D02*
X140452380Y-70426309D01*
X140595238Y-70521547D01*
X140690476Y-70616785D01*
X140738095Y-70712023D01*
G04 #@! TO.C,R16*
X139452380Y-71092976D02*
X138976190Y-71426309D01*
X139452380Y-71664404D02*
X138452380Y-71664404D01*
X138452380Y-71283452D01*
X138500000Y-71188214D01*
X138547619Y-71140595D01*
X138642857Y-71092976D01*
X138785714Y-71092976D01*
X138880952Y-71140595D01*
X138928571Y-71188214D01*
X138976190Y-71283452D01*
X138976190Y-71664404D01*
X139452380Y-70140595D02*
X139452380Y-70712023D01*
X139452380Y-70426309D02*
X138452380Y-70426309D01*
X138595238Y-70521547D01*
X138690476Y-70616785D01*
X138738095Y-70712023D01*
X138452380Y-69283452D02*
X138452380Y-69473928D01*
X138500000Y-69569166D01*
X138547619Y-69616785D01*
X138690476Y-69712023D01*
X138880952Y-69759642D01*
X139261904Y-69759642D01*
X139357142Y-69712023D01*
X139404761Y-69664404D01*
X139452380Y-69569166D01*
X139452380Y-69378690D01*
X139404761Y-69283452D01*
X139357142Y-69235833D01*
X139261904Y-69188214D01*
X139023809Y-69188214D01*
X138928571Y-69235833D01*
X138880952Y-69283452D01*
X138833333Y-69378690D01*
X138833333Y-69569166D01*
X138880952Y-69664404D01*
X138928571Y-69712023D01*
X139023809Y-69759642D01*
G04 #@! TO.C,D2*
X141452380Y-60664404D02*
X140452380Y-60664404D01*
X140452380Y-60426309D01*
X140500000Y-60283452D01*
X140595238Y-60188214D01*
X140690476Y-60140595D01*
X140880952Y-60092976D01*
X141023809Y-60092976D01*
X141214285Y-60140595D01*
X141309523Y-60188214D01*
X141404761Y-60283452D01*
X141452380Y-60426309D01*
X141452380Y-60664404D01*
X140547619Y-59712023D02*
X140500000Y-59664404D01*
X140452380Y-59569166D01*
X140452380Y-59331071D01*
X140500000Y-59235833D01*
X140547619Y-59188214D01*
X140642857Y-59140595D01*
X140738095Y-59140595D01*
X140880952Y-59188214D01*
X141452380Y-59759642D01*
X141452380Y-59140595D01*
G04 #@! TO.C,D3*
X166452380Y-71664404D02*
X165452380Y-71664404D01*
X165452380Y-71426309D01*
X165500000Y-71283452D01*
X165595238Y-71188214D01*
X165690476Y-71140595D01*
X165880952Y-71092976D01*
X166023809Y-71092976D01*
X166214285Y-71140595D01*
X166309523Y-71188214D01*
X166404761Y-71283452D01*
X166452380Y-71426309D01*
X166452380Y-71664404D01*
X165452380Y-70759642D02*
X165452380Y-70140595D01*
X165833333Y-70473928D01*
X165833333Y-70331071D01*
X165880952Y-70235833D01*
X165928571Y-70188214D01*
X166023809Y-70140595D01*
X166261904Y-70140595D01*
X166357142Y-70188214D01*
X166404761Y-70235833D01*
X166452380Y-70331071D01*
X166452380Y-70616785D01*
X166404761Y-70712023D01*
X166357142Y-70759642D01*
G04 #@! TO.C,R17*
X139452380Y-60092976D02*
X138976190Y-60426309D01*
X139452380Y-60664404D02*
X138452380Y-60664404D01*
X138452380Y-60283452D01*
X138500000Y-60188214D01*
X138547619Y-60140595D01*
X138642857Y-60092976D01*
X138785714Y-60092976D01*
X138880952Y-60140595D01*
X138928571Y-60188214D01*
X138976190Y-60283452D01*
X138976190Y-60664404D01*
X139452380Y-59140595D02*
X139452380Y-59712023D01*
X139452380Y-59426309D02*
X138452380Y-59426309D01*
X138595238Y-59521547D01*
X138690476Y-59616785D01*
X138738095Y-59712023D01*
X138452380Y-58807261D02*
X138452380Y-58140595D01*
X139452380Y-58569166D01*
G04 #@! TO.C,R18*
X168452380Y-71092976D02*
X167976190Y-71426309D01*
X168452380Y-71664404D02*
X167452380Y-71664404D01*
X167452380Y-71283452D01*
X167500000Y-71188214D01*
X167547619Y-71140595D01*
X167642857Y-71092976D01*
X167785714Y-71092976D01*
X167880952Y-71140595D01*
X167928571Y-71188214D01*
X167976190Y-71283452D01*
X167976190Y-71664404D01*
X168452380Y-70140595D02*
X168452380Y-70712023D01*
X168452380Y-70426309D02*
X167452380Y-70426309D01*
X167595238Y-70521547D01*
X167690476Y-70616785D01*
X167738095Y-70712023D01*
X167880952Y-69569166D02*
X167833333Y-69664404D01*
X167785714Y-69712023D01*
X167690476Y-69759642D01*
X167642857Y-69759642D01*
X167547619Y-69712023D01*
X167500000Y-69664404D01*
X167452380Y-69569166D01*
X167452380Y-69378690D01*
X167500000Y-69283452D01*
X167547619Y-69235833D01*
X167642857Y-69188214D01*
X167690476Y-69188214D01*
X167785714Y-69235833D01*
X167833333Y-69283452D01*
X167880952Y-69378690D01*
X167880952Y-69569166D01*
X167928571Y-69664404D01*
X167976190Y-69712023D01*
X168071428Y-69759642D01*
X168261904Y-69759642D01*
X168357142Y-69712023D01*
X168404761Y-69664404D01*
X168452380Y-69569166D01*
X168452380Y-69378690D01*
X168404761Y-69283452D01*
X168357142Y-69235833D01*
X168261904Y-69188214D01*
X168071428Y-69188214D01*
X167976190Y-69235833D01*
X167928571Y-69283452D01*
X167880952Y-69378690D01*
G04 #@! TO.C,C5*
X117927142Y-145416666D02*
X117974761Y-145464285D01*
X118022380Y-145607142D01*
X118022380Y-145702380D01*
X117974761Y-145845238D01*
X117879523Y-145940476D01*
X117784285Y-145988095D01*
X117593809Y-146035714D01*
X117450952Y-146035714D01*
X117260476Y-145988095D01*
X117165238Y-145940476D01*
X117070000Y-145845238D01*
X117022380Y-145702380D01*
X117022380Y-145607142D01*
X117070000Y-145464285D01*
X117117619Y-145416666D01*
X117022380Y-144511904D02*
X117022380Y-144988095D01*
X117498571Y-145035714D01*
X117450952Y-144988095D01*
X117403333Y-144892857D01*
X117403333Y-144654761D01*
X117450952Y-144559523D01*
X117498571Y-144511904D01*
X117593809Y-144464285D01*
X117831904Y-144464285D01*
X117927142Y-144511904D01*
X117974761Y-144559523D01*
X118022380Y-144654761D01*
X118022380Y-144892857D01*
X117974761Y-144988095D01*
X117927142Y-145035714D01*
G04 #@! TD*
%LPC*%
G04 #@! TO.C,U2*
G36*
G01*
X18125000Y-104700000D02*
X17925000Y-104700000D01*
G75*
G02*
X17825000Y-104600000I0J100000D01*
G01*
X17825000Y-103175000D01*
G75*
G02*
X17925000Y-103075000I100000J0D01*
G01*
X18125000Y-103075000D01*
G75*
G02*
X18225000Y-103175000I0J-100000D01*
G01*
X18225000Y-104600000D01*
G75*
G02*
X18125000Y-104700000I-100000J0D01*
G01*
G37*
G36*
G01*
X18775000Y-104700000D02*
X18575000Y-104700000D01*
G75*
G02*
X18475000Y-104600000I0J100000D01*
G01*
X18475000Y-103175000D01*
G75*
G02*
X18575000Y-103075000I100000J0D01*
G01*
X18775000Y-103075000D01*
G75*
G02*
X18875000Y-103175000I0J-100000D01*
G01*
X18875000Y-104600000D01*
G75*
G02*
X18775000Y-104700000I-100000J0D01*
G01*
G37*
G36*
G01*
X19425000Y-104700000D02*
X19225000Y-104700000D01*
G75*
G02*
X19125000Y-104600000I0J100000D01*
G01*
X19125000Y-103175000D01*
G75*
G02*
X19225000Y-103075000I100000J0D01*
G01*
X19425000Y-103075000D01*
G75*
G02*
X19525000Y-103175000I0J-100000D01*
G01*
X19525000Y-104600000D01*
G75*
G02*
X19425000Y-104700000I-100000J0D01*
G01*
G37*
G36*
G01*
X20075000Y-104700000D02*
X19875000Y-104700000D01*
G75*
G02*
X19775000Y-104600000I0J100000D01*
G01*
X19775000Y-103175000D01*
G75*
G02*
X19875000Y-103075000I100000J0D01*
G01*
X20075000Y-103075000D01*
G75*
G02*
X20175000Y-103175000I0J-100000D01*
G01*
X20175000Y-104600000D01*
G75*
G02*
X20075000Y-104700000I-100000J0D01*
G01*
G37*
G36*
G01*
X20075000Y-108925000D02*
X19875000Y-108925000D01*
G75*
G02*
X19775000Y-108825000I0J100000D01*
G01*
X19775000Y-107400000D01*
G75*
G02*
X19875000Y-107300000I100000J0D01*
G01*
X20075000Y-107300000D01*
G75*
G02*
X20175000Y-107400000I0J-100000D01*
G01*
X20175000Y-108825000D01*
G75*
G02*
X20075000Y-108925000I-100000J0D01*
G01*
G37*
G36*
G01*
X19425000Y-108925000D02*
X19225000Y-108925000D01*
G75*
G02*
X19125000Y-108825000I0J100000D01*
G01*
X19125000Y-107400000D01*
G75*
G02*
X19225000Y-107300000I100000J0D01*
G01*
X19425000Y-107300000D01*
G75*
G02*
X19525000Y-107400000I0J-100000D01*
G01*
X19525000Y-108825000D01*
G75*
G02*
X19425000Y-108925000I-100000J0D01*
G01*
G37*
G36*
G01*
X18775000Y-108925000D02*
X18575000Y-108925000D01*
G75*
G02*
X18475000Y-108825000I0J100000D01*
G01*
X18475000Y-107400000D01*
G75*
G02*
X18575000Y-107300000I100000J0D01*
G01*
X18775000Y-107300000D01*
G75*
G02*
X18875000Y-107400000I0J-100000D01*
G01*
X18875000Y-108825000D01*
G75*
G02*
X18775000Y-108925000I-100000J0D01*
G01*
G37*
G36*
G01*
X18125000Y-108925000D02*
X17925000Y-108925000D01*
G75*
G02*
X17825000Y-108825000I0J100000D01*
G01*
X17825000Y-107400000D01*
G75*
G02*
X17925000Y-107300000I100000J0D01*
G01*
X18125000Y-107300000D01*
G75*
G02*
X18225000Y-107400000I0J-100000D01*
G01*
X18225000Y-108825000D01*
G75*
G02*
X18125000Y-108925000I-100000J0D01*
G01*
G37*
G04 #@! TD*
G04 #@! TO.C,R24*
G36*
G01*
X14575000Y-93225000D02*
X14575000Y-93775000D01*
G75*
G02*
X14375000Y-93975000I-200000J0D01*
G01*
X13975000Y-93975000D01*
G75*
G02*
X13775000Y-93775000I0J200000D01*
G01*
X13775000Y-93225000D01*
G75*
G02*
X13975000Y-93025000I200000J0D01*
G01*
X14375000Y-93025000D01*
G75*
G02*
X14575000Y-93225000I0J-200000D01*
G01*
G37*
G36*
G01*
X16225000Y-93225000D02*
X16225000Y-93775000D01*
G75*
G02*
X16025000Y-93975000I-200000J0D01*
G01*
X15625000Y-93975000D01*
G75*
G02*
X15425000Y-93775000I0J200000D01*
G01*
X15425000Y-93225000D01*
G75*
G02*
X15625000Y-93025000I200000J0D01*
G01*
X16025000Y-93025000D01*
G75*
G02*
X16225000Y-93225000I0J-200000D01*
G01*
G37*
G04 #@! TD*
G04 #@! TO.C,R23*
G36*
G01*
X14575000Y-103225000D02*
X14575000Y-103775000D01*
G75*
G02*
X14375000Y-103975000I-200000J0D01*
G01*
X13975000Y-103975000D01*
G75*
G02*
X13775000Y-103775000I0J200000D01*
G01*
X13775000Y-103225000D01*
G75*
G02*
X13975000Y-103025000I200000J0D01*
G01*
X14375000Y-103025000D01*
G75*
G02*
X14575000Y-103225000I0J-200000D01*
G01*
G37*
G36*
G01*
X16225000Y-103225000D02*
X16225000Y-103775000D01*
G75*
G02*
X16025000Y-103975000I-200000J0D01*
G01*
X15625000Y-103975000D01*
G75*
G02*
X15425000Y-103775000I0J200000D01*
G01*
X15425000Y-103225000D01*
G75*
G02*
X15625000Y-103025000I200000J0D01*
G01*
X16025000Y-103025000D01*
G75*
G02*
X16225000Y-103225000I0J-200000D01*
G01*
G37*
G04 #@! TD*
G04 #@! TO.C,R22*
G36*
G01*
X16075000Y-114975000D02*
X16075000Y-115525000D01*
G75*
G02*
X15875000Y-115725000I-200000J0D01*
G01*
X15475000Y-115725000D01*
G75*
G02*
X15275000Y-115525000I0J200000D01*
G01*
X15275000Y-114975000D01*
G75*
G02*
X15475000Y-114775000I200000J0D01*
G01*
X15875000Y-114775000D01*
G75*
G02*
X16075000Y-114975000I0J-200000D01*
G01*
G37*
G36*
G01*
X17725000Y-114975000D02*
X17725000Y-115525000D01*
G75*
G02*
X17525000Y-115725000I-200000J0D01*
G01*
X17125000Y-115725000D01*
G75*
G02*
X16925000Y-115525000I0J200000D01*
G01*
X16925000Y-114975000D01*
G75*
G02*
X17125000Y-114775000I200000J0D01*
G01*
X17525000Y-114775000D01*
G75*
G02*
X17725000Y-114975000I0J-200000D01*
G01*
G37*
G04 #@! TD*
G04 #@! TO.C,R21*
G36*
G01*
X20175000Y-115525000D02*
X20175000Y-114975000D01*
G75*
G02*
X20375000Y-114775000I200000J0D01*
G01*
X20775000Y-114775000D01*
G75*
G02*
X20975000Y-114975000I0J-200000D01*
G01*
X20975000Y-115525000D01*
G75*
G02*
X20775000Y-115725000I-200000J0D01*
G01*
X20375000Y-115725000D01*
G75*
G02*
X20175000Y-115525000I0J200000D01*
G01*
G37*
G36*
G01*
X18525000Y-115525000D02*
X18525000Y-114975000D01*
G75*
G02*
X18725000Y-114775000I200000J0D01*
G01*
X19125000Y-114775000D01*
G75*
G02*
X19325000Y-114975000I0J-200000D01*
G01*
X19325000Y-115525000D01*
G75*
G02*
X19125000Y-115725000I-200000J0D01*
G01*
X18725000Y-115725000D01*
G75*
G02*
X18525000Y-115525000I0J200000D01*
G01*
G37*
G04 #@! TD*
D15*
G04 #@! TO.C,M2*
X19080000Y-86340000D03*
D16*
X21620000Y-88500000D03*
X19080000Y-88500000D03*
X16540000Y-88500000D03*
D17*
X14000000Y-88500000D03*
G04 #@! TD*
D15*
G04 #@! TO.C,M1*
X19080000Y-95840000D03*
D16*
X21620000Y-98000000D03*
X19080000Y-98000000D03*
X16540000Y-98000000D03*
D17*
X14000000Y-98000000D03*
G04 #@! TD*
G04 #@! TO.C,C9*
G36*
G01*
X21325000Y-111250000D02*
X21325000Y-110750000D01*
G75*
G02*
X21550000Y-110525000I225000J0D01*
G01*
X22000000Y-110525000D01*
G75*
G02*
X22225000Y-110750000I0J-225000D01*
G01*
X22225000Y-111250000D01*
G75*
G02*
X22000000Y-111475000I-225000J0D01*
G01*
X21550000Y-111475000D01*
G75*
G02*
X21325000Y-111250000I0J225000D01*
G01*
G37*
G36*
G01*
X19775000Y-111250000D02*
X19775000Y-110750000D01*
G75*
G02*
X20000000Y-110525000I225000J0D01*
G01*
X20450000Y-110525000D01*
G75*
G02*
X20675000Y-110750000I0J-225000D01*
G01*
X20675000Y-111250000D01*
G75*
G02*
X20450000Y-111475000I-225000J0D01*
G01*
X20000000Y-111475000D01*
G75*
G02*
X19775000Y-111250000I0J225000D01*
G01*
G37*
G04 #@! TD*
D18*
G04 #@! TO.C,J4*
X24170000Y-131940000D03*
X24170000Y-129400000D03*
X26710000Y-131940000D03*
X26710000Y-129400000D03*
X29250000Y-131940000D03*
D19*
X29250000Y-129400000D03*
G04 #@! TD*
G04 #@! TO.C,C6*
G36*
G01*
X36625000Y-149750000D02*
X36625000Y-149250000D01*
G75*
G02*
X36850000Y-149025000I225000J0D01*
G01*
X37300000Y-149025000D01*
G75*
G02*
X37525000Y-149250000I0J-225000D01*
G01*
X37525000Y-149750000D01*
G75*
G02*
X37300000Y-149975000I-225000J0D01*
G01*
X36850000Y-149975000D01*
G75*
G02*
X36625000Y-149750000I0J225000D01*
G01*
G37*
G36*
G01*
X35075000Y-149750000D02*
X35075000Y-149250000D01*
G75*
G02*
X35300000Y-149025000I225000J0D01*
G01*
X35750000Y-149025000D01*
G75*
G02*
X35975000Y-149250000I0J-225000D01*
G01*
X35975000Y-149750000D01*
G75*
G02*
X35750000Y-149975000I-225000J0D01*
G01*
X35300000Y-149975000D01*
G75*
G02*
X35075000Y-149750000I0J225000D01*
G01*
G37*
G04 #@! TD*
G04 #@! TO.C,C7*
G36*
G01*
X35975000Y-143250000D02*
X35975000Y-143750000D01*
G75*
G02*
X35750000Y-143975000I-225000J0D01*
G01*
X35300000Y-143975000D01*
G75*
G02*
X35075000Y-143750000I0J225000D01*
G01*
X35075000Y-143250000D01*
G75*
G02*
X35300000Y-143025000I225000J0D01*
G01*
X35750000Y-143025000D01*
G75*
G02*
X35975000Y-143250000I0J-225000D01*
G01*
G37*
G36*
G01*
X37525000Y-143250000D02*
X37525000Y-143750000D01*
G75*
G02*
X37300000Y-143975000I-225000J0D01*
G01*
X36850000Y-143975000D01*
G75*
G02*
X36625000Y-143750000I0J225000D01*
G01*
X36625000Y-143250000D01*
G75*
G02*
X36850000Y-143025000I225000J0D01*
G01*
X37300000Y-143025000D01*
G75*
G02*
X37525000Y-143250000I0J-225000D01*
G01*
G37*
G04 #@! TD*
G04 #@! TO.C,U1*
G36*
G01*
X33400000Y-148375000D02*
X33400000Y-148525000D01*
G75*
G02*
X33325000Y-148600000I-75000J0D01*
G01*
X32000000Y-148600000D01*
G75*
G02*
X31925000Y-148525000I0J75000D01*
G01*
X31925000Y-148375000D01*
G75*
G02*
X32000000Y-148300000I75000J0D01*
G01*
X33325000Y-148300000D01*
G75*
G02*
X33400000Y-148375000I0J-75000D01*
G01*
G37*
G36*
G01*
X33400000Y-147875000D02*
X33400000Y-148025000D01*
G75*
G02*
X33325000Y-148100000I-75000J0D01*
G01*
X32000000Y-148100000D01*
G75*
G02*
X31925000Y-148025000I0J75000D01*
G01*
X31925000Y-147875000D01*
G75*
G02*
X32000000Y-147800000I75000J0D01*
G01*
X33325000Y-147800000D01*
G75*
G02*
X33400000Y-147875000I0J-75000D01*
G01*
G37*
G36*
G01*
X33400000Y-147375000D02*
X33400000Y-147525000D01*
G75*
G02*
X33325000Y-147600000I-75000J0D01*
G01*
X32000000Y-147600000D01*
G75*
G02*
X31925000Y-147525000I0J75000D01*
G01*
X31925000Y-147375000D01*
G75*
G02*
X32000000Y-147300000I75000J0D01*
G01*
X33325000Y-147300000D01*
G75*
G02*
X33400000Y-147375000I0J-75000D01*
G01*
G37*
G36*
G01*
X33400000Y-146875000D02*
X33400000Y-147025000D01*
G75*
G02*
X33325000Y-147100000I-75000J0D01*
G01*
X32000000Y-147100000D01*
G75*
G02*
X31925000Y-147025000I0J75000D01*
G01*
X31925000Y-146875000D01*
G75*
G02*
X32000000Y-146800000I75000J0D01*
G01*
X33325000Y-146800000D01*
G75*
G02*
X33400000Y-146875000I0J-75000D01*
G01*
G37*
G36*
G01*
X33400000Y-146375000D02*
X33400000Y-146525000D01*
G75*
G02*
X33325000Y-146600000I-75000J0D01*
G01*
X32000000Y-146600000D01*
G75*
G02*
X31925000Y-146525000I0J75000D01*
G01*
X31925000Y-146375000D01*
G75*
G02*
X32000000Y-146300000I75000J0D01*
G01*
X33325000Y-146300000D01*
G75*
G02*
X33400000Y-146375000I0J-75000D01*
G01*
G37*
G36*
G01*
X33400000Y-145875000D02*
X33400000Y-146025000D01*
G75*
G02*
X33325000Y-146100000I-75000J0D01*
G01*
X32000000Y-146100000D01*
G75*
G02*
X31925000Y-146025000I0J75000D01*
G01*
X31925000Y-145875000D01*
G75*
G02*
X32000000Y-145800000I75000J0D01*
G01*
X33325000Y-145800000D01*
G75*
G02*
X33400000Y-145875000I0J-75000D01*
G01*
G37*
G36*
G01*
X33400000Y-145375000D02*
X33400000Y-145525000D01*
G75*
G02*
X33325000Y-145600000I-75000J0D01*
G01*
X32000000Y-145600000D01*
G75*
G02*
X31925000Y-145525000I0J75000D01*
G01*
X31925000Y-145375000D01*
G75*
G02*
X32000000Y-145300000I75000J0D01*
G01*
X33325000Y-145300000D01*
G75*
G02*
X33400000Y-145375000I0J-75000D01*
G01*
G37*
G36*
G01*
X33400000Y-144875000D02*
X33400000Y-145025000D01*
G75*
G02*
X33325000Y-145100000I-75000J0D01*
G01*
X32000000Y-145100000D01*
G75*
G02*
X31925000Y-145025000I0J75000D01*
G01*
X31925000Y-144875000D01*
G75*
G02*
X32000000Y-144800000I75000J0D01*
G01*
X33325000Y-144800000D01*
G75*
G02*
X33400000Y-144875000I0J-75000D01*
G01*
G37*
G36*
G01*
X33400000Y-144375000D02*
X33400000Y-144525000D01*
G75*
G02*
X33325000Y-144600000I-75000J0D01*
G01*
X32000000Y-144600000D01*
G75*
G02*
X31925000Y-144525000I0J75000D01*
G01*
X31925000Y-144375000D01*
G75*
G02*
X32000000Y-144300000I75000J0D01*
G01*
X33325000Y-144300000D01*
G75*
G02*
X33400000Y-144375000I0J-75000D01*
G01*
G37*
G36*
G01*
X33400000Y-143875000D02*
X33400000Y-144025000D01*
G75*
G02*
X33325000Y-144100000I-75000J0D01*
G01*
X32000000Y-144100000D01*
G75*
G02*
X31925000Y-144025000I0J75000D01*
G01*
X31925000Y-143875000D01*
G75*
G02*
X32000000Y-143800000I75000J0D01*
G01*
X33325000Y-143800000D01*
G75*
G02*
X33400000Y-143875000I0J-75000D01*
G01*
G37*
G36*
G01*
X33400000Y-143375000D02*
X33400000Y-143525000D01*
G75*
G02*
X33325000Y-143600000I-75000J0D01*
G01*
X32000000Y-143600000D01*
G75*
G02*
X31925000Y-143525000I0J75000D01*
G01*
X31925000Y-143375000D01*
G75*
G02*
X32000000Y-143300000I75000J0D01*
G01*
X33325000Y-143300000D01*
G75*
G02*
X33400000Y-143375000I0J-75000D01*
G01*
G37*
G36*
G01*
X33400000Y-142875000D02*
X33400000Y-143025000D01*
G75*
G02*
X33325000Y-143100000I-75000J0D01*
G01*
X32000000Y-143100000D01*
G75*
G02*
X31925000Y-143025000I0J75000D01*
G01*
X31925000Y-142875000D01*
G75*
G02*
X32000000Y-142800000I75000J0D01*
G01*
X33325000Y-142800000D01*
G75*
G02*
X33400000Y-142875000I0J-75000D01*
G01*
G37*
G36*
G01*
X31400000Y-140875000D02*
X31400000Y-142200000D01*
G75*
G02*
X31325000Y-142275000I-75000J0D01*
G01*
X31175000Y-142275000D01*
G75*
G02*
X31100000Y-142200000I0J75000D01*
G01*
X31100000Y-140875000D01*
G75*
G02*
X31175000Y-140800000I75000J0D01*
G01*
X31325000Y-140800000D01*
G75*
G02*
X31400000Y-140875000I0J-75000D01*
G01*
G37*
G36*
G01*
X30900000Y-140875000D02*
X30900000Y-142200000D01*
G75*
G02*
X30825000Y-142275000I-75000J0D01*
G01*
X30675000Y-142275000D01*
G75*
G02*
X30600000Y-142200000I0J75000D01*
G01*
X30600000Y-140875000D01*
G75*
G02*
X30675000Y-140800000I75000J0D01*
G01*
X30825000Y-140800000D01*
G75*
G02*
X30900000Y-140875000I0J-75000D01*
G01*
G37*
G36*
G01*
X30400000Y-140875000D02*
X30400000Y-142200000D01*
G75*
G02*
X30325000Y-142275000I-75000J0D01*
G01*
X30175000Y-142275000D01*
G75*
G02*
X30100000Y-142200000I0J75000D01*
G01*
X30100000Y-140875000D01*
G75*
G02*
X30175000Y-140800000I75000J0D01*
G01*
X30325000Y-140800000D01*
G75*
G02*
X30400000Y-140875000I0J-75000D01*
G01*
G37*
G36*
G01*
X29900000Y-140875000D02*
X29900000Y-142200000D01*
G75*
G02*
X29825000Y-142275000I-75000J0D01*
G01*
X29675000Y-142275000D01*
G75*
G02*
X29600000Y-142200000I0J75000D01*
G01*
X29600000Y-140875000D01*
G75*
G02*
X29675000Y-140800000I75000J0D01*
G01*
X29825000Y-140800000D01*
G75*
G02*
X29900000Y-140875000I0J-75000D01*
G01*
G37*
G36*
G01*
X29400000Y-140875000D02*
X29400000Y-142200000D01*
G75*
G02*
X29325000Y-142275000I-75000J0D01*
G01*
X29175000Y-142275000D01*
G75*
G02*
X29100000Y-142200000I0J75000D01*
G01*
X29100000Y-140875000D01*
G75*
G02*
X29175000Y-140800000I75000J0D01*
G01*
X29325000Y-140800000D01*
G75*
G02*
X29400000Y-140875000I0J-75000D01*
G01*
G37*
G36*
G01*
X28900000Y-140875000D02*
X28900000Y-142200000D01*
G75*
G02*
X28825000Y-142275000I-75000J0D01*
G01*
X28675000Y-142275000D01*
G75*
G02*
X28600000Y-142200000I0J75000D01*
G01*
X28600000Y-140875000D01*
G75*
G02*
X28675000Y-140800000I75000J0D01*
G01*
X28825000Y-140800000D01*
G75*
G02*
X28900000Y-140875000I0J-75000D01*
G01*
G37*
G36*
G01*
X28400000Y-140875000D02*
X28400000Y-142200000D01*
G75*
G02*
X28325000Y-142275000I-75000J0D01*
G01*
X28175000Y-142275000D01*
G75*
G02*
X28100000Y-142200000I0J75000D01*
G01*
X28100000Y-140875000D01*
G75*
G02*
X28175000Y-140800000I75000J0D01*
G01*
X28325000Y-140800000D01*
G75*
G02*
X28400000Y-140875000I0J-75000D01*
G01*
G37*
G36*
G01*
X27900000Y-140875000D02*
X27900000Y-142200000D01*
G75*
G02*
X27825000Y-142275000I-75000J0D01*
G01*
X27675000Y-142275000D01*
G75*
G02*
X27600000Y-142200000I0J75000D01*
G01*
X27600000Y-140875000D01*
G75*
G02*
X27675000Y-140800000I75000J0D01*
G01*
X27825000Y-140800000D01*
G75*
G02*
X27900000Y-140875000I0J-75000D01*
G01*
G37*
G36*
G01*
X27400000Y-140875000D02*
X27400000Y-142200000D01*
G75*
G02*
X27325000Y-142275000I-75000J0D01*
G01*
X27175000Y-142275000D01*
G75*
G02*
X27100000Y-142200000I0J75000D01*
G01*
X27100000Y-140875000D01*
G75*
G02*
X27175000Y-140800000I75000J0D01*
G01*
X27325000Y-140800000D01*
G75*
G02*
X27400000Y-140875000I0J-75000D01*
G01*
G37*
G36*
G01*
X26900000Y-140875000D02*
X26900000Y-142200000D01*
G75*
G02*
X26825000Y-142275000I-75000J0D01*
G01*
X26675000Y-142275000D01*
G75*
G02*
X26600000Y-142200000I0J75000D01*
G01*
X26600000Y-140875000D01*
G75*
G02*
X26675000Y-140800000I75000J0D01*
G01*
X26825000Y-140800000D01*
G75*
G02*
X26900000Y-140875000I0J-75000D01*
G01*
G37*
G36*
G01*
X26400000Y-140875000D02*
X26400000Y-142200000D01*
G75*
G02*
X26325000Y-142275000I-75000J0D01*
G01*
X26175000Y-142275000D01*
G75*
G02*
X26100000Y-142200000I0J75000D01*
G01*
X26100000Y-140875000D01*
G75*
G02*
X26175000Y-140800000I75000J0D01*
G01*
X26325000Y-140800000D01*
G75*
G02*
X26400000Y-140875000I0J-75000D01*
G01*
G37*
G36*
G01*
X25900000Y-140875000D02*
X25900000Y-142200000D01*
G75*
G02*
X25825000Y-142275000I-75000J0D01*
G01*
X25675000Y-142275000D01*
G75*
G02*
X25600000Y-142200000I0J75000D01*
G01*
X25600000Y-140875000D01*
G75*
G02*
X25675000Y-140800000I75000J0D01*
G01*
X25825000Y-140800000D01*
G75*
G02*
X25900000Y-140875000I0J-75000D01*
G01*
G37*
G36*
G01*
X25075000Y-142875000D02*
X25075000Y-143025000D01*
G75*
G02*
X25000000Y-143100000I-75000J0D01*
G01*
X23675000Y-143100000D01*
G75*
G02*
X23600000Y-143025000I0J75000D01*
G01*
X23600000Y-142875000D01*
G75*
G02*
X23675000Y-142800000I75000J0D01*
G01*
X25000000Y-142800000D01*
G75*
G02*
X25075000Y-142875000I0J-75000D01*
G01*
G37*
G36*
G01*
X25075000Y-143375000D02*
X25075000Y-143525000D01*
G75*
G02*
X25000000Y-143600000I-75000J0D01*
G01*
X23675000Y-143600000D01*
G75*
G02*
X23600000Y-143525000I0J75000D01*
G01*
X23600000Y-143375000D01*
G75*
G02*
X23675000Y-143300000I75000J0D01*
G01*
X25000000Y-143300000D01*
G75*
G02*
X25075000Y-143375000I0J-75000D01*
G01*
G37*
G36*
G01*
X25075000Y-143875000D02*
X25075000Y-144025000D01*
G75*
G02*
X25000000Y-144100000I-75000J0D01*
G01*
X23675000Y-144100000D01*
G75*
G02*
X23600000Y-144025000I0J75000D01*
G01*
X23600000Y-143875000D01*
G75*
G02*
X23675000Y-143800000I75000J0D01*
G01*
X25000000Y-143800000D01*
G75*
G02*
X25075000Y-143875000I0J-75000D01*
G01*
G37*
G36*
G01*
X25075000Y-144375000D02*
X25075000Y-144525000D01*
G75*
G02*
X25000000Y-144600000I-75000J0D01*
G01*
X23675000Y-144600000D01*
G75*
G02*
X23600000Y-144525000I0J75000D01*
G01*
X23600000Y-144375000D01*
G75*
G02*
X23675000Y-144300000I75000J0D01*
G01*
X25000000Y-144300000D01*
G75*
G02*
X25075000Y-144375000I0J-75000D01*
G01*
G37*
G36*
G01*
X25075000Y-144875000D02*
X25075000Y-145025000D01*
G75*
G02*
X25000000Y-145100000I-75000J0D01*
G01*
X23675000Y-145100000D01*
G75*
G02*
X23600000Y-145025000I0J75000D01*
G01*
X23600000Y-144875000D01*
G75*
G02*
X23675000Y-144800000I75000J0D01*
G01*
X25000000Y-144800000D01*
G75*
G02*
X25075000Y-144875000I0J-75000D01*
G01*
G37*
G36*
G01*
X25075000Y-145375000D02*
X25075000Y-145525000D01*
G75*
G02*
X25000000Y-145600000I-75000J0D01*
G01*
X23675000Y-145600000D01*
G75*
G02*
X23600000Y-145525000I0J75000D01*
G01*
X23600000Y-145375000D01*
G75*
G02*
X23675000Y-145300000I75000J0D01*
G01*
X25000000Y-145300000D01*
G75*
G02*
X25075000Y-145375000I0J-75000D01*
G01*
G37*
G36*
G01*
X25075000Y-145875000D02*
X25075000Y-146025000D01*
G75*
G02*
X25000000Y-146100000I-75000J0D01*
G01*
X23675000Y-146100000D01*
G75*
G02*
X23600000Y-146025000I0J75000D01*
G01*
X23600000Y-145875000D01*
G75*
G02*
X23675000Y-145800000I75000J0D01*
G01*
X25000000Y-145800000D01*
G75*
G02*
X25075000Y-145875000I0J-75000D01*
G01*
G37*
G36*
G01*
X25075000Y-146375000D02*
X25075000Y-146525000D01*
G75*
G02*
X25000000Y-146600000I-75000J0D01*
G01*
X23675000Y-146600000D01*
G75*
G02*
X23600000Y-146525000I0J75000D01*
G01*
X23600000Y-146375000D01*
G75*
G02*
X23675000Y-146300000I75000J0D01*
G01*
X25000000Y-146300000D01*
G75*
G02*
X25075000Y-146375000I0J-75000D01*
G01*
G37*
G36*
G01*
X25075000Y-146875000D02*
X25075000Y-147025000D01*
G75*
G02*
X25000000Y-147100000I-75000J0D01*
G01*
X23675000Y-147100000D01*
G75*
G02*
X23600000Y-147025000I0J75000D01*
G01*
X23600000Y-146875000D01*
G75*
G02*
X23675000Y-146800000I75000J0D01*
G01*
X25000000Y-146800000D01*
G75*
G02*
X25075000Y-146875000I0J-75000D01*
G01*
G37*
G36*
G01*
X25075000Y-147375000D02*
X25075000Y-147525000D01*
G75*
G02*
X25000000Y-147600000I-75000J0D01*
G01*
X23675000Y-147600000D01*
G75*
G02*
X23600000Y-147525000I0J75000D01*
G01*
X23600000Y-147375000D01*
G75*
G02*
X23675000Y-147300000I75000J0D01*
G01*
X25000000Y-147300000D01*
G75*
G02*
X25075000Y-147375000I0J-75000D01*
G01*
G37*
G36*
G01*
X25075000Y-147875000D02*
X25075000Y-148025000D01*
G75*
G02*
X25000000Y-148100000I-75000J0D01*
G01*
X23675000Y-148100000D01*
G75*
G02*
X23600000Y-148025000I0J75000D01*
G01*
X23600000Y-147875000D01*
G75*
G02*
X23675000Y-147800000I75000J0D01*
G01*
X25000000Y-147800000D01*
G75*
G02*
X25075000Y-147875000I0J-75000D01*
G01*
G37*
G36*
G01*
X25075000Y-148375000D02*
X25075000Y-148525000D01*
G75*
G02*
X25000000Y-148600000I-75000J0D01*
G01*
X23675000Y-148600000D01*
G75*
G02*
X23600000Y-148525000I0J75000D01*
G01*
X23600000Y-148375000D01*
G75*
G02*
X23675000Y-148300000I75000J0D01*
G01*
X25000000Y-148300000D01*
G75*
G02*
X25075000Y-148375000I0J-75000D01*
G01*
G37*
G36*
G01*
X25900000Y-149200000D02*
X25900000Y-150525000D01*
G75*
G02*
X25825000Y-150600000I-75000J0D01*
G01*
X25675000Y-150600000D01*
G75*
G02*
X25600000Y-150525000I0J75000D01*
G01*
X25600000Y-149200000D01*
G75*
G02*
X25675000Y-149125000I75000J0D01*
G01*
X25825000Y-149125000D01*
G75*
G02*
X25900000Y-149200000I0J-75000D01*
G01*
G37*
G36*
G01*
X26400000Y-149200000D02*
X26400000Y-150525000D01*
G75*
G02*
X26325000Y-150600000I-75000J0D01*
G01*
X26175000Y-150600000D01*
G75*
G02*
X26100000Y-150525000I0J75000D01*
G01*
X26100000Y-149200000D01*
G75*
G02*
X26175000Y-149125000I75000J0D01*
G01*
X26325000Y-149125000D01*
G75*
G02*
X26400000Y-149200000I0J-75000D01*
G01*
G37*
G36*
G01*
X26900000Y-149200000D02*
X26900000Y-150525000D01*
G75*
G02*
X26825000Y-150600000I-75000J0D01*
G01*
X26675000Y-150600000D01*
G75*
G02*
X26600000Y-150525000I0J75000D01*
G01*
X26600000Y-149200000D01*
G75*
G02*
X26675000Y-149125000I75000J0D01*
G01*
X26825000Y-149125000D01*
G75*
G02*
X26900000Y-149200000I0J-75000D01*
G01*
G37*
G36*
G01*
X27400000Y-149200000D02*
X27400000Y-150525000D01*
G75*
G02*
X27325000Y-150600000I-75000J0D01*
G01*
X27175000Y-150600000D01*
G75*
G02*
X27100000Y-150525000I0J75000D01*
G01*
X27100000Y-149200000D01*
G75*
G02*
X27175000Y-149125000I75000J0D01*
G01*
X27325000Y-149125000D01*
G75*
G02*
X27400000Y-149200000I0J-75000D01*
G01*
G37*
G36*
G01*
X27900000Y-149200000D02*
X27900000Y-150525000D01*
G75*
G02*
X27825000Y-150600000I-75000J0D01*
G01*
X27675000Y-150600000D01*
G75*
G02*
X27600000Y-150525000I0J75000D01*
G01*
X27600000Y-149200000D01*
G75*
G02*
X27675000Y-149125000I75000J0D01*
G01*
X27825000Y-149125000D01*
G75*
G02*
X27900000Y-149200000I0J-75000D01*
G01*
G37*
G36*
G01*
X28400000Y-149200000D02*
X28400000Y-150525000D01*
G75*
G02*
X28325000Y-150600000I-75000J0D01*
G01*
X28175000Y-150600000D01*
G75*
G02*
X28100000Y-150525000I0J75000D01*
G01*
X28100000Y-149200000D01*
G75*
G02*
X28175000Y-149125000I75000J0D01*
G01*
X28325000Y-149125000D01*
G75*
G02*
X28400000Y-149200000I0J-75000D01*
G01*
G37*
G36*
G01*
X28900000Y-149200000D02*
X28900000Y-150525000D01*
G75*
G02*
X28825000Y-150600000I-75000J0D01*
G01*
X28675000Y-150600000D01*
G75*
G02*
X28600000Y-150525000I0J75000D01*
G01*
X28600000Y-149200000D01*
G75*
G02*
X28675000Y-149125000I75000J0D01*
G01*
X28825000Y-149125000D01*
G75*
G02*
X28900000Y-149200000I0J-75000D01*
G01*
G37*
G36*
G01*
X29400000Y-149200000D02*
X29400000Y-150525000D01*
G75*
G02*
X29325000Y-150600000I-75000J0D01*
G01*
X29175000Y-150600000D01*
G75*
G02*
X29100000Y-150525000I0J75000D01*
G01*
X29100000Y-149200000D01*
G75*
G02*
X29175000Y-149125000I75000J0D01*
G01*
X29325000Y-149125000D01*
G75*
G02*
X29400000Y-149200000I0J-75000D01*
G01*
G37*
G36*
G01*
X29900000Y-149200000D02*
X29900000Y-150525000D01*
G75*
G02*
X29825000Y-150600000I-75000J0D01*
G01*
X29675000Y-150600000D01*
G75*
G02*
X29600000Y-150525000I0J75000D01*
G01*
X29600000Y-149200000D01*
G75*
G02*
X29675000Y-149125000I75000J0D01*
G01*
X29825000Y-149125000D01*
G75*
G02*
X29900000Y-149200000I0J-75000D01*
G01*
G37*
G36*
G01*
X30400000Y-149200000D02*
X30400000Y-150525000D01*
G75*
G02*
X30325000Y-150600000I-75000J0D01*
G01*
X30175000Y-150600000D01*
G75*
G02*
X30100000Y-150525000I0J75000D01*
G01*
X30100000Y-149200000D01*
G75*
G02*
X30175000Y-149125000I75000J0D01*
G01*
X30325000Y-149125000D01*
G75*
G02*
X30400000Y-149200000I0J-75000D01*
G01*
G37*
G36*
G01*
X30900000Y-149200000D02*
X30900000Y-150525000D01*
G75*
G02*
X30825000Y-150600000I-75000J0D01*
G01*
X30675000Y-150600000D01*
G75*
G02*
X30600000Y-150525000I0J75000D01*
G01*
X30600000Y-149200000D01*
G75*
G02*
X30675000Y-149125000I75000J0D01*
G01*
X30825000Y-149125000D01*
G75*
G02*
X30900000Y-149200000I0J-75000D01*
G01*
G37*
G36*
G01*
X31400000Y-149200000D02*
X31400000Y-150525000D01*
G75*
G02*
X31325000Y-150600000I-75000J0D01*
G01*
X31175000Y-150600000D01*
G75*
G02*
X31100000Y-150525000I0J75000D01*
G01*
X31100000Y-149200000D01*
G75*
G02*
X31175000Y-149125000I75000J0D01*
G01*
X31325000Y-149125000D01*
G75*
G02*
X31400000Y-149200000I0J-75000D01*
G01*
G37*
G04 #@! TD*
D20*
G04 #@! TO.C,J6*
X12440000Y-142260000D03*
X12440000Y-147340000D03*
X9265000Y-147340000D03*
X9265000Y-142260000D03*
D21*
X7360000Y-145816000D03*
X7360000Y-143784000D03*
X12440000Y-144800000D03*
D22*
X11170000Y-144165000D03*
X11170000Y-145435000D03*
X9900000Y-144165000D03*
X9900000Y-145435000D03*
X8630000Y-144165000D03*
X8630000Y-145435000D03*
G04 #@! TD*
G04 #@! TO.C,C8*
G36*
G01*
X21550000Y-151325000D02*
X22050000Y-151325000D01*
G75*
G02*
X22275000Y-151550000I0J-225000D01*
G01*
X22275000Y-152000000D01*
G75*
G02*
X22050000Y-152225000I-225000J0D01*
G01*
X21550000Y-152225000D01*
G75*
G02*
X21325000Y-152000000I0J225000D01*
G01*
X21325000Y-151550000D01*
G75*
G02*
X21550000Y-151325000I225000J0D01*
G01*
G37*
G36*
G01*
X21550000Y-149775000D02*
X22050000Y-149775000D01*
G75*
G02*
X22275000Y-150000000I0J-225000D01*
G01*
X22275000Y-150450000D01*
G75*
G02*
X22050000Y-150675000I-225000J0D01*
G01*
X21550000Y-150675000D01*
G75*
G02*
X21325000Y-150450000I0J225000D01*
G01*
X21325000Y-150000000D01*
G75*
G02*
X21550000Y-149775000I225000J0D01*
G01*
G37*
G04 #@! TD*
D23*
G04 #@! TO.C,Y2*
X35500000Y-147600000D03*
X35500000Y-145400000D03*
X37100000Y-145400000D03*
X37100000Y-147600000D03*
G04 #@! TD*
D24*
G04 #@! TO.C,J7*
X77000000Y-11500000D03*
D25*
X74500000Y-11500000D03*
D24*
X77000000Y-9500000D03*
X74500000Y-9500000D03*
D26*
X81770000Y-6790000D03*
X69730000Y-6790000D03*
G04 #@! TD*
D24*
G04 #@! TO.C,J5*
X58000000Y-11500000D03*
D25*
X55500000Y-11500000D03*
D24*
X58000000Y-9500000D03*
X55500000Y-9500000D03*
D26*
X62770000Y-6790000D03*
X50730000Y-6790000D03*
G04 #@! TD*
G04 #@! TO.C,R20*
G36*
G01*
X47775000Y-125575000D02*
X47225000Y-125575000D01*
G75*
G02*
X47025000Y-125375000I0J200000D01*
G01*
X47025000Y-124975000D01*
G75*
G02*
X47225000Y-124775000I200000J0D01*
G01*
X47775000Y-124775000D01*
G75*
G02*
X47975000Y-124975000I0J-200000D01*
G01*
X47975000Y-125375000D01*
G75*
G02*
X47775000Y-125575000I-200000J0D01*
G01*
G37*
G36*
G01*
X47775000Y-127225000D02*
X47225000Y-127225000D01*
G75*
G02*
X47025000Y-127025000I0J200000D01*
G01*
X47025000Y-126625000D01*
G75*
G02*
X47225000Y-126425000I200000J0D01*
G01*
X47775000Y-126425000D01*
G75*
G02*
X47975000Y-126625000I0J-200000D01*
G01*
X47975000Y-127025000D01*
G75*
G02*
X47775000Y-127225000I-200000J0D01*
G01*
G37*
G04 #@! TD*
G04 #@! TO.C,R19*
G36*
G01*
X62225000Y-126425000D02*
X62775000Y-126425000D01*
G75*
G02*
X62975000Y-126625000I0J-200000D01*
G01*
X62975000Y-127025000D01*
G75*
G02*
X62775000Y-127225000I-200000J0D01*
G01*
X62225000Y-127225000D01*
G75*
G02*
X62025000Y-127025000I0J200000D01*
G01*
X62025000Y-126625000D01*
G75*
G02*
X62225000Y-126425000I200000J0D01*
G01*
G37*
G36*
G01*
X62225000Y-124775000D02*
X62775000Y-124775000D01*
G75*
G02*
X62975000Y-124975000I0J-200000D01*
G01*
X62975000Y-125375000D01*
G75*
G02*
X62775000Y-125575000I-200000J0D01*
G01*
X62225000Y-125575000D01*
G75*
G02*
X62025000Y-125375000I0J200000D01*
G01*
X62025000Y-124975000D01*
G75*
G02*
X62225000Y-124775000I200000J0D01*
G01*
G37*
G04 #@! TD*
D27*
G04 #@! TO.C,TP4*
X159000000Y-62000000D03*
G04 #@! TD*
G04 #@! TO.C,TP3*
X148000000Y-62000000D03*
G04 #@! TD*
G04 #@! TO.C,TP2*
X159000000Y-75000000D03*
G04 #@! TD*
G04 #@! TO.C,TP1*
X148000000Y-75000000D03*
G04 #@! TD*
D28*
G04 #@! TO.C,W1*
X104750000Y-127000000D03*
X104750000Y-123000000D03*
X104750000Y-121000000D03*
X104750000Y-119000000D03*
X104750000Y-117000000D03*
X106750000Y-118000000D03*
X106750000Y-120000000D03*
X106750000Y-122000000D03*
X106750000Y-136000000D03*
X106750000Y-128000000D03*
X106750000Y-126000000D03*
X109250000Y-126000000D03*
X109250000Y-118000000D03*
X109250000Y-120000000D03*
X109250000Y-122000000D03*
X109250000Y-136000000D03*
X109250000Y-128000000D03*
X111250000Y-127000000D03*
X111250000Y-123000000D03*
X111250000Y-121000000D03*
X111250000Y-119000000D03*
X111250000Y-117000000D03*
X104750000Y-129000000D03*
X104750000Y-131000000D03*
X104750000Y-133000000D03*
X104750000Y-135000000D03*
X106750000Y-134000000D03*
X106750000Y-132000000D03*
X106750000Y-130000000D03*
X109250000Y-130000000D03*
X109250000Y-132000000D03*
X109250000Y-134000000D03*
X111250000Y-129000000D03*
X111250000Y-131000000D03*
X111250000Y-133000000D03*
X111250000Y-135000000D03*
D29*
X108000000Y-124350000D03*
X108000000Y-115200000D03*
G04 #@! TD*
D28*
G04 #@! TO.C,W2*
X87750000Y-127000000D03*
X87750000Y-123000000D03*
X87750000Y-121000000D03*
X87750000Y-119000000D03*
X87750000Y-117000000D03*
X89750000Y-118000000D03*
X89750000Y-120000000D03*
X89750000Y-122000000D03*
X89750000Y-136000000D03*
X89750000Y-128000000D03*
X89750000Y-126000000D03*
X92250000Y-126000000D03*
X92250000Y-118000000D03*
X92250000Y-120000000D03*
X92250000Y-122000000D03*
X92250000Y-136000000D03*
X92250000Y-128000000D03*
X94250000Y-127000000D03*
X94250000Y-123000000D03*
X94250000Y-121000000D03*
X94250000Y-119000000D03*
X94250000Y-117000000D03*
X87750000Y-129000000D03*
X87750000Y-131000000D03*
X87750000Y-133000000D03*
X87750000Y-135000000D03*
X89750000Y-134000000D03*
X89750000Y-132000000D03*
X89750000Y-130000000D03*
X92250000Y-130000000D03*
X92250000Y-132000000D03*
X92250000Y-134000000D03*
X94250000Y-129000000D03*
X94250000Y-131000000D03*
X94250000Y-133000000D03*
X94250000Y-135000000D03*
D29*
X91000000Y-124350000D03*
X91000000Y-115200000D03*
G04 #@! TD*
G04 #@! TO.C,C4*
G36*
G01*
X124325000Y-138250000D02*
X124325000Y-137750000D01*
G75*
G02*
X124550000Y-137525000I225000J0D01*
G01*
X125000000Y-137525000D01*
G75*
G02*
X125225000Y-137750000I0J-225000D01*
G01*
X125225000Y-138250000D01*
G75*
G02*
X125000000Y-138475000I-225000J0D01*
G01*
X124550000Y-138475000D01*
G75*
G02*
X124325000Y-138250000I0J225000D01*
G01*
G37*
G36*
G01*
X122775000Y-138250000D02*
X122775000Y-137750000D01*
G75*
G02*
X123000000Y-137525000I225000J0D01*
G01*
X123450000Y-137525000D01*
G75*
G02*
X123675000Y-137750000I0J-225000D01*
G01*
X123675000Y-138250000D01*
G75*
G02*
X123450000Y-138475000I-225000J0D01*
G01*
X123000000Y-138475000D01*
G75*
G02*
X122775000Y-138250000I0J225000D01*
G01*
G37*
G04 #@! TD*
G04 #@! TO.C,C3*
G36*
G01*
X120750000Y-141325000D02*
X121250000Y-141325000D01*
G75*
G02*
X121475000Y-141550000I0J-225000D01*
G01*
X121475000Y-142000000D01*
G75*
G02*
X121250000Y-142225000I-225000J0D01*
G01*
X120750000Y-142225000D01*
G75*
G02*
X120525000Y-142000000I0J225000D01*
G01*
X120525000Y-141550000D01*
G75*
G02*
X120750000Y-141325000I225000J0D01*
G01*
G37*
G36*
G01*
X120750000Y-139775000D02*
X121250000Y-139775000D01*
G75*
G02*
X121475000Y-140000000I0J-225000D01*
G01*
X121475000Y-140450000D01*
G75*
G02*
X121250000Y-140675000I-225000J0D01*
G01*
X120750000Y-140675000D01*
G75*
G02*
X120525000Y-140450000I0J225000D01*
G01*
X120525000Y-140000000D01*
G75*
G02*
X120750000Y-139775000I225000J0D01*
G01*
G37*
G04 #@! TD*
D30*
G04 #@! TO.C,U4*
X124000000Y-149000000D03*
G36*
G01*
X121875000Y-146412500D02*
X121875000Y-145712500D01*
G75*
G02*
X121937500Y-145650000I62500J0D01*
G01*
X122062500Y-145650000D01*
G75*
G02*
X122125000Y-145712500I0J-62500D01*
G01*
X122125000Y-146412500D01*
G75*
G02*
X122062500Y-146475000I-62500J0D01*
G01*
X121937500Y-146475000D01*
G75*
G02*
X121875000Y-146412500I0J62500D01*
G01*
G37*
G36*
G01*
X122375000Y-146412500D02*
X122375000Y-145712500D01*
G75*
G02*
X122437500Y-145650000I62500J0D01*
G01*
X122562500Y-145650000D01*
G75*
G02*
X122625000Y-145712500I0J-62500D01*
G01*
X122625000Y-146412500D01*
G75*
G02*
X122562500Y-146475000I-62500J0D01*
G01*
X122437500Y-146475000D01*
G75*
G02*
X122375000Y-146412500I0J62500D01*
G01*
G37*
G36*
G01*
X122875000Y-146412500D02*
X122875000Y-145712500D01*
G75*
G02*
X122937500Y-145650000I62500J0D01*
G01*
X123062500Y-145650000D01*
G75*
G02*
X123125000Y-145712500I0J-62500D01*
G01*
X123125000Y-146412500D01*
G75*
G02*
X123062500Y-146475000I-62500J0D01*
G01*
X122937500Y-146475000D01*
G75*
G02*
X122875000Y-146412500I0J62500D01*
G01*
G37*
G36*
G01*
X123375000Y-146412500D02*
X123375000Y-145712500D01*
G75*
G02*
X123437500Y-145650000I62500J0D01*
G01*
X123562500Y-145650000D01*
G75*
G02*
X123625000Y-145712500I0J-62500D01*
G01*
X123625000Y-146412500D01*
G75*
G02*
X123562500Y-146475000I-62500J0D01*
G01*
X123437500Y-146475000D01*
G75*
G02*
X123375000Y-146412500I0J62500D01*
G01*
G37*
G36*
G01*
X123875000Y-146412500D02*
X123875000Y-145712500D01*
G75*
G02*
X123937500Y-145650000I62500J0D01*
G01*
X124062500Y-145650000D01*
G75*
G02*
X124125000Y-145712500I0J-62500D01*
G01*
X124125000Y-146412500D01*
G75*
G02*
X124062500Y-146475000I-62500J0D01*
G01*
X123937500Y-146475000D01*
G75*
G02*
X123875000Y-146412500I0J62500D01*
G01*
G37*
G36*
G01*
X124375000Y-146412500D02*
X124375000Y-145712500D01*
G75*
G02*
X124437500Y-145650000I62500J0D01*
G01*
X124562500Y-145650000D01*
G75*
G02*
X124625000Y-145712500I0J-62500D01*
G01*
X124625000Y-146412500D01*
G75*
G02*
X124562500Y-146475000I-62500J0D01*
G01*
X124437500Y-146475000D01*
G75*
G02*
X124375000Y-146412500I0J62500D01*
G01*
G37*
G36*
G01*
X124875000Y-146412500D02*
X124875000Y-145712500D01*
G75*
G02*
X124937500Y-145650000I62500J0D01*
G01*
X125062500Y-145650000D01*
G75*
G02*
X125125000Y-145712500I0J-62500D01*
G01*
X125125000Y-146412500D01*
G75*
G02*
X125062500Y-146475000I-62500J0D01*
G01*
X124937500Y-146475000D01*
G75*
G02*
X124875000Y-146412500I0J62500D01*
G01*
G37*
G36*
G01*
X125375000Y-146412500D02*
X125375000Y-145712500D01*
G75*
G02*
X125437500Y-145650000I62500J0D01*
G01*
X125562500Y-145650000D01*
G75*
G02*
X125625000Y-145712500I0J-62500D01*
G01*
X125625000Y-146412500D01*
G75*
G02*
X125562500Y-146475000I-62500J0D01*
G01*
X125437500Y-146475000D01*
G75*
G02*
X125375000Y-146412500I0J62500D01*
G01*
G37*
G36*
G01*
X125875000Y-146412500D02*
X125875000Y-145712500D01*
G75*
G02*
X125937500Y-145650000I62500J0D01*
G01*
X126062500Y-145650000D01*
G75*
G02*
X126125000Y-145712500I0J-62500D01*
G01*
X126125000Y-146412500D01*
G75*
G02*
X126062500Y-146475000I-62500J0D01*
G01*
X125937500Y-146475000D01*
G75*
G02*
X125875000Y-146412500I0J62500D01*
G01*
G37*
G36*
G01*
X126525000Y-147062500D02*
X126525000Y-146937500D01*
G75*
G02*
X126587500Y-146875000I62500J0D01*
G01*
X127287500Y-146875000D01*
G75*
G02*
X127350000Y-146937500I0J-62500D01*
G01*
X127350000Y-147062500D01*
G75*
G02*
X127287500Y-147125000I-62500J0D01*
G01*
X126587500Y-147125000D01*
G75*
G02*
X126525000Y-147062500I0J62500D01*
G01*
G37*
G36*
G01*
X126525000Y-147562500D02*
X126525000Y-147437500D01*
G75*
G02*
X126587500Y-147375000I62500J0D01*
G01*
X127287500Y-147375000D01*
G75*
G02*
X127350000Y-147437500I0J-62500D01*
G01*
X127350000Y-147562500D01*
G75*
G02*
X127287500Y-147625000I-62500J0D01*
G01*
X126587500Y-147625000D01*
G75*
G02*
X126525000Y-147562500I0J62500D01*
G01*
G37*
G36*
G01*
X126525000Y-148062500D02*
X126525000Y-147937500D01*
G75*
G02*
X126587500Y-147875000I62500J0D01*
G01*
X127287500Y-147875000D01*
G75*
G02*
X127350000Y-147937500I0J-62500D01*
G01*
X127350000Y-148062500D01*
G75*
G02*
X127287500Y-148125000I-62500J0D01*
G01*
X126587500Y-148125000D01*
G75*
G02*
X126525000Y-148062500I0J62500D01*
G01*
G37*
G36*
G01*
X126525000Y-148562500D02*
X126525000Y-148437500D01*
G75*
G02*
X126587500Y-148375000I62500J0D01*
G01*
X127287500Y-148375000D01*
G75*
G02*
X127350000Y-148437500I0J-62500D01*
G01*
X127350000Y-148562500D01*
G75*
G02*
X127287500Y-148625000I-62500J0D01*
G01*
X126587500Y-148625000D01*
G75*
G02*
X126525000Y-148562500I0J62500D01*
G01*
G37*
G36*
G01*
X126525000Y-149062500D02*
X126525000Y-148937500D01*
G75*
G02*
X126587500Y-148875000I62500J0D01*
G01*
X127287500Y-148875000D01*
G75*
G02*
X127350000Y-148937500I0J-62500D01*
G01*
X127350000Y-149062500D01*
G75*
G02*
X127287500Y-149125000I-62500J0D01*
G01*
X126587500Y-149125000D01*
G75*
G02*
X126525000Y-149062500I0J62500D01*
G01*
G37*
G36*
G01*
X126525000Y-149562500D02*
X126525000Y-149437500D01*
G75*
G02*
X126587500Y-149375000I62500J0D01*
G01*
X127287500Y-149375000D01*
G75*
G02*
X127350000Y-149437500I0J-62500D01*
G01*
X127350000Y-149562500D01*
G75*
G02*
X127287500Y-149625000I-62500J0D01*
G01*
X126587500Y-149625000D01*
G75*
G02*
X126525000Y-149562500I0J62500D01*
G01*
G37*
G36*
G01*
X126525000Y-150062500D02*
X126525000Y-149937500D01*
G75*
G02*
X126587500Y-149875000I62500J0D01*
G01*
X127287500Y-149875000D01*
G75*
G02*
X127350000Y-149937500I0J-62500D01*
G01*
X127350000Y-150062500D01*
G75*
G02*
X127287500Y-150125000I-62500J0D01*
G01*
X126587500Y-150125000D01*
G75*
G02*
X126525000Y-150062500I0J62500D01*
G01*
G37*
G36*
G01*
X126525000Y-150562500D02*
X126525000Y-150437500D01*
G75*
G02*
X126587500Y-150375000I62500J0D01*
G01*
X127287500Y-150375000D01*
G75*
G02*
X127350000Y-150437500I0J-62500D01*
G01*
X127350000Y-150562500D01*
G75*
G02*
X127287500Y-150625000I-62500J0D01*
G01*
X126587500Y-150625000D01*
G75*
G02*
X126525000Y-150562500I0J62500D01*
G01*
G37*
G36*
G01*
X126525000Y-151062500D02*
X126525000Y-150937500D01*
G75*
G02*
X126587500Y-150875000I62500J0D01*
G01*
X127287500Y-150875000D01*
G75*
G02*
X127350000Y-150937500I0J-62500D01*
G01*
X127350000Y-151062500D01*
G75*
G02*
X127287500Y-151125000I-62500J0D01*
G01*
X126587500Y-151125000D01*
G75*
G02*
X126525000Y-151062500I0J62500D01*
G01*
G37*
G36*
G01*
X125875000Y-152287500D02*
X125875000Y-151587500D01*
G75*
G02*
X125937500Y-151525000I62500J0D01*
G01*
X126062500Y-151525000D01*
G75*
G02*
X126125000Y-151587500I0J-62500D01*
G01*
X126125000Y-152287500D01*
G75*
G02*
X126062500Y-152350000I-62500J0D01*
G01*
X125937500Y-152350000D01*
G75*
G02*
X125875000Y-152287500I0J62500D01*
G01*
G37*
G36*
G01*
X125375000Y-152287500D02*
X125375000Y-151587500D01*
G75*
G02*
X125437500Y-151525000I62500J0D01*
G01*
X125562500Y-151525000D01*
G75*
G02*
X125625000Y-151587500I0J-62500D01*
G01*
X125625000Y-152287500D01*
G75*
G02*
X125562500Y-152350000I-62500J0D01*
G01*
X125437500Y-152350000D01*
G75*
G02*
X125375000Y-152287500I0J62500D01*
G01*
G37*
G36*
G01*
X124875000Y-152287500D02*
X124875000Y-151587500D01*
G75*
G02*
X124937500Y-151525000I62500J0D01*
G01*
X125062500Y-151525000D01*
G75*
G02*
X125125000Y-151587500I0J-62500D01*
G01*
X125125000Y-152287500D01*
G75*
G02*
X125062500Y-152350000I-62500J0D01*
G01*
X124937500Y-152350000D01*
G75*
G02*
X124875000Y-152287500I0J62500D01*
G01*
G37*
G36*
G01*
X124375000Y-152287500D02*
X124375000Y-151587500D01*
G75*
G02*
X124437500Y-151525000I62500J0D01*
G01*
X124562500Y-151525000D01*
G75*
G02*
X124625000Y-151587500I0J-62500D01*
G01*
X124625000Y-152287500D01*
G75*
G02*
X124562500Y-152350000I-62500J0D01*
G01*
X124437500Y-152350000D01*
G75*
G02*
X124375000Y-152287500I0J62500D01*
G01*
G37*
G36*
G01*
X123875000Y-152287500D02*
X123875000Y-151587500D01*
G75*
G02*
X123937500Y-151525000I62500J0D01*
G01*
X124062500Y-151525000D01*
G75*
G02*
X124125000Y-151587500I0J-62500D01*
G01*
X124125000Y-152287500D01*
G75*
G02*
X124062500Y-152350000I-62500J0D01*
G01*
X123937500Y-152350000D01*
G75*
G02*
X123875000Y-152287500I0J62500D01*
G01*
G37*
G36*
G01*
X123375000Y-152287500D02*
X123375000Y-151587500D01*
G75*
G02*
X123437500Y-151525000I62500J0D01*
G01*
X123562500Y-151525000D01*
G75*
G02*
X123625000Y-151587500I0J-62500D01*
G01*
X123625000Y-152287500D01*
G75*
G02*
X123562500Y-152350000I-62500J0D01*
G01*
X123437500Y-152350000D01*
G75*
G02*
X123375000Y-152287500I0J62500D01*
G01*
G37*
G36*
G01*
X122875000Y-152287500D02*
X122875000Y-151587500D01*
G75*
G02*
X122937500Y-151525000I62500J0D01*
G01*
X123062500Y-151525000D01*
G75*
G02*
X123125000Y-151587500I0J-62500D01*
G01*
X123125000Y-152287500D01*
G75*
G02*
X123062500Y-152350000I-62500J0D01*
G01*
X122937500Y-152350000D01*
G75*
G02*
X122875000Y-152287500I0J62500D01*
G01*
G37*
G36*
G01*
X122375000Y-152287500D02*
X122375000Y-151587500D01*
G75*
G02*
X122437500Y-151525000I62500J0D01*
G01*
X122562500Y-151525000D01*
G75*
G02*
X122625000Y-151587500I0J-62500D01*
G01*
X122625000Y-152287500D01*
G75*
G02*
X122562500Y-152350000I-62500J0D01*
G01*
X122437500Y-152350000D01*
G75*
G02*
X122375000Y-152287500I0J62500D01*
G01*
G37*
G36*
G01*
X121875000Y-152287500D02*
X121875000Y-151587500D01*
G75*
G02*
X121937500Y-151525000I62500J0D01*
G01*
X122062500Y-151525000D01*
G75*
G02*
X122125000Y-151587500I0J-62500D01*
G01*
X122125000Y-152287500D01*
G75*
G02*
X122062500Y-152350000I-62500J0D01*
G01*
X121937500Y-152350000D01*
G75*
G02*
X121875000Y-152287500I0J62500D01*
G01*
G37*
G36*
G01*
X120650000Y-151062500D02*
X120650000Y-150937500D01*
G75*
G02*
X120712500Y-150875000I62500J0D01*
G01*
X121412500Y-150875000D01*
G75*
G02*
X121475000Y-150937500I0J-62500D01*
G01*
X121475000Y-151062500D01*
G75*
G02*
X121412500Y-151125000I-62500J0D01*
G01*
X120712500Y-151125000D01*
G75*
G02*
X120650000Y-151062500I0J62500D01*
G01*
G37*
G36*
G01*
X120650000Y-150562500D02*
X120650000Y-150437500D01*
G75*
G02*
X120712500Y-150375000I62500J0D01*
G01*
X121412500Y-150375000D01*
G75*
G02*
X121475000Y-150437500I0J-62500D01*
G01*
X121475000Y-150562500D01*
G75*
G02*
X121412500Y-150625000I-62500J0D01*
G01*
X120712500Y-150625000D01*
G75*
G02*
X120650000Y-150562500I0J62500D01*
G01*
G37*
G36*
G01*
X120650000Y-150062500D02*
X120650000Y-149937500D01*
G75*
G02*
X120712500Y-149875000I62500J0D01*
G01*
X121412500Y-149875000D01*
G75*
G02*
X121475000Y-149937500I0J-62500D01*
G01*
X121475000Y-150062500D01*
G75*
G02*
X121412500Y-150125000I-62500J0D01*
G01*
X120712500Y-150125000D01*
G75*
G02*
X120650000Y-150062500I0J62500D01*
G01*
G37*
G36*
G01*
X120650000Y-149562500D02*
X120650000Y-149437500D01*
G75*
G02*
X120712500Y-149375000I62500J0D01*
G01*
X121412500Y-149375000D01*
G75*
G02*
X121475000Y-149437500I0J-62500D01*
G01*
X121475000Y-149562500D01*
G75*
G02*
X121412500Y-149625000I-62500J0D01*
G01*
X120712500Y-149625000D01*
G75*
G02*
X120650000Y-149562500I0J62500D01*
G01*
G37*
G36*
G01*
X120650000Y-149062500D02*
X120650000Y-148937500D01*
G75*
G02*
X120712500Y-148875000I62500J0D01*
G01*
X121412500Y-148875000D01*
G75*
G02*
X121475000Y-148937500I0J-62500D01*
G01*
X121475000Y-149062500D01*
G75*
G02*
X121412500Y-149125000I-62500J0D01*
G01*
X120712500Y-149125000D01*
G75*
G02*
X120650000Y-149062500I0J62500D01*
G01*
G37*
G36*
G01*
X120650000Y-148562500D02*
X120650000Y-148437500D01*
G75*
G02*
X120712500Y-148375000I62500J0D01*
G01*
X121412500Y-148375000D01*
G75*
G02*
X121475000Y-148437500I0J-62500D01*
G01*
X121475000Y-148562500D01*
G75*
G02*
X121412500Y-148625000I-62500J0D01*
G01*
X120712500Y-148625000D01*
G75*
G02*
X120650000Y-148562500I0J62500D01*
G01*
G37*
G36*
G01*
X120650000Y-148062500D02*
X120650000Y-147937500D01*
G75*
G02*
X120712500Y-147875000I62500J0D01*
G01*
X121412500Y-147875000D01*
G75*
G02*
X121475000Y-147937500I0J-62500D01*
G01*
X121475000Y-148062500D01*
G75*
G02*
X121412500Y-148125000I-62500J0D01*
G01*
X120712500Y-148125000D01*
G75*
G02*
X120650000Y-148062500I0J62500D01*
G01*
G37*
G36*
G01*
X120650000Y-147562500D02*
X120650000Y-147437500D01*
G75*
G02*
X120712500Y-147375000I62500J0D01*
G01*
X121412500Y-147375000D01*
G75*
G02*
X121475000Y-147437500I0J-62500D01*
G01*
X121475000Y-147562500D01*
G75*
G02*
X121412500Y-147625000I-62500J0D01*
G01*
X120712500Y-147625000D01*
G75*
G02*
X120650000Y-147562500I0J62500D01*
G01*
G37*
G36*
G01*
X120650000Y-147062500D02*
X120650000Y-146937500D01*
G75*
G02*
X120712500Y-146875000I62500J0D01*
G01*
X121412500Y-146875000D01*
G75*
G02*
X121475000Y-146937500I0J-62500D01*
G01*
X121475000Y-147062500D01*
G75*
G02*
X121412500Y-147125000I-62500J0D01*
G01*
X120712500Y-147125000D01*
G75*
G02*
X120650000Y-147062500I0J62500D01*
G01*
G37*
G04 #@! TD*
G04 #@! TO.C,R11*
G36*
G01*
X130275000Y-149075000D02*
X129725000Y-149075000D01*
G75*
G02*
X129525000Y-148875000I0J200000D01*
G01*
X129525000Y-148475000D01*
G75*
G02*
X129725000Y-148275000I200000J0D01*
G01*
X130275000Y-148275000D01*
G75*
G02*
X130475000Y-148475000I0J-200000D01*
G01*
X130475000Y-148875000D01*
G75*
G02*
X130275000Y-149075000I-200000J0D01*
G01*
G37*
G36*
G01*
X130275000Y-150725000D02*
X129725000Y-150725000D01*
G75*
G02*
X129525000Y-150525000I0J200000D01*
G01*
X129525000Y-150125000D01*
G75*
G02*
X129725000Y-149925000I200000J0D01*
G01*
X130275000Y-149925000D01*
G75*
G02*
X130475000Y-150125000I0J-200000D01*
G01*
X130475000Y-150525000D01*
G75*
G02*
X130275000Y-150725000I-200000J0D01*
G01*
G37*
G04 #@! TD*
G04 #@! TO.C,R9*
G36*
G01*
X133525000Y-140575000D02*
X132975000Y-140575000D01*
G75*
G02*
X132775000Y-140375000I0J200000D01*
G01*
X132775000Y-139975000D01*
G75*
G02*
X132975000Y-139775000I200000J0D01*
G01*
X133525000Y-139775000D01*
G75*
G02*
X133725000Y-139975000I0J-200000D01*
G01*
X133725000Y-140375000D01*
G75*
G02*
X133525000Y-140575000I-200000J0D01*
G01*
G37*
G36*
G01*
X133525000Y-142225000D02*
X132975000Y-142225000D01*
G75*
G02*
X132775000Y-142025000I0J200000D01*
G01*
X132775000Y-141625000D01*
G75*
G02*
X132975000Y-141425000I200000J0D01*
G01*
X133525000Y-141425000D01*
G75*
G02*
X133725000Y-141625000I0J-200000D01*
G01*
X133725000Y-142025000D01*
G75*
G02*
X133525000Y-142225000I-200000J0D01*
G01*
G37*
G04 #@! TD*
G04 #@! TO.C,R15*
G36*
G01*
X63725000Y-126425000D02*
X64275000Y-126425000D01*
G75*
G02*
X64475000Y-126625000I0J-200000D01*
G01*
X64475000Y-127025000D01*
G75*
G02*
X64275000Y-127225000I-200000J0D01*
G01*
X63725000Y-127225000D01*
G75*
G02*
X63525000Y-127025000I0J200000D01*
G01*
X63525000Y-126625000D01*
G75*
G02*
X63725000Y-126425000I200000J0D01*
G01*
G37*
G36*
G01*
X63725000Y-124775000D02*
X64275000Y-124775000D01*
G75*
G02*
X64475000Y-124975000I0J-200000D01*
G01*
X64475000Y-125375000D01*
G75*
G02*
X64275000Y-125575000I-200000J0D01*
G01*
X63725000Y-125575000D01*
G75*
G02*
X63525000Y-125375000I0J200000D01*
G01*
X63525000Y-124975000D01*
G75*
G02*
X63725000Y-124775000I200000J0D01*
G01*
G37*
G04 #@! TD*
G04 #@! TO.C,R10*
G36*
G01*
X130275000Y-146075000D02*
X129725000Y-146075000D01*
G75*
G02*
X129525000Y-145875000I0J200000D01*
G01*
X129525000Y-145475000D01*
G75*
G02*
X129725000Y-145275000I200000J0D01*
G01*
X130275000Y-145275000D01*
G75*
G02*
X130475000Y-145475000I0J-200000D01*
G01*
X130475000Y-145875000D01*
G75*
G02*
X130275000Y-146075000I-200000J0D01*
G01*
G37*
G36*
G01*
X130275000Y-147725000D02*
X129725000Y-147725000D01*
G75*
G02*
X129525000Y-147525000I0J200000D01*
G01*
X129525000Y-147125000D01*
G75*
G02*
X129725000Y-146925000I200000J0D01*
G01*
X130275000Y-146925000D01*
G75*
G02*
X130475000Y-147125000I0J-200000D01*
G01*
X130475000Y-147525000D01*
G75*
G02*
X130275000Y-147725000I-200000J0D01*
G01*
G37*
G04 #@! TD*
D18*
G04 #@! TO.C,J1*
X57740000Y-158540000D03*
X57740000Y-156000000D03*
X60280000Y-158540000D03*
X60280000Y-156000000D03*
X62820000Y-158540000D03*
X62820000Y-156000000D03*
X65360000Y-158540000D03*
X65360000Y-156000000D03*
X67900000Y-158540000D03*
X67900000Y-156000000D03*
X70440000Y-158540000D03*
X70440000Y-156000000D03*
X72980000Y-158540000D03*
X72980000Y-156000000D03*
X75520000Y-158540000D03*
X75520000Y-156000000D03*
X78060000Y-158540000D03*
X78060000Y-156000000D03*
X80600000Y-158540000D03*
X80600000Y-156000000D03*
X83140000Y-158540000D03*
X83140000Y-156000000D03*
X85680000Y-158540000D03*
X85680000Y-156000000D03*
X88220000Y-158540000D03*
X88220000Y-156000000D03*
X90760000Y-158540000D03*
X90760000Y-156000000D03*
X93300000Y-158540000D03*
X93300000Y-156000000D03*
X95840000Y-158540000D03*
X95840000Y-156000000D03*
X98380000Y-158540000D03*
X98380000Y-156000000D03*
X100920000Y-158540000D03*
X100920000Y-156000000D03*
X103460000Y-158540000D03*
X103460000Y-156000000D03*
X106000000Y-158540000D03*
D19*
X106000000Y-156000000D03*
G04 #@! TD*
D31*
G04 #@! TO.C,Y1*
X122900000Y-141800000D03*
X125100000Y-141800000D03*
X125100000Y-140200000D03*
X122900000Y-140200000D03*
G04 #@! TD*
G04 #@! TO.C,R5*
G36*
G01*
X118275000Y-140575000D02*
X117725000Y-140575000D01*
G75*
G02*
X117525000Y-140375000I0J200000D01*
G01*
X117525000Y-139975000D01*
G75*
G02*
X117725000Y-139775000I200000J0D01*
G01*
X118275000Y-139775000D01*
G75*
G02*
X118475000Y-139975000I0J-200000D01*
G01*
X118475000Y-140375000D01*
G75*
G02*
X118275000Y-140575000I-200000J0D01*
G01*
G37*
G36*
G01*
X118275000Y-142225000D02*
X117725000Y-142225000D01*
G75*
G02*
X117525000Y-142025000I0J200000D01*
G01*
X117525000Y-141625000D01*
G75*
G02*
X117725000Y-141425000I200000J0D01*
G01*
X118275000Y-141425000D01*
G75*
G02*
X118475000Y-141625000I0J-200000D01*
G01*
X118475000Y-142025000D01*
G75*
G02*
X118275000Y-142225000I-200000J0D01*
G01*
G37*
G04 #@! TD*
G04 #@! TO.C,R2*
G36*
G01*
X99925000Y-126425000D02*
X100475000Y-126425000D01*
G75*
G02*
X100675000Y-126625000I0J-200000D01*
G01*
X100675000Y-127025000D01*
G75*
G02*
X100475000Y-127225000I-200000J0D01*
G01*
X99925000Y-127225000D01*
G75*
G02*
X99725000Y-127025000I0J200000D01*
G01*
X99725000Y-126625000D01*
G75*
G02*
X99925000Y-126425000I200000J0D01*
G01*
G37*
G36*
G01*
X99925000Y-124775000D02*
X100475000Y-124775000D01*
G75*
G02*
X100675000Y-124975000I0J-200000D01*
G01*
X100675000Y-125375000D01*
G75*
G02*
X100475000Y-125575000I-200000J0D01*
G01*
X99925000Y-125575000D01*
G75*
G02*
X99725000Y-125375000I0J200000D01*
G01*
X99725000Y-124975000D01*
G75*
G02*
X99925000Y-124775000I200000J0D01*
G01*
G37*
G04 #@! TD*
D32*
G04 #@! TO.C,J3*
X163040000Y-98100000D03*
X163040000Y-153700000D03*
D33*
X163500000Y-102800000D03*
X163500000Y-107000000D03*
X163500000Y-111200000D03*
X163500000Y-115400000D03*
X163500000Y-119600000D03*
X163500000Y-123800000D03*
X163500000Y-128000000D03*
X163500000Y-132200000D03*
X163500000Y-136400000D03*
X163500000Y-140600000D03*
X163500000Y-144800000D03*
X163500000Y-149000000D03*
X158000000Y-102800000D03*
X158000000Y-107000000D03*
X158000000Y-111200000D03*
X158000000Y-115400000D03*
X158000000Y-119600000D03*
X158000000Y-123800000D03*
X158000000Y-128000000D03*
X158000000Y-132200000D03*
X158000000Y-136400000D03*
X158000000Y-140600000D03*
X158000000Y-144800000D03*
G36*
G01*
X159399999Y-150350000D02*
X156600001Y-150350000D01*
G75*
G02*
X156350000Y-150099999I0J250001D01*
G01*
X156350000Y-147900001D01*
G75*
G02*
X156600001Y-147650000I250001J0D01*
G01*
X159399999Y-147650000D01*
G75*
G02*
X159650000Y-147900001I0J-250001D01*
G01*
X159650000Y-150099999D01*
G75*
G02*
X159399999Y-150350000I-250001J0D01*
G01*
G37*
G04 #@! TD*
G04 #@! TO.C,R4*
G36*
G01*
X98325000Y-126425000D02*
X98875000Y-126425000D01*
G75*
G02*
X99075000Y-126625000I0J-200000D01*
G01*
X99075000Y-127025000D01*
G75*
G02*
X98875000Y-127225000I-200000J0D01*
G01*
X98325000Y-127225000D01*
G75*
G02*
X98125000Y-127025000I0J200000D01*
G01*
X98125000Y-126625000D01*
G75*
G02*
X98325000Y-126425000I200000J0D01*
G01*
G37*
G36*
G01*
X98325000Y-124775000D02*
X98875000Y-124775000D01*
G75*
G02*
X99075000Y-124975000I0J-200000D01*
G01*
X99075000Y-125375000D01*
G75*
G02*
X98875000Y-125575000I-200000J0D01*
G01*
X98325000Y-125575000D01*
G75*
G02*
X98125000Y-125375000I0J200000D01*
G01*
X98125000Y-124975000D01*
G75*
G02*
X98325000Y-124775000I200000J0D01*
G01*
G37*
G04 #@! TD*
G04 #@! TO.C,R14*
G36*
G01*
X50725000Y-126425000D02*
X51275000Y-126425000D01*
G75*
G02*
X51475000Y-126625000I0J-200000D01*
G01*
X51475000Y-127025000D01*
G75*
G02*
X51275000Y-127225000I-200000J0D01*
G01*
X50725000Y-127225000D01*
G75*
G02*
X50525000Y-127025000I0J200000D01*
G01*
X50525000Y-126625000D01*
G75*
G02*
X50725000Y-126425000I200000J0D01*
G01*
G37*
G36*
G01*
X50725000Y-124775000D02*
X51275000Y-124775000D01*
G75*
G02*
X51475000Y-124975000I0J-200000D01*
G01*
X51475000Y-125375000D01*
G75*
G02*
X51275000Y-125575000I-200000J0D01*
G01*
X50725000Y-125575000D01*
G75*
G02*
X50525000Y-125375000I0J200000D01*
G01*
X50525000Y-124975000D01*
G75*
G02*
X50725000Y-124775000I200000J0D01*
G01*
G37*
G04 #@! TD*
G04 #@! TO.C,R1*
G36*
G01*
X82925000Y-126425000D02*
X83475000Y-126425000D01*
G75*
G02*
X83675000Y-126625000I0J-200000D01*
G01*
X83675000Y-127025000D01*
G75*
G02*
X83475000Y-127225000I-200000J0D01*
G01*
X82925000Y-127225000D01*
G75*
G02*
X82725000Y-127025000I0J200000D01*
G01*
X82725000Y-126625000D01*
G75*
G02*
X82925000Y-126425000I200000J0D01*
G01*
G37*
G36*
G01*
X82925000Y-124775000D02*
X83475000Y-124775000D01*
G75*
G02*
X83675000Y-124975000I0J-200000D01*
G01*
X83675000Y-125375000D01*
G75*
G02*
X83475000Y-125575000I-200000J0D01*
G01*
X82925000Y-125575000D01*
G75*
G02*
X82725000Y-125375000I0J200000D01*
G01*
X82725000Y-124975000D01*
G75*
G02*
X82925000Y-124775000I200000J0D01*
G01*
G37*
G04 #@! TD*
G04 #@! TO.C,R12*
G36*
G01*
X130525000Y-140575000D02*
X129975000Y-140575000D01*
G75*
G02*
X129775000Y-140375000I0J200000D01*
G01*
X129775000Y-139975000D01*
G75*
G02*
X129975000Y-139775000I200000J0D01*
G01*
X130525000Y-139775000D01*
G75*
G02*
X130725000Y-139975000I0J-200000D01*
G01*
X130725000Y-140375000D01*
G75*
G02*
X130525000Y-140575000I-200000J0D01*
G01*
G37*
G36*
G01*
X130525000Y-142225000D02*
X129975000Y-142225000D01*
G75*
G02*
X129775000Y-142025000I0J200000D01*
G01*
X129775000Y-141625000D01*
G75*
G02*
X129975000Y-141425000I200000J0D01*
G01*
X130525000Y-141425000D01*
G75*
G02*
X130725000Y-141625000I0J-200000D01*
G01*
X130725000Y-142025000D01*
G75*
G02*
X130525000Y-142225000I-200000J0D01*
G01*
G37*
G04 #@! TD*
G04 #@! TO.C,R13*
G36*
G01*
X131225000Y-149925000D02*
X131775000Y-149925000D01*
G75*
G02*
X131975000Y-150125000I0J-200000D01*
G01*
X131975000Y-150525000D01*
G75*
G02*
X131775000Y-150725000I-200000J0D01*
G01*
X131225000Y-150725000D01*
G75*
G02*
X131025000Y-150525000I0J200000D01*
G01*
X131025000Y-150125000D01*
G75*
G02*
X131225000Y-149925000I200000J0D01*
G01*
G37*
G36*
G01*
X131225000Y-148275000D02*
X131775000Y-148275000D01*
G75*
G02*
X131975000Y-148475000I0J-200000D01*
G01*
X131975000Y-148875000D01*
G75*
G02*
X131775000Y-149075000I-200000J0D01*
G01*
X131225000Y-149075000D01*
G75*
G02*
X131025000Y-148875000I0J200000D01*
G01*
X131025000Y-148475000D01*
G75*
G02*
X131225000Y-148275000I200000J0D01*
G01*
G37*
G04 #@! TD*
D34*
G04 #@! TO.C,H3*
X165187056Y-163242944D03*
X163490000Y-162540000D03*
X161792944Y-163242944D03*
X161090000Y-164940000D03*
X161792944Y-166637056D03*
X163490000Y-167340000D03*
X165187056Y-166637056D03*
X165890000Y-164940000D03*
D35*
X163490000Y-164940000D03*
G04 #@! TD*
G04 #@! TO.C,R6*
G36*
G01*
X48925000Y-126425000D02*
X49475000Y-126425000D01*
G75*
G02*
X49675000Y-126625000I0J-200000D01*
G01*
X49675000Y-127025000D01*
G75*
G02*
X49475000Y-127225000I-200000J0D01*
G01*
X48925000Y-127225000D01*
G75*
G02*
X48725000Y-127025000I0J200000D01*
G01*
X48725000Y-126625000D01*
G75*
G02*
X48925000Y-126425000I200000J0D01*
G01*
G37*
G36*
G01*
X48925000Y-124775000D02*
X49475000Y-124775000D01*
G75*
G02*
X49675000Y-124975000I0J-200000D01*
G01*
X49675000Y-125375000D01*
G75*
G02*
X49475000Y-125575000I-200000J0D01*
G01*
X48925000Y-125575000D01*
G75*
G02*
X48725000Y-125375000I0J200000D01*
G01*
X48725000Y-124975000D01*
G75*
G02*
X48925000Y-124775000I200000J0D01*
G01*
G37*
G04 #@! TD*
G04 #@! TO.C,C1*
G36*
G01*
X119250000Y-141325000D02*
X119750000Y-141325000D01*
G75*
G02*
X119975000Y-141550000I0J-225000D01*
G01*
X119975000Y-142000000D01*
G75*
G02*
X119750000Y-142225000I-225000J0D01*
G01*
X119250000Y-142225000D01*
G75*
G02*
X119025000Y-142000000I0J225000D01*
G01*
X119025000Y-141550000D01*
G75*
G02*
X119250000Y-141325000I225000J0D01*
G01*
G37*
G36*
G01*
X119250000Y-139775000D02*
X119750000Y-139775000D01*
G75*
G02*
X119975000Y-140000000I0J-225000D01*
G01*
X119975000Y-140450000D01*
G75*
G02*
X119750000Y-140675000I-225000J0D01*
G01*
X119250000Y-140675000D01*
G75*
G02*
X119025000Y-140450000I0J225000D01*
G01*
X119025000Y-140000000D01*
G75*
G02*
X119250000Y-139775000I225000J0D01*
G01*
G37*
G04 #@! TD*
G04 #@! TO.C,R8*
G36*
G01*
X132025000Y-140575000D02*
X131475000Y-140575000D01*
G75*
G02*
X131275000Y-140375000I0J200000D01*
G01*
X131275000Y-139975000D01*
G75*
G02*
X131475000Y-139775000I200000J0D01*
G01*
X132025000Y-139775000D01*
G75*
G02*
X132225000Y-139975000I0J-200000D01*
G01*
X132225000Y-140375000D01*
G75*
G02*
X132025000Y-140575000I-200000J0D01*
G01*
G37*
G36*
G01*
X132025000Y-142225000D02*
X131475000Y-142225000D01*
G75*
G02*
X131275000Y-142025000I0J200000D01*
G01*
X131275000Y-141625000D01*
G75*
G02*
X131475000Y-141425000I200000J0D01*
G01*
X132025000Y-141425000D01*
G75*
G02*
X132225000Y-141625000I0J-200000D01*
G01*
X132225000Y-142025000D01*
G75*
G02*
X132025000Y-142225000I-200000J0D01*
G01*
G37*
G04 #@! TD*
G04 #@! TO.C,R7*
G36*
G01*
X65725000Y-126425000D02*
X66275000Y-126425000D01*
G75*
G02*
X66475000Y-126625000I0J-200000D01*
G01*
X66475000Y-127025000D01*
G75*
G02*
X66275000Y-127225000I-200000J0D01*
G01*
X65725000Y-127225000D01*
G75*
G02*
X65525000Y-127025000I0J200000D01*
G01*
X65525000Y-126625000D01*
G75*
G02*
X65725000Y-126425000I200000J0D01*
G01*
G37*
G36*
G01*
X65725000Y-124775000D02*
X66275000Y-124775000D01*
G75*
G02*
X66475000Y-124975000I0J-200000D01*
G01*
X66475000Y-125375000D01*
G75*
G02*
X66275000Y-125575000I-200000J0D01*
G01*
X65725000Y-125575000D01*
G75*
G02*
X65525000Y-125375000I0J200000D01*
G01*
X65525000Y-124975000D01*
G75*
G02*
X65725000Y-124775000I200000J0D01*
G01*
G37*
G04 #@! TD*
D34*
G04 #@! TO.C,H1*
X7707056Y-8302944D03*
X6010000Y-7600000D03*
X4312944Y-8302944D03*
X3610000Y-10000000D03*
X4312944Y-11697056D03*
X6010000Y-12400000D03*
X7707056Y-11697056D03*
X8410000Y-10000000D03*
D35*
X6010000Y-10000000D03*
G04 #@! TD*
G04 #@! TO.C,C2*
G36*
G01*
X124175000Y-154250000D02*
X124175000Y-154750000D01*
G75*
G02*
X123950000Y-154975000I-225000J0D01*
G01*
X123500000Y-154975000D01*
G75*
G02*
X123275000Y-154750000I0J225000D01*
G01*
X123275000Y-154250000D01*
G75*
G02*
X123500000Y-154025000I225000J0D01*
G01*
X123950000Y-154025000D01*
G75*
G02*
X124175000Y-154250000I0J-225000D01*
G01*
G37*
G36*
G01*
X125725000Y-154250000D02*
X125725000Y-154750000D01*
G75*
G02*
X125500000Y-154975000I-225000J0D01*
G01*
X125050000Y-154975000D01*
G75*
G02*
X124825000Y-154750000I0J225000D01*
G01*
X124825000Y-154250000D01*
G75*
G02*
X125050000Y-154025000I225000J0D01*
G01*
X125500000Y-154025000D01*
G75*
G02*
X125725000Y-154250000I0J-225000D01*
G01*
G37*
G04 #@! TD*
D34*
G04 #@! TO.C,H4*
X7697056Y-163302944D03*
X6000000Y-162600000D03*
X4302944Y-163302944D03*
X3600000Y-165000000D03*
X4302944Y-166697056D03*
X6000000Y-167400000D03*
X7697056Y-166697056D03*
X8400000Y-165000000D03*
D35*
X6000000Y-165000000D03*
G04 #@! TD*
G04 #@! TO.C,R3*
G36*
G01*
X84725000Y-126425000D02*
X85275000Y-126425000D01*
G75*
G02*
X85475000Y-126625000I0J-200000D01*
G01*
X85475000Y-127025000D01*
G75*
G02*
X85275000Y-127225000I-200000J0D01*
G01*
X84725000Y-127225000D01*
G75*
G02*
X84525000Y-127025000I0J200000D01*
G01*
X84525000Y-126625000D01*
G75*
G02*
X84725000Y-126425000I200000J0D01*
G01*
G37*
G36*
G01*
X84725000Y-124775000D02*
X85275000Y-124775000D01*
G75*
G02*
X85475000Y-124975000I0J-200000D01*
G01*
X85475000Y-125375000D01*
G75*
G02*
X85275000Y-125575000I-200000J0D01*
G01*
X84725000Y-125575000D01*
G75*
G02*
X84525000Y-125375000I0J200000D01*
G01*
X84525000Y-124975000D01*
G75*
G02*
X84725000Y-124775000I200000J0D01*
G01*
G37*
G04 #@! TD*
D34*
G04 #@! TO.C,H2*
X165187056Y-31162944D03*
X163490000Y-30460000D03*
X161792944Y-31162944D03*
X161090000Y-32860000D03*
X161792944Y-34557056D03*
X163490000Y-35260000D03*
X165187056Y-34557056D03*
X165890000Y-32860000D03*
D35*
X163490000Y-32860000D03*
G04 #@! TD*
D36*
G04 #@! TO.C,J2*
X146897000Y-20959000D03*
X142833000Y-20959000D03*
X148167000Y-19689000D03*
X141563000Y-19689000D03*
X146897000Y-18419000D03*
X142833000Y-18419000D03*
X148167000Y-17149000D03*
X141563000Y-17149000D03*
X146897000Y-15879000D03*
X142833000Y-15879000D03*
X148167000Y-14609000D03*
X141563000Y-14609000D03*
X146897000Y-13339000D03*
X142833000Y-13339000D03*
X148167000Y-12069000D03*
X141563000Y-12069000D03*
D37*
X150580000Y-7370000D03*
X97240000Y-7370000D03*
D38*
X94446000Y-18800000D03*
X153374000Y-2798000D03*
X153374000Y-22864000D03*
X94446000Y-2798000D03*
X137880000Y-24642000D03*
D36*
X132927000Y-20959000D03*
X128863000Y-20959000D03*
X134197000Y-19689000D03*
X127593000Y-19689000D03*
X132927000Y-18419000D03*
X128863000Y-18419000D03*
X134197000Y-17149000D03*
X127593000Y-17149000D03*
X132927000Y-15879000D03*
X128863000Y-15879000D03*
X134197000Y-14609000D03*
X127593000Y-14609000D03*
X132927000Y-13339000D03*
X128863000Y-13339000D03*
X134197000Y-12069000D03*
X127593000Y-12069000D03*
D38*
X123910000Y-24642000D03*
X109940000Y-24642000D03*
D36*
X118957000Y-20959000D03*
X114893000Y-20959000D03*
X120227000Y-19689000D03*
X113623000Y-19689000D03*
X118957000Y-18419000D03*
X114893000Y-18419000D03*
X120227000Y-17149000D03*
X113623000Y-17149000D03*
X118957000Y-15879000D03*
X114893000Y-15879000D03*
X120227000Y-14609000D03*
X113623000Y-14609000D03*
X118957000Y-13339000D03*
X114893000Y-13339000D03*
X120227000Y-12069000D03*
X113623000Y-12069000D03*
X104987000Y-20959000D03*
X100923000Y-20959000D03*
X106257000Y-19689000D03*
X99653000Y-19689000D03*
X104987000Y-18419000D03*
X100923000Y-18419000D03*
X106257000Y-17149000D03*
X99653000Y-17149000D03*
X104987000Y-15879000D03*
X100923000Y-15879000D03*
X106257000Y-14609000D03*
X99653000Y-14609000D03*
X104987000Y-13339000D03*
X100923000Y-13339000D03*
X106257000Y-12069000D03*
X99653000Y-12069000D03*
D39*
X151850000Y-19155600D03*
X151850000Y-12805600D03*
D40*
X151850000Y-4474400D03*
D39*
X149310000Y-4474400D03*
X140978800Y-6938200D03*
X138438800Y-6938200D03*
X137346600Y-9478200D03*
X134806600Y-9478200D03*
X137880000Y-12805600D03*
X137880000Y-15345600D03*
X137880000Y-17885600D03*
X137880000Y-20425600D03*
X127008800Y-6938200D03*
X124468800Y-6938200D03*
X123376600Y-9478200D03*
X120836600Y-9478200D03*
X113038800Y-6938200D03*
X110498800Y-6938200D03*
X109406600Y-9478200D03*
X106866600Y-9478200D03*
X123910000Y-12805600D03*
X123910000Y-15345600D03*
X123910000Y-17885600D03*
X123910000Y-20425600D03*
X109940000Y-12805600D03*
X109940000Y-15345600D03*
X109940000Y-17885600D03*
X109940000Y-20425600D03*
X95970000Y-12805600D03*
X95970000Y-15345600D03*
X98510000Y-4474400D03*
D40*
X95970000Y-4474400D03*
G04 #@! TD*
D28*
G04 #@! TO.C,W4*
X53750000Y-127000000D03*
X53750000Y-123000000D03*
X53750000Y-121000000D03*
X53750000Y-119000000D03*
X53750000Y-117000000D03*
X55750000Y-118000000D03*
X55750000Y-120000000D03*
X55750000Y-122000000D03*
X55750000Y-136000000D03*
X55750000Y-128000000D03*
X55750000Y-126000000D03*
X58250000Y-126000000D03*
X58250000Y-118000000D03*
X58250000Y-120000000D03*
X58250000Y-122000000D03*
X58250000Y-136000000D03*
X58250000Y-128000000D03*
X60250000Y-127000000D03*
X60250000Y-123000000D03*
X60250000Y-121000000D03*
X60250000Y-119000000D03*
X60250000Y-117000000D03*
X53750000Y-129000000D03*
X53750000Y-131000000D03*
X53750000Y-133000000D03*
X53750000Y-135000000D03*
X55750000Y-134000000D03*
X55750000Y-132000000D03*
X55750000Y-130000000D03*
X58250000Y-130000000D03*
X58250000Y-132000000D03*
X58250000Y-134000000D03*
X60250000Y-129000000D03*
X60250000Y-131000000D03*
X60250000Y-133000000D03*
X60250000Y-135000000D03*
D29*
X57000000Y-124350000D03*
X57000000Y-115200000D03*
G04 #@! TD*
D28*
G04 #@! TO.C,W3*
X70750000Y-127000000D03*
X70750000Y-123000000D03*
X70750000Y-121000000D03*
X70750000Y-119000000D03*
X70750000Y-117000000D03*
X72750000Y-118000000D03*
X72750000Y-120000000D03*
X72750000Y-122000000D03*
X72750000Y-136000000D03*
X72750000Y-128000000D03*
X72750000Y-126000000D03*
X75250000Y-126000000D03*
X75250000Y-118000000D03*
X75250000Y-120000000D03*
X75250000Y-122000000D03*
X75250000Y-136000000D03*
X75250000Y-128000000D03*
X77250000Y-127000000D03*
X77250000Y-123000000D03*
X77250000Y-121000000D03*
X77250000Y-119000000D03*
X77250000Y-117000000D03*
X70750000Y-129000000D03*
X70750000Y-131000000D03*
X70750000Y-133000000D03*
X70750000Y-135000000D03*
X72750000Y-134000000D03*
X72750000Y-132000000D03*
X72750000Y-130000000D03*
X75250000Y-130000000D03*
X75250000Y-132000000D03*
X75250000Y-134000000D03*
X77250000Y-129000000D03*
X77250000Y-131000000D03*
X77250000Y-133000000D03*
X77250000Y-135000000D03*
D29*
X74000000Y-124350000D03*
X74000000Y-115200000D03*
G04 #@! TD*
G04 #@! TO.C,D1*
G36*
G01*
X140743750Y-74350000D02*
X141256250Y-74350000D01*
G75*
G02*
X141475000Y-74568750I0J-218750D01*
G01*
X141475000Y-75006250D01*
G75*
G02*
X141256250Y-75225000I-218750J0D01*
G01*
X140743750Y-75225000D01*
G75*
G02*
X140525000Y-75006250I0J218750D01*
G01*
X140525000Y-74568750D01*
G75*
G02*
X140743750Y-74350000I218750J0D01*
G01*
G37*
G36*
G01*
X140743750Y-72775000D02*
X141256250Y-72775000D01*
G75*
G02*
X141475000Y-72993750I0J-218750D01*
G01*
X141475000Y-73431250D01*
G75*
G02*
X141256250Y-73650000I-218750J0D01*
G01*
X140743750Y-73650000D01*
G75*
G02*
X140525000Y-73431250I0J218750D01*
G01*
X140525000Y-72993750D01*
G75*
G02*
X140743750Y-72775000I218750J0D01*
G01*
G37*
G04 #@! TD*
G04 #@! TO.C,R16*
G36*
G01*
X138725000Y-74425000D02*
X139275000Y-74425000D01*
G75*
G02*
X139475000Y-74625000I0J-200000D01*
G01*
X139475000Y-75025000D01*
G75*
G02*
X139275000Y-75225000I-200000J0D01*
G01*
X138725000Y-75225000D01*
G75*
G02*
X138525000Y-75025000I0J200000D01*
G01*
X138525000Y-74625000D01*
G75*
G02*
X138725000Y-74425000I200000J0D01*
G01*
G37*
G36*
G01*
X138725000Y-72775000D02*
X139275000Y-72775000D01*
G75*
G02*
X139475000Y-72975000I0J-200000D01*
G01*
X139475000Y-73375000D01*
G75*
G02*
X139275000Y-73575000I-200000J0D01*
G01*
X138725000Y-73575000D01*
G75*
G02*
X138525000Y-73375000I0J200000D01*
G01*
X138525000Y-72975000D01*
G75*
G02*
X138725000Y-72775000I200000J0D01*
G01*
G37*
G04 #@! TD*
G04 #@! TO.C,D2*
G36*
G01*
X141256250Y-62650000D02*
X140743750Y-62650000D01*
G75*
G02*
X140525000Y-62431250I0J218750D01*
G01*
X140525000Y-61993750D01*
G75*
G02*
X140743750Y-61775000I218750J0D01*
G01*
X141256250Y-61775000D01*
G75*
G02*
X141475000Y-61993750I0J-218750D01*
G01*
X141475000Y-62431250D01*
G75*
G02*
X141256250Y-62650000I-218750J0D01*
G01*
G37*
G36*
G01*
X141256250Y-64225000D02*
X140743750Y-64225000D01*
G75*
G02*
X140525000Y-64006250I0J218750D01*
G01*
X140525000Y-63568750D01*
G75*
G02*
X140743750Y-63350000I218750J0D01*
G01*
X141256250Y-63350000D01*
G75*
G02*
X141475000Y-63568750I0J-218750D01*
G01*
X141475000Y-64006250D01*
G75*
G02*
X141256250Y-64225000I-218750J0D01*
G01*
G37*
G04 #@! TD*
G04 #@! TO.C,D3*
G36*
G01*
X165743750Y-74350000D02*
X166256250Y-74350000D01*
G75*
G02*
X166475000Y-74568750I0J-218750D01*
G01*
X166475000Y-75006250D01*
G75*
G02*
X166256250Y-75225000I-218750J0D01*
G01*
X165743750Y-75225000D01*
G75*
G02*
X165525000Y-75006250I0J218750D01*
G01*
X165525000Y-74568750D01*
G75*
G02*
X165743750Y-74350000I218750J0D01*
G01*
G37*
G36*
G01*
X165743750Y-72775000D02*
X166256250Y-72775000D01*
G75*
G02*
X166475000Y-72993750I0J-218750D01*
G01*
X166475000Y-73431250D01*
G75*
G02*
X166256250Y-73650000I-218750J0D01*
G01*
X165743750Y-73650000D01*
G75*
G02*
X165525000Y-73431250I0J218750D01*
G01*
X165525000Y-72993750D01*
G75*
G02*
X165743750Y-72775000I218750J0D01*
G01*
G37*
G04 #@! TD*
G04 #@! TO.C,R17*
G36*
G01*
X139275000Y-62575000D02*
X138725000Y-62575000D01*
G75*
G02*
X138525000Y-62375000I0J200000D01*
G01*
X138525000Y-61975000D01*
G75*
G02*
X138725000Y-61775000I200000J0D01*
G01*
X139275000Y-61775000D01*
G75*
G02*
X139475000Y-61975000I0J-200000D01*
G01*
X139475000Y-62375000D01*
G75*
G02*
X139275000Y-62575000I-200000J0D01*
G01*
G37*
G36*
G01*
X139275000Y-64225000D02*
X138725000Y-64225000D01*
G75*
G02*
X138525000Y-64025000I0J200000D01*
G01*
X138525000Y-63625000D01*
G75*
G02*
X138725000Y-63425000I200000J0D01*
G01*
X139275000Y-63425000D01*
G75*
G02*
X139475000Y-63625000I0J-200000D01*
G01*
X139475000Y-64025000D01*
G75*
G02*
X139275000Y-64225000I-200000J0D01*
G01*
G37*
G04 #@! TD*
G04 #@! TO.C,R18*
G36*
G01*
X167725000Y-74425000D02*
X168275000Y-74425000D01*
G75*
G02*
X168475000Y-74625000I0J-200000D01*
G01*
X168475000Y-75025000D01*
G75*
G02*
X168275000Y-75225000I-200000J0D01*
G01*
X167725000Y-75225000D01*
G75*
G02*
X167525000Y-75025000I0J200000D01*
G01*
X167525000Y-74625000D01*
G75*
G02*
X167725000Y-74425000I200000J0D01*
G01*
G37*
G36*
G01*
X167725000Y-72775000D02*
X168275000Y-72775000D01*
G75*
G02*
X168475000Y-72975000I0J-200000D01*
G01*
X168475000Y-73375000D01*
G75*
G02*
X168275000Y-73575000I-200000J0D01*
G01*
X167725000Y-73575000D01*
G75*
G02*
X167525000Y-73375000I0J200000D01*
G01*
X167525000Y-72975000D01*
G75*
G02*
X167725000Y-72775000I200000J0D01*
G01*
G37*
G04 #@! TD*
G04 #@! TO.C,C5*
G36*
G01*
X119250000Y-144925000D02*
X118750000Y-144925000D01*
G75*
G02*
X118525000Y-144700000I0J225000D01*
G01*
X118525000Y-144250000D01*
G75*
G02*
X118750000Y-144025000I225000J0D01*
G01*
X119250000Y-144025000D01*
G75*
G02*
X119475000Y-144250000I0J-225000D01*
G01*
X119475000Y-144700000D01*
G75*
G02*
X119250000Y-144925000I-225000J0D01*
G01*
G37*
G36*
G01*
X119250000Y-146475000D02*
X118750000Y-146475000D01*
G75*
G02*
X118525000Y-146250000I0J225000D01*
G01*
X118525000Y-145800000D01*
G75*
G02*
X118750000Y-145575000I225000J0D01*
G01*
X119250000Y-145575000D01*
G75*
G02*
X119475000Y-145800000I0J-225000D01*
G01*
X119475000Y-146250000D01*
G75*
G02*
X119250000Y-146475000I-225000J0D01*
G01*
G37*
G04 #@! TD*
M02*
